<svg width="1600" height="1450" viewBox="0 0 1600 1450" fill="none" xmlns="http://www.w3.org/2000/svg">
<path d="M1103 41V9" stroke="white" stroke-width="2" stroke-linecap="round" stroke-linejoin="round"/>
<path d="M1096 16L1103 9L1110 16" stroke="white" stroke-width="2" stroke-linecap="round" stroke-linejoin="round"/>
<path d="M983.5 197V149" stroke="white" stroke-width="3" stroke-linecap="round" stroke-linejoin="round"/>
<path d="M973 159.5L983.5 149L994 159.5" stroke="white" stroke-width="3" stroke-linecap="round" stroke-linejoin="round"/>
<path d="M572.979 821.198V772.575" stroke="white" stroke-width="3.0389" stroke-linecap="round" stroke-linejoin="round"/>
<path d="M583.616 783.211L572.98 772.575L562.344 783.211" stroke="white" stroke-width="3.0389" stroke-linecap="round" stroke-linejoin="round"/>
<path d="M1103.5 35V9" stroke="white" stroke-width="1.625" stroke-linecap="round" stroke-linejoin="round"/>
<path d="M1097.81 14.6875L1103.5 9L1109.19 14.6875" stroke="white" stroke-width="1.625" stroke-linecap="round" stroke-linejoin="round"/>
<path d="M1448.69 126V100" stroke="white" stroke-width="1.625" stroke-linecap="round" stroke-linejoin="round"/>
<path d="M1443 105.688L1448.69 100L1454.38 105.688" stroke="white" stroke-width="1.625" stroke-linecap="round" stroke-linejoin="round"/>
<path d="M101.762 749.278V722.94" stroke="white" stroke-width="1.64607" stroke-linecap="round" stroke-linejoin="round"/>
<path d="M107.522 728.702L101.761 722.94L96 728.702" stroke="white" stroke-width="1.64607" stroke-linecap="round" stroke-linejoin="round"/>
<path d="M1253.16 302V283" stroke="white" stroke-width="1.1875" stroke-linecap="round" stroke-linejoin="round"/>
<path d="M1249 287.156L1253.16 283L1257.31 287.156" stroke="white" stroke-width="1.1875" stroke-linecap="round" stroke-linejoin="round"/>
<path d="M299.827 927.559V908.312" stroke="white" stroke-width="1.2029" stroke-linecap="round" stroke-linejoin="round"/>
<path d="M304.038 912.523L299.828 908.312L295.618 912.523" stroke="white" stroke-width="1.2029" stroke-linecap="round" stroke-linejoin="round"/>
<path d="M1507.5 341.286V307" stroke="white" stroke-width="2.14286" stroke-linecap="round" stroke-linejoin="round"/>
<path d="M1500 314.5L1507.5 307L1515 314.5" stroke="white" stroke-width="2.14286" stroke-linecap="round" stroke-linejoin="round"/>
<path d="M1401.12 472V444" stroke="white" stroke-width="1.75" stroke-linecap="round" stroke-linejoin="round"/>
<path d="M1395 450.125L1401.12 444L1407.25 450.125" stroke="white" stroke-width="1.75" stroke-linecap="round" stroke-linejoin="round"/>
<path d="M162.204 1232.36V1204" stroke="white" stroke-width="1.77269" stroke-linecap="round" stroke-linejoin="round"/>
<path d="M168.409 1210.2L162.205 1204L156 1210.2" stroke="white" stroke-width="1.77269" stroke-linecap="round" stroke-linejoin="round"/>
<path d="M1465.12 1149V1121" stroke="white" stroke-width="1.75" stroke-linecap="round" stroke-linejoin="round"/>
<path d="M1459 1127.12L1465.12 1121L1471.25 1127.12" stroke="white" stroke-width="1.75" stroke-linecap="round" stroke-linejoin="round"/>
<path d="M1103.5 567V519" stroke="white" stroke-width="3" stroke-linecap="round" stroke-linejoin="round"/>
<path d="M1093 529.5L1103.5 519L1114 529.5" stroke="white" stroke-width="3" stroke-linecap="round" stroke-linejoin="round"/>
<path d="M299.635 1381.62V1333" stroke="white" stroke-width="3.0389" stroke-linecap="round" stroke-linejoin="round"/>
<path d="M310.271 1343.64L299.635 1333L288.999 1343.64" stroke="white" stroke-width="3.0389" stroke-linecap="round" stroke-linejoin="round"/>
<path d="M1177.44 1285V1251" stroke="white" stroke-width="2.125" stroke-linecap="round" stroke-linejoin="round"/>
<path d="M1170 1258.44L1177.44 1251L1184.88 1258.44" stroke="white" stroke-width="2.125" stroke-linecap="round" stroke-linejoin="round"/>
<path d="M986.438 1367V1333" stroke="white" stroke-width="2.125" stroke-linecap="round" stroke-linejoin="round"/>
<path d="M979 1340.44L986.438 1333L993.875 1340.44" stroke="white" stroke-width="2.125" stroke-linecap="round" stroke-linejoin="round"/>
<path d="M515.938 1196V1178" stroke="white" stroke-width="1.125" stroke-linecap="round" stroke-linejoin="round"/>
<path d="M512 1181.94L515.938 1178L519.875 1181.94" stroke="white" stroke-width="1.125" stroke-linecap="round" stroke-linejoin="round"/>
<path d="M130.938 114V96" stroke="white" stroke-width="1.125" stroke-linecap="round" stroke-linejoin="round"/>
<path d="M127 99.9375L130.938 96L134.875 99.9375" stroke="white" stroke-width="1.125" stroke-linecap="round" stroke-linejoin="round"/>
<path d="M266 279.429V252" stroke="white" stroke-width="1.71429" stroke-linecap="round" stroke-linejoin="round"/>
<path d="M260 258L266 252L272 258" stroke="white" stroke-width="1.71429" stroke-linecap="round" stroke-linejoin="round"/>
<path d="M1342.33 866.203V838.419" stroke="white" stroke-width="1.73651" stroke-linecap="round" stroke-linejoin="round"/>
<path d="M1348.41 844.497L1342.33 838.419L1336.25 844.497" stroke="white" stroke-width="1.73651" stroke-linecap="round" stroke-linejoin="round"/>
<path d="M101 430.429V403" stroke="white" stroke-width="1.71429" stroke-linecap="round" stroke-linejoin="round"/>
<path d="M95 409L101 403L107 409" stroke="white" stroke-width="1.71429" stroke-linecap="round" stroke-linejoin="round"/>
<path d="M392.077 650.783V622.999" stroke="white" stroke-width="1.73651" stroke-linecap="round" stroke-linejoin="round"/>
<path d="M398.155 629.077L392.077 622.999L386 629.077" stroke="white" stroke-width="1.73651" stroke-linecap="round" stroke-linejoin="round"/>
<path d="M561 93.4286V66" stroke="white" stroke-width="1.71429" stroke-linecap="round" stroke-linejoin="round"/>
<path d="M555 72L561 66L567 72" stroke="white" stroke-width="1.71429" stroke-linecap="round" stroke-linejoin="round"/>
<path d="M597.031 352V329" stroke="white" stroke-width="1.4375" stroke-linecap="round" stroke-linejoin="round"/>
<path d="M592 334.031L597.031 329L602.062 334.031" stroke="white" stroke-width="1.4375" stroke-linecap="round" stroke-linejoin="round"/>
<path d="M878.098 660.298V637" stroke="white" stroke-width="1.45614" stroke-linecap="round" stroke-linejoin="round"/>
<path d="M883.193 642.096L878.097 637L873 642.096" stroke="white" stroke-width="1.45614" stroke-linecap="round" stroke-linejoin="round"/>
<path d="M823 437.143V396" stroke="white" stroke-width="2.57143" stroke-linecap="round" stroke-linejoin="round"/>
<path d="M814 405L823 396L832 405" stroke="white" stroke-width="2.57143" stroke-linecap="round" stroke-linejoin="round"/>
<path d="M749.117 1103.68V1062" stroke="white" stroke-width="2.60477" stroke-linecap="round" stroke-linejoin="round"/>
<path d="M758.232 1071.12L749.116 1062L739.999 1071.12" stroke="white" stroke-width="2.60477" stroke-linecap="round" stroke-linejoin="round"/>
<path d="M103.551 220.099C102.599 220.323 101.745 221.033 101.296 221.977L101.018 222.561V243V263.439L101.296 264.023C101.646 264.769 102.204 265.326 102.949 265.677L103.533 265.955H114H124.467L125.051 265.677C125.796 265.326 126.354 264.769 126.704 264.023L126.982 263.439V243V222.561L126.704 221.977C126.354 221.231 125.796 220.674 125.051 220.323L124.467 220.045L114.18 220.027C108.376 220.018 103.749 220.054 103.551 220.099ZM119.031 222.201C119.094 222.282 119.166 222.534 119.184 222.767C119.22 223.109 119.193 223.243 119.031 223.432L118.843 223.684H114.045C109.463 223.684 109.247 223.675 109.05 223.513C108.87 223.369 108.834 223.252 108.834 222.848C108.834 222.004 108.412 222.066 114 222.066C118.312 222.066 118.932 222.084 119.031 222.201ZM124.512 240.529V255.398H114H103.488V240.529V225.66H114H124.512V240.529ZM114.97 258.687C116.004 259.199 116.408 260.466 115.878 261.517C115.114 263.044 112.886 263.044 112.122 261.517C111.404 260.097 112.419 258.453 114 258.453C114.359 258.453 114.638 258.516 114.97 258.687Z" fill="white"/>
<path d="M750.551 1251.1C749.599 1251.32 748.745 1252.03 748.296 1252.98L748.018 1253.56V1274V1294.44L748.296 1295.02C748.646 1295.77 749.204 1296.33 749.949 1296.68L750.533 1296.96H761H771.467L772.051 1296.68C772.796 1296.33 773.354 1295.77 773.704 1295.02L773.982 1294.44V1274V1253.56L773.704 1252.98C773.354 1252.23 772.796 1251.67 772.051 1251.32L771.467 1251.04L761.18 1251.03C755.376 1251.02 750.749 1251.05 750.551 1251.1ZM766.031 1253.2C766.094 1253.28 766.166 1253.53 766.184 1253.77C766.22 1254.11 766.193 1254.24 766.031 1254.43L765.843 1254.68H761.045C756.463 1254.68 756.247 1254.67 756.05 1254.51C755.87 1254.37 755.834 1254.25 755.834 1253.85C755.834 1253 755.412 1253.07 761 1253.07C765.312 1253.07 765.932 1253.08 766.031 1253.2ZM771.512 1271.53V1286.4H761H750.488V1271.53V1256.66H761H771.512V1271.53ZM761.97 1289.69C763.004 1290.2 763.408 1291.47 762.878 1292.52C762.114 1294.04 759.886 1294.04 759.122 1292.52C758.404 1291.1 759.419 1289.45 761 1289.45C761.359 1289.45 761.638 1289.52 761.97 1289.69Z" fill="white"/>
<path d="M1409.55 205.099C1408.6 205.323 1407.75 206.033 1407.3 206.977L1407.02 207.561V228V248.439L1407.3 249.023C1407.65 249.769 1408.2 250.326 1408.95 250.677L1409.53 250.955H1420H1430.47L1431.05 250.677C1431.8 250.326 1432.35 249.769 1432.7 249.023L1432.98 248.439V228V207.561L1432.7 206.977C1432.35 206.231 1431.8 205.674 1431.05 205.323L1430.47 205.045L1420.18 205.027C1414.38 205.018 1409.75 205.054 1409.55 205.099ZM1425.03 207.201C1425.09 207.282 1425.17 207.534 1425.18 207.767C1425.22 208.109 1425.19 208.243 1425.03 208.432L1424.84 208.684H1420.04C1415.46 208.684 1415.25 208.675 1415.05 208.513C1414.87 208.369 1414.83 208.252 1414.83 207.848C1414.83 207.004 1414.41 207.066 1420 207.066C1424.31 207.066 1424.93 207.084 1425.03 207.201ZM1430.51 225.529V240.398H1420H1409.49V225.529V210.66H1420H1430.51V225.529ZM1420.97 243.687C1422 244.199 1422.41 245.466 1421.88 246.517C1421.11 248.044 1418.89 248.044 1418.12 246.517C1417.4 245.097 1418.42 243.453 1420 243.453C1420.36 243.453 1420.64 243.516 1420.97 243.687Z" fill="white"/>
<path d="M1067.55 840.099C1066.6 840.323 1065.75 841.033 1065.3 841.977L1065.02 842.561V863V883.439L1065.3 884.023C1065.65 884.769 1066.2 885.326 1066.95 885.677L1067.53 885.955H1078H1088.47L1089.05 885.677C1089.8 885.326 1090.35 884.769 1090.7 884.023L1090.98 883.439V863V842.561L1090.7 841.977C1090.35 841.231 1089.8 840.674 1089.05 840.323L1088.47 840.045L1078.18 840.027C1072.38 840.018 1067.75 840.054 1067.55 840.099ZM1083.03 842.201C1083.09 842.282 1083.17 842.534 1083.18 842.767C1083.22 843.109 1083.19 843.243 1083.03 843.432L1082.84 843.684H1078.04C1073.46 843.684 1073.25 843.675 1073.05 843.513C1072.87 843.369 1072.83 843.252 1072.83 842.848C1072.83 842.004 1072.41 842.066 1078 842.066C1082.31 842.066 1082.93 842.084 1083.03 842.201ZM1088.51 860.529V875.398H1078H1067.49V860.529V845.66H1078H1088.51V860.529ZM1078.97 878.687C1080 879.199 1080.41 880.466 1079.88 881.517C1079.11 883.044 1076.89 883.044 1076.12 881.517C1075.4 880.097 1076.42 878.453 1078 878.453C1078.36 878.453 1078.64 878.516 1078.97 878.687Z" fill="white"/>
<path d="M382.285 435.5L380.91 441.011L380.029 441.623C377.526 443.374 375.345 445.984 373.895 448.96C370.103 456.705 371.833 465.933 378.171 471.841C378.718 472.346 379.556 473.044 380.029 473.377L380.91 473.989L382.285 479.489L383.671 485H391.523H399.386L400.751 479.521L402.115 474.043L402.942 473.463C407.196 470.455 410.193 465.589 410.934 460.454L411.074 459.487L413.083 459.455L415.091 459.434V457.5V455.566L413.083 455.545L411.074 455.513L410.934 454.546C410.193 449.411 407.196 444.545 402.942 441.537L402.115 440.957L400.751 435.479L399.386 430H391.523H383.671L382.285 435.5ZM393.822 441.967C396.336 442.386 398.14 443.084 400.256 444.48C403.683 446.747 406.047 450.292 406.938 454.492C407.131 455.416 407.174 455.964 407.174 457.5C407.174 459.584 406.992 460.776 406.369 462.603C404.725 467.469 400.45 471.422 395.433 472.7C391.383 473.731 387.065 473.108 383.456 470.949C379.803 468.769 377.021 464.858 376.151 460.658C375.915 459.509 375.807 457.747 375.904 456.34C376.355 449.282 381.78 443.277 388.838 442.042C390.266 441.784 392.522 441.752 393.822 441.967Z" fill="white"/>
<path d="M389.525 453.268V458.8L391.953 462.313C393.296 464.246 394.424 465.869 394.467 465.911C394.542 465.997 397.689 463.903 397.689 463.774C397.689 463.742 396.744 462.356 395.595 460.691L393.5 457.661V452.688V447.725H391.513H389.525V453.268Z" fill="white"/>
<path d="M1438.28 686.5L1436.91 692.011L1436.03 692.623C1433.53 694.374 1431.35 696.984 1429.9 699.96C1426.1 707.705 1427.83 716.933 1434.17 722.841C1434.72 723.346 1435.56 724.044 1436.03 724.377L1436.91 724.989L1438.28 730.489L1439.67 736H1447.52H1455.39L1456.75 730.521L1458.11 725.043L1458.94 724.463C1463.2 721.455 1466.19 716.589 1466.93 711.454L1467.07 710.487L1469.08 710.455L1471.09 710.434V708.5V706.566L1469.08 706.545L1467.07 706.513L1466.93 705.546C1466.19 700.411 1463.2 695.545 1458.94 692.537L1458.11 691.957L1456.75 686.479L1455.39 681H1447.52H1439.67L1438.28 686.5ZM1449.82 692.967C1452.34 693.386 1454.14 694.084 1456.26 695.48C1459.68 697.747 1462.05 701.292 1462.94 705.492C1463.13 706.416 1463.17 706.964 1463.17 708.5C1463.17 710.584 1462.99 711.776 1462.37 713.603C1460.73 718.469 1456.45 722.422 1451.43 723.7C1447.38 724.731 1443.07 724.108 1439.46 721.949C1435.8 719.769 1433.02 715.858 1432.15 711.658C1431.91 710.509 1431.81 708.747 1431.9 707.34C1432.36 700.282 1437.78 694.277 1444.84 693.042C1446.27 692.784 1448.52 692.752 1449.82 692.967Z" fill="white"/>
<path d="M1445.53 704.268V709.8L1447.95 713.313C1449.3 715.246 1450.42 716.869 1450.47 716.911C1450.54 716.997 1453.69 714.903 1453.69 714.774C1453.69 714.742 1452.74 713.356 1451.59 711.691L1449.5 708.661V703.688V698.725H1447.51H1445.53V704.268Z" fill="white"/>
<path d="M760.365 26.1436C756.726 26.7096 753.501 29.3869 752.306 32.8369C751.731 34.49 751.713 34.7057 751.713 39.2967V43.4744L752.899 43.5014L754.076 43.5283L754.112 39.3236C754.148 35.3346 754.157 35.083 754.345 34.4002C755.01 31.9744 756.681 30.0158 758.909 29.0814C759.979 28.6232 760.751 28.4705 762 28.4705C763.249 28.4705 764.021 28.6232 765.091 29.0814C767.319 30.0158 768.99 31.9744 769.655 34.4002C769.843 35.083 769.852 35.3346 769.888 39.3236L769.924 43.5283L771.101 43.5014L772.287 43.4744V39.2967C772.287 34.7057 772.269 34.49 771.694 32.8369C770.688 29.935 768.244 27.5451 765.261 26.5389C763.725 26.0268 761.991 25.883 760.365 26.1436Z" fill="white"/>
<path d="M740.123 44.8851C740.15 45.0019 741.138 50.3386 742.324 56.7444C743.51 63.1503 744.552 68.6038 744.651 68.8554C745.181 70.2479 746.466 71.4159 747.939 71.8292C748.613 72.0179 775.387 72.0179 776.061 71.8292C777.534 71.4159 778.819 70.2479 779.349 68.8554C779.448 68.6038 780.49 63.1503 781.676 56.7444C782.862 50.3386 783.85 45.0019 783.877 44.8851L783.922 44.6874H762H740.078L740.123 44.8851ZM753.312 50.3835C753.474 50.4464 753.698 50.6171 753.824 50.7519L754.049 50.9944V53.3304V55.6663L753.716 55.9628C753.294 56.3581 752.863 56.439 752.423 56.2233C752.234 56.1245 752 55.9358 751.902 55.8011C751.722 55.5585 751.713 55.4237 751.713 53.3124C751.713 51.1921 751.722 51.0663 751.902 50.8237C752.099 50.5542 752.602 50.2577 752.863 50.2577C752.953 50.2577 753.15 50.3116 753.312 50.3835ZM771.793 50.5093C772.305 50.8866 772.341 51.0933 772.314 53.4202C772.287 55.8101 772.269 55.8819 771.577 56.2233C771.137 56.439 770.706 56.3581 770.284 55.9628L769.951 55.6663V53.3304V50.9944L770.176 50.7519C770.634 50.2487 771.299 50.1499 771.793 50.5093Z" fill="white"/>
<path d="M1255.36 1021.14C1251.73 1021.71 1248.5 1024.39 1247.31 1027.84C1246.73 1029.49 1246.71 1029.71 1246.71 1034.3V1038.47L1247.9 1038.5L1249.08 1038.53L1249.11 1034.32C1249.15 1030.33 1249.16 1030.08 1249.35 1029.4C1250.01 1026.97 1251.68 1025.02 1253.91 1024.08C1254.98 1023.62 1255.75 1023.47 1257 1023.47C1258.25 1023.47 1259.02 1023.62 1260.09 1024.08C1262.32 1025.02 1263.99 1026.97 1264.65 1029.4C1264.84 1030.08 1264.85 1030.33 1264.89 1034.32L1264.92 1038.53L1266.1 1038.5L1267.29 1038.47V1034.3C1267.29 1029.71 1267.27 1029.49 1266.69 1027.84C1265.69 1024.93 1263.24 1022.55 1260.26 1021.54C1258.72 1021.03 1256.99 1020.88 1255.36 1021.14Z" fill="white"/>
<path d="M1235.12 1039.89C1235.15 1040 1236.14 1045.34 1237.32 1051.74C1238.51 1058.15 1239.55 1063.6 1239.65 1063.86C1240.18 1065.25 1241.47 1066.42 1242.94 1066.83C1243.61 1067.02 1270.39 1067.02 1271.06 1066.83C1272.53 1066.42 1273.82 1065.25 1274.35 1063.86C1274.45 1063.6 1275.49 1058.15 1276.68 1051.74C1277.86 1045.34 1278.85 1040 1278.88 1039.89L1278.92 1039.69H1257H1235.08L1235.12 1039.89ZM1248.31 1045.38C1248.47 1045.45 1248.7 1045.62 1248.82 1045.75L1249.05 1045.99V1048.33V1050.67L1248.72 1050.96C1248.29 1051.36 1247.86 1051.44 1247.42 1051.22C1247.23 1051.12 1247 1050.94 1246.9 1050.8C1246.72 1050.56 1246.71 1050.42 1246.71 1048.31C1246.71 1046.19 1246.72 1046.07 1246.9 1045.82C1247.1 1045.55 1247.6 1045.26 1247.86 1045.26C1247.95 1045.26 1248.15 1045.31 1248.31 1045.38ZM1266.79 1045.51C1267.31 1045.89 1267.34 1046.09 1267.31 1048.42C1267.29 1050.81 1267.27 1050.88 1266.58 1051.22C1266.14 1051.44 1265.71 1051.36 1265.28 1050.96L1264.95 1050.67V1048.33V1045.99L1265.18 1045.75C1265.63 1045.25 1266.3 1045.15 1266.79 1045.51Z" fill="white"/>
<path d="M504.365 954.144C500.726 954.71 497.501 957.387 496.306 960.837C495.731 962.49 495.713 962.706 495.713 967.297V971.474L496.899 971.501L498.076 971.528L498.112 967.324C498.148 963.335 498.157 963.083 498.345 962.4C499.01 959.974 500.681 958.016 502.909 957.081C503.979 956.623 504.751 956.471 506 956.471C507.249 956.471 508.021 956.623 509.091 957.081C511.319 958.016 512.99 959.974 513.655 962.4C513.843 963.083 513.852 963.335 513.888 967.324L513.924 971.528L515.101 971.501L516.287 971.474V967.297C516.287 962.706 516.269 962.49 515.694 960.837C514.688 957.935 512.244 955.545 509.261 954.539C507.725 954.027 505.991 953.883 504.365 954.144Z" fill="white"/>
<path d="M484.123 972.885C484.15 973.002 485.138 978.339 486.324 984.744C487.51 991.15 488.552 996.604 488.651 996.855C489.181 998.248 490.466 999.416 491.939 999.829C492.613 1000.02 519.387 1000.02 520.061 999.829C521.534 999.416 522.819 998.248 523.349 996.855C523.448 996.604 524.49 991.15 525.676 984.744C526.862 978.339 527.85 973.002 527.877 972.885L527.922 972.687H506H484.078L484.123 972.885ZM497.312 978.383C497.474 978.446 497.698 978.617 497.824 978.752L498.049 978.994V981.33V983.666L497.716 983.963C497.294 984.358 496.863 984.439 496.423 984.223C496.234 984.125 496 983.936 495.902 983.801C495.722 983.558 495.713 983.424 495.713 981.312C495.713 979.192 495.722 979.066 495.902 978.824C496.099 978.554 496.602 978.258 496.863 978.258C496.953 978.258 497.15 978.312 497.312 978.383ZM515.793 978.509C516.305 978.887 516.341 979.093 516.314 981.42C516.287 983.81 516.269 983.882 515.577 984.223C515.137 984.439 514.706 984.358 514.284 983.963L513.951 983.666V981.33V978.994L514.176 978.752C514.634 978.249 515.299 978.15 515.793 978.509Z" fill="white"/>
<g clip-path="url(#clip0_1327_1340)">
<path d="M422.04 150.533C421.591 150.625 421.199 150.925 421.038 151.34C420.9 151.651 420.877 154.082 420.877 165.283V178.858L417.927 186.29L414.977 193.711L415.023 194.668C415.069 195.774 415.288 196.178 415.979 196.408C416.313 196.523 422.19 196.546 444.719 196.523C471.914 196.489 473.043 196.477 473.354 196.281C473.804 195.982 474 195.428 474 194.484C474 193.688 473.919 193.481 471.096 186.383L468.18 179.088L468.123 165.26C468.065 150.118 468.111 151.202 467.408 150.706C467.166 150.522 465.403 150.51 444.73 150.499C432.4 150.487 422.19 150.51 422.04 150.533ZM464.205 165.433V176.956H444.5H424.795V165.433V153.91H444.5H464.205V165.433ZM449.57 190.266C449.893 191.211 450.146 192.029 450.146 192.075C450.146 192.133 447.611 192.167 444.5 192.167C441.4 192.167 438.853 192.133 438.853 192.098C438.853 192.041 439.787 189.056 439.948 188.618C439.982 188.503 440.962 188.48 444.5 188.503L449.005 188.537L449.57 190.266Z" fill="white"/>
</g>
<g clip-path="url(#clip1_1327_1340)">
<path d="M942.04 276.533C941.591 276.625 941.199 276.925 941.038 277.34C940.9 277.651 940.877 280.082 940.877 291.283V304.858L937.927 312.29L934.977 319.711L935.023 320.668C935.069 321.774 935.288 322.178 935.979 322.408C936.313 322.523 942.19 322.546 964.719 322.523C991.914 322.489 993.043 322.477 993.354 322.281C993.804 321.982 994 321.428 994 320.484C994 319.688 993.919 319.481 991.096 312.383L988.18 305.088L988.123 291.26C988.065 276.118 988.111 277.202 987.408 276.706C987.166 276.522 985.403 276.51 964.73 276.499C952.4 276.487 942.19 276.51 942.04 276.533ZM984.205 291.433V302.956H964.5H944.795V291.433V279.91H964.5H984.205V291.433ZM969.57 316.266C969.893 317.211 970.146 318.029 970.146 318.075C970.146 318.133 967.611 318.167 964.5 318.167C961.4 318.167 958.853 318.133 958.853 318.098C958.853 318.041 959.787 315.056 959.948 314.618C959.982 314.503 960.962 314.48 964.5 314.503L969.005 314.537L969.57 316.266Z" fill="white"/>
</g>
<g clip-path="url(#clip2_1327_1340)">
<path d="M821.04 732.533C820.591 732.625 820.199 732.925 820.038 733.34C819.9 733.651 819.877 736.082 819.877 747.283V760.858L816.927 768.29L813.977 775.711L814.023 776.668C814.069 777.774 814.288 778.178 814.979 778.408C815.313 778.523 821.19 778.546 843.719 778.523C870.914 778.489 872.043 778.477 872.354 778.281C872.804 777.982 873 777.428 873 776.484C873 775.688 872.919 775.481 870.096 768.383L867.18 761.088L867.123 747.26C867.065 732.118 867.111 733.202 866.408 732.706C866.166 732.522 864.403 732.51 843.73 732.499C831.4 732.487 821.19 732.51 821.04 732.533ZM863.205 747.433V758.956H843.5H823.795V747.433V735.91H843.5H863.205V747.433ZM848.57 772.266C848.893 773.211 849.146 774.029 849.146 774.075C849.146 774.133 846.611 774.167 843.5 774.167C840.4 774.167 837.853 774.133 837.853 774.098C837.853 774.041 838.787 771.056 838.948 770.618C838.982 770.503 839.962 770.48 843.5 770.503L848.005 770.537L848.57 772.266Z" fill="white"/>
</g>
<g clip-path="url(#clip3_1327_1340)">
<path d="M134.04 905.534C133.591 905.626 133.199 905.925 133.038 906.34C132.9 906.651 132.877 909.083 132.877 920.284V933.858L129.927 941.291L126.977 948.712L127.023 949.668C127.069 950.775 127.288 951.178 127.979 951.408C128.313 951.524 134.19 951.547 156.719 951.524C183.914 951.489 185.043 951.478 185.354 951.282C185.804 950.982 186 950.429 186 949.484C186 948.689 185.919 948.482 183.096 941.383L180.18 934.089L180.123 920.261C180.065 905.119 180.111 906.202 179.408 905.707C179.166 905.522 177.403 905.511 156.73 905.499C144.4 905.488 134.19 905.511 134.04 905.534ZM176.205 920.433V931.957H156.5H136.795V920.433V908.91H156.5H176.205V920.433ZM161.57 945.266C161.893 946.211 162.146 947.03 162.146 947.076C162.146 947.133 159.611 947.168 156.5 947.168C153.4 947.168 150.853 947.133 150.853 947.099C150.853 947.041 151.787 944.057 151.948 943.619C151.982 943.503 152.962 943.48 156.5 943.503L161.005 943.538L161.57 945.266Z" fill="white"/>
</g>
<defs>
<clipPath id="clip0_1327_1340">
<rect width="59" height="59" fill="white" transform="translate(415 144)"/>
</clipPath>
<clipPath id="clip1_1327_1340">
<rect width="59" height="59" fill="white" transform="translate(935 270)"/>
</clipPath>
<clipPath id="clip2_1327_1340">
<rect width="59" height="59" fill="white" transform="translate(814 726)"/>
</clipPath>
<clipPath id="clip3_1327_1340">
<rect width="59" height="59" fill="white" transform="translate(127 899)"/>
</clipPath>
</defs>
</svg>
