<svg width="683" height="121" viewBox="0 0 683 121" fill="none" xmlns="http://www.w3.org/2000/svg">
<path d="M437.746 58.976C437.746 54.5317 438.566 50.19 440.207 45.9509C441.917 41.6434 444.378 37.7461 447.592 34.2591C450.805 30.772 454.702 28.0029 459.283 25.9517C463.933 23.8322 469.163 22.7724 474.975 22.7724C481.949 22.7724 488.034 24.2424 493.231 27.1825C498.427 30.0541 502.29 33.883 504.82 38.6691L489.538 49.5405C488.65 47.1474 487.351 45.3013 485.641 44.0022C484 42.7032 482.188 41.8143 480.206 41.3357C478.291 40.7887 476.411 40.5152 474.565 40.5152C471.693 40.5152 469.197 41.0964 467.078 42.2587C465.027 43.3527 463.317 44.8227 461.95 46.6688C460.651 48.5149 459.659 50.5661 458.976 52.8224C458.36 55.0787 458.053 57.335 458.053 59.5913C458.053 62.1211 458.429 64.5484 459.181 66.8731C459.933 69.1977 461.027 71.2831 462.463 73.1292C463.899 74.9069 465.642 76.3085 467.693 77.3341C469.813 78.3597 472.172 78.8725 474.77 78.8725C476.616 78.8725 478.496 78.599 480.411 78.0521C482.325 77.4367 484.069 76.4795 485.641 75.1804C487.214 73.8813 488.41 72.1378 489.231 69.9498L505.538 79.693C504.102 83.2484 501.709 86.291 498.359 88.8208C495.008 91.3506 491.214 93.2993 486.974 94.6667C482.735 95.9658 478.53 96.6154 474.36 96.6154C468.958 96.6154 464.001 95.5556 459.488 93.436C455.044 91.2481 451.181 88.3764 447.899 84.821C444.686 81.1972 442.19 77.1632 440.412 72.719C438.635 68.2063 437.746 63.6253 437.746 58.976ZM508.349 79.693C508.349 76.0692 509.34 72.8899 511.323 70.155C513.306 67.3517 516.041 65.1637 519.528 63.5911C523.083 62.0186 527.117 61.2323 531.63 61.2323C533.749 61.2323 535.732 61.4032 537.578 61.7451C539.492 62.0869 541.133 62.5997 542.501 63.2835V61.6425C542.501 59.1127 541.749 57.2324 540.245 56.0017C538.809 54.771 536.45 54.1557 533.168 54.1557C530.16 54.1557 527.322 54.6685 524.656 55.694C522.057 56.6513 519.322 58.0871 516.451 60.0016L510.81 47.8995C514.434 45.5748 518.228 43.8655 522.194 42.7715C526.228 41.6092 530.536 41.028 535.117 41.028C543.663 41.028 550.261 42.9766 554.911 46.8739C559.628 50.7028 561.987 56.412 561.987 64.0014V74.4625C561.987 76.3085 562.261 77.6076 562.808 78.3597C563.355 79.0435 564.312 79.4537 565.679 79.5905V96C564.107 96.3419 562.603 96.5812 561.167 96.7179C559.799 96.923 558.569 97.0256 557.475 97.0256C553.988 97.0256 551.321 96.4102 549.475 95.1795C547.697 93.8804 546.535 92.0002 545.988 89.5387L545.578 87.5901C543.185 90.6669 540.416 93.0258 537.27 94.6667C534.125 96.2393 530.775 97.0256 527.22 97.0256C523.664 97.0256 520.451 96.2735 517.579 94.7693C514.707 93.2651 512.451 91.2139 510.81 88.6157C509.169 85.9492 508.349 82.9749 508.349 79.693ZM539.937 81.0263C540.689 80.4793 541.304 79.8981 541.783 79.2828C542.262 78.599 542.501 77.9153 542.501 77.2316V73.2318C541.407 72.8215 540.142 72.4796 538.706 72.2062C537.339 71.9327 536.108 71.7959 535.014 71.7959C532.689 71.7959 530.707 72.3771 529.066 73.5394C527.493 74.7018 526.707 76.1718 526.707 77.9495C526.707 78.9067 526.98 79.7956 527.527 80.616C528.074 81.3682 528.826 81.9835 529.784 82.4621C530.741 82.8724 531.835 83.0775 533.065 83.0775C534.228 83.0775 535.424 82.9065 536.655 82.5647C537.954 82.1544 539.048 81.6416 539.937 81.0263ZM594.358 97.0256C589.641 97.0256 584.991 96.2735 580.41 94.7693C575.898 93.1967 572.069 90.9404 568.924 88.0003L575.59 76.0009C578.94 78.1888 582.154 79.8981 585.231 81.1288C588.376 82.3596 591.213 82.9749 593.743 82.9749C595.179 82.9749 596.239 82.804 596.922 82.4621C597.606 82.0519 597.948 81.4023 597.948 80.5135C597.948 79.8981 597.709 79.3853 597.23 78.9751C596.751 78.5649 595.965 78.1546 594.871 77.7444C593.846 77.3341 592.512 76.8897 590.871 76.4111C586.632 74.9069 583.077 73.5052 580.205 72.2062C577.402 70.9071 575.282 69.3345 573.846 67.4884C572.479 65.574 571.795 63.0442 571.795 59.899C571.795 56.2068 572.718 52.9591 574.564 50.1558C576.41 47.2842 579.043 45.0278 582.462 43.3869C585.949 41.7459 590.119 40.9255 594.974 40.9255C598.598 40.9255 602.221 41.5066 605.845 42.669C609.537 43.7629 613.093 45.7799 616.511 48.72L609.127 60.6169C605.708 58.4973 602.803 56.9931 600.409 56.1043C598.085 55.2154 595.999 54.771 594.153 54.771C593.264 54.771 592.478 54.8736 591.794 55.0787C591.179 55.2838 590.7 55.5915 590.359 56.0017C590.017 56.412 589.846 56.959 589.846 57.6427C589.846 58.3264 590.085 58.9076 590.564 59.3862C591.042 59.7964 591.794 60.2067 592.82 60.6169C593.846 60.9588 595.145 61.369 596.717 61.8476C601.367 63.2151 605.161 64.6167 608.101 66.0526C611.041 67.42 613.195 69.0952 614.563 71.078C615.999 73.0608 616.716 75.659 616.716 78.8725C616.716 84.5475 614.699 88.9918 610.665 92.2053C606.7 95.4188 601.264 97.0256 594.358 97.0256ZM678.352 96H658.866V65.6423C658.866 62.9758 658.251 61.0613 657.02 59.899C655.858 58.6683 654.388 58.0529 652.61 58.0529C651.789 58.0529 650.764 58.3606 649.533 58.976C648.371 59.5913 647.243 60.4802 646.149 61.6425C645.055 62.8049 644.2 64.1723 643.585 65.7449V96H624.098V21.1314H643.585V50.0533C645.499 47.1132 647.995 44.8911 651.072 43.3869C654.217 41.8143 657.67 41.028 661.43 41.028C665.259 41.028 668.302 41.6776 670.558 42.9766C672.814 44.2074 674.489 45.8141 675.583 47.797C676.677 49.7798 677.395 51.8993 677.737 54.1557C678.147 56.412 678.352 58.5315 678.352 60.5144V96Z" fill="#499953"/>
<path d="M32.4292 15.6524C26.6859 17.3617 25.0449 18.1138 20.6007 20.9171C15.1308 24.3357 12.601 26.9339 8.77214 32.6773C3.37067 40.8137 0.635742 50.2491 0.635742 60.5051C0.635742 84.0938 15.6095 101.461 38.7879 104.674C43.0271 105.289 45.8987 105.153 53.7616 104.196L63.539 102.965L70.9233 105.495C75.0257 106.862 79.6067 108.024 81.2476 108.024C86.5807 108.024 90.8199 104.537 91.3668 99.6829C91.6403 97.0847 91.3668 96.3326 89.2473 93.3242C83.0937 84.8459 83.0937 84.9143 85.897 74.3848C87.4696 68.4364 87.7431 66.0433 87.7431 58.7958C87.6747 51.4799 87.4012 49.4287 85.897 44.7793C80.9058 29.6688 69.4191 18.9343 54.3086 15.3105C48.5653 14.0114 37.5572 14.1481 32.4292 15.6524ZM50.1379 37.0531C54.2403 38.2839 59.505 43.8221 61.4878 48.8817C63.4706 54.2148 63.6757 63.5135 61.898 69.0517C59.2999 77.2565 53.0779 82.5212 45.0099 83.205C39.6084 83.752 35.8479 82.2478 31.8822 78.077C27.1645 73.0174 25.6603 68.368 25.6603 58.7958C25.5919 52.1636 25.797 50.4543 27.0278 47.7877C29.0106 43.5486 33.1813 39.036 36.5316 37.5317C39.7452 36.0275 46.0355 35.8224 50.1379 37.0531Z" fill="black"/>
<path d="M105.725 15.0381C102.307 16.1321 98.9565 19.2089 97.2472 22.9694L95.6062 26.5248L95.8113 54.4894L96.0164 82.3856L97.8625 86.3513C101.623 94.4193 109.965 100.983 119.605 103.65C125.827 105.359 141.416 105.359 147.638 103.65C157.142 101.051 165.62 94.2825 169.381 86.3513L171.227 82.3856V53.6689C171.227 26.935 171.158 24.8155 169.928 22.5592C167.945 18.7303 165.415 16.5423 161.86 15.3116C155.775 13.3288 149.894 15.6535 147.365 21.1233C145.997 24.0634 145.929 25.6359 145.587 48.5409C145.313 69.8733 145.108 73.0869 144.083 75.0013C139.775 82.7959 128.972 83.1377 123.434 75.6851C122.067 73.839 121.998 72.745 121.656 49.0195C121.314 25.6359 121.246 24.0634 119.879 21.1233C118.99 19.2089 117.486 17.4312 116.05 16.5423C113.246 14.833 108.529 14.1493 105.725 15.0381Z" fill="black"/>
<path d="M189.756 15.1713C185.927 16.1969 181.62 20.7095 180.389 24.9486C179.022 29.6664 178.953 90.3817 180.321 94.8943C182.714 102.826 191.876 107.407 198.713 104.125C202.337 102.415 204.251 98.9283 205.14 92.638C206.166 84.8435 205.619 26.5212 204.456 23.0342C203.294 19.4104 199.944 15.855 197.004 15.0345C194.064 14.214 193.312 14.2824 189.756 15.1713Z" fill="black"/>
<path d="M307.973 15.3777C304.144 16.7451 300.452 20.9159 299.153 25.3602C298.195 28.3686 298.059 33.7017 298.059 59.5467C298.059 78.7595 298.332 91.4769 298.811 93.5965C300.93 103.647 311.528 108.365 319.459 102.759C321.1 101.665 325.339 96.7417 329.373 91.4086L336.416 82.0415L337.988 83.8875C338.809 84.9815 341.476 88.4002 343.869 91.6137C349.954 99.8185 351.937 101.801 355.834 103.647C361.987 106.587 368.483 105.152 372.312 100.092C373.953 98.0408 374.295 96.8784 374.226 94.0751C374.158 89.4258 372.312 85.9387 363.081 73.6316C358.911 68.025 354.945 62.6235 354.193 61.5979L352.894 59.8202L361.919 47.6498C366.91 40.9492 371.765 34.0435 372.654 32.2658C376.961 23.8559 372.79 15.8563 363.423 14.6256C359.868 14.0786 356.586 15.1042 352.962 17.7024C351.39 18.8647 344.894 26.8644 337.305 36.9836L324.382 54.282L324.04 38.898C323.767 25.9071 323.493 23.1722 322.468 21.0527C320.895 17.9075 319.323 16.54 316.041 15.3093C312.759 14.147 311.391 14.147 307.973 15.3777Z" fill="black"/>
<path d="M244.249 16.4059C232.215 19.5511 222.985 27.2089 217.173 38.9007C210.199 52.7804 210.473 68.7797 217.925 83.0697C221.481 89.8387 229.139 97.3597 235.839 100.642C252.249 108.641 272.145 105.633 284.999 93.1206C289.033 89.2233 289.922 87.9242 290.879 84.5739C292.52 78.9673 291.426 75.6854 286.982 72.7454C280.487 68.3695 274.06 69.2584 269.752 75.1384C268.316 77.0529 265.923 79.1725 263.735 80.4032C260.659 82.1125 259.359 82.386 254.984 82.386C250.608 82.386 249.377 82.1125 246.642 80.4715C242.608 78.1469 238.916 73.3607 237.548 68.8481C236.249 64.4039 236.249 55.9256 237.548 51.413C239.873 43.6868 247.394 37.6016 254.71 37.6016C261 37.6016 267.086 40.7468 270.026 45.4645C270.846 46.7636 272.761 48.4046 274.538 49.2934C277.41 50.6609 278.025 50.7292 281.239 49.9771C286.298 48.8832 289.512 46.4901 290.879 42.798C291.973 39.9947 291.973 39.516 290.879 35.7555C289.922 32.4052 289.033 31.0378 285.136 27.2773C274.743 17.0213 258.402 12.7138 244.249 16.4059Z" fill="black"/>
<rect x="374.636" y="25.2061" width="25.9818" height="66.7858" rx="12.9909" transform="rotate(-36.9803 374.636 25.2061)" fill="#4E17EA"/>
<rect x="416.03" y="43.0776" width="25.9818" height="66.0653" rx="12.9909" transform="rotate(38.7963 416.03 43.0776)" fill="#027CD5"/>
</svg>
