<svg width="375" height="812" viewBox="0 0 375 812" fill="none" xmlns="http://www.w3.org/2000/svg">
<rect width="375" height="812" fill="white"/>
<path fill-rule="evenodd" clip-rule="evenodd" d="M204.872 525.937C176.618 525.209 143.901 531.355 122.614 516.7C101.296 502.025 105.023 475.573 99.8593 453.644C95.9038 436.847 96.0513 420.609 95.9627 403.525C95.8573 383.181 85.1132 360.79 99.2896 343.785C113.61 326.608 142.008 318.279 168.048 317.058C192.141 315.929 211.142 331.575 234.09 337.467C256.111 343.121 281.851 339.582 299.985 350.932C319.414 363.093 331.208 381.815 335.666 401.047C340.217 420.678 332.238 439.966 325.059 459.104C316.787 481.159 314.51 507.768 290.661 521.029C266.752 534.324 234.121 526.691 204.872 525.937Z" fill="#1F34E9"/>
<path fill-rule="evenodd" clip-rule="evenodd" d="M137.164 417.984C161.699 418.553 184.32 425.952 204.449 436.01C224.918 446.239 245.643 458.302 252.308 475.522C258.858 492.444 250.535 510.451 239.302 526.06C229.334 539.912 210.252 547.837 193.261 557.575C175.225 567.911 160.01 582.136 137.164 584.595C112.718 587.228 86.8326 581.985 67.3016 571.137C48.0853 560.464 36.8179 543.757 32.7368 526.593C29.014 510.935 40.329 496.45 45.8877 481.074C51.9259 464.372 49.3 444.801 66.6379 432.817C84.7065 420.328 112.06 417.403 137.164 417.984Z" fill="#FFCC00"/>
<path fill-rule="evenodd" clip-rule="evenodd" d="M150.446 421.121C151.263 420.684 152.245 420.69 153.057 421.137L273.463 487.405V491.411C273.463 491.899 273.202 492.351 272.78 492.595L196.719 536.619C195.871 537.11 194.825 537.11 193.977 536.62L74.3244 467.399C73.9015 467.154 73.6411 466.703 73.6411 466.214L73.6411 462.208L150.446 421.121Z" fill="url(#paint0_linear_577_609)"/>
<path fill-rule="evenodd" clip-rule="evenodd" d="M150.446 420.178C151.263 419.741 152.245 419.747 153.057 420.194L273.463 486.462V490.468C273.463 490.956 273.202 491.408 272.78 491.652L196.719 535.676C195.871 536.167 194.825 536.167 193.977 535.677L74.3244 466.456C73.9015 466.211 73.6411 465.76 73.6411 465.271L73.6411 461.265L150.446 420.178Z" fill="url(#paint1_linear_577_609)"/>
<path fill-rule="evenodd" clip-rule="evenodd" d="M150.386 416.158C151.233 415.669 152.277 415.669 153.124 416.158L272.781 485.276C273.693 485.803 273.693 487.12 272.781 487.647L196.717 531.569C195.87 532.058 194.826 532.058 193.979 531.569L74.3226 462.45C73.4104 461.924 73.4105 460.607 74.3228 460.08L150.386 416.158Z" fill="url(#paint2_linear_577_609)"/>
<path opacity="0.246257" fill-rule="evenodd" clip-rule="evenodd" d="M156.761 426.012C156.013 425.573 155.084 425.581 154.343 426.032L130.547 440.524C130.036 440.835 130.046 441.581 130.567 441.878L228 497.382C229.439 498.201 231.202 498.206 232.644 497.394L254.875 484.885C255.404 484.588 255.41 483.83 254.887 483.523L156.761 426.012Z" fill="url(#paint3_linear_577_609)"/>
<path fill-rule="evenodd" clip-rule="evenodd" d="M147.146 461.543C147.448 461.371 147.819 461.371 148.122 461.543L191.431 486.231C191.763 486.42 191.763 486.898 191.431 487.087L163.9 502.775C163.598 502.947 163.227 502.947 162.924 502.775L119.615 478.087C119.284 477.898 119.284 477.42 119.615 477.231L147.146 461.543Z" fill="url(#paint4_linear_577_609)"/>
<mask id="mask0_577_609" style="mask-type:alpha" maskUnits="userSpaceOnUse" x="119" y="461" width="73" height="42">
<path fill-rule="evenodd" clip-rule="evenodd" d="M147.146 461.543C147.448 461.371 147.819 461.371 148.122 461.543L191.431 486.231C191.763 486.42 191.763 486.898 191.431 487.087L163.9 502.775C163.598 502.947 163.227 502.947 162.924 502.775L119.615 478.087C119.284 477.898 119.284 477.42 119.615 477.231L147.146 461.543Z" fill="white"/>
</mask>
<g mask="url(#mask0_577_609)">
<path fill-rule="evenodd" clip-rule="evenodd" d="M147.146 463.598C147.448 463.426 147.819 463.426 148.122 463.598L191.431 488.286C191.763 488.475 191.763 488.953 191.431 489.142L163.9 504.83C163.598 505.002 163.227 505.002 162.924 504.83L119.615 480.142C119.284 479.953 119.284 479.475 119.615 479.286L147.146 463.598Z" fill="url(#paint5_linear_577_609)"/>
<rect x="98.2344" y="456.666" width="45.0586" height="45.0586" fill="#C4C4C4"/>
</g>
<path fill-rule="evenodd" clip-rule="evenodd" d="M154.567 323.817C154.955 323.662 155.393 323.693 155.755 323.9L275.512 392.507C276.363 392.995 276.888 393.901 276.888 394.882V482.946C276.888 483.427 276.636 483.873 276.224 484.12L274.519 485.143C273.868 485.533 273.056 485.533 272.406 485.143L155.105 414.773C154.299 414.29 153.798 413.428 153.776 412.489L151.788 326.366C151.768 325.509 152.283 324.731 153.078 324.412L154.567 323.817Z" fill="#80B1FF"/>
<path fill-rule="evenodd" clip-rule="evenodd" d="M151.755 325.943C151.755 324.889 152.896 324.231 153.809 324.758L273.465 393.876C274.311 394.365 274.833 395.268 274.833 396.246V484.091C274.833 485.144 273.692 485.803 272.78 485.276L153.124 416.158C152.277 415.669 151.755 414.765 151.755 413.787V325.943Z" fill="url(#paint6_linear_577_609)"/>
<path fill-rule="evenodd" clip-rule="evenodd" d="M156.552 332.477L269.612 397.956V477.707L156.552 412.228V332.477Z" fill="url(#paint7_linear_577_609)"/>
<path fill-rule="evenodd" clip-rule="evenodd" d="M143.754 331.748C141.998 330.718 139.788 331.984 139.788 334.019V388.655C139.788 391.463 141.279 394.061 143.704 395.477L209.078 433.657C210.834 434.682 213.039 433.416 213.039 431.383V376.909C213.039 374.106 211.554 371.512 209.136 370.094L143.754 331.748Z" fill="#C7DCFF"/>
<path fill-rule="evenodd" clip-rule="evenodd" d="M145.92 344.265L153.298 348.471V386.637L145.92 382.432V344.265Z" fill="#528BE1"/>
<path fill-rule="evenodd" clip-rule="evenodd" d="M159.095 352.216L166.473 356.422V394.059L159.095 389.853V352.216Z" fill="#528BE1"/>
<path fill-rule="evenodd" clip-rule="evenodd" d="M172.27 359.107L179.647 363.313V401.48L172.27 397.274V359.107Z" fill="#528BE1"/>
<path fill-rule="evenodd" clip-rule="evenodd" d="M185.444 366.529L192.822 370.734V408.901L185.444 404.695L185.444 366.529Z" fill="#528BE1"/>
<path fill-rule="evenodd" clip-rule="evenodd" d="M198.619 373.42L205.996 377.626V414.732L198.619 410.526L198.619 373.42Z" fill="#528BE1"/>
<path fill-rule="evenodd" clip-rule="evenodd" d="M145.92 378.688L153.298 382.894V392.998L145.92 388.793L145.92 378.688Z" fill="white"/>
<path fill-rule="evenodd" clip-rule="evenodd" d="M159.095 368.964L166.473 373.17V400.42L159.095 396.214V368.964Z" fill="white"/>
<path fill-rule="evenodd" clip-rule="evenodd" d="M172.27 382.432L179.647 386.637V407.841L172.27 403.635V382.432Z" fill="white"/>
<path fill-rule="evenodd" clip-rule="evenodd" d="M185.444 383.491L192.822 387.697V415.262L185.444 411.056L185.444 383.491Z" fill="white"/>
<path fill-rule="evenodd" clip-rule="evenodd" d="M198.619 379.781L205.996 383.987V421.093L198.619 416.887L198.619 379.781Z" fill="white"/>
<path fill-rule="evenodd" clip-rule="evenodd" d="M225.991 381.032C224.236 380.003 222.026 381.269 222.026 383.304V437.939C222.026 440.748 223.517 443.345 225.942 444.761L291.316 482.942C293.071 483.967 295.277 482.701 295.277 480.668V426.193C295.277 423.39 293.792 420.797 291.374 419.379L225.991 381.032Z" fill="#C7DCFF"/>
<path fill-rule="evenodd" clip-rule="evenodd" d="M228.158 433.521L235.536 437.727V442.283L228.158 438.077L228.158 433.521Z" fill="#98BDF4"/>
<path fill-rule="evenodd" clip-rule="evenodd" d="M241.333 434.896L248.71 439.102V449.704L241.333 445.498L241.333 434.896Z" fill="#98BDF4"/>
<path fill-rule="evenodd" clip-rule="evenodd" d="M254.507 445.589L261.885 449.795V457.125L254.507 452.919V445.589Z" fill="#98BDF4"/>
<path fill-rule="evenodd" clip-rule="evenodd" d="M267.682 441.1L275.059 445.306V464.547L267.682 460.341L267.682 441.1Z" fill="#98BDF4"/>
<path fill-rule="evenodd" clip-rule="evenodd" d="M280.857 437.389L288.235 441.595V470.378L280.857 466.172L280.857 437.389Z" fill="#98BDF4"/>
<path d="M288.235 431.981C288.235 431.981 282.898 429.616 273.195 431.981C263.491 434.346 261.411 440.969 253.888 433.522C246.364 426.074 245.022 427.095 228.158 428.744" stroke="white" stroke-width="2.7708" stroke-linecap="round"/>
<path fill-rule="evenodd" clip-rule="evenodd" d="M260.02 439.586C259.154 440.028 257.761 439.029 256.91 437.355C256.058 435.681 256.07 433.966 256.937 433.524C257.803 433.081 259.196 434.08 260.047 435.754C260.899 437.428 260.886 439.143 260.02 439.586Z" fill="url(#paint8_linear_577_609)"/>
<path d="M260.477 440.484C259.537 440.963 258.545 440.566 257.872 440.084C257.154 439.568 256.496 438.764 256.012 437.813C255.529 436.863 255.266 435.857 255.272 434.971C255.278 434.143 255.54 433.105 256.48 432.626C257.42 432.146 258.412 432.543 259.084 433.025C259.803 433.541 260.461 434.345 260.945 435.296C261.428 436.247 261.691 437.253 261.685 438.138C261.679 438.966 261.416 440.004 260.477 440.484Z" stroke="white" stroke-opacity="0.285621" stroke-width="2.01513"/>
<path fill-rule="evenodd" clip-rule="evenodd" d="M132.635 464.421C132.635 464.421 131.146 464.925 131.43 466.982C131.715 469.038 132.8 468.321 133.324 470.218C133.848 472.115 135.553 473.697 136.502 473.971C137.45 474.245 139.304 474.596 139.675 473.066C140.045 471.537 132.635 464.421 132.635 464.421Z" fill="#30334F"/>
<path fill-rule="evenodd" clip-rule="evenodd" d="M133.125 463.877C133.125 463.877 130.913 465.616 132.765 468.283C134.618 470.95 134.662 473.378 137.828 473.651C140.993 473.924 139.523 471.898 138.527 470.397C137.357 468.814 136.906 465.348 136.906 465.348L133.125 463.877Z" fill="#181E36"/>
<path fill-rule="evenodd" clip-rule="evenodd" d="M148.144 420.362C148.144 420.362 151.227 439.745 150.886 446.508C150.546 453.27 136.83 466.841 136.83 466.841C136.83 466.841 133.362 466.597 132.664 463.605L141.833 446.508L137.368 421.153L148.144 420.362Z" fill="#092965"/>
<mask id="mask1_577_609" style="mask-type:alpha" maskUnits="userSpaceOnUse" x="132" y="420" width="19" height="47">
<path fill-rule="evenodd" clip-rule="evenodd" d="M148.144 420.362C148.144 420.362 151.227 439.745 150.886 446.508C150.546 453.27 136.83 466.841 136.83 466.841C136.83 466.841 133.362 466.597 132.664 463.605L141.833 446.508L137.368 421.153L148.144 420.362Z" fill="white"/>
</mask>
<g mask="url(#mask1_577_609)">
</g>
<path fill-rule="evenodd" clip-rule="evenodd" d="M147.835 478.808C147.835 478.808 147.611 479.452 147.686 480.291C147.761 481.131 150.304 481.91 150.856 482.148C151.409 482.387 152.009 484.728 155.091 485.254C158.173 485.78 159.436 484.835 159.198 483.775C158.96 482.716 147.835 478.808 147.835 478.808Z" fill="#30334F"/>
<path fill-rule="evenodd" clip-rule="evenodd" d="M152.895 474.742C152.895 474.742 155.601 479.337 158.269 481.973C160.937 484.608 157.268 485.214 154.733 484.608C152.198 484.003 151.697 481.468 150.379 481.059C149.863 480.899 147.927 480.076 147.714 479.064C147.564 478.353 148.237 475.67 148.237 475.67" fill="#181E36"/>
<path fill-rule="evenodd" clip-rule="evenodd" d="M130.891 422.602C130.891 422.602 130.887 430.714 133.24 436.022C133.977 437.686 138.21 443.557 140.159 448.946C142.355 455.017 147.667 475.83 147.667 475.83C147.667 475.83 148.457 477.398 150.856 477.142C153.256 476.886 153.647 475.413 153.647 475.413C153.647 475.413 150.09 450.929 147.99 444.336C145.89 437.744 142.403 420.715 142.403 420.715L130.891 422.602Z" fill="url(#paint9_linear_577_609)"/>
<path d="M131.919 428.685C131.919 428.685 137.161 441.527 141.955 449.005C143.37 451.338 148.612 477.005 148.612 477.005" stroke="#1C478A" stroke-width="0.311217"/>
<path fill-rule="evenodd" clip-rule="evenodd" d="M147.187 395.78C148.378 395.905 154.658 415.631 154.658 415.631L162.95 426.443C162.95 426.443 162.073 426.016 161.134 426.578C160.194 427.141 159.041 427.916 159.041 427.916C159.041 427.916 151.661 420.98 150.452 419.592C149.243 418.204 144.774 403.281 145.031 400.83C145.288 398.379 145.996 395.654 147.187 395.78Z" fill="url(#paint10_linear_577_609)"/>
<mask id="mask2_577_609" style="mask-type:alpha" maskUnits="userSpaceOnUse" x="145" y="395" width="18" height="33">
<path fill-rule="evenodd" clip-rule="evenodd" d="M147.187 395.78C148.378 395.905 154.658 415.631 154.658 415.631L162.95 426.443C162.95 426.443 162.073 426.016 161.134 426.578C160.194 427.141 159.041 427.916 159.041 427.916C159.041 427.916 151.661 420.98 150.452 419.592C149.243 418.204 144.774 403.281 145.031 400.83C145.288 398.379 145.996 395.654 147.187 395.78Z" fill="white"/>
</mask>
<g mask="url(#mask2_577_609)">
<path fill-rule="evenodd" clip-rule="evenodd" d="M146.618 416.783C146.618 416.783 150.327 411.223 149.542 408.131C148.758 405.038 147.309 400.573 147.475 398.997C147.64 397.421 143.435 400.158 143.435 400.158L146.618 416.783Z" fill="#0B224E"/>
</g>
<path fill-rule="evenodd" clip-rule="evenodd" d="M137.84 397.213C135.127 398.738 130.358 401.865 129.46 403.036C128.563 404.208 130.032 409.732 131.265 412.276C132.498 414.821 131.464 421.789 130.689 423.67C130.478 424.182 137.922 426.797 143.125 424.569C147.6 422.651 147.437 420.395 147.037 418.273C146.636 416.151 146.963 413.036 146.963 413.036C146.963 413.036 147.868 404.642 147.584 402.716C147.301 400.789 148.309 396.509 147.443 395.918C146.577 395.327 140.552 395.688 137.84 397.213Z" fill="white"/>
<mask id="mask3_577_609" style="mask-type:alpha" maskUnits="userSpaceOnUse" x="129" y="395" width="19" height="31">
<path fill-rule="evenodd" clip-rule="evenodd" d="M137.84 397.213C135.127 398.738 130.358 401.865 129.46 403.036C128.563 404.208 130.032 409.732 131.265 412.276C132.498 414.821 131.464 421.789 130.689 423.67C130.478 424.182 137.922 426.797 143.125 424.569C147.6 422.651 147.437 420.395 147.037 418.273C146.636 416.151 146.963 413.036 146.963 413.036C146.963 413.036 147.868 404.642 147.584 402.716C147.301 400.789 148.309 396.509 147.443 395.918C146.577 395.327 140.552 395.688 137.84 397.213Z" fill="white"/>
</mask>
<g mask="url(#mask3_577_609)">
<path fill-rule="evenodd" clip-rule="evenodd" d="M141.89 401.397L145.473 402.316C145.473 402.316 144.124 398.608 142.966 397.528C141.808 396.448 141.895 397.529 141.895 397.529C141.895 397.529 142.173 397.83 142.222 398.992C142.27 400.154 141.89 401.397 141.89 401.397Z" fill="url(#paint11_linear_577_609)" fill-opacity="0.2"/>
<g style="mix-blend-mode:multiply">
<path fill-rule="evenodd" clip-rule="evenodd" d="M140.997 396.1C142.889 396.772 144.475 400.676 145.52 405.197C146.564 409.718 146.165 412.613 145.352 416.163C144.953 417.901 144.444 419.74 144.374 421.191C144.302 422.702 144.313 424.104 144.648 424.77C145.304 426.075 148.096 428.493 148.096 428.493C148.096 428.493 145.715 425.442 145.927 422.947C146.14 420.451 148.989 412.104 148.935 409.269C148.882 406.435 147.736 403.686 147.682 401.422C147.627 399.159 148.297 396.617 147.469 395.931C146.641 395.245 143.712 395.583 140.997 396.1Z" fill="url(#paint12_linear_577_609)" fill-opacity="0.2"/>
</g>
<path fill-rule="evenodd" clip-rule="evenodd" d="M135.942 397.126C134.322 398.055 135.785 400.267 138.269 400.999C140.036 401.52 141.8 402.503 141.8 402.503C141.8 402.503 142.326 400.415 142.327 399.445C142.332 396.072 139.533 394.782 139.533 394.782C139.533 394.782 137.562 396.197 135.942 397.126Z" fill="url(#paint13_linear_577_609)"/>
<path fill-rule="evenodd" clip-rule="evenodd" d="M141.059 402.972L141.731 419.369L144.032 421.383L144.91 418.307L142.41 402.411L141.059 402.972Z" fill="url(#paint14_linear_577_609)"/>
<path fill-rule="evenodd" clip-rule="evenodd" d="M140.662 401.675L142.132 401.39L142.96 401.672L142.525 403.109L141.058 403.425L139.875 402.53L140.662 401.675Z" fill="#092965"/>
<path fill-rule="evenodd" clip-rule="evenodd" d="M140.662 401.674L138.409 404.617C138.409 404.617 135.578 399.427 136.479 397.35C136.479 397.35 136.6 399.594 137.953 400.42C139.307 401.246 140.662 401.674 140.662 401.674Z" fill="url(#paint15_linear_577_609)"/>
</g>
<path fill-rule="evenodd" clip-rule="evenodd" d="M136.711 397.86C136.218 398.746 138.969 405.471 139.696 409.354C140.422 413.237 140.628 419.952 140.808 423.804C140.902 425.817 141.986 430.096 141.986 430.096C141.986 430.096 133.14 432.13 129.722 427.363C130.208 425.787 130.212 423.336 130.785 420.648C131.358 417.961 131.674 412.667 129.735 407.963C129.058 403.502 128.925 403.284 128.925 403.284C128.925 403.284 130.849 401.171 136.711 397.86Z" fill="#092965"/>
<mask id="mask4_577_609" style="mask-type:alpha" maskUnits="userSpaceOnUse" x="128" y="397" width="14" height="34">
<path fill-rule="evenodd" clip-rule="evenodd" d="M136.711 397.86C136.218 398.746 138.969 405.471 139.696 409.354C140.422 413.237 140.628 419.952 140.808 423.804C140.902 425.817 141.986 430.096 141.986 430.096C141.986 430.096 133.14 432.13 129.722 427.363C130.208 425.787 130.212 423.336 130.785 420.648C131.358 417.961 131.674 412.667 129.735 407.963C129.058 403.502 128.925 403.284 128.925 403.284C128.925 403.284 130.849 401.171 136.711 397.86Z" fill="white"/>
</mask>
<g mask="url(#mask4_577_609)">
<path fill-rule="evenodd" clip-rule="evenodd" d="M140.206 419.952C139.83 413.488 135.422 411.13 135.422 411.13L137.061 407.396L134.739 406.58C134.739 406.58 135.606 401.949 135.696 400.293C135.786 398.637 135.919 398.247 135.919 398.247L136.609 397.091C136.609 397.091 137.913 396.277 138.846 396.189C139.779 396.102 137.531 397.519 137.531 397.519C137.531 397.519 137.181 397.507 136.929 397.761C136.676 398.015 141.428 410.18 141.428 410.18C141.428 410.18 140.582 426.417 140.206 419.952Z" fill="#0B224E"/>
</g>
<path fill-rule="evenodd" clip-rule="evenodd" d="M135.695 400.293C135.635 401.397 135.309 403.08 134.718 405.34L137.194 406.81L135.69 409.958C137.516 413.42 140.452 416.634 140.703 420.941C140.517 416.67 140.388 413.053 139.696 409.354C138.969 405.471 136.216 398.76 136.709 397.874C137.102 397.002 137.694 396.803 137.694 396.803C137.694 396.803 137.814 396.595 137.549 396.718C137.283 396.84 136.803 397.059 136.48 397.35C136.172 397.627 135.987 397.872 135.895 398.326C135.817 398.631 135.75 399.286 135.695 400.293Z" fill="url(#paint16_linear_577_609)"/>
<path fill-rule="evenodd" clip-rule="evenodd" d="M140.997 396.1C142.889 396.772 145.009 400.621 145.793 405.03C146.577 409.44 146.166 412.614 145.353 416.163C144.539 419.712 145.986 422.816 146.642 424.121C147.298 425.427 148.453 427.605 148.453 427.605C148.453 427.605 149.013 425.711 149.041 423.174C149.069 420.638 147.542 414.892 147.489 412.057C147.455 410.247 147.857 407.979 147.927 405.521C147.967 404.13 147.946 401.986 147.927 401.168C147.873 398.904 148.298 396.617 147.47 395.931C146.642 395.245 143.713 395.583 140.997 396.1Z" fill="#092965"/>
<path fill-rule="evenodd" clip-rule="evenodd" d="M140.997 396.1C142.889 396.772 145.009 400.621 145.793 405.03C146.577 409.44 146.165 412.614 145.352 416.163C145.187 416.884 145.213 417.906 145.234 418.714L145.234 418.714C145.24 418.961 145.246 419.187 145.246 419.38C145.246 419.491 145.244 419.601 145.241 419.71C145.287 419.769 145.316 419.745 145.325 419.628C145.488 417.589 148.139 409.862 148.139 409.862L146.646 405.138L147.336 404.342C147.336 404.342 143.764 397.485 141.659 395.979C141.438 396.018 141.217 396.058 140.997 396.1Z" fill="url(#paint17_linear_577_609)"/>
<path fill-rule="evenodd" clip-rule="evenodd" d="M136.396 391.969C136.396 391.969 136.472 393.404 136.692 394.961C136.912 396.518 136.682 397.551 136.682 397.551C136.682 397.551 137.027 399.282 139.077 400.01C141.127 400.737 141.841 399.263 141.841 399.263L141.522 395.265L136.396 391.969Z" fill="#FCCBCB"/>
<mask id="mask5_577_609" style="mask-type:alpha" maskUnits="userSpaceOnUse" x="136" y="391" width="6" height="10">
<path fill-rule="evenodd" clip-rule="evenodd" d="M136.396 391.969C136.396 391.969 136.472 393.404 136.692 394.961C136.912 396.518 136.682 397.551 136.682 397.551C136.682 397.551 137.027 399.282 139.077 400.01C141.127 400.737 141.841 399.263 141.841 399.263L141.522 395.265L136.396 391.969Z" fill="white"/>
</mask>
<g mask="url(#mask5_577_609)">
<path fill-rule="evenodd" clip-rule="evenodd" d="M141.737 398.985C141.737 398.985 139.421 398.847 138.259 397.512C137.096 396.177 137.236 393.788 137.236 393.788L141.833 394.741L141.737 398.985Z" fill="url(#paint18_linear_577_609)"/>
</g>
<path fill-rule="evenodd" clip-rule="evenodd" d="M143.789 388.512C143.789 388.512 143.989 389.562 143.875 392.317C143.762 395.072 143.584 396.994 143.34 397.419C143.096 397.844 141.454 398.338 139.924 397.669C138.395 397.001 137.629 396.183 137.363 395.543C137.098 394.903 136.795 393.93 136.346 392.633C135.896 391.336 134.662 389.307 135.178 387.789C135.694 386.272 137.337 384.946 139.851 385.429C142.365 385.913 143.789 388.512 143.789 388.512Z" fill="#FCCBCB"/>
<mask id="mask6_577_609" style="mask-type:alpha" maskUnits="userSpaceOnUse" x="135" y="385" width="9" height="13">
<path fill-rule="evenodd" clip-rule="evenodd" d="M143.789 388.512C143.789 388.512 143.989 389.562 143.875 392.317C143.762 395.072 143.584 396.994 143.34 397.419C143.096 397.844 141.454 398.338 139.924 397.669C138.395 397.001 137.629 396.183 137.363 395.543C137.098 394.903 136.795 393.93 136.346 392.633C135.896 391.336 134.662 389.307 135.178 387.789C135.694 386.272 137.337 384.946 139.851 385.429C142.365 385.913 143.789 388.512 143.789 388.512Z" fill="white"/>
</mask>
<g mask="url(#mask6_577_609)">
</g>
<path fill-rule="evenodd" clip-rule="evenodd" d="M138.436 388.644C138.436 388.644 140.142 389.69 142.051 389.703C143.96 389.716 144.774 388.909 144.543 387.637C144.311 386.366 142.664 384.671 139.547 384.434C136.429 384.197 135.663 386.539 135.663 386.539C135.663 386.539 134.762 386.61 134.62 387.597C134.478 388.583 135.346 391.781 135.901 392.463C136.456 393.145 136.82 391.92 136.82 391.92C136.82 391.92 136.786 393.15 137.054 392.86C137.323 392.57 137.488 392.608 137.429 391.756C137.369 390.904 137.514 390.38 137.906 390.382C138.298 390.383 138.77 389.702 138.687 389.237C138.604 388.773 138.436 388.644 138.436 388.644Z" fill="#30334F"/>
<mask id="mask7_577_609" style="mask-type:alpha" maskUnits="userSpaceOnUse" x="134" y="384" width="11" height="9">
<path fill-rule="evenodd" clip-rule="evenodd" d="M138.436 388.644C138.436 388.644 140.142 389.69 142.051 389.703C143.96 389.716 144.774 388.909 144.543 387.637C144.311 386.366 142.664 384.671 139.547 384.434C136.429 384.197 135.663 386.539 135.663 386.539C135.663 386.539 134.762 386.61 134.62 387.597C134.478 388.583 135.346 391.781 135.901 392.463C136.456 393.145 136.82 391.92 136.82 391.92C136.82 391.92 136.786 393.15 137.054 392.86C137.323 392.57 137.488 392.608 137.429 391.756C137.369 390.904 137.514 390.38 137.906 390.382C138.298 390.383 138.77 389.702 138.687 389.237C138.604 388.773 138.436 388.644 138.436 388.644Z" fill="white"/>
</mask>
<g mask="url(#mask7_577_609)">
<path fill-rule="evenodd" clip-rule="evenodd" d="M137.767 390.568C137.767 390.568 136.176 389.483 135.284 389.569C134.393 389.655 134.313 390.415 134.313 390.415C134.313 390.415 135.896 393.871 136.059 393.889C136.222 393.906 137.977 393.728 137.977 393.728L137.767 390.568Z" fill="url(#paint19_linear_577_609)"/>
<path fill-rule="evenodd" clip-rule="evenodd" d="M135.853 386.755L138.218 388.547C138.218 388.547 137.295 388.054 136.609 387.606C135.924 387.159 135.853 386.755 135.853 386.755Z" fill="#031120"/>
<path fill-rule="evenodd" clip-rule="evenodd" d="M139.541 388.178C139.541 388.178 142.343 389.327 143.691 387.828C142.101 388.956 139.541 388.178 139.541 388.178Z" fill="#031120"/>
</g>
<path fill-rule="evenodd" clip-rule="evenodd" d="M136.801 391.323C136.801 391.323 136.711 390.966 136.213 390.754C135.716 390.542 135.249 391.321 135.578 392.112C135.78 392.601 135.95 392.942 136.297 393.232C136.383 393.304 136.56 393.26 136.56 393.26C136.56 393.26 136.629 393.468 136.671 393.583C136.762 393.172 136.806 392.512 136.812 392.242C136.824 391.718 136.801 391.323 136.801 391.323Z" fill="#FCCBCB"/>
<path fill-rule="evenodd" clip-rule="evenodd" d="M136.499 391.453C136.499 391.453 136.235 391.167 136.02 391.228C135.805 391.289 135.678 391.752 135.963 392.184C136.248 392.616 136.417 392.652 136.417 392.652L136.499 391.453Z" fill="url(#paint20_linear_577_609)"/>
<path fill-rule="evenodd" clip-rule="evenodd" d="M146.449 431.762C146.493 431.762 147.514 435.905 154.264 435.99C161.015 436.074 147.059 429.502 147.059 429.502C147.059 429.502 146.406 431.762 146.449 431.762Z" fill="url(#paint21_linear_577_609)"/>
<path fill-rule="evenodd" clip-rule="evenodd" d="M129.186 403.027C126.283 405.363 126.038 412.195 129.828 418.563C133.618 424.931 131.878 423.381 134.724 425.389C137.571 427.397 146.846 433.179 146.846 433.179C146.846 433.179 147.391 430.675 149.776 430.675L137.666 420.178C137.666 420.178 132.224 402.677 129.186 403.027Z" fill="url(#paint22_linear_577_609)"/>
<path fill-rule="evenodd" clip-rule="evenodd" d="M146.627 431.484C146.849 431.484 147.029 431.301 147.029 431.076C147.029 430.851 146.849 430.668 146.627 430.668C146.405 430.668 146.225 430.851 146.225 431.076C146.225 431.301 146.405 431.484 146.627 431.484Z" fill="#D8D8D8"/>
<path d="M163.323 443.943C156.215 443.943 150.452 440.284 150.452 435.771C150.452 435.116 150.452 433.278 150.452 433.278C150.452 433.278 157.247 427.6 163.323 427.6C170.431 427.6 176.193 431.258 176.193 435.771C176.193 440.284 170.431 443.943 163.323 443.943Z" fill="#C06100"/>
<path fill-rule="evenodd" clip-rule="evenodd" d="M163.323 442.28C156.215 442.28 150.452 438.622 150.452 434.109C150.452 429.596 156.215 425.938 163.323 425.938C170.431 425.938 176.193 429.596 176.193 434.109C176.193 438.622 170.431 442.28 163.323 442.28Z" fill="white"/>
<path d="M163.323 441.736C156.215 441.736 150.452 438.013 150.452 433.421C150.452 428.829 156.215 425.107 163.323 425.107C170.431 425.107 176.193 428.829 176.193 433.421C176.193 438.013 170.431 441.736 163.323 441.736Z" fill="#FFB74F"/>
<path d="M163.185 440.065C157.376 440.065 152.667 437.088 152.667 433.417C152.667 429.745 157.376 426.769 163.185 426.769C168.994 426.769 173.703 429.745 173.703 433.417C173.703 437.088 168.994 440.065 163.185 440.065Z" fill="#C06100"/>
<mask id="mask8_577_609" style="mask-type:alpha" maskUnits="userSpaceOnUse" x="152" y="426" width="22" height="15">
<path d="M163.185 440.065C157.376 440.065 152.667 437.088 152.667 433.417C152.667 429.745 157.376 426.769 163.185 426.769C168.994 426.769 173.703 429.745 173.703 433.417C173.703 437.088 168.994 440.065 163.185 440.065Z" fill="white"/>
</mask>
<g mask="url(#mask8_577_609)">
<path d="M163.185 441.173C157.376 441.173 152.667 438.197 152.667 434.525C152.667 430.854 157.376 427.877 163.185 427.877C168.994 427.877 173.703 430.854 173.703 434.525C173.703 438.197 168.994 441.173 163.185 441.173Z" fill="#FF8900"/>
<path fill-rule="evenodd" clip-rule="evenodd" d="M169.567 433.058C169.567 433.058 168.873 432.678 168.558 432.446L169.518 432.07L169.518 430.962L168.558 431.338L167.98 432.02C167.677 431.848 167.327 431.704 166.929 431.586C166.532 431.468 166.117 431.39 165.686 431.351C165.256 431.312 164.811 431.32 164.352 431.375C163.894 431.429 163.45 431.54 163.02 431.709C162.67 431.845 162.363 431.809 162.123 431.781C161.885 431.754 161.713 431.733 161.63 431.895C161.462 432.221 161.587 433.301 161.811 433.714C161.811 433.714 159.466 434.826 159.373 434.619C159.281 434.411 159.305 434.194 159.446 433.968L156.842 433.059C156.723 433.435 156.814 434.66 157.032 435.007C157.25 435.353 156.976 435.22 156.976 435.22L156.976 436.328L157.554 436.754L158.515 436.378C158.846 436.571 159.214 436.734 159.617 436.866C160.02 436.998 160.446 437.085 160.895 437.127C161.344 437.168 161.806 437.158 162.283 437.097C162.76 437.036 163.241 436.91 163.726 436.72C164.366 436.469 164.779 436.178 164.964 435.845C165.15 435.512 165.109 434.175 165.109 434.175L164.483 434.042L166.664 433.187C166.833 433.332 166.964 433.488 167.058 433.656C167.152 433.823 167.173 433.996 167.121 434.175L169.567 434.166L169.567 433.058ZM160.819 435.777C160.678 435.73 160.55 435.68 160.435 435.626L162.493 434.82L162.564 434.98C162.594 435.054 162.619 435.127 162.639 435.198C162.658 435.27 162.66 435.338 162.644 435.404C162.628 435.469 162.586 435.533 162.517 435.597C162.449 435.66 162.341 435.72 162.195 435.777C162.039 435.838 161.883 435.875 161.725 435.887C161.566 435.9 161.411 435.896 161.259 435.877C161.106 435.857 160.96 435.824 160.819 435.777Z" fill="#C06100"/>
<path fill-rule="evenodd" clip-rule="evenodd" d="M168.558 431.337C168.873 431.569 169.136 431.836 169.346 432.135C169.557 432.435 169.63 432.742 169.567 433.057L167.121 433.066C167.173 432.887 167.152 432.714 167.058 432.547C166.964 432.379 166.833 432.223 166.664 432.078L164.483 432.933L164.939 433.703C165.142 434.058 165.15 434.403 164.964 434.736C164.779 435.069 164.366 435.36 163.726 435.611C163.241 435.801 162.76 435.927 162.283 435.988C161.806 436.05 161.344 436.059 160.895 436.018C160.446 435.976 160.02 435.889 159.617 435.757C159.214 435.625 158.846 435.463 158.515 435.27L157.554 435.646L156.976 435.22L157.937 434.843C157.551 434.559 157.25 434.244 157.032 433.898C156.814 433.552 156.765 433.19 156.885 432.814L159.446 432.859C159.305 433.085 159.281 433.302 159.373 433.51C159.466 433.718 159.618 433.915 159.83 434.102L162.149 433.194L161.811 432.605C161.587 432.192 161.559 431.822 161.726 431.497C161.893 431.171 162.325 430.872 163.02 430.6C163.45 430.431 163.894 430.32 164.352 430.266C164.811 430.211 165.256 430.204 165.686 430.242C166.117 430.281 166.532 430.36 166.929 430.477C167.327 430.595 167.677 430.74 167.98 430.911L168.94 430.535L169.518 430.961L168.558 431.337ZM166.045 431.669C165.827 431.57 165.585 431.5 165.319 431.459C165.054 431.418 164.774 431.455 164.482 431.569C164.271 431.652 164.133 431.735 164.067 431.821C164 431.906 163.968 431.988 163.969 432.066C163.971 432.145 163.993 432.215 164.035 432.278C164.078 432.34 164.108 432.388 164.124 432.421L166.045 431.669ZM160.819 434.669C160.678 434.622 160.55 434.571 160.435 434.517L162.493 433.711L162.564 433.872C162.594 433.946 162.619 434.018 162.639 434.09C162.658 434.161 162.66 434.229 162.644 434.295C162.628 434.361 162.586 434.425 162.517 434.488C162.449 434.551 162.341 434.611 162.195 434.668C162.039 434.729 161.883 434.766 161.725 434.779C161.566 434.791 161.411 434.788 161.259 434.768C161.106 434.749 160.96 434.716 160.819 434.669Z" fill="#FFB74F"/>
</g>
<path fill-rule="evenodd" clip-rule="evenodd" d="M149.607 433.303C149.607 433.303 151.985 432.986 152.791 433.303C153.597 433.619 151.737 433.923 151.319 434.393C150.902 434.863 149.607 433.887 149.607 433.887V433.303Z" fill="#FCCBCB"/>
<path d="M187.002 453.266C194.11 453.266 199.872 449.607 199.872 445.094C199.872 444.439 199.872 442.601 199.872 442.601C199.872 442.601 193.078 436.923 187.002 436.923C179.894 436.923 174.131 440.581 174.131 445.094C174.131 449.607 179.894 453.266 187.002 453.266Z" fill="#C06100"/>
<path fill-rule="evenodd" clip-rule="evenodd" d="M187.002 451.603C194.11 451.603 199.872 447.945 199.872 443.432C199.872 438.919 194.11 435.261 187.002 435.261C179.894 435.261 174.131 438.919 174.131 443.432C174.131 447.945 179.894 451.603 187.002 451.603Z" fill="white"/>
<path d="M187.002 451.327C194.11 451.327 199.872 447.668 199.872 443.155C199.872 438.642 194.11 434.984 187.002 434.984C179.894 434.984 174.131 438.642 174.131 443.155C174.131 447.668 179.894 451.327 187.002 451.327Z" fill="#FFB74F"/>
<path d="M187.14 449.388C192.949 449.388 197.658 446.411 197.658 442.74C197.658 439.068 192.949 436.092 187.14 436.092C181.332 436.092 176.623 439.068 176.623 442.74C176.623 446.411 181.332 449.388 187.14 449.388Z" fill="#C06100"/>
<mask id="mask9_577_609" style="mask-type:alpha" maskUnits="userSpaceOnUse" x="176" y="436" width="22" height="14">
<path d="M187.14 449.388C192.949 449.388 197.658 446.411 197.658 442.74C197.658 439.068 192.949 436.092 187.14 436.092C181.332 436.092 176.623 439.068 176.623 442.74C176.623 446.411 181.332 449.388 187.14 449.388Z" fill="white"/>
</mask>
<g mask="url(#mask9_577_609)">
<path d="M187.14 450.495C192.949 450.495 197.658 447.519 197.658 443.848C197.658 440.176 192.949 437.2 187.14 437.2C181.332 437.2 176.623 440.176 176.623 443.848C176.623 447.519 181.332 450.495 187.14 450.495Z" fill="#FF8900"/>
<path fill-rule="evenodd" clip-rule="evenodd" d="M184.847 444.673C184.823 444.65 184.8 444.628 184.777 444.605L190.009 442.482C190.197 442.671 190.337 442.739 190.337 442.739V443.669L192.355 444.038C192.45 443.831 192.497 443.624 192.494 443.419C192.492 443.213 192.454 443.014 192.38 442.823C192.305 442.632 192.204 442.45 192.077 442.276C191.952 442.106 191.815 441.951 191.665 441.81L192.986 441.274V440.357L192.121 440.528L190.718 441.108C190.545 441.007 190.364 440.915 190.177 440.831C189.623 440.583 189.034 440.418 188.412 440.337C187.79 440.255 187.15 440.262 186.492 440.357C185.835 440.452 185.192 440.642 184.564 440.926C183.936 441.211 183.441 441.538 183.078 441.905C182.716 442.273 182.488 442.66 182.393 443.067C182.299 443.474 182.336 443.888 182.506 444.311C182.528 444.366 182.553 444.42 182.579 444.475L181.633 443.976V444.866L182.467 445.543L183.137 445.271C183.22 445.362 183.309 445.451 183.406 445.54C183.783 445.89 184.262 446.179 184.84 446.409C185.419 446.639 186.058 446.756 186.756 446.76L186.822 445.339C186.432 445.345 186.067 445.292 185.728 445.182C185.389 445.072 185.095 444.902 184.847 444.673ZM186.951 441.744C187.341 441.677 187.72 441.658 188.088 441.688C188.383 441.712 188.663 441.765 188.928 441.849L184.386 443.728C184.386 443.594 184.41 443.462 184.459 443.329C184.545 443.097 184.701 442.875 184.928 442.661C185.154 442.448 185.452 442.258 185.822 442.09C186.184 441.926 186.56 441.81 186.951 441.744Z" fill="#C06100"/>
<path fill-rule="evenodd" clip-rule="evenodd" d="M184.777 443.682L190.009 441.558C190.197 441.747 190.319 441.935 190.375 442.124C190.438 442.335 190.425 442.542 190.337 442.746L192.355 443.115C192.45 442.907 192.497 442.701 192.494 442.495C192.492 442.289 192.454 442.091 192.38 441.9C192.305 441.709 192.204 441.526 192.077 441.352C191.952 441.182 191.815 441.027 191.665 440.887L192.986 440.35L192.121 439.604L190.718 440.185C190.545 440.084 190.364 439.991 190.177 439.908C189.623 439.66 189.034 439.495 188.412 439.413C187.79 439.332 187.15 439.338 186.492 439.433C185.835 439.528 185.192 439.718 184.564 440.003C183.936 440.288 183.441 440.614 183.078 440.982C182.716 441.35 182.488 441.737 182.393 442.144C182.299 442.55 182.336 442.965 182.506 443.387C182.528 443.442 182.553 443.497 182.579 443.551L181.633 443.942L182.467 444.619L183.137 444.348C183.22 444.438 183.309 444.528 183.406 444.617C183.783 444.966 184.262 445.256 184.84 445.486C185.419 445.715 186.058 445.832 186.756 445.837L186.822 444.415C186.432 444.421 186.067 444.369 185.728 444.259C185.389 444.149 185.095 443.979 184.847 443.749C184.823 443.727 184.8 443.704 184.777 443.682ZM188.088 440.764C188.383 440.788 188.663 440.841 188.928 440.925L184.386 442.804C184.386 442.671 184.41 442.538 184.459 442.405C184.545 442.173 184.701 441.951 184.928 441.738C185.154 441.524 185.452 441.334 185.822 441.166C186.184 441.002 186.56 440.886 186.951 440.82C187.341 440.753 187.72 440.735 188.088 440.764Z" fill="#FFB74F"/>
</g>
<path fill-rule="evenodd" clip-rule="evenodd" d="M203.62 473.362L203.337 475.329C203.337 475.329 204.465 478.66 204.821 482.861C205.177 487.063 204.605 494.327 205.283 495.65C205.961 496.972 205.481 497.89 204.909 498.131C204.337 498.373 203.576 497.775 201.865 496.409C200.153 495.043 198.002 494.236 198.338 493.49C198.675 492.745 201.738 494.23 202.095 493.687C202.452 493.145 199.086 476.242 199.3 475.117C199.514 473.991 199.84 470.472 199.84 470.472L203.62 473.362Z" fill="#FFBBB0"/>
<path fill-rule="evenodd" clip-rule="evenodd" d="M201.909 473.966L201.466 476.535C201.466 476.535 202.211 481.839 202.536 485.175C202.861 488.511 203.473 496.615 203.473 496.615L202.657 497.027L199.367 474.436L201.909 473.966Z" fill="#F29E98"/>
<path fill-rule="evenodd" clip-rule="evenodd" d="M205.338 494.87C205.338 494.87 204.927 494.575 204.683 494.836C204.439 495.097 202.87 495.714 201.843 495.387C200.815 495.06 199.611 494.073 199.63 493.725C199.648 493.377 201.142 492.707 201.142 492.707C201.142 492.707 199.195 492.137 198.439 492.565C197.683 492.993 198.43 494.56 199.122 494.92C199.815 495.281 203.46 497.889 203.718 497.902C203.976 497.916 204.409 500.068 204.409 500.068C204.409 500.068 204.691 500.214 204.961 500.097C204.961 500.097 205.658 497.449 205.71 496.457C205.762 495.466 205.338 494.87 205.338 494.87Z" fill="#181E36"/>
<path fill-rule="evenodd" clip-rule="evenodd" d="M200.413 472.888L200.117 475.992C200.117 475.992 201.27 480.279 201.714 483.319C202.158 486.359 202.539 494.641 202.84 495.412C203.141 496.183 203.447 498.202 202.546 498.65C201.972 498.936 202.5 498.375 200.929 498.319C200.033 498.286 196.967 499.349 196.08 499.302C193.637 499.174 193.665 498.435 194.045 498.085C194.242 497.903 196.08 497.08 196.08 497.08C196.08 497.08 198.517 496.405 198.844 495.974C199.525 495.076 199.669 493.881 199.496 492.52C199.323 491.159 195.428 476.695 195.269 475.371C195.111 474.048 195.126 470.405 195.126 470.405L200.413 472.888Z" fill="#FFBBB0"/>
<rect width="1.38394" height="0.553987" rx="0.239397" transform="matrix(-0.998625 -0.0524176 -0.0522544 0.998634 195.208 426.627)" fill="#30334F"/>
<path fill-rule="evenodd" clip-rule="evenodd" d="M194.922 424.771C194.922 424.771 194.058 426.478 194.274 427.289C194.49 428.1 194.237 428.974 193.734 429.272C193.232 429.57 194.13 430.045 194.13 430.045C194.13 430.045 194.147 431.032 194.435 431.849C194.723 432.666 194.617 433.301 195.539 433.349C196.461 433.397 197.531 433.261 197.531 433.261C197.531 433.261 198.186 434.194 197.926 434.769C197.667 435.344 196.359 435.634 196.61 436.012C196.86 436.389 203.562 437.458 203.949 436.883C204.336 436.308 201.306 434.888 201.422 432.681C201.537 430.474 201.782 423.406 199.03 423.262C196.278 423.117 194.922 424.771 194.922 424.771Z" fill="#FFBBB0"/>
<path fill-rule="evenodd" clip-rule="evenodd" d="M197.231 429.404C197.231 429.404 197.57 428.97 197.793 429.132C198.015 429.295 198.072 429.696 197.737 430.192C197.403 430.687 197.105 430.267 197.105 430.267L197.231 429.404Z" fill="url(#paint23_linear_577_609)"/>
<path fill-rule="evenodd" clip-rule="evenodd" d="M195.184 451.511C195.184 451.511 193.776 458.576 193.852 463.187C193.928 467.798 194.558 474.007 194.558 474.007C194.558 474.007 196.432 475.219 199.215 475.365C201.998 475.511 203.952 474.133 203.952 474.133C203.952 474.133 205.468 466.221 206.645 464.449C207.822 462.677 209.294 459.477 208.464 455.69C207.633 451.903 205.433 449.815 205.433 449.815C205.433 449.815 202.503 448.8 201.102 449.157C199.702 449.514 195.184 451.511 195.184 451.511Z" fill="url(#paint24_linear_577_609)"/>
<mask id="mask10_577_609" style="mask-type:alpha" maskUnits="userSpaceOnUse" x="193" y="449" width="16" height="27">
<path fill-rule="evenodd" clip-rule="evenodd" d="M195.184 451.511C195.184 451.511 193.776 458.576 193.852 463.187C193.928 467.798 194.558 474.007 194.558 474.007C194.558 474.007 196.432 475.219 199.215 475.365C201.998 475.511 203.952 474.133 203.952 474.133C203.952 474.133 205.468 466.221 206.645 464.449C207.822 462.677 209.294 459.477 208.464 455.69C207.633 451.903 205.433 449.815 205.433 449.815C205.433 449.815 202.503 448.8 201.102 449.157C199.702 449.514 195.184 451.511 195.184 451.511Z" fill="white"/>
</mask>
<g mask="url(#mask10_577_609)">
<path d="M196.355 452.146C196.355 452.146 195.403 458.474 195.575 461.111C195.748 463.748 195.537 474.698 195.537 474.698" stroke="#1C478A" stroke-width="0.239397"/>
</g>
<path fill-rule="evenodd" clip-rule="evenodd" d="M205.226 449.574C205.226 449.574 205.396 451.46 202.093 452.396C198.79 453.332 194.829 452.67 194.904 451.238C194.979 449.807 205.226 449.574 205.226 449.574Z" fill="#092965"/>
<path fill-rule="evenodd" clip-rule="evenodd" d="M195.658 436.947C195.658 436.947 196.364 435.174 197.434 434.621C198.503 434.067 201.836 432.611 202.15 434.702L195.658 436.947Z" fill="#D8D8D8"/>
<path fill-rule="evenodd" clip-rule="evenodd" d="M195.032 425.668C195.032 425.668 194.3 424.029 194.636 422.823C194.972 421.616 196.255 420.109 198.328 420.835C200.961 420.544 204.044 421.686 204.654 425.42C205.264 429.154 204.357 432.512 201.682 432.951C199.008 433.389 197.642 431.248 197.642 431.248C197.642 431.248 198.894 430.266 198.416 429.275C197.938 428.283 196.757 429.081 196.757 429.081L195.032 425.668Z" fill="#30334F"/>
<path fill-rule="evenodd" clip-rule="evenodd" d="M204.216 435.089C204.216 435.089 205.939 435.315 206.531 439.047C207.123 442.779 209.098 446.941 207.113 448.277C205.128 449.612 203.205 443.835 203.205 443.835L204.216 435.089Z" fill="#F0F0F0"/>
<mask id="mask11_577_609" style="mask-type:alpha" maskUnits="userSpaceOnUse" x="203" y="435" width="5" height="14">
<path fill-rule="evenodd" clip-rule="evenodd" d="M204.216 435.089C204.216 435.089 205.939 435.315 206.531 439.047C207.123 442.779 209.098 446.941 207.113 448.277C205.128 449.612 203.205 443.835 203.205 443.835L204.216 435.089Z" fill="white"/>
</mask>
<g mask="url(#mask11_577_609)">
<path fill-rule="evenodd" clip-rule="evenodd" d="M203.773 434.599C203.773 434.599 205.497 434.825 206.089 438.557C206.681 442.29 208.656 446.452 206.671 447.787C204.686 449.122 202.762 443.345 202.762 443.345L203.773 434.599Z" fill="#D8D8D8"/>
</g>
<path fill-rule="evenodd" clip-rule="evenodd" d="M205.626 437.755C205.42 437.364 205.105 435.559 204.055 435.163C202.738 434.665 200.838 434.63 199.698 434.934C197.578 435.499 194.096 437.296 193.761 437.861C193.427 438.425 192.87 440.703 192.551 441.963C192.231 443.223 191.463 446.473 194.024 446.43C194.024 446.43 194.668 447.729 194.608 448.861C194.549 449.993 194.259 450.639 195.227 451.558C196.196 452.476 200.421 452.485 202.312 451.929C204.202 451.374 205.288 450.149 205.833 449.45C206.378 448.752 205.066 445.747 205.066 445.747C205.066 445.747 206.088 438.638 205.626 437.755Z" fill="url(#paint25_linear_577_609)"/>
<mask id="mask12_577_609" style="mask-type:alpha" maskUnits="userSpaceOnUse" x="192" y="434" width="14" height="19">
<path fill-rule="evenodd" clip-rule="evenodd" d="M205.626 437.755C205.42 437.364 205.105 435.559 204.055 435.163C202.738 434.665 200.838 434.63 199.698 434.934C197.578 435.499 194.096 437.296 193.761 437.861C193.427 438.425 192.87 440.703 192.551 441.963C192.231 443.223 191.463 446.473 194.024 446.43C194.024 446.43 194.668 447.729 194.608 448.861C194.549 449.993 194.259 450.639 195.227 451.558C196.196 452.476 200.421 452.485 202.312 451.929C204.202 451.374 205.288 450.149 205.833 449.45C206.378 448.752 205.066 445.747 205.066 445.747C205.066 445.747 206.088 438.638 205.626 437.755Z" fill="white"/>
</mask>
<g mask="url(#mask12_577_609)">
<path fill-rule="evenodd" clip-rule="evenodd" d="M194.125 438.961C194.125 438.961 195.167 444.587 192.79 447.363C190.412 450.138 193.544 450.072 193.544 450.072C193.544 450.072 194.779 447.11 195.068 444.494C195.357 441.879 194.125 438.961 194.125 438.961Z" fill="#D8D8D8"/>
</g>
<path fill-rule="evenodd" clip-rule="evenodd" d="M180.931 447.629C180.457 447.414 179.374 446.52 178.763 447.393C177.611 447.279 176.387 447.283 175.857 447.352C174.954 447.47 174.135 447.966 173.687 448.045C173.239 448.125 173.849 448.803 174.408 448.601C174.967 448.399 175.964 448.128 176.272 448.174C176.58 448.22 177.182 448.384 177.182 448.384C177.182 448.384 176.03 448.628 175.757 448.881C175.485 449.134 175.53 450.101 175.337 450.496C175.145 450.891 175.787 450.955 175.919 450.653C175.919 450.653 175.992 451.022 176.018 451.191C176.051 451.408 176.04 451.67 176.128 451.694C176.364 451.759 176.794 451.502 176.679 450.96C176.679 450.96 176.908 451.167 177.11 451.456C177.312 451.744 177.626 451.356 177.53 451.043C177.434 450.729 177.281 450.517 177.281 450.517C177.281 450.517 179.195 451.219 179.945 451.209C180.696 451.2 181.639 450.504 181.639 450.504L187.666 452.474L188.365 449.784C188.365 449.784 182.076 448.149 180.931 447.629Z" fill="#FFBBB0"/>
<mask id="mask13_577_609" style="mask-type:alpha" maskUnits="userSpaceOnUse" x="173" y="447" width="16" height="6">
<path fill-rule="evenodd" clip-rule="evenodd" d="M180.931 447.629C180.457 447.414 179.374 446.52 178.763 447.393C177.611 447.279 176.387 447.283 175.857 447.352C174.954 447.47 174.135 447.966 173.687 448.045C173.239 448.125 173.849 448.803 174.408 448.601C174.967 448.399 175.964 448.128 176.272 448.174C176.58 448.22 177.182 448.384 177.182 448.384C177.182 448.384 176.03 448.628 175.757 448.881C175.485 449.134 175.53 450.101 175.337 450.496C175.145 450.891 175.787 450.955 175.919 450.653C175.919 450.653 175.992 451.022 176.018 451.191C176.051 451.408 176.04 451.67 176.128 451.694C176.364 451.759 176.794 451.502 176.679 450.96C176.679 450.96 176.908 451.167 177.11 451.456C177.312 451.744 177.626 451.356 177.53 451.043C177.434 450.729 177.281 450.517 177.281 450.517C177.281 450.517 179.195 451.219 179.945 451.209C180.696 451.2 181.639 450.504 181.639 450.504L187.666 452.474L188.365 449.784C188.365 449.784 182.076 448.149 180.931 447.629Z" fill="white"/>
</mask>
<g mask="url(#mask13_577_609)">
<path fill-rule="evenodd" clip-rule="evenodd" d="M175.918 450.653C175.918 450.653 175.671 449.286 176.214 449.053C176.757 448.819 177.067 448.704 177.067 448.704C177.067 448.704 176.007 448.718 175.823 449.085C175.741 449.25 175.509 450.404 175.566 450.818C175.832 450.849 175.918 450.653 175.918 450.653Z" fill="#F29E98"/>
<path fill-rule="evenodd" clip-rule="evenodd" d="M176.679 450.949C176.679 450.949 176.044 450.074 176.184 449.747C176.325 449.419 177.137 449.148 177.137 449.148C177.137 449.148 176.404 449.063 176.121 449.54C175.971 449.793 176.148 450.31 176.374 451.043C176.431 451.227 176.441 451.617 176.441 451.617C176.441 451.617 176.608 451.515 176.658 451.298C176.708 451.082 176.679 450.949 176.679 450.949Z" fill="#F29E98"/>
<path fill-rule="evenodd" clip-rule="evenodd" d="M178.763 447.393L179.613 447.423L178.751 446.875L178.763 447.393Z" fill="#F29E98"/>
</g>
<path fill-rule="evenodd" clip-rule="evenodd" d="M184.284 448.189C184.271 448.193 183.284 447.382 182.468 448.189C181.651 448.995 181.746 451.058 182.959 451.038C184.172 451.018 184.297 448.185 184.284 448.189Z" fill="#D8D8D8"/>
<path fill-rule="evenodd" clip-rule="evenodd" d="M193.868 438.08C193.868 438.08 192.34 439.831 192.433 443.933C192.526 448.036 192.003 449.199 192.003 449.199C192.003 449.199 186.168 448.881 184.902 448.147C183.636 447.414 182.912 448.901 182.809 449.806C182.706 450.71 182.475 451.795 185.005 452.574C187.535 453.352 194.388 454.219 195.572 452.174C196.756 450.129 196.824 443.187 196.319 441.53C195.813 439.874 193.868 438.08 193.868 438.08Z" fill="#FFFEFE"/>
<mask id="mask14_577_609" style="mask-type:alpha" maskUnits="userSpaceOnUse" x="182" y="438" width="15" height="16">
<path fill-rule="evenodd" clip-rule="evenodd" d="M193.868 438.08C193.868 438.08 192.34 439.831 192.433 443.933C192.526 448.036 192.003 449.199 192.003 449.199C192.003 449.199 186.168 448.881 184.902 448.147C183.636 447.414 182.912 448.901 182.809 449.806C182.706 450.71 182.475 451.795 185.005 452.574C187.535 453.352 194.388 454.219 195.572 452.174C196.756 450.129 196.824 443.187 196.319 441.53C195.813 439.874 193.868 438.08 193.868 438.08Z" fill="white"/>
</mask>
<g mask="url(#mask14_577_609)">
<path fill-rule="evenodd" clip-rule="evenodd" d="M196.525 442.55C196.525 442.55 196.33 443.387 196.423 447.489C196.194 449.716 196.023 452.732 193.969 452.997C191.916 453.261 189.301 453.368 186.418 452.7C183.535 452.032 183.026 451.063 182.557 451.075C182.454 451.98 185.864 456.009 188.394 456.788C190.924 457.566 197.777 458.433 198.961 456.388C200.145 454.343 200.214 447.401 199.708 445.744C199.202 444.088 196.525 442.55 196.525 442.55Z" fill="#D8D8D8"/>
</g>
<path fill-rule="evenodd" clip-rule="evenodd" d="M203.455 432.679C201.547 432.579 200.081 430.95 200.181 429.04C200.281 427.13 201.909 425.664 203.817 425.764C205.725 425.864 207.191 427.493 207.091 429.403C206.991 431.312 205.363 432.779 203.455 432.679Z" fill="#181E36"/>
<path fill-rule="evenodd" clip-rule="evenodd" d="M203.041 495.978C202.863 495.735 202.723 495.728 202.166 496.156C201.506 496.663 199.064 497.469 198.013 497.684C197.341 497.821 195.669 497.82 195.736 497.564C195.807 497.295 196.104 497.288 196.18 497.203C196.328 497.037 193.619 498.169 193.005 498.61C192.391 499.051 192.347 499.892 195.353 500.704C195.659 500.787 197.359 500.675 197.949 500.477C199.272 500.032 199.89 499.15 201.285 499.044L201.749 501.755C201.749 501.755 202.184 502.022 202.55 501.708C202.55 501.708 203.275 497.775 203.309 497.128C203.343 496.481 203.134 496.105 203.041 495.978Z" fill="#181E36"/>
<path fill-rule="evenodd" clip-rule="evenodd" d="M77.4727 529.515L97.2752 540.96L94.73 542.057V546.217L127.184 547.737V543.591L124.063 529.694L118.166 533.121L94.73 519.842L77.4727 525.189V529.515Z" fill="#80B1FF"/>
<path fill-rule="evenodd" clip-rule="evenodd" d="M77.4727 525.189L100.595 538.685L94.73 542.057L127.184 543.591L124.063 525.37L118.166 528.831L94.73 515.42L77.4727 525.189Z" fill="#CBDFFF"/>
<path fill-rule="evenodd" clip-rule="evenodd" d="M95.4314 510.55L118.48 524.084L136.021 513.994V510.391L112.634 500.753L118.48 497.42V493.817L87.9292 494.695V514.839L95.4314 510.55Z" fill="url(#paint26_linear_577_609)"/>
<path fill-rule="evenodd" clip-rule="evenodd" d="M95.4314 506.947L118.48 520.481L136.021 510.391L112.634 497.15L118.48 493.817L87.9292 491.092V511.236L95.4314 506.947Z" fill="#80B1FF"/>
<path d="M44.6 134.25H36.475L34.925 138H30.775L38.575 120.5H42.575L50.4 138H46.15L44.6 134.25ZM43.325 131.175L40.55 124.475L37.775 131.175H43.325ZM65.0457 138.3C63.6624 138.3 62.3207 138.117 61.0207 137.75C59.7374 137.367 58.704 136.875 57.9207 136.275L59.2957 133.225C60.0457 133.775 60.9374 134.217 61.9707 134.55C63.004 134.883 64.0374 135.05 65.0707 135.05C66.2207 135.05 67.0707 134.883 67.6207 134.55C68.1707 134.2 68.4457 133.742 68.4457 133.175C68.4457 132.758 68.279 132.417 67.9457 132.15C67.629 131.867 67.2124 131.642 66.6957 131.475C66.1957 131.308 65.5124 131.125 64.6457 130.925C63.3124 130.608 62.2207 130.292 61.3707 129.975C60.5207 129.658 59.7874 129.15 59.1707 128.45C58.5707 127.75 58.2707 126.817 58.2707 125.65C58.2707 124.633 58.5457 123.717 59.0957 122.9C59.6457 122.067 60.4707 121.408 61.5707 120.925C62.6874 120.442 64.0457 120.2 65.6457 120.2C66.7624 120.2 67.854 120.333 68.9207 120.6C69.9874 120.867 70.9207 121.25 71.7207 121.75L70.4707 124.825C68.854 123.908 67.2374 123.45 65.6207 123.45C64.4874 123.45 63.6457 123.633 63.0957 124C62.5624 124.367 62.2957 124.85 62.2957 125.45C62.2957 126.05 62.604 126.5 63.2207 126.8C63.854 127.083 64.8124 127.367 66.0957 127.65C67.429 127.967 68.5207 128.283 69.3707 128.6C70.2207 128.917 70.9457 129.417 71.5457 130.1C72.1624 130.783 72.4707 131.708 72.4707 132.875C72.4707 133.875 72.1874 134.792 71.6207 135.625C71.0707 136.442 70.2374 137.092 69.1207 137.575C68.004 138.058 66.6457 138.3 65.0457 138.3ZM92.1881 124.35C93.8714 124.35 95.2048 124.85 96.1881 125.85C97.1881 126.833 97.6881 128.317 97.6881 130.3V138H93.7881V130.9C93.7881 129.833 93.5631 129.042 93.1131 128.525C92.6798 127.992 92.0548 127.725 91.2381 127.725C90.3214 127.725 89.5964 128.025 89.0631 128.625C88.5298 129.208 88.2631 130.083 88.2631 131.25V138H84.3631V130.9C84.3631 128.783 83.5131 127.725 81.8131 127.725C80.9131 127.725 80.1964 128.025 79.6631 128.625C79.1298 129.208 78.8631 130.083 78.8631 131.25V138H74.9631V124.55H78.6881V126.1C79.1881 125.533 79.7964 125.1 80.5131 124.8C81.2464 124.5 82.0464 124.35 82.9131 124.35C83.8631 124.35 84.7214 124.542 85.4881 124.925C86.2548 125.292 86.8714 125.833 87.3381 126.55C87.8881 125.85 88.5798 125.308 89.4131 124.925C90.2631 124.542 91.1881 124.35 92.1881 124.35ZM106.609 124.35C108.692 124.35 110.292 124.85 111.409 125.85C112.525 126.833 113.084 128.325 113.084 130.325V138H109.434V136.325C108.7 137.575 107.334 138.2 105.334 138.2C104.3 138.2 103.4 138.025 102.634 137.675C101.884 137.325 101.309 136.842 100.909 136.225C100.509 135.608 100.309 134.908 100.309 134.125C100.309 132.875 100.775 131.892 101.709 131.175C102.659 130.458 104.117 130.1 106.084 130.1H109.184C109.184 129.25 108.925 128.6 108.409 128.15C107.892 127.683 107.117 127.45 106.084 127.45C105.367 127.45 104.659 127.567 103.959 127.8C103.275 128.017 102.692 128.317 102.209 128.7L100.809 125.975C101.542 125.458 102.417 125.058 103.434 124.775C104.467 124.492 105.525 124.35 106.609 124.35ZM106.309 135.575C106.975 135.575 107.567 135.425 108.084 135.125C108.6 134.808 108.967 134.35 109.184 133.75V132.375H106.509C104.909 132.375 104.109 132.9 104.109 133.95C104.109 134.45 104.3 134.85 104.684 135.15C105.084 135.433 105.625 135.575 106.309 135.575ZM120.338 126.325C120.805 125.675 121.43 125.183 122.213 124.85C123.013 124.517 123.93 124.35 124.963 124.35V127.95C124.53 127.917 124.238 127.9 124.088 127.9C122.972 127.9 122.097 128.217 121.463 128.85C120.83 129.467 120.513 130.4 120.513 131.65V138H116.613V124.55H120.338V126.325ZM136.421 137.35C136.038 137.633 135.563 137.85 134.996 138C134.446 138.133 133.863 138.2 133.246 138.2C131.646 138.2 130.405 137.792 129.521 136.975C128.655 136.158 128.221 134.958 128.221 133.375V127.85H126.146V124.85H128.221V121.575H132.121V124.85H135.471V127.85H132.121V133.325C132.121 133.892 132.263 134.333 132.546 134.65C132.846 134.95 133.263 135.1 133.796 135.1C134.413 135.1 134.938 134.933 135.371 134.6L136.421 137.35ZM172.416 120.5L166.691 138H162.341L158.491 126.15L154.516 138H150.191L144.441 120.5H148.641L152.591 132.8L156.716 120.5H160.466L164.466 132.9L168.541 120.5H172.416ZM178.826 124.35C180.909 124.35 182.509 124.85 183.626 125.85C184.742 126.833 185.301 128.325 185.301 130.325V138H181.651V136.325C180.917 137.575 179.551 138.2 177.551 138.2C176.517 138.2 175.617 138.025 174.851 137.675C174.101 137.325 173.526 136.842 173.126 136.225C172.726 135.608 172.526 134.908 172.526 134.125C172.526 132.875 172.992 131.892 173.926 131.175C174.876 130.458 176.334 130.1 178.301 130.1H181.401C181.401 129.25 181.142 128.6 180.626 128.15C180.109 127.683 179.334 127.45 178.301 127.45C177.584 127.45 176.876 127.567 176.176 127.8C175.492 128.017 174.909 128.317 174.426 128.7L173.026 125.975C173.759 125.458 174.634 125.058 175.651 124.775C176.684 124.492 177.742 124.35 178.826 124.35ZM178.526 135.575C179.192 135.575 179.784 135.425 180.301 135.125C180.817 134.808 181.184 134.35 181.401 133.75V132.375H178.726C177.126 132.375 176.326 132.9 176.326 133.95C176.326 134.45 176.517 134.85 176.901 135.15C177.301 135.433 177.842 135.575 178.526 135.575ZM201.936 124.55L195.861 138.825C195.244 140.375 194.478 141.467 193.561 142.1C192.661 142.733 191.569 143.05 190.286 143.05C189.586 143.05 188.894 142.942 188.211 142.725C187.528 142.508 186.969 142.208 186.536 141.825L187.961 139.05C188.261 139.317 188.603 139.525 188.986 139.675C189.386 139.825 189.778 139.9 190.161 139.9C190.694 139.9 191.128 139.767 191.461 139.5C191.794 139.25 192.094 138.825 192.361 138.225L192.411 138.1L186.586 124.55H190.611L194.386 133.675L198.186 124.55H201.936ZM219.283 137.35C218.899 137.633 218.424 137.85 217.858 138C217.308 138.133 216.724 138.2 216.108 138.2C214.508 138.2 213.266 137.792 212.383 136.975C211.516 136.158 211.083 134.958 211.083 133.375V127.85H209.008V124.85H211.083V121.575H214.983V124.85H218.333V127.85H214.983V133.325C214.983 133.892 215.124 134.333 215.408 134.65C215.708 134.95 216.124 135.1 216.658 135.1C217.274 135.1 217.799 134.933 218.233 134.6L219.283 137.35ZM227.457 138.2C226.04 138.2 224.765 137.908 223.632 137.325C222.515 136.725 221.64 135.9 221.007 134.85C220.374 133.8 220.057 132.608 220.057 131.275C220.057 129.942 220.374 128.75 221.007 127.7C221.64 126.65 222.515 125.833 223.632 125.25C224.765 124.65 226.04 124.35 227.457 124.35C228.874 124.35 230.14 124.65 231.257 125.25C232.374 125.833 233.249 126.65 233.882 127.7C234.515 128.75 234.832 129.942 234.832 131.275C234.832 132.608 234.515 133.8 233.882 134.85C233.249 135.9 232.374 136.725 231.257 137.325C230.14 137.908 228.874 138.2 227.457 138.2ZM227.457 135C228.457 135 229.274 134.667 229.907 134C230.557 133.317 230.882 132.408 230.882 131.275C230.882 130.142 230.557 129.242 229.907 128.575C229.274 127.892 228.457 127.55 227.457 127.55C226.457 127.55 225.632 127.892 224.982 128.575C224.332 129.242 224.007 130.142 224.007 131.275C224.007 132.408 224.332 133.317 224.982 134C225.632 134.667 226.457 135 227.457 135Z" fill="black"/>
<path d="M38.825 174.3C37.4417 174.3 36.1 174.117 34.8 173.75C33.5167 173.367 32.4833 172.875 31.7 172.275L33.075 169.225C33.825 169.775 34.7167 170.217 35.75 170.55C36.7833 170.883 37.8167 171.05 38.85 171.05C40 171.05 40.85 170.883 41.4 170.55C41.95 170.2 42.225 169.742 42.225 169.175C42.225 168.758 42.0583 168.417 41.725 168.15C41.4083 167.867 40.9917 167.642 40.475 167.475C39.975 167.308 39.2917 167.125 38.425 166.925C37.0917 166.608 36 166.292 35.15 165.975C34.3 165.658 33.5667 165.15 32.95 164.45C32.35 163.75 32.05 162.817 32.05 161.65C32.05 160.633 32.325 159.717 32.875 158.9C33.425 158.067 34.25 157.408 35.35 156.925C36.4667 156.442 37.825 156.2 39.425 156.2C40.5417 156.2 41.6333 156.333 42.7 156.6C43.7667 156.867 44.7 157.25 45.5 157.75L44.25 160.825C42.6333 159.908 41.0167 159.45 39.4 159.45C38.2667 159.45 37.425 159.633 36.875 160C36.3417 160.367 36.075 160.85 36.075 161.45C36.075 162.05 36.3833 162.5 37 162.8C37.6333 163.083 38.5917 163.367 39.875 163.65C41.2083 163.967 42.3 164.283 43.15 164.6C44 164.917 44.725 165.417 45.325 166.1C45.9417 166.783 46.25 167.708 46.25 168.875C46.25 169.875 45.9667 170.792 45.4 171.625C44.85 172.442 44.0167 173.092 42.9 173.575C41.7833 174.058 40.425 174.3 38.825 174.3ZM61.9174 167.325C61.9174 167.375 61.8924 167.725 61.8424 168.375H51.6674C51.8507 169.208 52.284 169.867 52.9674 170.35C53.6507 170.833 54.5007 171.075 55.5174 171.075C56.2174 171.075 56.8341 170.975 57.3674 170.775C57.9174 170.558 58.4257 170.225 58.8924 169.775L60.9674 172.025C59.7007 173.475 57.8507 174.2 55.4174 174.2C53.9007 174.2 52.559 173.908 51.3924 173.325C50.2257 172.725 49.3257 171.9 48.6924 170.85C48.059 169.8 47.7424 168.608 47.7424 167.275C47.7424 165.958 48.0507 164.775 48.6674 163.725C49.3007 162.658 50.159 161.833 51.2424 161.25C52.3424 160.65 53.5674 160.35 54.9174 160.35C56.2341 160.35 57.4257 160.633 58.4924 161.2C59.559 161.767 60.3924 162.583 60.9924 163.65C61.6091 164.7 61.9174 165.925 61.9174 167.325ZM54.9424 163.3C54.059 163.3 53.3174 163.55 52.7174 164.05C52.1174 164.55 51.7507 165.233 51.6174 166.1H58.2424C58.1091 165.25 57.7424 164.575 57.1424 164.075C56.5424 163.558 55.809 163.3 54.9424 163.3ZM64.5139 155.45H68.4139V174H64.5139V155.45ZM72.0334 155.45H75.9334V174H72.0334V155.45ZM95.308 167.8V174H91.258V167.75L84.483 156.5H88.783L93.458 164.275L98.133 156.5H102.108L95.308 167.8ZM108.438 174.2C107.022 174.2 105.747 173.908 104.613 173.325C103.497 172.725 102.622 171.9 101.988 170.85C101.355 169.8 101.038 168.608 101.038 167.275C101.038 165.942 101.355 164.75 101.988 163.7C102.622 162.65 103.497 161.833 104.613 161.25C105.747 160.65 107.022 160.35 108.438 160.35C109.855 160.35 111.122 160.65 112.238 161.25C113.355 161.833 114.23 162.65 114.863 163.7C115.497 164.75 115.813 165.942 115.813 167.275C115.813 168.608 115.497 169.8 114.863 170.85C114.23 171.9 113.355 172.725 112.238 173.325C111.122 173.908 109.855 174.2 108.438 174.2ZM108.438 171C109.438 171 110.255 170.667 110.888 170C111.538 169.317 111.863 168.408 111.863 167.275C111.863 166.142 111.538 165.242 110.888 164.575C110.255 163.892 109.438 163.55 108.438 163.55C107.438 163.55 106.613 163.892 105.963 164.575C105.313 165.242 104.988 166.142 104.988 167.275C104.988 168.408 105.313 169.317 105.963 170C106.613 170.667 107.438 171 108.438 171ZM131.97 160.55V174H128.27V172.4C127.753 172.983 127.137 173.433 126.42 173.75C125.703 174.05 124.928 174.2 124.095 174.2C122.328 174.2 120.928 173.692 119.895 172.675C118.862 171.658 118.345 170.15 118.345 168.15V160.55H122.245V167.575C122.245 169.742 123.153 170.825 124.97 170.825C125.903 170.825 126.653 170.525 127.22 169.925C127.787 169.308 128.07 168.4 128.07 167.2V160.55H131.97ZM139.308 162.325C139.775 161.675 140.4 161.183 141.183 160.85C141.983 160.517 142.9 160.35 143.933 160.35V163.95C143.5 163.917 143.208 163.9 143.058 163.9C141.942 163.9 141.067 164.217 140.433 164.85C139.8 165.467 139.483 166.4 139.483 167.65V174H135.583V160.55H139.308V162.325ZM153.705 156.5H161.655C163.555 156.5 165.23 156.867 166.68 157.6C168.147 158.317 169.28 159.333 170.08 160.65C170.897 161.967 171.305 163.5 171.305 165.25C171.305 167 170.897 168.533 170.08 169.85C169.28 171.167 168.147 172.192 166.68 172.925C165.23 173.642 163.555 174 161.655 174H153.705V156.5ZM161.455 170.675C163.205 170.675 164.597 170.192 165.63 169.225C166.68 168.242 167.205 166.917 167.205 165.25C167.205 163.583 166.68 162.267 165.63 161.3C164.597 160.317 163.205 159.825 161.455 159.825H157.755V170.675H161.455ZM187.259 167.325C187.259 167.375 187.234 167.725 187.184 168.375H177.009C177.193 169.208 177.626 169.867 178.309 170.35C178.993 170.833 179.843 171.075 180.859 171.075C181.559 171.075 182.176 170.975 182.709 170.775C183.259 170.558 183.768 170.225 184.234 169.775L186.309 172.025C185.043 173.475 183.193 174.2 180.759 174.2C179.243 174.2 177.901 173.908 176.734 173.325C175.568 172.725 174.668 171.9 174.034 170.85C173.401 169.8 173.084 168.608 173.084 167.275C173.084 165.958 173.393 164.775 174.009 163.725C174.643 162.658 175.501 161.833 176.584 161.25C177.684 160.65 178.909 160.35 180.259 160.35C181.576 160.35 182.768 160.633 183.834 161.2C184.901 161.767 185.734 162.583 186.334 163.65C186.951 164.7 187.259 165.925 187.259 167.325ZM180.284 163.3C179.401 163.3 178.659 163.55 178.059 164.05C177.459 164.55 177.093 165.233 176.959 166.1H183.584C183.451 165.25 183.084 164.575 182.484 164.075C181.884 163.558 181.151 163.3 180.284 163.3ZM202.962 160.55L197.287 174H193.262L187.612 160.55H191.637L195.362 169.7L199.212 160.55H202.962ZM204.553 160.55H208.453V174H204.553V160.55ZM206.503 158.675C205.786 158.675 205.203 158.467 204.753 158.05C204.303 157.633 204.078 157.117 204.078 156.5C204.078 155.883 204.303 155.367 204.753 154.95C205.203 154.533 205.786 154.325 206.503 154.325C207.22 154.325 207.803 154.525 208.253 154.925C208.703 155.325 208.928 155.825 208.928 156.425C208.928 157.075 208.703 157.617 208.253 158.05C207.803 158.467 207.22 158.675 206.503 158.675ZM218.572 174.2C217.139 174.2 215.847 173.908 214.697 173.325C213.564 172.725 212.672 171.9 212.022 170.85C211.389 169.8 211.072 168.608 211.072 167.275C211.072 165.942 211.389 164.75 212.022 163.7C212.672 162.65 213.564 161.833 214.697 161.25C215.847 160.65 217.139 160.35 218.572 160.35C219.989 160.35 221.222 160.65 222.272 161.25C223.339 161.833 224.114 162.675 224.597 163.775L221.572 165.4C220.872 164.167 219.864 163.55 218.547 163.55C217.531 163.55 216.689 163.883 216.022 164.55C215.356 165.217 215.022 166.125 215.022 167.275C215.022 168.425 215.356 169.333 216.022 170C216.689 170.667 217.531 171 218.547 171C219.881 171 220.889 170.383 221.572 169.15L224.597 170.8C224.114 171.867 223.339 172.7 222.272 173.3C221.222 173.9 219.989 174.2 218.572 174.2ZM239.847 167.325C239.847 167.375 239.822 167.725 239.772 168.375H229.597C229.78 169.208 230.214 169.867 230.897 170.35C231.58 170.833 232.43 171.075 233.447 171.075C234.147 171.075 234.764 170.975 235.297 170.775C235.847 170.558 236.355 170.225 236.822 169.775L238.897 172.025C237.63 173.475 235.78 174.2 233.347 174.2C231.83 174.2 230.489 173.908 229.322 173.325C228.155 172.725 227.255 171.9 226.622 170.85C225.989 169.8 225.672 168.608 225.672 167.275C225.672 165.958 225.98 164.775 226.597 163.725C227.23 162.658 228.089 161.833 229.172 161.25C230.272 160.65 231.497 160.35 232.847 160.35C234.164 160.35 235.355 160.633 236.422 161.2C237.489 161.767 238.322 162.583 238.922 163.65C239.539 164.7 239.847 165.925 239.847 167.325ZM232.872 163.3C231.989 163.3 231.247 163.55 230.647 164.05C230.047 164.55 229.68 165.233 229.547 166.1H236.172C236.039 165.25 235.672 164.575 235.072 164.075C234.472 163.558 233.739 163.3 232.872 163.3Z" fill="#1F34E9"/>
<path d="M38.754 220.132C37.61 220.132 36.51 219.949 35.454 219.582C34.4127 219.215 33.606 218.731 33.034 218.13L33.672 216.876C34.2293 217.433 34.97 217.888 35.894 218.24C36.818 218.577 37.7713 218.746 38.754 218.746C40.1327 218.746 41.1667 218.497 41.856 217.998C42.5453 217.485 42.89 216.825 42.89 216.018C42.89 215.402 42.6993 214.911 42.318 214.544C41.9513 214.177 41.4967 213.899 40.954 213.708C40.4113 213.503 39.656 213.283 38.688 213.048C37.5293 212.755 36.6053 212.476 35.916 212.212C35.2267 211.933 34.6327 211.515 34.134 210.958C33.65 210.401 33.408 209.645 33.408 208.692C33.408 207.915 33.6133 207.211 34.024 206.58C34.4347 205.935 35.0653 205.421 35.916 205.04C36.7667 204.659 37.8227 204.468 39.084 204.468C39.964 204.468 40.822 204.593 41.658 204.842C42.5087 205.077 43.242 205.407 43.858 205.832L43.308 207.13C42.6627 206.705 41.9733 206.389 41.24 206.184C40.5067 205.964 39.788 205.854 39.084 205.854C37.7347 205.854 36.7153 206.118 36.026 206.646C35.3513 207.159 35.014 207.827 35.014 208.648C35.014 209.264 35.1973 209.763 35.564 210.144C35.9453 210.511 36.4147 210.797 36.972 211.002C37.544 211.193 38.3067 211.405 39.26 211.64C40.3893 211.919 41.2987 212.197 41.988 212.476C42.692 212.74 43.286 213.151 43.77 213.708C44.254 214.251 44.496 214.991 44.496 215.93C44.496 216.707 44.2833 217.419 43.858 218.064C43.4473 218.695 42.8093 219.201 41.944 219.582C41.0787 219.949 40.0153 220.132 38.754 220.132ZM57.7892 214.698H48.1092C48.1972 215.901 48.6592 216.876 49.4952 217.624C50.3312 218.357 51.3872 218.724 52.6632 218.724C53.3818 218.724 54.0418 218.599 54.6432 218.35C55.2445 218.086 55.7652 217.705 56.2052 217.206L57.0852 218.218C56.5718 218.834 55.9265 219.303 55.1492 219.626C54.3865 219.949 53.5432 220.11 52.6192 220.11C51.4312 220.11 50.3752 219.861 49.4512 219.362C48.5418 218.849 47.8305 218.145 47.3172 217.25C46.8038 216.355 46.5472 215.343 46.5472 214.214C46.5472 213.085 46.7892 212.073 47.2732 211.178C47.7718 210.283 48.4465 209.587 49.2972 209.088C50.1625 208.589 51.1305 208.34 52.2012 208.34C53.2718 208.34 54.2325 208.589 55.0832 209.088C55.9338 209.587 56.6012 210.283 57.0852 211.178C57.5692 212.058 57.8112 213.07 57.8112 214.214L57.7892 214.698ZM52.2012 209.682C51.0865 209.682 50.1478 210.041 49.3852 210.76C48.6372 211.464 48.2118 212.388 48.1092 213.532H56.3152C56.2125 212.388 55.7798 211.464 55.0172 210.76C54.2692 210.041 53.3305 209.682 52.2012 209.682ZM60.9905 203.676H62.5525V220H60.9905V203.676ZM66.8987 203.676H68.4607V220H66.8987V203.676ZM88.2887 208.428L82.5027 221.386C82.0334 222.471 81.4907 223.241 80.8747 223.696C80.2587 224.151 79.5181 224.378 78.6527 224.378C78.0954 224.378 77.5747 224.29 77.0907 224.114C76.6067 223.938 76.1887 223.674 75.8367 223.322L76.5627 222.156C77.1494 222.743 77.8534 223.036 78.6747 223.036C79.2027 223.036 79.6501 222.889 80.0167 222.596C80.3981 222.303 80.7501 221.804 81.0727 221.1L81.5787 219.978L76.4087 208.428H78.0367L82.3927 218.262L86.7487 208.428H88.2887ZM94.8963 220.11C93.7816 220.11 92.7769 219.861 91.8823 219.362C90.9876 218.849 90.2836 218.145 89.7703 217.25C89.2569 216.355 89.0003 215.343 89.0003 214.214C89.0003 213.085 89.2569 212.073 89.7703 211.178C90.2836 210.283 90.9876 209.587 91.8823 209.088C92.7769 208.589 93.7816 208.34 94.8963 208.34C96.0109 208.34 97.0156 208.589 97.9103 209.088C98.8049 209.587 99.5016 210.283 100 211.178C100.514 212.073 100.77 213.085 100.77 214.214C100.77 215.343 100.514 216.355 100 217.25C99.5016 218.145 98.8049 218.849 97.9103 219.362C97.0156 219.861 96.0109 220.11 94.8963 220.11ZM94.8963 218.724C95.7176 218.724 96.4509 218.541 97.0963 218.174C97.7563 217.793 98.2696 217.257 98.6363 216.568C99.0029 215.879 99.1863 215.094 99.1863 214.214C99.1863 213.334 99.0029 212.549 98.6363 211.86C98.2696 211.171 97.7563 210.643 97.0963 210.276C96.4509 209.895 95.7176 209.704 94.8963 209.704C94.0749 209.704 93.3343 209.895 92.6743 210.276C92.0289 210.643 91.5156 211.171 91.1343 211.86C90.7676 212.549 90.5843 213.334 90.5843 214.214C90.5843 215.094 90.7676 215.879 91.1343 216.568C91.5156 217.257 92.0289 217.793 92.6743 218.174C93.3343 218.541 94.0749 218.724 94.8963 218.724ZM114.387 208.428V220H112.891V217.888C112.481 218.592 111.916 219.142 111.197 219.538C110.479 219.919 109.657 220.11 108.733 220.11C107.223 220.11 106.027 219.692 105.147 218.856C104.282 218.005 103.849 216.766 103.849 215.138V208.428H105.411V214.984C105.411 216.201 105.712 217.125 106.313 217.756C106.915 218.387 107.773 218.702 108.887 218.702C110.105 218.702 111.065 218.335 111.769 217.602C112.473 216.854 112.825 215.82 112.825 214.5V208.428H114.387ZM120.258 210.694C120.625 209.917 121.167 209.33 121.886 208.934C122.619 208.538 123.521 208.34 124.592 208.34V209.858L124.218 209.836C123.001 209.836 122.047 210.21 121.358 210.958C120.669 211.706 120.324 212.755 120.324 214.104V220H118.762V208.428H120.258V210.694ZM133.35 208.428H134.912V220H133.35V208.428ZM134.142 205.898C133.819 205.898 133.548 205.788 133.328 205.568C133.108 205.348 132.998 205.084 132.998 204.776C132.998 204.483 133.108 204.226 133.328 204.006C133.548 203.786 133.819 203.676 134.142 203.676C134.465 203.676 134.736 203.786 134.956 204.006C135.176 204.211 135.286 204.461 135.286 204.754C135.286 205.077 135.176 205.348 134.956 205.568C134.736 205.788 134.465 205.898 134.142 205.898ZM145.352 219.296C145.059 219.56 144.692 219.765 144.252 219.912C143.827 220.044 143.379 220.11 142.91 220.11C141.825 220.11 140.989 219.817 140.402 219.23C139.815 218.643 139.522 217.815 139.522 216.744V209.748H137.454V208.428H139.522V205.898H141.084V208.428H144.604V209.748H141.084V216.656C141.084 217.345 141.253 217.873 141.59 218.24C141.942 218.592 142.441 218.768 143.086 218.768C143.409 218.768 143.717 218.717 144.01 218.614C144.318 218.511 144.582 218.365 144.802 218.174L145.352 219.296ZM157.863 214.698H148.183C148.271 215.901 148.733 216.876 149.569 217.624C150.405 218.357 151.461 218.724 152.737 218.724C153.456 218.724 154.116 218.599 154.717 218.35C155.319 218.086 155.839 217.705 156.279 217.206L157.159 218.218C156.646 218.834 156.001 219.303 155.223 219.626C154.461 219.949 153.617 220.11 152.693 220.11C151.505 220.11 150.449 219.861 149.525 219.362C148.616 218.849 147.905 218.145 147.391 217.25C146.878 216.355 146.621 215.343 146.621 214.214C146.621 213.085 146.863 212.073 147.347 211.178C147.846 210.283 148.521 209.587 149.371 209.088C150.237 208.589 151.205 208.34 152.275 208.34C153.346 208.34 154.307 208.589 155.157 209.088C156.008 209.587 156.675 210.283 157.159 211.178C157.643 212.058 157.885 213.07 157.885 214.214L157.863 214.698ZM152.275 209.682C151.161 209.682 150.222 210.041 149.459 210.76C148.711 211.464 148.286 212.388 148.183 213.532H156.389C156.287 212.388 155.854 211.464 155.091 210.76C154.343 210.041 153.405 209.682 152.275 209.682ZM175.497 208.34C176.949 208.34 178.085 208.758 178.907 209.594C179.743 210.43 180.161 211.662 180.161 213.29V220H178.599V213.444C178.599 212.241 178.305 211.325 177.719 210.694C177.147 210.063 176.333 209.748 175.277 209.748C174.074 209.748 173.128 210.122 172.439 210.87C171.749 211.603 171.405 212.623 171.405 213.928V220H169.843V213.444C169.843 212.241 169.549 211.325 168.963 210.694C168.391 210.063 167.569 209.748 166.499 209.748C165.311 209.748 164.365 210.122 163.661 210.87C162.971 211.603 162.627 212.623 162.627 213.928V220H161.065V208.428H162.561V210.54C162.971 209.836 163.543 209.293 164.277 208.912C165.01 208.531 165.853 208.34 166.807 208.34C167.775 208.34 168.611 208.545 169.315 208.956C170.033 209.367 170.569 209.975 170.921 210.782C171.346 210.019 171.955 209.425 172.747 209C173.553 208.56 174.47 208.34 175.497 208.34ZM193.983 204.886C193.308 204.886 192.795 205.069 192.443 205.436C192.105 205.803 191.937 206.345 191.937 207.064V208.428H195.501V209.748H191.981V220H190.419V209.748H188.351V208.428H190.419V206.998C190.419 205.942 190.719 205.106 191.321 204.49C191.937 203.874 192.802 203.566 193.917 203.566C194.357 203.566 194.782 203.632 195.193 203.764C195.603 203.881 195.948 204.057 196.227 204.292L195.699 205.458C195.244 205.077 194.672 204.886 193.983 204.886ZM202.146 220.11C201.032 220.11 200.027 219.861 199.132 219.362C198.238 218.849 197.534 218.145 197.02 217.25C196.507 216.355 196.25 215.343 196.25 214.214C196.25 213.085 196.507 212.073 197.02 211.178C197.534 210.283 198.238 209.587 199.132 209.088C200.027 208.589 201.032 208.34 202.146 208.34C203.261 208.34 204.266 208.589 205.16 209.088C206.055 209.587 206.752 210.283 207.25 211.178C207.764 212.073 208.02 213.085 208.02 214.214C208.02 215.343 207.764 216.355 207.25 217.25C206.752 218.145 206.055 218.849 205.16 219.362C204.266 219.861 203.261 220.11 202.146 220.11ZM202.146 218.724C202.968 218.724 203.701 218.541 204.346 218.174C205.006 217.793 205.52 217.257 205.886 216.568C206.253 215.879 206.436 215.094 206.436 214.214C206.436 213.334 206.253 212.549 205.886 211.86C205.52 211.171 205.006 210.643 204.346 210.276C203.701 209.895 202.968 209.704 202.146 209.704C201.325 209.704 200.584 209.895 199.924 210.276C199.279 210.643 198.766 211.171 198.384 211.86C198.018 212.549 197.834 213.334 197.834 214.214C197.834 215.094 198.018 215.879 198.384 216.568C198.766 217.257 199.279 217.793 199.924 218.174C200.584 218.541 201.325 218.724 202.146 218.724ZM212.705 210.694C213.072 209.917 213.615 209.33 214.333 208.934C215.067 208.538 215.969 208.34 217.039 208.34V209.858L216.665 209.836C215.448 209.836 214.495 210.21 213.805 210.958C213.116 211.706 212.771 212.755 212.771 214.104V220H211.209V208.428H212.705V210.694ZM231.759 208.34C232.844 208.34 233.827 208.589 234.707 209.088C235.587 209.572 236.276 210.261 236.775 211.156C237.274 212.051 237.523 213.07 237.523 214.214C237.523 215.358 237.274 216.377 236.775 217.272C236.276 218.167 235.587 218.863 234.707 219.362C233.827 219.861 232.844 220.11 231.759 220.11C230.791 220.11 229.918 219.905 229.141 219.494C228.378 219.083 227.762 218.489 227.293 217.712V220H225.797V203.676H227.359V210.628C227.843 209.88 228.459 209.315 229.207 208.934C229.97 208.538 230.82 208.34 231.759 208.34ZM231.649 218.724C232.456 218.724 233.189 218.541 233.849 218.174C234.509 217.793 235.022 217.257 235.389 216.568C235.77 215.879 235.961 215.094 235.961 214.214C235.961 213.334 235.77 212.549 235.389 211.86C235.022 211.171 234.509 210.643 233.849 210.276C233.189 209.895 232.456 209.704 231.649 209.704C230.828 209.704 230.087 209.895 229.427 210.276C228.782 210.643 228.268 211.171 227.887 211.86C227.52 212.549 227.337 213.334 227.337 214.214C227.337 215.094 227.52 215.879 227.887 216.568C228.268 217.257 228.782 217.793 229.427 218.174C230.087 218.541 230.828 218.724 231.649 218.724ZM250.783 214.698H241.103C241.191 215.901 241.653 216.876 242.489 217.624C243.325 218.357 244.381 218.724 245.657 218.724C246.376 218.724 247.036 218.599 247.637 218.35C248.239 218.086 248.759 217.705 249.199 217.206L250.079 218.218C249.566 218.834 248.921 219.303 248.143 219.626C247.381 219.949 246.537 220.11 245.613 220.11C244.425 220.11 243.369 219.861 242.445 219.362C241.536 218.849 240.825 218.145 240.311 217.25C239.798 216.355 239.541 215.343 239.541 214.214C239.541 213.085 239.783 212.073 240.267 211.178C240.766 210.283 241.441 209.587 242.291 209.088C243.157 208.589 244.125 208.34 245.195 208.34C246.266 208.34 247.227 208.589 248.077 209.088C248.928 209.587 249.595 210.283 250.079 211.178C250.563 212.058 250.805 213.07 250.805 214.214L250.783 214.698ZM245.195 209.682C244.081 209.682 243.142 210.041 242.379 210.76C241.631 211.464 241.206 212.388 241.103 213.532H249.309C249.207 212.388 248.774 211.464 248.011 210.76C247.263 210.041 246.325 209.682 245.195 209.682ZM257.087 220.11C256.148 220.11 255.246 219.978 254.381 219.714C253.53 219.435 252.863 219.091 252.379 218.68L253.083 217.448C253.567 217.829 254.175 218.145 254.909 218.394C255.642 218.629 256.405 218.746 257.197 218.746C258.253 218.746 259.03 218.585 259.529 218.262C260.042 217.925 260.299 217.455 260.299 216.854C260.299 216.429 260.159 216.099 259.881 215.864C259.602 215.615 259.25 215.431 258.825 215.314C258.399 215.182 257.835 215.057 257.131 214.94C256.192 214.764 255.437 214.588 254.865 214.412C254.293 214.221 253.801 213.906 253.391 213.466C252.995 213.026 252.797 212.417 252.797 211.64C252.797 210.672 253.2 209.88 254.007 209.264C254.813 208.648 255.935 208.34 257.373 208.34C258.121 208.34 258.869 208.443 259.617 208.648C260.365 208.839 260.981 209.095 261.465 209.418L260.783 210.672C259.829 210.012 258.693 209.682 257.373 209.682C256.375 209.682 255.62 209.858 255.107 210.21C254.608 210.562 254.359 211.024 254.359 211.596C254.359 212.036 254.498 212.388 254.777 212.652C255.07 212.916 255.429 213.114 255.855 213.246C256.28 213.363 256.867 213.488 257.615 213.62C258.539 213.796 259.279 213.972 259.837 214.148C260.394 214.324 260.871 214.625 261.267 215.05C261.663 215.475 261.861 216.062 261.861 216.81C261.861 217.822 261.435 218.629 260.585 219.23C259.749 219.817 258.583 220.11 257.087 220.11ZM270.842 219.296C270.549 219.56 270.182 219.765 269.742 219.912C269.317 220.044 268.87 220.11 268.4 220.11C267.315 220.11 266.479 219.817 265.892 219.23C265.306 218.643 265.012 217.815 265.012 216.744V209.748H262.944V208.428H265.012V205.898H266.574V208.428H270.094V209.748H266.574V216.656C266.574 217.345 266.743 217.873 267.08 218.24C267.432 218.592 267.931 218.768 268.576 218.768C268.899 218.768 269.207 218.717 269.5 218.614C269.808 218.511 270.072 218.365 270.292 218.174L270.842 219.296ZM285.406 208.34C286.491 208.34 287.474 208.589 288.354 209.088C289.234 209.572 289.923 210.261 290.422 211.156C290.92 212.051 291.17 213.07 291.17 214.214C291.17 215.373 290.92 216.399 290.422 217.294C289.923 218.189 289.234 218.885 288.354 219.384C287.488 219.868 286.506 220.11 285.406 220.11C284.467 220.11 283.616 219.919 282.854 219.538C282.106 219.142 281.49 218.57 281.006 217.822V224.268H279.444V208.428H280.94V210.716C281.409 209.953 282.025 209.367 282.788 208.956C283.565 208.545 284.438 208.34 285.406 208.34ZM285.296 218.724C286.102 218.724 286.836 218.541 287.496 218.174C288.156 217.793 288.669 217.257 289.036 216.568C289.417 215.879 289.608 215.094 289.608 214.214C289.608 213.334 289.417 212.557 289.036 211.882C288.669 211.193 288.156 210.657 287.496 210.276C286.836 209.895 286.102 209.704 285.296 209.704C284.474 209.704 283.734 209.895 283.074 210.276C282.428 210.657 281.915 211.193 281.534 211.882C281.167 212.557 280.984 213.334 280.984 214.214C280.984 215.094 281.167 215.879 281.534 216.568C281.915 217.257 282.428 217.793 283.074 218.174C283.734 218.541 284.474 218.724 285.296 218.724ZM295.85 210.694C296.216 209.917 296.759 209.33 297.478 208.934C298.211 208.538 299.113 208.34 300.184 208.34V209.858L299.81 209.836C298.592 209.836 297.639 210.21 296.95 210.958C296.26 211.706 295.916 212.755 295.916 214.104V220H294.354V208.428H295.85V210.694ZM303.012 208.428H304.574V220H303.012V208.428ZM303.804 205.898C303.481 205.898 303.21 205.788 302.99 205.568C302.77 205.348 302.66 205.084 302.66 204.776C302.66 204.483 302.77 204.226 302.99 204.006C303.21 203.786 303.481 203.676 303.804 203.676C304.127 203.676 304.398 203.786 304.618 204.006C304.838 204.211 304.948 204.461 304.948 204.754C304.948 205.077 304.838 205.348 304.618 205.568C304.398 205.788 304.127 205.898 303.804 205.898ZM313.716 220.11C312.572 220.11 311.546 219.861 310.636 219.362C309.742 218.863 309.038 218.167 308.524 217.272C308.011 216.363 307.754 215.343 307.754 214.214C307.754 213.085 308.011 212.073 308.524 211.178C309.038 210.283 309.742 209.587 310.636 209.088C311.546 208.589 312.572 208.34 313.716 208.34C314.714 208.34 315.601 208.538 316.378 208.934C317.17 209.315 317.794 209.88 318.248 210.628L317.082 211.42C316.701 210.848 316.217 210.423 315.63 210.144C315.044 209.851 314.406 209.704 313.716 209.704C312.88 209.704 312.125 209.895 311.45 210.276C310.79 210.643 310.27 211.171 309.888 211.86C309.522 212.549 309.338 213.334 309.338 214.214C309.338 215.109 309.522 215.901 309.888 216.59C310.27 217.265 310.79 217.793 311.45 218.174C312.125 218.541 312.88 218.724 313.716 218.724C314.406 218.724 315.044 218.585 315.63 218.306C316.217 218.027 316.701 217.602 317.082 217.03L318.248 217.822C317.794 218.57 317.17 219.142 316.378 219.538C315.586 219.919 314.699 220.11 313.716 220.11ZM331.199 214.698H321.519C321.607 215.901 322.069 216.876 322.905 217.624C323.741 218.357 324.797 218.724 326.073 218.724C326.792 218.724 327.452 218.599 328.053 218.35C328.655 218.086 329.175 217.705 329.615 217.206L330.495 218.218C329.982 218.834 329.337 219.303 328.559 219.626C327.797 219.949 326.953 220.11 326.029 220.11C324.841 220.11 323.785 219.861 322.861 219.362C321.952 218.849 321.241 218.145 320.727 217.25C320.214 216.355 319.957 215.343 319.957 214.214C319.957 213.085 320.199 212.073 320.683 211.178C321.182 210.283 321.857 209.587 322.707 209.088C323.573 208.589 324.541 208.34 325.611 208.34C326.682 208.34 327.643 208.589 328.493 209.088C329.344 209.587 330.011 210.283 330.495 211.178C330.979 212.058 331.221 213.07 331.221 214.214L331.199 214.698ZM325.611 209.682C324.497 209.682 323.558 210.041 322.795 210.76C322.047 211.464 321.622 212.388 321.519 213.532H329.725C329.623 212.388 329.19 211.464 328.427 210.76C327.679 210.041 326.741 209.682 325.611 209.682ZM45.53 252.242L43.396 250.042C42.0907 251.435 40.3747 252.132 38.248 252.132C37.2507 252.132 36.356 251.971 35.564 251.648C34.7867 251.311 34.178 250.849 33.738 250.262C33.298 249.661 33.078 248.979 33.078 248.216C33.078 247.292 33.3713 246.463 33.958 245.73C34.5447 244.997 35.542 244.227 36.95 243.42C36.2167 242.657 35.7107 242.012 35.432 241.484C35.1533 240.941 35.014 240.369 35.014 239.768C35.014 238.785 35.366 237.993 36.07 237.392C36.774 236.791 37.72 236.49 38.908 236.49C40.008 236.49 40.8807 236.761 41.526 237.304C42.1713 237.847 42.494 238.595 42.494 239.548C42.494 240.311 42.2373 241 41.724 241.616C41.2107 242.217 40.3233 242.885 39.062 243.618L43.286 247.974C43.7553 247.138 44.1 246.148 44.32 245.004L45.596 245.4C45.3173 246.779 44.8627 247.959 44.232 248.942L46.432 251.208L45.53 252.242ZM38.908 237.656C38.1453 237.656 37.544 237.847 37.104 238.228C36.6787 238.609 36.466 239.115 36.466 239.746C36.466 240.201 36.5833 240.633 36.818 241.044C37.0527 241.455 37.5147 242.012 38.204 242.716C39.3187 242.071 40.0887 241.521 40.514 241.066C40.9393 240.611 41.152 240.113 41.152 239.57C41.152 238.983 40.954 238.521 40.558 238.184C40.162 237.832 39.612 237.656 38.908 237.656ZM38.336 250.834C40.0373 250.834 41.416 250.255 42.472 249.096L37.83 244.322C36.6127 245.011 35.7693 245.635 35.3 246.192C34.8453 246.749 34.618 247.373 34.618 248.062C34.618 248.898 34.9553 249.573 35.63 250.086C36.3193 250.585 37.2213 250.834 38.336 250.834ZM54.6526 240.428H56.2146V252H54.6526V240.428ZM55.4446 237.898C55.1219 237.898 54.8506 237.788 54.6306 237.568C54.4106 237.348 54.3006 237.084 54.3006 236.776C54.3006 236.483 54.4106 236.226 54.6306 236.006C54.8506 235.786 55.1219 235.676 55.4446 235.676C55.7673 235.676 56.0386 235.786 56.2586 236.006C56.4786 236.211 56.5886 236.461 56.5886 236.754C56.5886 237.077 56.4786 237.348 56.2586 237.568C56.0386 237.788 55.7673 237.898 55.4446 237.898ZM66.4568 240.34C67.9088 240.34 69.0601 240.765 69.9108 241.616C70.7761 242.452 71.2088 243.677 71.2088 245.29V252H69.6468V245.444C69.6468 244.241 69.3461 243.325 68.7448 242.694C68.1435 242.063 67.2855 241.748 66.1708 241.748C64.9241 241.748 63.9341 242.122 63.2008 242.87C62.4821 243.603 62.1228 244.623 62.1228 245.928V252H60.5608V240.428H62.0568V242.562C62.4821 241.858 63.0688 241.315 63.8168 240.934C64.5795 240.538 65.4595 240.34 66.4568 240.34ZM78.5515 252.11C77.6128 252.11 76.7108 251.978 75.8455 251.714C74.9948 251.435 74.3275 251.091 73.8435 250.68L74.5475 249.448C75.0315 249.829 75.6402 250.145 76.3735 250.394C77.1068 250.629 77.8695 250.746 78.6615 250.746C79.7175 250.746 80.4948 250.585 80.9935 250.262C81.5068 249.925 81.7635 249.455 81.7635 248.854C81.7635 248.429 81.6242 248.099 81.3455 247.864C81.0668 247.615 80.7148 247.431 80.2895 247.314C79.8642 247.182 79.2995 247.057 78.5955 246.94C77.6568 246.764 76.9015 246.588 76.3295 246.412C75.7575 246.221 75.2662 245.906 74.8555 245.466C74.4595 245.026 74.2615 244.417 74.2615 243.64C74.2615 242.672 74.6648 241.88 75.4715 241.264C76.2782 240.648 77.4002 240.34 78.8375 240.34C79.5855 240.34 80.3335 240.443 81.0815 240.648C81.8295 240.839 82.4455 241.095 82.9295 241.418L82.2475 242.672C81.2942 242.012 80.1575 241.682 78.8375 241.682C77.8402 241.682 77.0848 241.858 76.5715 242.21C76.0728 242.562 75.8235 243.024 75.8235 243.596C75.8235 244.036 75.9628 244.388 76.2415 244.652C76.5348 244.916 76.8942 245.114 77.3195 245.246C77.7448 245.363 78.3315 245.488 79.0795 245.62C80.0035 245.796 80.7442 245.972 81.3015 246.148C81.8588 246.324 82.3355 246.625 82.7315 247.05C83.1275 247.475 83.3255 248.062 83.3255 248.81C83.3255 249.822 82.9002 250.629 82.0495 251.23C81.2135 251.817 80.0475 252.11 78.5515 252.11ZM92.3072 251.296C92.0138 251.56 91.6472 251.765 91.2072 251.912C90.7818 252.044 90.3345 252.11 89.8652 252.11C88.7798 252.11 87.9438 251.817 87.3572 251.23C86.7705 250.643 86.4772 249.815 86.4772 248.744V241.748H84.4092V240.428H86.4772V237.898H88.0392V240.428H91.5592V241.748H88.0392V248.656C88.0392 249.345 88.2078 249.873 88.5452 250.24C88.8972 250.592 89.3958 250.768 90.0412 250.768C90.3638 250.768 90.6718 250.717 90.9652 250.614C91.2732 250.511 91.5372 250.365 91.7572 250.174L92.3072 251.296ZM99.1987 240.34C100.709 240.34 101.868 240.721 102.675 241.484C103.481 242.232 103.885 243.347 103.885 244.828V252H102.389V250.196C102.037 250.797 101.516 251.267 100.827 251.604C100.152 251.941 99.3453 252.11 98.4067 252.11C97.116 252.11 96.0893 251.802 95.3267 251.186C94.564 250.57 94.1827 249.756 94.1827 248.744C94.1827 247.761 94.5347 246.969 95.2387 246.368C95.9573 245.767 97.094 245.466 98.6487 245.466H102.323V244.762C102.323 243.765 102.044 243.009 101.487 242.496C100.929 241.968 100.115 241.704 99.0447 241.704C98.3113 241.704 97.6073 241.829 96.9327 242.078C96.258 242.313 95.6787 242.643 95.1947 243.068L94.4907 241.902C95.0773 241.403 95.7813 241.022 96.6027 240.758C97.424 240.479 98.2893 240.34 99.1987 240.34ZM98.6487 250.878C99.5287 250.878 100.284 250.68 100.915 250.284C101.545 249.873 102.015 249.287 102.323 248.524V246.632H98.6927C96.7127 246.632 95.7227 247.321 95.7227 248.7C95.7227 249.375 95.9793 249.91 96.4927 250.306C97.006 250.687 97.7247 250.878 98.6487 250.878ZM114.023 240.34C115.475 240.34 116.627 240.765 117.477 241.616C118.343 242.452 118.775 243.677 118.775 245.29V252H117.213V245.444C117.213 244.241 116.913 243.325 116.311 242.694C115.71 242.063 114.852 241.748 113.737 241.748C112.491 241.748 111.501 242.122 110.767 242.87C110.049 243.603 109.689 244.623 109.689 245.928V252H108.127V240.428H109.623V242.562C110.049 241.858 110.635 241.315 111.383 240.934C112.146 240.538 113.026 240.34 114.023 240.34ZM129.11 251.296C128.817 251.56 128.45 251.765 128.01 251.912C127.585 252.044 127.137 252.11 126.668 252.11C125.583 252.11 124.747 251.817 124.16 251.23C123.573 250.643 123.28 249.815 123.28 248.744V241.748H121.212V240.428H123.28V237.898H124.842V240.428H128.362V241.748H124.842V248.656C124.842 249.345 125.011 249.873 125.348 250.24C125.7 250.592 126.199 250.768 126.844 250.768C127.167 250.768 127.475 250.717 127.768 250.614C128.076 250.511 128.34 250.365 128.56 250.174L129.11 251.296ZM142.507 252.11C141.363 252.11 140.337 251.861 139.427 251.362C138.533 250.863 137.829 250.167 137.315 249.272C136.802 248.363 136.545 247.343 136.545 246.214C136.545 245.085 136.802 244.073 137.315 243.178C137.829 242.283 138.533 241.587 139.427 241.088C140.337 240.589 141.363 240.34 142.507 240.34C143.505 240.34 144.392 240.538 145.169 240.934C145.961 241.315 146.585 241.88 147.039 242.628L145.873 243.42C145.492 242.848 145.008 242.423 144.421 242.144C143.835 241.851 143.197 241.704 142.507 241.704C141.671 241.704 140.916 241.895 140.241 242.276C139.581 242.643 139.061 243.171 138.679 243.86C138.313 244.549 138.129 245.334 138.129 246.214C138.129 247.109 138.313 247.901 138.679 248.59C139.061 249.265 139.581 249.793 140.241 250.174C140.916 250.541 141.671 250.724 142.507 250.724C143.197 250.724 143.835 250.585 144.421 250.306C145.008 250.027 145.492 249.602 145.873 249.03L147.039 249.822C146.585 250.57 145.961 251.142 145.169 251.538C144.377 251.919 143.49 252.11 142.507 252.11ZM154.156 240.34C155.666 240.34 156.825 240.721 157.632 241.484C158.438 242.232 158.842 243.347 158.842 244.828V252H157.346V250.196C156.994 250.797 156.473 251.267 155.784 251.604C155.109 251.941 154.302 252.11 153.364 252.11C152.073 252.11 151.046 251.802 150.284 251.186C149.521 250.57 149.14 249.756 149.14 248.744C149.14 247.761 149.492 246.969 150.196 246.368C150.914 245.767 152.051 245.466 153.606 245.466H157.28V244.762C157.28 243.765 157.001 243.009 156.444 242.496C155.886 241.968 155.072 241.704 154.002 241.704C153.268 241.704 152.564 241.829 151.89 242.078C151.215 242.313 150.636 242.643 150.152 243.068L149.448 241.902C150.034 241.403 150.738 241.022 151.56 240.758C152.381 240.479 153.246 240.34 154.156 240.34ZM153.606 250.878C154.486 250.878 155.241 250.68 155.872 250.284C156.502 249.873 156.972 249.287 157.28 248.524V246.632H153.65C151.67 246.632 150.68 247.321 150.68 248.7C150.68 249.375 150.936 249.91 151.45 250.306C151.963 250.687 152.682 250.878 153.606 250.878ZM166.186 252.11C165.248 252.11 164.346 251.978 163.48 251.714C162.63 251.435 161.962 251.091 161.478 250.68L162.182 249.448C162.666 249.829 163.275 250.145 164.008 250.394C164.742 250.629 165.504 250.746 166.296 250.746C167.352 250.746 168.13 250.585 168.628 250.262C169.142 249.925 169.398 249.455 169.398 248.854C169.398 248.429 169.259 248.099 168.98 247.864C168.702 247.615 168.35 247.431 167.924 247.314C167.499 247.182 166.934 247.057 166.23 246.94C165.292 246.764 164.536 246.588 163.964 246.412C163.392 246.221 162.901 245.906 162.49 245.466C162.094 245.026 161.896 244.417 161.896 243.64C161.896 242.672 162.3 241.88 163.106 241.264C163.913 240.648 165.035 240.34 166.472 240.34C167.22 240.34 167.968 240.443 168.716 240.648C169.464 240.839 170.08 241.095 170.564 241.418L169.882 242.672C168.929 242.012 167.792 241.682 166.472 241.682C165.475 241.682 164.72 241.858 164.206 242.21C163.708 242.562 163.458 243.024 163.458 243.596C163.458 244.036 163.598 244.388 163.876 244.652C164.17 244.916 164.529 245.114 164.954 245.246C165.38 245.363 165.966 245.488 166.714 245.62C167.638 245.796 168.379 245.972 168.936 246.148C169.494 246.324 169.97 246.625 170.366 247.05C170.762 247.475 170.96 248.062 170.96 248.81C170.96 249.822 170.535 250.629 169.684 251.23C168.848 251.817 167.682 252.11 166.186 252.11ZM179.744 240.34C181.196 240.34 182.347 240.765 183.198 241.616C184.063 242.452 184.496 243.677 184.496 245.29V252H182.934V245.444C182.934 244.241 182.633 243.325 182.032 242.694C181.431 242.063 180.573 241.748 179.458 241.748C178.211 241.748 177.221 242.122 176.488 242.87C175.769 243.603 175.41 244.623 175.41 245.928V252H173.848V235.676H175.41V242.452C175.835 241.777 176.422 241.257 177.17 240.89C177.918 240.523 178.776 240.34 179.744 240.34Z" fill="black"/>
<defs>
<linearGradient id="paint0_linear_577_609" x1="265.077" y1="417.421" x2="70.2788" y2="431.136" gradientUnits="userSpaceOnUse">
<stop stop-color="#7187B5"/>
<stop offset="1" stop-color="#BFCDED"/>
</linearGradient>
<linearGradient id="paint1_linear_577_609" x1="113.585" y1="529.708" x2="278.173" y2="506.278" gradientUnits="userSpaceOnUse">
<stop stop-color="#C4D5FF"/>
<stop offset="0.499857" stop-color="#C9DDFF"/>
<stop offset="0.5319" stop-color="#E1ECFF"/>
<stop offset="1" stop-color="#D5E1FF"/>
</linearGradient>
<linearGradient id="paint2_linear_577_609" x1="225.774" y1="387.693" x2="74.2744" y2="486.566" gradientUnits="userSpaceOnUse">
<stop stop-color="#C0E1FF"/>
<stop offset="1" stop-color="white"/>
</linearGradient>
<linearGradient id="paint3_linear_577_609" x1="139.102" y1="509.566" x2="279.806" y2="496.521" gradientUnits="userSpaceOnUse">
<stop stop-color="#6D94E7"/>
<stop offset="1" stop-color="#7E9EEF"/>
</linearGradient>
<linearGradient id="paint4_linear_577_609" x1="174.446" y1="466.041" x2="168.963" y2="502.053" gradientUnits="userSpaceOnUse">
<stop stop-color="#6D7FE7"/>
<stop offset="1" stop-color="#4E60CD"/>
</linearGradient>
<linearGradient id="paint5_linear_577_609" x1="189.455" y1="455.215" x2="97.6608" y2="473.181" gradientUnits="userSpaceOnUse">
<stop stop-color="#4F6FCE"/>
<stop offset="1" stop-color="#3B3B5D"/>
</linearGradient>
<linearGradient id="paint6_linear_577_609" x1="245.025" y1="285.04" x2="123.614" y2="319.619" gradientUnits="userSpaceOnUse">
<stop stop-color="#C0E1FF"/>
<stop offset="1" stop-color="white"/>
</linearGradient>
<linearGradient id="paint7_linear_577_609" x1="265.407" y1="305.595" x2="119.561" y2="318.424" gradientUnits="userSpaceOnUse">
<stop stop-color="#4F6FCE"/>
<stop offset="1" stop-color="#3B3B5D"/>
</linearGradient>
<linearGradient id="paint8_linear_577_609" x1="258.505" y1="432.723" x2="261.597" y2="438.781" gradientUnits="userSpaceOnUse">
<stop stop-color="#FB6464"/>
<stop offset="1" stop-color="#FA4E40"/>
</linearGradient>
<linearGradient id="paint9_linear_577_609" x1="126.56" y1="442.89" x2="154.238" y2="456.159" gradientUnits="userSpaceOnUse">
<stop stop-color="#15539E"/>
<stop offset="1" stop-color="#092965"/>
</linearGradient>
<linearGradient id="paint10_linear_577_609" x1="150.539" y1="425.164" x2="145.099" y2="406.408" gradientUnits="userSpaceOnUse">
<stop stop-color="#15539E"/>
<stop offset="1" stop-color="#092965"/>
</linearGradient>
<linearGradient id="paint11_linear_577_609" x1="142.585" y1="403.423" x2="140.548" y2="400.014" gradientUnits="userSpaceOnUse">
<stop stop-color="#BED4EB"/>
<stop offset="1" stop-color="#0041AE"/>
</linearGradient>
<linearGradient id="paint12_linear_577_609" x1="141.152" y1="434.451" x2="129.702" y2="427.238" gradientUnits="userSpaceOnUse">
<stop stop-color="#1B4A7A"/>
<stop offset="1" stop-color="#0041AE"/>
</linearGradient>
<linearGradient id="paint13_linear_577_609" x1="140.197" y1="397.42" x2="139.56" y2="398.602" gradientUnits="userSpaceOnUse">
<stop stop-color="#F3A6A6"/>
<stop offset="1" stop-color="#FCCBCB"/>
</linearGradient>
<linearGradient id="paint14_linear_577_609" x1="146.532" y1="402.845" x2="144.575" y2="421.44" gradientUnits="userSpaceOnUse">
<stop stop-color="#15539E"/>
<stop offset="1" stop-color="#092965"/>
</linearGradient>
<linearGradient id="paint15_linear_577_609" x1="136.952" y1="406.466" x2="133.859" y2="402.305" gradientUnits="userSpaceOnUse">
<stop stop-color="#BED4EB"/>
<stop offset="1" stop-color="#CEDBF0"/>
</linearGradient>
<linearGradient id="paint16_linear_577_609" x1="143.189" y1="397.25" x2="140.695" y2="420.94" gradientUnits="userSpaceOnUse">
<stop stop-color="#15539E"/>
<stop offset="1" stop-color="#092965"/>
</linearGradient>
<linearGradient id="paint17_linear_577_609" x1="149.509" y1="396.805" x2="147.074" y2="419.93" gradientUnits="userSpaceOnUse">
<stop stop-color="#15539E"/>
<stop offset="1" stop-color="#092965"/>
</linearGradient>
<linearGradient id="paint18_linear_577_609" x1="140.26" y1="391.424" x2="144.077" y2="397.713" gradientUnits="userSpaceOnUse">
<stop stop-color="#FCCBCB"/>
<stop offset="1" stop-color="#E77575"/>
</linearGradient>
<linearGradient id="paint19_linear_577_609" x1="138.737" y1="388.541" x2="139.145" y2="392.968" gradientUnits="userSpaceOnUse">
<stop stop-color="#0C3564"/>
<stop offset="1" stop-color="#BFA5B1"/>
</linearGradient>
<linearGradient id="paint20_linear_577_609" x1="136.211" y1="392.32" x2="135.267" y2="392.174" gradientUnits="userSpaceOnUse">
<stop stop-color="#FCCBCB"/>
<stop offset="1" stop-color="#E77575"/>
</linearGradient>
<linearGradient id="paint21_linear_577_609" x1="149.727" y1="431.73" x2="150.032" y2="432.917" gradientUnits="userSpaceOnUse">
<stop stop-color="#F3A6A6"/>
<stop offset="1" stop-color="#FCCBCB"/>
</linearGradient>
<linearGradient id="paint22_linear_577_609" x1="140.864" y1="431.366" x2="147.463" y2="413.04" gradientUnits="userSpaceOnUse">
<stop stop-color="#15539E"/>
<stop offset="1" stop-color="#092965"/>
</linearGradient>
<linearGradient id="paint23_linear_577_609" x1="197.329" y1="429.278" x2="198.015" y2="429.249" gradientUnits="userSpaceOnUse">
<stop stop-color="#F8A29B"/>
<stop offset="1" stop-color="#C47770"/>
</linearGradient>
<linearGradient id="paint24_linear_577_609" x1="209.165" y1="449.437" x2="207.78" y2="475.815" gradientUnits="userSpaceOnUse">
<stop stop-color="#8EBBFF"/>
<stop offset="1" stop-color="#5586FF"/>
</linearGradient>
<linearGradient id="paint25_linear_577_609" x1="206.72" y1="435.005" x2="205.792" y2="452.686" gradientUnits="userSpaceOnUse">
<stop stop-color="white"/>
<stop offset="1" stop-color="#F0F0F0"/>
</linearGradient>
<linearGradient id="paint26_linear_577_609" x1="134.232" y1="487.946" x2="73.6189" y2="498.689" gradientUnits="userSpaceOnUse">
<stop stop-color="#4F6FCE"/>
<stop offset="1" stop-color="#3B3B5D"/>
</linearGradient>
</defs>
</svg>
