<svg width="224" height="188" viewBox="0 0 224 188" fill="none" xmlns="http://www.w3.org/2000/svg">
<path fill-rule="evenodd" clip-rule="evenodd" d="M131.849 145.721C112.144 145.213 89.3255 149.499 74.4792 139.278C59.6113 129.043 62.2107 110.595 58.609 95.3008C55.8503 83.5859 55.9532 72.2606 55.8914 60.346C55.8178 46.157 48.3246 30.5408 58.2117 18.6809C68.1992 6.70082 88.0052 0.891809 106.166 0.0405895C122.97 -0.747011 136.222 10.1653 152.227 14.2744C167.585 18.2175 185.537 15.7491 198.184 23.6655C211.735 32.147 219.961 45.2045 223.07 58.6171C226.243 72.3088 220.679 85.7611 215.672 99.1086C209.903 114.49 208.315 133.048 191.681 142.298C175.007 151.57 152.248 146.246 131.849 145.721Z" fill="#1F34E9"/>
<path fill-rule="evenodd" clip-rule="evenodd" d="M84.6262 70.4304C101.738 70.8268 117.515 75.9871 131.553 83.0023C145.829 90.136 160.284 98.5492 164.932 110.56C169.5 122.362 163.696 134.92 155.861 145.807C148.909 155.467 135.601 160.994 123.75 167.786C111.172 174.995 100.56 184.916 84.6262 186.631C67.5767 188.467 49.5233 184.811 35.9017 177.245C22.4995 169.801 14.6412 158.149 11.7949 146.178C9.19845 135.258 17.09 125.156 20.9668 114.432C25.1781 102.783 23.3467 89.1334 35.4388 80.7754C48.0406 72.0651 67.1179 70.0247 84.6262 70.4304Z" fill="#FFCC00"/>
<path fill-rule="evenodd" clip-rule="evenodd" d="M93.8902 72.6179C94.4599 72.3131 95.1452 72.3172 95.7113 72.6288L179.687 118.847V121.641C179.687 121.981 179.505 122.296 179.21 122.467L126.163 153.171C125.572 153.513 124.842 153.513 124.251 153.171L40.8003 104.894C40.5054 104.723 40.3237 104.408 40.3237 104.067L40.3237 101.274L93.8902 72.6179Z" fill="url(#paint0_linear_577_642)"/>
<path fill-rule="evenodd" clip-rule="evenodd" d="M93.8902 71.96C94.4599 71.6552 95.1452 71.6593 95.7113 71.9708L179.687 118.189V120.983C179.687 121.323 179.505 121.638 179.21 121.809L126.163 152.513C125.572 152.855 124.842 152.855 124.251 152.513L40.8003 104.236C40.5054 104.065 40.3237 103.75 40.3237 103.409L40.3237 100.616L93.8902 71.96Z" fill="url(#paint1_linear_577_642)"/>
<path fill-rule="evenodd" clip-rule="evenodd" d="M93.849 69.1561C94.4399 68.8149 95.1679 68.815 95.7587 69.1563L179.212 117.362C179.848 117.729 179.848 118.648 179.212 119.015L126.162 149.648C125.571 149.989 124.843 149.989 124.252 149.648L40.7994 101.442C40.1632 101.075 40.1632 100.157 40.7995 99.7892L93.849 69.1561Z" fill="url(#paint2_linear_577_642)"/>
<path opacity="0.246257" fill-rule="evenodd" clip-rule="evenodd" d="M98.2946 76.0287C97.7728 75.7228 97.1252 75.7283 96.6087 76.0429L80.012 86.1503C79.6554 86.3674 79.663 86.8876 80.0258 87.0943L147.98 125.805C148.983 126.376 150.212 126.38 151.219 125.814L166.723 117.09C167.092 116.882 167.097 116.353 166.732 116.139L98.2946 76.0287Z" fill="url(#paint3_linear_577_642)"/>
<path fill-rule="evenodd" clip-rule="evenodd" d="M91.5895 100.81C91.8004 100.689 92.0592 100.689 92.2701 100.81L122.476 118.028C122.707 118.16 122.707 118.493 122.476 118.625L103.275 129.566C103.064 129.686 102.805 129.686 102.594 129.566L72.3886 112.348C72.1573 112.216 72.1573 111.883 72.3886 111.751L91.5895 100.81Z" fill="url(#paint4_linear_577_642)"/>
<mask id="mask0_577_642" style="mask-type:alpha" maskUnits="userSpaceOnUse" x="72" y="100" width="51" height="30">
<path fill-rule="evenodd" clip-rule="evenodd" d="M91.5895 100.81C91.8004 100.689 92.0592 100.689 92.2701 100.81L122.476 118.028C122.707 118.16 122.707 118.493 122.476 118.625L103.275 129.566C103.064 129.686 102.805 129.686 102.594 129.566L72.3886 112.348C72.1573 112.216 72.1573 111.883 72.3886 111.751L91.5895 100.81Z" fill="white"/>
</mask>
<g mask="url(#mask0_577_642)">
<path fill-rule="evenodd" clip-rule="evenodd" d="M91.5895 102.243C91.8004 102.123 92.0592 102.123 92.2701 102.243L122.476 119.461C122.707 119.593 122.707 119.926 122.476 120.058L103.275 130.999C103.064 131.12 102.805 131.12 102.594 130.999L72.3886 113.781C72.1573 113.65 72.1573 113.316 72.3886 113.184L91.5895 102.243Z" fill="url(#paint5_linear_577_642)"/>
<rect x="57.4768" y="97.4082" width="31.4256" height="31.4256" fill="#C4C4C4"/>
</g>
<path fill-rule="evenodd" clip-rule="evenodd" d="M96.7648 4.75437C97.0355 4.64612 97.3408 4.6675 97.5938 4.81242L181.116 52.6614C181.71 53.0016 182.077 53.6336 182.077 54.318V115.737C182.077 116.073 181.901 116.383 181.613 116.556L180.424 117.269C179.97 117.541 179.404 117.541 178.95 117.269L97.1398 68.1906C96.5781 67.8537 96.2284 67.2523 96.2132 66.5975L94.8268 6.5321C94.813 5.93464 95.1717 5.39145 95.7266 5.16955L96.7648 4.75437Z" fill="#80B1FF"/>
<path fill-rule="evenodd" clip-rule="evenodd" d="M94.8037 6.2368C94.8037 5.50187 95.5994 5.04261 96.2358 5.41022L179.688 53.6158C180.279 53.9569 180.643 54.587 180.643 55.2689V116.535C180.643 117.27 179.847 117.729 179.211 117.362L95.7579 69.1561C95.1674 68.815 94.8037 68.1849 94.8037 67.5029V6.2368Z" fill="url(#paint6_linear_577_642)"/>
<path fill-rule="evenodd" clip-rule="evenodd" d="M98.1489 10.7941L177.001 56.4617V112.082L98.1489 66.4148V10.7941Z" fill="url(#paint7_linear_577_642)"/>
<path fill-rule="evenodd" clip-rule="evenodd" d="M89.2228 10.2857C87.9984 9.56759 86.457 10.4505 86.457 11.8699V49.9749C86.457 51.9335 87.4968 53.7449 89.1882 54.7327L134.783 81.361C136.007 82.0761 137.545 81.193 137.545 79.7751V41.7826C137.545 39.8275 136.509 38.0189 134.823 37.0299L89.2228 10.2857Z" fill="#C7DCFF"/>
<path fill-rule="evenodd" clip-rule="evenodd" d="M90.7336 19.0154L95.8792 21.9487V48.5676L90.7336 45.6343V19.0154Z" fill="#528BE1"/>
<path fill-rule="evenodd" clip-rule="evenodd" d="M99.9224 24.561L105.068 27.4944V53.7435L99.9224 50.8102V24.561Z" fill="#528BE1"/>
<path fill-rule="evenodd" clip-rule="evenodd" d="M109.111 29.3672L114.256 32.3005V58.9194L109.111 55.9861V29.3672Z" fill="#528BE1"/>
<path fill-rule="evenodd" clip-rule="evenodd" d="M118.299 34.543L123.445 37.4763V64.0952L118.299 61.1619L118.299 34.543Z" fill="#528BE1"/>
<path fill-rule="evenodd" clip-rule="evenodd" d="M127.488 39.3491L132.634 42.2824V68.1619L127.488 65.2286L127.488 39.3491Z" fill="#528BE1"/>
<path fill-rule="evenodd" clip-rule="evenodd" d="M90.7336 43.0232L95.8792 45.9565V53.0041L90.7336 50.0707L90.7336 43.0232Z" fill="white"/>
<path fill-rule="evenodd" clip-rule="evenodd" d="M99.9224 36.2415L105.068 39.1748V58.18L99.9224 55.2467V36.2415Z" fill="white"/>
<path fill-rule="evenodd" clip-rule="evenodd" d="M109.111 45.6343L114.256 48.5676V63.3559L109.111 60.4225V45.6343Z" fill="white"/>
<path fill-rule="evenodd" clip-rule="evenodd" d="M118.299 46.3735L123.445 49.3069V68.5316L118.299 65.5983L118.299 46.3735Z" fill="white"/>
<path fill-rule="evenodd" clip-rule="evenodd" d="M127.488 43.7856L132.634 46.719V72.5984L127.488 69.6651L127.488 43.7856Z" fill="white"/>
<path fill-rule="evenodd" clip-rule="evenodd" d="M146.579 44.6587C145.354 43.9406 143.813 44.8236 143.813 46.243V84.3479C143.813 86.3066 144.853 88.118 146.544 89.1058L192.138 115.734C193.363 116.449 194.901 115.566 194.901 114.148V76.1556C194.901 74.2006 193.865 72.392 192.179 71.4029L146.579 44.6587Z" fill="#C7DCFF"/>
<path fill-rule="evenodd" clip-rule="evenodd" d="M148.089 81.2666L153.235 84.1999V87.3771L148.089 84.4438L148.089 81.2666Z" fill="#98BDF4"/>
<path fill-rule="evenodd" clip-rule="evenodd" d="M157.278 82.2258L162.424 85.1592V92.5533L157.278 89.62L157.278 82.2258Z" fill="#98BDF4"/>
<path fill-rule="evenodd" clip-rule="evenodd" d="M166.467 89.6831L171.612 92.6164V97.7288L166.467 94.7955V89.6831Z" fill="#98BDF4"/>
<path fill-rule="evenodd" clip-rule="evenodd" d="M175.655 86.5522L180.801 89.4856V102.905L175.655 99.9714L175.655 86.5522Z" fill="#98BDF4"/>
<path fill-rule="evenodd" clip-rule="evenodd" d="M184.844 83.9644L189.989 86.8977V106.972L184.844 104.038L184.844 83.9644Z" fill="#98BDF4"/>
<path d="M189.989 80.1923C189.989 80.1923 186.267 78.5431 179.5 80.1923C172.732 81.8416 171.281 86.4608 166.034 81.2668C160.787 76.0727 159.851 76.7848 148.089 77.9345" stroke="white" stroke-width="1.93246" stroke-linecap="round"/>
<path fill-rule="evenodd" clip-rule="evenodd" d="M170.311 85.4961C169.706 85.8046 168.735 85.1082 168.141 83.9407C167.548 82.7732 167.556 81.5767 168.16 81.2682C168.765 80.9598 169.736 81.6562 170.33 82.8237C170.923 83.9912 170.915 85.1877 170.311 85.4961Z" fill="url(#paint8_linear_577_642)"/>
<path d="M170.629 86.1224C169.974 86.457 169.282 86.1799 168.813 85.8435C168.312 85.4841 167.853 84.9231 167.516 84.26C167.178 83.597 166.995 82.8953 166.999 82.2778C167.003 81.7001 167.186 80.9764 167.842 80.6419C168.497 80.3074 169.189 80.5845 169.658 80.9208C170.16 81.2802 170.618 81.8413 170.956 82.5043C171.293 83.1674 171.476 83.869 171.472 84.4865C171.468 85.0642 171.285 85.7879 170.629 86.1224Z" stroke="white" stroke-opacity="0.285621" stroke-width="1.40543"/>
<path fill-rule="evenodd" clip-rule="evenodd" d="M81.4691 102.818C81.4691 102.818 80.4305 103.169 80.6287 104.603C80.8268 106.038 81.5841 105.538 81.9496 106.861C82.315 108.184 83.5041 109.287 84.1656 109.478C84.8271 109.669 86.1202 109.914 86.3786 108.847C86.637 107.781 81.4691 102.818 81.4691 102.818Z" fill="#30334F"/>
<path fill-rule="evenodd" clip-rule="evenodd" d="M81.8106 102.438C81.8106 102.438 80.2675 103.65 81.5596 105.511C82.8517 107.371 82.8827 109.064 85.0902 109.255C87.2978 109.445 86.2724 108.032 85.5784 106.985C84.7623 105.881 84.4478 103.464 84.4478 103.464L81.8106 102.438Z" fill="#181E36"/>
<path fill-rule="evenodd" clip-rule="evenodd" d="M92.2855 72.0889C92.2855 72.0889 94.4352 85.6076 94.1978 90.3241C93.9605 95.0405 84.3945 104.505 84.3945 104.505C84.3945 104.505 81.9755 104.335 81.489 102.248L87.884 90.3241L84.7698 72.6404L92.2855 72.0889Z" fill="#092965"/>
<mask id="mask1_577_642" style="mask-type:alpha" maskUnits="userSpaceOnUse" x="81" y="72" width="14" height="33">
<path fill-rule="evenodd" clip-rule="evenodd" d="M92.2855 72.0889C92.2855 72.0889 94.4352 85.6076 94.1978 90.3241C93.9605 95.0405 84.3945 104.505 84.3945 104.505C84.3945 104.505 81.9755 104.335 81.489 102.248L87.884 90.3241L84.7698 72.6404L92.2855 72.0889Z" fill="white"/>
</mask>
<g mask="url(#mask1_577_642)">
</g>
<path fill-rule="evenodd" clip-rule="evenodd" d="M92.0699 112.851C92.0699 112.851 91.9139 113.3 91.9659 113.886C92.0179 114.472 93.7919 115.014 94.1771 115.181C94.5622 115.348 94.9809 116.98 97.1305 117.347C99.2801 117.714 100.161 117.055 99.9948 116.316C99.8291 115.577 92.0699 112.851 92.0699 112.851Z" fill="#30334F"/>
<path fill-rule="evenodd" clip-rule="evenodd" d="M95.5986 110.016C95.5986 110.016 97.4854 113.221 99.3463 115.059C101.207 116.897 98.6483 117.319 96.8804 116.897C95.1124 116.475 94.763 114.706 93.8435 114.422C93.4835 114.31 92.1334 113.736 91.9848 113.03C91.8804 112.534 92.3495 110.663 92.3495 110.663" fill="#181E36"/>
<path fill-rule="evenodd" clip-rule="evenodd" d="M80.2524 73.6514C80.2524 73.6514 80.2495 79.3088 81.8905 83.0109C82.405 84.1716 85.3566 88.2658 86.7161 92.0248C88.2475 96.2586 91.9528 110.774 91.9528 110.774C91.9528 110.774 92.5034 111.868 94.177 111.69C95.8506 111.511 96.123 110.484 96.123 110.484C96.123 110.484 93.6422 93.4077 92.1776 88.8098C90.713 84.2118 88.2815 72.335 88.2815 72.335L80.2524 73.6514Z" fill="url(#paint9_linear_577_642)"/>
<path d="M80.9692 77.8938C80.9692 77.8938 84.6256 86.8504 87.969 92.0657C88.9559 93.6923 92.6119 111.594 92.6119 111.594" stroke="#1C478A" stroke-width="0.217054"/>
<path fill-rule="evenodd" clip-rule="evenodd" d="M91.6181 54.9442C92.4488 55.0317 96.8284 68.7893 96.8284 68.7893L102.611 76.33C102.611 76.33 102 76.0319 101.345 76.4243C100.69 76.8167 99.8854 77.3574 99.8854 77.3574C99.8854 77.3574 94.738 72.5196 93.8951 71.5518C93.0521 70.5839 89.9349 60.1762 90.1143 58.4667C90.2937 56.7572 90.7875 54.8568 91.6181 54.9442Z" fill="url(#paint10_linear_577_642)"/>
<mask id="mask2_577_642" style="mask-type:alpha" maskUnits="userSpaceOnUse" x="90" y="54" width="13" height="24">
<path fill-rule="evenodd" clip-rule="evenodd" d="M91.6181 54.9442C92.4488 55.0317 96.8284 68.7893 96.8284 68.7893L102.611 76.33C102.611 76.33 102 76.0319 101.345 76.4243C100.69 76.8167 99.8854 77.3574 99.8854 77.3574C99.8854 77.3574 94.738 72.5196 93.8951 71.5518C93.0521 70.5839 89.9349 60.1762 90.1143 58.4667C90.2937 56.7572 90.7875 54.8568 91.6181 54.9442Z" fill="white"/>
</mask>
<g mask="url(#mask2_577_642)">
<path fill-rule="evenodd" clip-rule="evenodd" d="M91.2214 69.5925C91.2214 69.5925 93.8075 65.7149 93.2605 63.5582C92.7134 61.4016 91.7032 58.2872 91.8185 57.188C91.9339 56.0887 89.0014 57.9976 89.0014 57.9976L91.2214 69.5925Z" fill="#0B224E"/>
</g>
<path fill-rule="evenodd" clip-rule="evenodd" d="M85.099 55.9438C83.2072 57.0073 79.8811 59.1882 79.2549 60.0052C78.6288 60.8221 79.6534 64.6747 80.5133 66.4495C81.3732 68.2242 80.6526 73.0837 80.1118 74.3961C79.9646 74.7533 85.1566 76.5771 88.7848 75.0227C91.9062 73.6855 91.7923 72.1115 91.5132 70.6318C91.234 69.1521 91.4621 66.979 91.4621 66.979C91.4621 66.979 92.0929 61.1253 91.8952 59.7815C91.6975 58.4377 92.4008 55.453 91.7968 55.0407C91.1928 54.6285 86.9909 54.8802 85.099 55.9438Z" fill="white"/>
<mask id="mask3_577_642" style="mask-type:alpha" maskUnits="userSpaceOnUse" x="79" y="54" width="14" height="22">
<path fill-rule="evenodd" clip-rule="evenodd" d="M85.099 55.9438C83.2072 57.0073 79.8811 59.1882 79.2549 60.0052C78.6288 60.8221 79.6534 64.6747 80.5133 66.4495C81.3732 68.2242 80.6526 73.0837 80.1118 74.3961C79.9646 74.7533 85.1566 76.5771 88.7848 75.0227C91.9062 73.6855 91.7923 72.1115 91.5132 70.6318C91.234 69.1521 91.4621 66.979 91.4621 66.979C91.4621 66.979 92.0929 61.1253 91.8952 59.7815C91.6975 58.4377 92.4008 55.453 91.7968 55.0407C91.1928 54.6285 86.9909 54.8802 85.099 55.9438Z" fill="white"/>
</mask>
<g mask="url(#mask3_577_642)">
<path fill-rule="evenodd" clip-rule="evenodd" d="M87.9245 58.8618L90.4232 59.5028C90.4232 59.5028 89.4822 56.9165 88.6745 56.1635C87.8668 55.4105 87.9279 56.1645 87.9279 56.1645C87.9279 56.1645 88.1213 56.3741 88.1554 57.1847C88.1894 57.9952 87.9245 58.8618 87.9245 58.8618Z" fill="url(#paint11_linear_577_642)" fill-opacity="0.2"/>
<g style="mix-blend-mode:multiply">
<path fill-rule="evenodd" clip-rule="evenodd" d="M87.3011 55.1674C88.6207 55.6362 89.7271 58.3594 90.4557 61.5122C91.1842 64.6651 90.9057 66.6847 90.3385 69.1601C90.0607 70.3726 89.7056 71.6549 89.6569 72.667C89.6062 73.7212 89.6145 74.6985 89.8478 75.163C90.3052 76.0734 92.2524 77.7601 92.2524 77.7601C92.2524 77.7601 90.5916 75.6319 90.7398 73.8915C90.8881 72.1511 92.875 66.3296 92.838 64.3525C92.8009 62.3754 92.0014 60.4582 91.9635 58.8796C91.9256 57.301 92.3927 55.5281 91.8152 55.0496C91.2377 54.571 89.1951 54.8069 87.3011 55.1674Z" fill="url(#paint12_linear_577_642)" fill-opacity="0.2"/>
</g>
<path fill-rule="evenodd" clip-rule="evenodd" d="M83.7755 55.883C82.6454 56.5312 83.6658 58.0734 85.3987 58.5842C86.6306 58.9473 87.861 59.633 87.861 59.633C87.861 59.633 88.228 58.1767 88.2289 57.5005C88.2319 55.1478 86.2802 54.2483 86.2802 54.2483C86.2802 54.2483 84.9056 55.2349 83.7755 55.883Z" fill="url(#paint13_linear_577_642)"/>
<path fill-rule="evenodd" clip-rule="evenodd" d="M87.3442 59.9602L87.8134 71.3957L89.418 72.8009L90.03 70.6554L88.2869 59.569L87.3442 59.9602Z" fill="url(#paint14_linear_577_642)"/>
<path fill-rule="evenodd" clip-rule="evenodd" d="M87.0676 59.0554L88.093 58.8572L88.6705 59.0533L88.367 60.0556L87.3437 60.2764L86.5187 59.6516L87.0676 59.0554Z" fill="#092965"/>
<path fill-rule="evenodd" clip-rule="evenodd" d="M87.0674 59.0553L85.4966 61.1074C85.4966 61.1074 83.5216 57.4878 84.1502 56.039C84.1502 56.039 84.2349 57.6043 85.1786 58.1804C86.1222 58.7565 87.0674 59.0553 87.0674 59.0553Z" fill="url(#paint15_linear_577_642)"/>
</g>
<path fill-rule="evenodd" clip-rule="evenodd" d="M84.3117 56.395C83.9682 57.0133 85.8867 61.7035 86.3934 64.4116C86.9001 67.1198 87.044 71.8026 87.1693 74.4892C87.2348 75.8937 87.9906 78.8777 87.9906 78.8777C87.9906 78.8777 81.8211 80.2961 79.4375 76.9718C79.7767 75.8727 79.7791 74.1629 80.1787 72.2885C80.5783 70.4141 80.7991 66.7221 79.4466 63.4414C78.9744 60.3302 78.8813 60.1784 78.8813 60.1784C78.8813 60.1784 80.2234 58.7041 84.3117 56.395Z" fill="#092965"/>
<mask id="mask4_577_642" style="mask-type:alpha" maskUnits="userSpaceOnUse" x="78" y="56" width="10" height="24">
<path fill-rule="evenodd" clip-rule="evenodd" d="M84.3117 56.395C83.9682 57.0133 85.8867 61.7035 86.3934 64.4116C86.9001 67.1198 87.044 71.8026 87.1693 74.4892C87.2348 75.8937 87.9906 78.8777 87.9906 78.8777C87.9906 78.8777 81.8211 80.2961 79.4375 76.9718C79.7767 75.8727 79.7791 74.1629 80.1787 72.2885C80.5783 70.4141 80.7991 66.7221 79.4466 63.4414C78.9744 60.3302 78.8813 60.1784 78.8813 60.1784C78.8813 60.1784 80.2234 58.7041 84.3117 56.395Z" fill="white"/>
</mask>
<g mask="url(#mask4_577_642)">
<path fill-rule="evenodd" clip-rule="evenodd" d="M86.7488 71.8031C86.4868 67.2947 83.4122 65.6502 83.4122 65.6502L84.555 63.0458L82.9361 62.4765C82.9361 62.4765 83.5405 59.2472 83.6033 58.092C83.6662 56.9369 83.7587 56.665 83.7587 56.665L84.2401 55.8589C84.2401 55.8589 85.1494 55.2908 85.8 55.2299C86.4506 55.169 84.8828 56.157 84.8828 56.157C84.8828 56.157 84.6391 56.1491 84.4629 56.3264C84.2868 56.5036 87.601 64.9879 87.601 64.9879C87.601 64.9879 87.0107 76.3116 86.7488 71.8031Z" fill="#0B224E"/>
</g>
<path fill-rule="evenodd" clip-rule="evenodd" d="M83.6034 58.092C83.5615 58.8621 83.3343 60.0355 82.9217 61.6123L84.6487 62.6371L83.5995 64.8329C84.8732 67.2475 86.9207 69.4893 87.0959 72.4928C86.966 69.514 86.8761 66.9917 86.3934 64.4117C85.8867 61.7035 83.9668 57.023 84.3103 56.4047C84.5844 55.7965 84.9972 55.6579 84.9972 55.6579C84.9972 55.6579 85.0811 55.5129 84.8961 55.5985C84.7111 55.6841 84.3758 55.8368 84.1504 56.0394C83.9356 56.2325 83.8067 56.4037 83.7427 56.7201C83.688 56.9328 83.6416 57.3901 83.6034 58.092Z" fill="url(#paint16_linear_577_642)"/>
<path fill-rule="evenodd" clip-rule="evenodd" d="M87.301 55.1677C88.6205 55.6365 90.0988 58.3204 90.6456 61.3958C91.1924 64.4711 90.9056 66.685 90.3384 69.1603C89.7711 71.6357 90.7803 73.8001 91.2377 74.7106C91.6951 75.621 92.5007 77.1401 92.5007 77.1401C92.5007 77.1401 92.8911 75.8197 92.9108 74.0503C92.9304 72.2809 91.8654 68.2739 91.8284 66.2968C91.8048 65.0343 92.0849 63.4523 92.1338 61.7381C92.1615 60.768 92.1475 59.2725 92.1338 58.702C92.0959 57.1234 92.3926 55.5284 91.8151 55.0498C91.2376 54.5713 89.195 54.8071 87.301 55.1677Z" fill="#092965"/>
<path fill-rule="evenodd" clip-rule="evenodd" d="M87.3008 55.1675C88.6204 55.6363 90.0987 58.3203 90.6455 61.3956C91.1923 64.471 90.9055 66.6849 90.3383 69.1602C90.223 69.6632 90.2413 70.3756 90.2558 70.9394C90.2602 71.1113 90.2643 71.2694 90.2641 71.4035C90.264 71.4814 90.2628 71.5584 90.2607 71.6343C90.2925 71.6752 90.3125 71.6585 90.3191 71.5768C90.433 70.1544 92.2815 64.7654 92.2815 64.7654L91.2405 61.471L91.722 60.9159C91.722 60.9159 89.2304 56.1338 87.7623 55.0829C87.6081 55.1101 87.454 55.1384 87.3008 55.1675Z" fill="url(#paint17_linear_577_642)"/>
<path fill-rule="evenodd" clip-rule="evenodd" d="M84.0922 52.2863C84.0922 52.2863 84.1452 53.2874 84.2985 54.3731C84.4518 55.4588 84.2914 56.1793 84.2914 56.1793C84.2914 56.1793 84.5324 57.387 85.9621 57.8944C87.3918 58.4017 87.89 57.3734 87.89 57.3734L87.6674 54.5855L84.0922 52.2863Z" fill="#FCCBCB"/>
<mask id="mask5_577_642" style="mask-type:alpha" maskUnits="userSpaceOnUse" x="84" y="52" width="4" height="7">
<path fill-rule="evenodd" clip-rule="evenodd" d="M84.0922 52.2863C84.0922 52.2863 84.1452 53.2874 84.2985 54.3731C84.4518 55.4588 84.2914 56.1793 84.2914 56.1793C84.2914 56.1793 84.5324 57.387 85.9621 57.8944C87.3918 58.4017 87.89 57.3734 87.89 57.3734L87.6674 54.5855L84.0922 52.2863Z" fill="white"/>
</mask>
<g mask="url(#mask5_577_642)">
<path fill-rule="evenodd" clip-rule="evenodd" d="M87.8175 57.1793C87.8175 57.1793 86.2022 57.0834 85.3916 56.1523C84.581 55.2212 84.6785 53.555 84.6785 53.555L87.8844 54.2195L87.8175 57.1793Z" fill="url(#paint18_linear_577_642)"/>
</g>
<path fill-rule="evenodd" clip-rule="evenodd" d="M89.2482 49.8756C89.2482 49.8756 89.3877 50.6078 89.3085 52.5293C89.2293 54.4507 89.105 55.7911 88.9351 56.0874C88.7652 56.3838 87.6196 56.7288 86.553 56.2623C85.4864 55.7958 84.9521 55.2258 84.7668 54.7794C84.5815 54.333 84.3708 53.6546 84.0573 52.7498C83.7438 51.845 82.8829 50.4303 83.2426 49.3716C83.6024 48.313 84.7487 47.3883 86.502 47.7255C88.2553 48.0627 89.2482 49.8756 89.2482 49.8756Z" fill="#FCCBCB"/>
<mask id="mask6_577_642" style="mask-type:alpha" maskUnits="userSpaceOnUse" x="83" y="47" width="7" height="10">
<path fill-rule="evenodd" clip-rule="evenodd" d="M89.2482 49.8756C89.2482 49.8756 89.3877 50.6078 89.3085 52.5293C89.2293 54.4507 89.105 55.7911 88.9351 56.0874C88.7652 56.3838 87.6196 56.7288 86.553 56.2623C85.4864 55.7958 84.9521 55.2258 84.7668 54.7794C84.5815 54.333 84.3708 53.6546 84.0573 52.7498C83.7438 51.845 82.8829 50.4303 83.2426 49.3716C83.6024 48.313 84.7487 47.3883 86.502 47.7255C88.2553 48.0627 89.2482 49.8756 89.2482 49.8756Z" fill="white"/>
</mask>
<g mask="url(#mask6_577_642)">
</g>
<path fill-rule="evenodd" clip-rule="evenodd" d="M85.5145 49.9678C85.5145 49.9678 86.7045 50.697 88.0357 50.7061C89.3669 50.7152 89.9346 50.1525 89.7733 49.2657C89.6121 48.3788 88.4635 47.1966 86.2889 47.0315C84.1143 46.8665 83.5802 48.4998 83.5802 48.4998C83.5802 48.4998 82.9521 48.5491 82.8529 49.2372C82.7537 49.9253 83.359 52.1556 83.7461 52.6311C84.1332 53.1065 84.3873 52.2524 84.3873 52.2524C84.3873 52.2524 84.3634 53.1102 84.5508 52.9081C84.7381 52.706 84.8532 52.7324 84.8117 52.1381C84.7702 51.5438 84.8711 51.1787 85.1445 51.1796C85.4178 51.1804 85.7471 50.7053 85.6895 50.3814C85.6319 50.0574 85.5145 49.9678 85.5145 49.9678Z" fill="#30334F"/>
<mask id="mask7_577_642" style="mask-type:alpha" maskUnits="userSpaceOnUse" x="82" y="47" width="8" height="6">
<path fill-rule="evenodd" clip-rule="evenodd" d="M85.5145 49.9678C85.5145 49.9678 86.7045 50.697 88.0357 50.7061C89.3669 50.7152 89.9346 50.1525 89.7733 49.2657C89.6121 48.3788 88.4635 47.1966 86.2889 47.0315C84.1143 46.8665 83.5802 48.4998 83.5802 48.4998C83.5802 48.4998 82.9521 48.5491 82.8529 49.2372C82.7537 49.9253 83.359 52.1556 83.7461 52.6311C84.1332 53.1065 84.3873 52.2524 84.3873 52.2524C84.3873 52.2524 84.3634 53.1102 84.5508 52.9081C84.7381 52.706 84.8532 52.7324 84.8117 52.1381C84.7702 51.5438 84.8711 51.1787 85.1445 51.1796C85.4178 51.1804 85.7471 50.7053 85.6895 50.3814C85.6319 50.0574 85.5145 49.9678 85.5145 49.9678Z" fill="white"/>
</mask>
<g mask="url(#mask7_577_642)">
<path fill-rule="evenodd" clip-rule="evenodd" d="M85.0472 51.3095C85.0472 51.3095 83.9378 50.5524 83.316 50.6125C82.6942 50.6726 82.6386 51.2025 82.6386 51.2025C82.6386 51.2025 83.7428 53.6132 83.8563 53.6252C83.9699 53.6371 85.1936 53.5132 85.1936 53.5132L85.0472 51.3095Z" fill="url(#paint19_linear_577_642)"/>
<path fill-rule="evenodd" clip-rule="evenodd" d="M83.713 48.6501L85.3619 49.9C85.3619 49.9 84.7183 49.5557 84.2402 49.2438C83.7622 48.9318 83.713 48.6501 83.713 48.6501Z" fill="#031120"/>
<path fill-rule="evenodd" clip-rule="evenodd" d="M86.2851 49.6423C86.2851 49.6423 88.239 50.4439 89.1794 49.3984C88.0708 50.1849 86.2851 49.6423 86.2851 49.6423Z" fill="#031120"/>
</g>
<path fill-rule="evenodd" clip-rule="evenodd" d="M84.3737 51.8359C84.3737 51.8359 84.3111 51.5865 83.9642 51.4389C83.6172 51.2913 83.2917 51.8344 83.5206 52.3862C83.662 52.727 83.7804 52.9646 84.0222 53.1672C84.0822 53.2175 84.2055 53.1865 84.2055 53.1865C84.2055 53.1865 84.2542 53.332 84.2836 53.4121C84.3467 53.1256 84.3774 52.6653 84.3817 52.4768C84.3901 52.1113 84.3737 51.8359 84.3737 51.8359Z" fill="#FCCBCB"/>
<path fill-rule="evenodd" clip-rule="evenodd" d="M84.1635 51.926C84.1635 51.926 83.9793 51.7267 83.8295 51.7694C83.6797 51.8122 83.5914 52.1351 83.7899 52.4363C83.9885 52.7375 84.1067 52.7628 84.1067 52.7628L84.1635 51.926Z" fill="url(#paint20_linear_577_642)"/>
<path fill-rule="evenodd" clip-rule="evenodd" d="M91.1034 80.0398C91.1337 80.0398 91.8456 82.9296 96.5539 82.9883C101.262 83.047 91.5288 78.4639 91.5288 78.4639C91.5288 78.4639 91.0732 80.0398 91.1034 80.0398Z" fill="url(#paint21_linear_577_642)"/>
<path fill-rule="evenodd" clip-rule="evenodd" d="M79.0636 59.9989C77.039 61.6279 76.8679 66.3928 79.5111 70.8341C82.1543 75.2754 80.9407 74.1943 82.926 75.5948C84.9113 76.9952 91.3804 81.0283 91.3804 81.0283C91.3804 81.0283 91.7602 79.2815 93.4236 79.2815L84.9775 71.9605C84.9775 71.9605 81.1819 59.7548 79.0636 59.9989Z" fill="url(#paint22_linear_577_642)"/>
<path fill-rule="evenodd" clip-rule="evenodd" d="M91.2269 79.8457C91.3817 79.8457 91.5072 79.7183 91.5072 79.5611C91.5072 79.404 91.3817 79.2766 91.2269 79.2766C91.0721 79.2766 90.9465 79.404 90.9465 79.5611C90.9465 79.7183 91.0721 79.8457 91.2269 79.8457Z" fill="#D8D8D8"/>
<path d="M102.871 88.535C97.9137 88.535 93.8948 85.9834 93.8948 82.836C93.8948 82.379 93.8948 81.0973 93.8948 81.0973C93.8948 81.0973 98.6336 77.137 102.871 77.137C107.829 77.137 111.848 79.6885 111.848 82.836C111.848 85.9834 107.829 88.535 102.871 88.535Z" fill="#C06100"/>
<path fill-rule="evenodd" clip-rule="evenodd" d="M102.871 87.3758C97.9137 87.3758 93.8948 84.8243 93.8948 81.6768C93.8948 78.5293 97.9137 75.9778 102.871 75.9778C107.829 75.9778 111.848 78.5293 111.848 81.6768C111.848 84.8243 107.829 87.3758 102.871 87.3758Z" fill="white"/>
<path d="M102.871 86.9959C97.9137 86.9959 93.8948 84.3996 93.8948 81.197C93.8948 77.9944 97.9137 75.3982 102.871 75.3982C107.829 75.3982 111.848 77.9944 111.848 81.197C111.848 84.3996 107.829 86.9959 102.871 86.9959Z" fill="#FFB74F"/>
<path d="M102.775 85.8303C98.7235 85.8303 95.4392 83.7545 95.4392 81.1939C95.4392 78.6332 98.7235 76.5574 102.775 76.5574C106.826 76.5574 110.11 78.6332 110.11 81.1939C110.11 83.7545 106.826 85.8303 102.775 85.8303Z" fill="#C06100"/>
<mask id="mask8_577_642" style="mask-type:alpha" maskUnits="userSpaceOnUse" x="95" y="76" width="16" height="10">
<path d="M102.775 85.8303C98.7235 85.8303 95.4392 83.7545 95.4392 81.1939C95.4392 78.6332 98.7235 76.5574 102.775 76.5574C106.826 76.5574 110.11 78.6332 110.11 81.1939C110.11 83.7545 106.826 85.8303 102.775 85.8303Z" fill="white"/>
</mask>
<g mask="url(#mask8_577_642)">
<path d="M102.775 86.6033C98.7235 86.6033 95.4392 84.5275 95.4392 81.9668C95.4392 79.4061 98.7235 77.3303 102.775 77.3303C106.826 77.3303 110.11 79.4061 110.11 81.9668C110.11 84.5275 106.826 86.6033 102.775 86.6033Z" fill="#FF8900"/>
<path fill-rule="evenodd" clip-rule="evenodd" d="M107.226 80.9435C107.226 80.9435 106.742 80.6788 106.522 80.5167L107.192 80.2544L107.192 79.4817L106.522 79.7439L106.119 80.2195C105.908 80.1 105.664 79.9991 105.386 79.917C105.109 79.8349 104.82 79.7803 104.519 79.7532C104.219 79.7261 103.909 79.7315 103.589 79.7694C103.269 79.8073 102.96 79.8849 102.66 80.0023C102.416 80.0978 102.202 80.0728 102.034 80.0532C101.868 80.0338 101.748 80.0197 101.69 80.1327C101.573 80.3599 101.661 81.1128 101.817 81.4008C101.817 81.4008 100.181 82.1769 100.117 82.0321C100.052 81.8874 100.069 81.736 100.167 81.578L98.3514 80.9441C98.2679 81.2066 98.3319 82.0611 98.4837 82.3027C98.6356 82.5443 98.4448 82.4517 98.4448 82.4517L98.4447 83.2245L98.8478 83.5216L99.5176 83.2593C99.749 83.3939 100.005 83.5072 100.286 83.5993C100.568 83.6914 100.865 83.752 101.178 83.7812C101.491 83.8103 101.813 83.8034 102.146 83.7605C102.479 83.7176 102.814 83.63 103.152 83.4976C103.598 83.3227 103.886 83.1192 104.016 82.887C104.145 82.6548 104.117 81.7225 104.117 81.7225L103.68 81.6295L105.202 81.0337C105.319 81.1348 105.411 81.2437 105.476 81.3605C105.542 81.4772 105.556 81.5979 105.52 81.7224L107.226 81.7162L107.226 80.9435ZM101.125 82.8402C101.027 82.8074 100.937 82.7723 100.857 82.7347L102.293 82.1727L102.342 82.2845C102.363 82.336 102.38 82.3866 102.394 82.4364C102.408 82.4862 102.409 82.5339 102.398 82.5797C102.386 82.6254 102.357 82.6703 102.309 82.7143C102.261 82.7582 102.186 82.8002 102.084 82.8402C101.976 82.8826 101.867 82.9082 101.756 82.9169C101.646 82.9257 101.538 82.9232 101.431 82.9097C101.325 82.8962 101.223 82.873 101.125 82.8402Z" fill="#C06100"/>
<path fill-rule="evenodd" clip-rule="evenodd" d="M106.522 79.7435C106.742 79.9056 106.925 80.0911 107.072 80.3002C107.219 80.5093 107.27 80.7235 107.226 80.943L105.52 80.9492C105.556 80.8247 105.542 80.704 105.476 80.5873C105.411 80.4705 105.319 80.3616 105.202 80.2605L103.68 80.8563L103.998 81.3934C104.14 81.6415 104.145 81.8816 104.016 82.1138C103.886 82.346 103.598 82.5495 103.152 82.7244C102.814 82.8568 102.479 82.9444 102.146 82.9873C101.813 83.0302 101.491 83.0371 101.178 83.008C100.865 82.9789 100.568 82.9183 100.286 82.8262C100.005 82.7341 99.749 82.6207 99.5176 82.4861L98.8478 82.7484L98.4447 82.4513L99.1145 82.189C98.8458 81.9909 98.6356 81.7711 98.4837 81.5295C98.3319 81.2879 98.2977 81.0359 98.3812 80.7735L100.167 80.8048C100.069 80.9628 100.052 81.1142 100.117 81.2589C100.181 81.4037 100.287 81.5414 100.435 81.6719L102.052 81.0387L101.817 80.6276C101.661 80.3396 101.641 80.0819 101.757 79.8547C101.874 79.6275 102.175 79.419 102.66 79.2292C102.96 79.1118 103.269 79.0341 103.589 78.9962C103.909 78.9583 104.219 78.9529 104.519 78.98C104.82 79.0071 105.109 79.0617 105.386 79.1438C105.664 79.2259 105.908 79.3268 106.119 79.4463L106.789 79.1841L107.192 79.4812L106.522 79.7435ZM104.77 79.9747C104.618 79.9057 104.449 79.8569 104.263 79.8283C104.078 79.7997 103.884 79.8254 103.679 79.9053C103.533 79.9628 103.436 80.0213 103.39 80.0808C103.344 80.1402 103.321 80.1974 103.322 80.2521C103.323 80.3069 103.338 80.356 103.368 80.3995C103.398 80.443 103.418 80.4763 103.43 80.4993L104.77 79.9747ZM101.125 82.067C101.027 82.0342 100.937 81.9991 100.857 81.9616L102.293 81.3995L102.342 81.5113C102.363 81.5628 102.38 81.6134 102.394 81.6632C102.408 81.713 102.409 81.7607 102.398 81.8065C102.386 81.8522 102.357 81.8971 102.309 81.9411C102.261 81.985 102.186 82.027 102.084 82.067C101.976 82.1094 101.867 82.135 101.756 82.1437C101.646 82.1525 101.538 82.15 101.431 82.1365C101.325 82.123 101.223 82.0998 101.125 82.067Z" fill="#FFB74F"/>
</g>
<path fill-rule="evenodd" clip-rule="evenodd" d="M93.3062 81.1141C93.3062 81.1141 94.9643 80.8932 95.5263 81.1141C96.0883 81.3351 94.7916 81.5471 94.5002 81.8748C94.2089 82.2025 93.3062 81.5215 93.3062 81.5215V81.1141Z" fill="#FCCBCB"/>
<path d="M119.387 95.0369C124.344 95.0369 128.363 92.4854 128.363 89.3379C128.363 88.8809 128.363 87.5992 128.363 87.5992C128.363 87.5992 123.625 83.6389 119.387 83.6389C114.429 83.6389 110.41 86.1904 110.41 89.3379C110.41 92.4854 114.429 95.0369 119.387 95.0369Z" fill="#C06100"/>
<path fill-rule="evenodd" clip-rule="evenodd" d="M119.387 93.8778C124.344 93.8778 128.363 91.3262 128.363 88.1787C128.363 85.0313 124.344 82.4797 119.387 82.4797C114.429 82.4797 110.41 85.0313 110.41 88.1787C110.41 91.3262 114.429 93.8778 119.387 93.8778Z" fill="white"/>
<path d="M119.387 93.6846C124.344 93.6846 128.363 91.1331 128.363 87.9856C128.363 84.8382 124.344 82.2866 119.387 82.2866C114.429 82.2866 110.41 84.8382 110.41 87.9856C110.41 91.1331 114.429 93.6846 119.387 93.6846Z" fill="#FFB74F"/>
<path d="M119.483 92.3323C123.535 92.3323 126.819 90.2565 126.819 87.6958C126.819 85.1351 123.535 83.0593 119.483 83.0593C115.432 83.0593 112.148 85.1351 112.148 87.6958C112.148 90.2565 115.432 92.3323 119.483 92.3323Z" fill="#C06100"/>
<mask id="mask9_577_642" style="mask-type:alpha" maskUnits="userSpaceOnUse" x="112" y="83" width="15" height="10">
<path d="M119.483 92.3323C123.535 92.3323 126.819 90.2565 126.819 87.6958C126.819 85.1351 123.535 83.0593 119.483 83.0593C115.432 83.0593 112.148 85.1351 112.148 87.6958C112.148 90.2565 115.432 92.3323 119.483 92.3323Z" fill="white"/>
</mask>
<g mask="url(#mask9_577_642)">
<path d="M119.483 93.105C123.535 93.105 126.819 91.0292 126.819 88.4685C126.819 85.9079 123.535 83.832 119.483 83.832C115.432 83.832 112.148 85.9079 112.148 88.4685C112.148 91.0292 115.432 93.105 119.483 93.105Z" fill="#FF8900"/>
<path fill-rule="evenodd" clip-rule="evenodd" d="M117.884 89.044C117.867 89.0285 117.851 89.0129 117.835 88.9972L121.484 87.5163C121.615 87.6477 121.713 87.6956 121.713 87.6956V88.3444L123.12 88.6018C123.187 88.4572 123.219 88.3131 123.218 88.1695C123.216 88.0259 123.189 87.8875 123.137 87.7543C123.086 87.621 123.015 87.4937 122.926 87.3723C122.84 87.2541 122.744 87.1459 122.639 87.0477L123.56 86.6737V86.0341L122.957 86.1534L121.979 86.5582C121.858 86.4879 121.732 86.4234 121.601 86.3649C121.215 86.192 120.804 86.0771 120.37 86.0202C119.936 85.9633 119.49 85.9679 119.032 86.0341C118.573 86.1002 118.125 86.2327 117.687 86.4314C117.249 86.6301 116.903 86.8577 116.65 87.1142C116.398 87.3707 116.238 87.6408 116.172 87.9244C116.107 88.2081 116.133 88.4972 116.252 88.7917C116.267 88.8299 116.284 88.868 116.302 88.9059L115.643 88.558V89.1788L116.224 89.651L116.691 89.4616C116.749 89.5246 116.812 89.5871 116.879 89.6492C117.142 89.8929 117.476 90.0949 117.879 90.2552C118.283 90.4154 118.728 90.497 119.215 90.5L119.262 89.5087C118.989 89.5128 118.735 89.4764 118.498 89.3996C118.262 89.3228 118.057 89.2043 117.884 89.044ZM119.351 87.0014C119.623 86.9549 119.888 86.942 120.144 86.9625C120.35 86.9789 120.546 87.0164 120.73 87.0748L117.562 88.385C117.562 88.2922 117.579 88.1995 117.614 88.1067C117.673 87.9453 117.782 87.7902 117.94 87.6414C118.098 87.4926 118.306 87.3598 118.564 87.2429C118.816 87.1283 119.079 87.0478 119.351 87.0014Z" fill="#C06100"/>
<path fill-rule="evenodd" clip-rule="evenodd" d="M117.836 88.3529L121.484 86.872C121.616 87.0035 121.701 87.1349 121.74 87.2664C121.783 87.4133 121.775 87.5579 121.713 87.7002L123.12 87.9575C123.187 87.8129 123.219 87.6688 123.218 87.5252C123.216 87.3816 123.189 87.2432 123.138 87.11C123.086 86.9767 123.015 86.8494 122.926 86.7281C122.84 86.6098 122.744 86.5016 122.639 86.4035L123.561 86.0294L122.958 85.5091L121.979 85.914C121.858 85.8436 121.732 85.7791 121.601 85.7206C121.215 85.5477 120.805 85.4328 120.371 85.3759C119.937 85.319 119.49 85.3236 119.032 85.3898C118.573 85.4559 118.125 85.5884 117.687 85.7871C117.249 85.9858 116.903 86.2134 116.651 86.4699C116.398 86.7264 116.239 86.9965 116.173 87.2802C116.107 87.5638 116.133 87.8529 116.252 88.1474C116.267 88.1857 116.284 88.2237 116.302 88.2616L115.643 88.5345L116.225 89.0067L116.691 88.8173C116.749 88.8803 116.812 88.9428 116.879 89.0049C117.142 89.2487 117.476 89.4506 117.88 89.6109C118.283 89.7711 118.729 89.8527 119.216 89.8557L119.262 88.8644C118.99 88.8685 118.735 88.8321 118.499 88.7553C118.262 88.6785 118.057 88.56 117.884 88.3997C117.867 88.3842 117.851 88.3686 117.836 88.3529ZM120.145 86.3181C120.351 86.3346 120.546 86.372 120.73 86.4304L117.562 87.7406C117.562 87.6478 117.58 87.5551 117.614 87.4624C117.674 87.3009 117.782 87.1458 117.94 86.997C118.098 86.8482 118.306 86.7154 118.564 86.5985C118.816 86.4839 119.079 86.4034 119.351 86.357C119.624 86.3106 119.888 86.2976 120.145 86.3181Z" fill="#FFB74F"/>
</g>
<path fill-rule="evenodd" clip-rule="evenodd" d="M130.977 109.053L130.78 110.425C130.78 110.425 131.567 112.748 131.815 115.678C132.063 118.608 131.664 123.675 132.137 124.597C132.61 125.519 132.275 126.159 131.876 126.328C131.477 126.496 130.947 126.08 129.753 125.127C128.559 124.174 127.059 123.611 127.293 123.091C127.528 122.571 129.664 123.607 129.913 123.229C130.163 122.85 127.815 111.062 127.964 110.277C128.114 109.492 128.341 107.037 128.341 107.037L130.977 109.053Z" fill="#FFBBB0"/>
<path fill-rule="evenodd" clip-rule="evenodd" d="M129.784 109.474L129.475 111.266C129.475 111.266 129.995 114.965 130.221 117.292C130.448 119.619 130.875 125.271 130.875 125.271L130.306 125.558L128.011 109.802L129.784 109.474Z" fill="#F29E98"/>
<path fill-rule="evenodd" clip-rule="evenodd" d="M132.175 124.054C132.175 124.054 131.888 123.847 131.718 124.03C131.548 124.212 130.454 124.642 129.737 124.414C129.021 124.186 128.181 123.497 128.194 123.255C128.206 123.012 129.248 122.545 129.248 122.545C129.248 122.545 127.891 122.147 127.363 122.446C126.836 122.745 127.357 123.837 127.84 124.088C128.323 124.34 130.865 126.159 131.045 126.168C131.225 126.178 131.527 127.678 131.527 127.678C131.527 127.678 131.724 127.781 131.912 127.699C131.912 127.699 132.398 125.852 132.435 125.16C132.471 124.469 132.175 124.054 132.175 124.054Z" fill="#181E36"/>
<path fill-rule="evenodd" clip-rule="evenodd" d="M128.74 108.722L128.534 110.887C128.534 110.887 129.338 113.877 129.648 115.997C129.958 118.118 130.223 123.894 130.433 124.432C130.643 124.969 130.856 126.377 130.228 126.69C129.828 126.889 130.196 126.498 129.1 126.459C128.475 126.436 126.337 127.177 125.718 127.145C124.015 127.055 124.034 126.54 124.299 126.295C124.437 126.168 125.719 125.595 125.719 125.595C125.719 125.595 127.418 125.124 127.646 124.823C128.121 124.197 128.222 123.364 128.101 122.415C127.981 121.465 125.263 111.377 125.153 110.454C125.043 109.531 125.053 106.991 125.053 106.991L128.74 108.722Z" fill="#FFBBB0"/>
<rect width="0.96521" height="0.386372" rx="0.166965" transform="matrix(-0.998625 -0.0524176 -0.0522544 0.998634 125.11 76.4578)" fill="#30334F"/>
<path fill-rule="evenodd" clip-rule="evenodd" d="M124.911 75.1636C124.911 75.1636 124.309 76.3539 124.459 76.9198C124.61 77.4856 124.434 78.0947 124.083 78.3025C123.733 78.5102 124.359 78.8419 124.359 78.8419C124.359 78.8419 124.371 79.5302 124.572 80.1C124.772 80.6697 124.699 81.1124 125.342 81.1462C125.985 81.1799 126.731 81.0848 126.731 81.0848C126.731 81.0848 127.188 81.7356 127.007 82.1364C126.826 82.5373 125.914 82.7398 126.089 83.0033C126.263 83.2667 130.937 84.0123 131.207 83.6111C131.477 83.21 129.364 82.2192 129.444 80.6802C129.525 79.1411 129.696 74.2117 127.776 74.111C125.857 74.0102 124.911 75.1636 124.911 75.1636Z" fill="#FFBBB0"/>
<path fill-rule="evenodd" clip-rule="evenodd" d="M126.522 78.3949C126.522 78.3949 126.758 78.0924 126.913 78.2055C127.068 78.3186 127.108 78.5985 126.875 78.9443C126.642 79.29 126.434 78.997 126.434 78.997L126.522 78.3949Z" fill="url(#paint23_linear_577_642)"/>
<path fill-rule="evenodd" clip-rule="evenodd" d="M125.094 93.813C125.094 93.813 124.112 98.7405 124.165 101.957C124.218 105.173 124.657 109.503 124.657 109.503C124.657 109.503 125.964 110.348 127.905 110.45C129.846 110.552 131.209 109.591 131.209 109.591C131.209 109.591 132.266 104.073 133.087 102.837C133.908 101.601 134.935 99.3692 134.356 96.7278C133.776 94.0864 132.242 92.6304 132.242 92.6304C132.242 92.6304 130.198 91.9226 129.222 92.1716C128.245 92.4206 125.094 93.813 125.094 93.813Z" fill="url(#paint24_linear_577_642)"/>
<mask id="mask10_577_642" style="mask-type:alpha" maskUnits="userSpaceOnUse" x="124" y="92" width="11" height="19">
<path fill-rule="evenodd" clip-rule="evenodd" d="M125.094 93.813C125.094 93.813 124.112 98.7405 124.165 101.957C124.218 105.173 124.657 109.503 124.657 109.503C124.657 109.503 125.964 110.348 127.905 110.45C129.846 110.552 131.209 109.591 131.209 109.591C131.209 109.591 132.266 104.073 133.087 102.837C133.908 101.601 134.935 99.3692 134.356 96.7278C133.776 94.0864 132.242 92.6304 132.242 92.6304C132.242 92.6304 130.198 91.9226 129.222 92.1716C128.245 92.4206 125.094 93.813 125.094 93.813Z" fill="white"/>
</mask>
<g mask="url(#mask10_577_642)">
<path d="M125.911 94.2558C125.911 94.2558 125.246 98.6696 125.367 100.509C125.487 102.348 125.34 109.985 125.34 109.985" stroke="#1C478A" stroke-width="0.166965"/>
</g>
<path fill-rule="evenodd" clip-rule="evenodd" d="M132.097 92.4619C132.097 92.4619 132.216 93.7778 129.912 94.4303C127.609 95.0828 124.846 94.6212 124.899 93.623C124.951 92.6249 132.097 92.4619 132.097 92.4619Z" fill="#092965"/>
<path fill-rule="evenodd" clip-rule="evenodd" d="M125.424 83.6554C125.424 83.6554 125.917 82.4192 126.663 82.0333C127.409 81.6474 129.733 80.6313 129.952 82.0898L125.424 83.6554Z" fill="#D8D8D8"/>
<path fill-rule="evenodd" clip-rule="evenodd" d="M124.988 75.7893C124.988 75.7893 124.478 74.6461 124.712 73.8047C124.946 72.9633 125.841 71.9124 127.287 72.4184C129.123 72.2152 131.274 73.0119 131.699 75.6163C132.124 78.2208 131.492 80.5624 129.626 80.8684C127.761 81.1743 126.808 79.6806 126.808 79.6806C126.808 79.6806 127.681 78.9958 127.348 78.3045C127.015 77.6133 126.191 78.1695 126.191 78.1695L124.988 75.7893Z" fill="#30334F"/>
<path fill-rule="evenodd" clip-rule="evenodd" d="M131.392 82.3597C131.392 82.3597 132.594 82.5175 133.007 85.1204C133.42 87.7233 134.797 90.626 133.413 91.5574C132.029 92.4888 130.687 88.4596 130.687 88.4596L131.392 82.3597Z" fill="#F0F0F0"/>
<mask id="mask11_577_642" style="mask-type:alpha" maskUnits="userSpaceOnUse" x="130" y="82" width="5" height="10">
<path fill-rule="evenodd" clip-rule="evenodd" d="M131.392 82.3597C131.392 82.3597 132.594 82.5175 133.007 85.1204C133.42 87.7233 134.797 90.626 133.413 91.5574C132.029 92.4888 130.687 88.4596 130.687 88.4596L131.392 82.3597Z" fill="white"/>
</mask>
<g mask="url(#mask11_577_642)">
<path fill-rule="evenodd" clip-rule="evenodd" d="M131.084 82.0181C131.084 82.0181 132.286 82.1759 132.698 84.7788C133.111 87.3818 134.489 90.2845 133.104 91.2159C131.72 92.1473 130.378 88.118 130.378 88.118L131.084 82.0181Z" fill="#D8D8D8"/>
</g>
<path fill-rule="evenodd" clip-rule="evenodd" d="M132.376 84.2194C132.233 83.9464 132.013 82.6879 131.28 82.4113C130.362 82.0643 129.037 82.0397 128.242 82.2518C126.763 82.646 124.335 83.8995 124.101 84.2931C123.868 84.6867 123.48 86.2751 123.257 87.1541C123.034 88.0331 122.498 90.2994 124.285 90.2694C124.285 90.2694 124.734 91.1753 124.692 91.965C124.651 92.7548 124.448 93.2052 125.124 93.8457C125.8 94.4862 128.747 94.4923 130.065 94.105C131.383 93.7178 132.141 92.8632 132.521 92.376C132.901 91.8887 131.986 89.7931 131.986 89.7931C131.986 89.7931 132.699 84.8349 132.376 84.2194Z" fill="url(#paint25_linear_577_642)"/>
<mask id="mask12_577_642" style="mask-type:alpha" maskUnits="userSpaceOnUse" x="123" y="82" width="10" height="13">
<path fill-rule="evenodd" clip-rule="evenodd" d="M132.376 84.2194C132.233 83.9464 132.013 82.6879 131.28 82.4113C130.362 82.0643 129.037 82.0397 128.242 82.2518C126.763 82.646 124.335 83.8995 124.101 84.2931C123.868 84.6867 123.48 86.2751 123.257 87.1541C123.034 88.0331 122.498 90.2994 124.285 90.2694C124.285 90.2694 124.734 91.1753 124.692 91.965C124.651 92.7548 124.448 93.2052 125.124 93.8457C125.8 94.4862 128.747 94.4923 130.065 94.105C131.383 93.7178 132.141 92.8632 132.521 92.376C132.901 91.8887 131.986 89.7931 131.986 89.7931C131.986 89.7931 132.699 84.8349 132.376 84.2194Z" fill="white"/>
</mask>
<g mask="url(#mask12_577_642)">
<path fill-rule="evenodd" clip-rule="evenodd" d="M124.356 85.0604C124.356 85.0604 125.083 88.9844 123.424 90.9201C121.766 92.8559 123.95 92.8096 123.95 92.8096C123.95 92.8096 124.812 90.7436 125.013 88.9194C125.215 87.0952 124.356 85.0604 124.356 85.0604Z" fill="#D8D8D8"/>
</g>
<path fill-rule="evenodd" clip-rule="evenodd" d="M115.152 91.1058C114.822 90.956 114.066 90.3322 113.641 90.9412C112.837 90.8619 111.984 90.8645 111.614 90.9126C110.984 90.9947 110.413 91.3405 110.1 91.396C109.788 91.4515 110.214 91.9247 110.603 91.7836C110.993 91.6425 111.689 91.4537 111.903 91.4859C112.118 91.5181 112.538 91.6322 112.538 91.6322C112.538 91.6322 111.735 91.8024 111.544 91.9789C111.354 92.1554 111.385 92.83 111.251 93.1053C111.117 93.3806 111.565 93.4258 111.657 93.2146C111.657 93.2146 111.708 93.4724 111.726 93.5899C111.749 93.7413 111.741 93.9241 111.803 93.9412C111.967 93.9865 112.267 93.8067 112.187 93.4289C112.187 93.4289 112.347 93.5736 112.488 93.7748C112.629 93.976 112.847 93.7054 112.781 93.4866C112.714 93.2677 112.607 93.12 112.607 93.12C112.607 93.12 113.942 93.6097 114.465 93.6029C114.989 93.5962 115.646 93.1111 115.646 93.1111L119.85 94.4849L120.337 92.609C120.337 92.609 115.951 91.4683 115.152 91.1058Z" fill="#FFBBB0"/>
<mask id="mask13_577_642" style="mask-type:alpha" maskUnits="userSpaceOnUse" x="109" y="90" width="12" height="5">
<path fill-rule="evenodd" clip-rule="evenodd" d="M115.152 91.1058C114.822 90.956 114.066 90.3322 113.641 90.9412C112.837 90.8619 111.984 90.8645 111.614 90.9126C110.984 90.9947 110.413 91.3405 110.1 91.396C109.788 91.4515 110.214 91.9247 110.603 91.7836C110.993 91.6425 111.689 91.4537 111.903 91.4859C112.118 91.5181 112.538 91.6322 112.538 91.6322C112.538 91.6322 111.735 91.8024 111.544 91.9789C111.354 92.1554 111.385 92.83 111.251 93.1053C111.117 93.3806 111.565 93.4258 111.657 93.2146C111.657 93.2146 111.708 93.4724 111.726 93.5899C111.749 93.7413 111.741 93.9241 111.803 93.9412C111.967 93.9865 112.267 93.8067 112.187 93.4289C112.187 93.4289 112.347 93.5736 112.488 93.7748C112.629 93.976 112.847 93.7054 112.781 93.4866C112.714 93.2677 112.607 93.12 112.607 93.12C112.607 93.12 113.942 93.6097 114.465 93.6029C114.989 93.5962 115.646 93.1111 115.646 93.1111L119.85 94.4849L120.337 92.609C120.337 92.609 115.951 91.4683 115.152 91.1058Z" fill="white"/>
</mask>
<g mask="url(#mask13_577_642)">
<path fill-rule="evenodd" clip-rule="evenodd" d="M111.657 93.2148C111.657 93.2148 111.485 92.2617 111.864 92.0989C112.242 91.9362 112.459 91.8558 112.459 91.8558C112.459 91.8558 111.719 91.8653 111.591 92.1216C111.534 92.2363 111.372 93.0413 111.412 93.3302C111.597 93.3516 111.657 93.2148 111.657 93.2148Z" fill="#F29E98"/>
<path fill-rule="evenodd" clip-rule="evenodd" d="M112.188 93.4214C112.188 93.4214 111.745 92.8113 111.843 92.5828C111.941 92.3542 112.507 92.1651 112.507 92.1651C112.507 92.1651 111.996 92.1063 111.799 92.4386C111.694 92.6155 111.817 92.9761 111.975 93.4867C112.014 93.6153 112.022 93.8874 112.022 93.8874C112.022 93.8874 112.138 93.8161 112.173 93.665C112.208 93.5139 112.188 93.4214 112.188 93.4214Z" fill="#F29E98"/>
<path fill-rule="evenodd" clip-rule="evenodd" d="M113.641 90.9415L114.234 90.9625L113.633 90.5799L113.641 90.9415Z" fill="#F29E98"/>
</g>
<path fill-rule="evenodd" clip-rule="evenodd" d="M117.492 91.4966C117.483 91.4993 116.794 90.9335 116.225 91.4962C115.655 92.0589 115.722 93.4971 116.568 93.4833C117.414 93.4695 117.501 91.4938 117.492 91.4966Z" fill="#D8D8D8"/>
<path fill-rule="evenodd" clip-rule="evenodd" d="M124.177 84.4462C124.177 84.4462 123.11 85.6671 123.175 88.5283C123.24 91.3894 122.875 92.2012 122.875 92.2012C122.875 92.2012 118.806 91.9791 117.923 91.4675C117.04 90.9559 116.535 91.9932 116.463 92.624C116.392 93.2548 116.23 94.0116 117.995 94.5544C119.759 95.0973 124.539 95.7021 125.365 94.2758C126.191 92.8496 126.238 88.0078 125.885 86.8525C125.533 85.6971 124.177 84.4462 124.177 84.4462Z" fill="#FFFEFE"/>
<mask id="mask14_577_642" style="mask-type:alpha" maskUnits="userSpaceOnUse" x="116" y="84" width="11" height="12">
<path fill-rule="evenodd" clip-rule="evenodd" d="M124.177 84.4462C124.177 84.4462 123.11 85.6671 123.175 88.5283C123.24 91.3894 122.875 92.2012 122.875 92.2012C122.875 92.2012 118.806 91.9791 117.923 91.4675C117.04 90.9559 116.535 91.9932 116.463 92.624C116.392 93.2548 116.23 94.0116 117.995 94.5544C119.759 95.0973 124.539 95.7021 125.365 94.2758C126.191 92.8496 126.238 88.0078 125.885 86.8525C125.533 85.6971 124.177 84.4462 124.177 84.4462Z" fill="white"/>
</mask>
<g mask="url(#mask14_577_642)">
<path fill-rule="evenodd" clip-rule="evenodd" d="M126.029 87.5632C126.029 87.5632 125.894 88.1471 125.958 91.0082C125.799 92.5613 125.679 94.6652 124.247 94.8496C122.815 95.0339 120.991 95.1087 118.98 94.6427C116.97 94.1766 116.615 93.5011 116.288 93.5093C116.216 94.1401 118.594 96.9505 120.359 97.4933C122.123 98.0362 126.903 98.641 127.729 97.2147C128.554 95.7885 128.602 90.9467 128.249 89.7914C127.897 88.636 126.029 87.5632 126.029 87.5632Z" fill="#D8D8D8"/>
</g>
<path fill-rule="evenodd" clip-rule="evenodd" d="M130.862 80.6792C129.531 80.6094 128.509 79.4731 128.579 78.1412C128.649 76.8094 129.784 75.7863 131.115 75.8562C132.446 75.926 133.468 77.0623 133.398 78.3942C133.329 79.726 132.193 80.7491 130.862 80.6792Z" fill="#181E36"/>
<path fill-rule="evenodd" clip-rule="evenodd" d="M130.573 124.826C130.449 124.657 130.351 124.652 129.963 124.95C129.503 125.304 127.8 125.866 127.067 126.016C126.598 126.112 125.432 126.111 125.479 125.932C125.528 125.745 125.736 125.74 125.789 125.68C125.892 125.565 124.002 126.354 123.574 126.662C123.146 126.969 123.115 127.556 125.211 128.122C125.425 128.18 126.61 128.102 127.022 127.964C127.945 127.654 128.376 127.038 129.349 126.965L129.672 128.855C129.672 128.855 129.976 129.042 130.231 128.822C130.231 128.822 130.737 126.08 130.76 125.628C130.784 125.177 130.638 124.915 130.573 124.826Z" fill="#181E36"/>
<path fill-rule="evenodd" clip-rule="evenodd" d="M42.9963 148.216L56.8074 156.198L55.0323 156.963V159.865L77.667 160.924V158.033L75.4904 148.341L71.3776 150.731L55.0323 141.469L42.9963 145.199V148.216Z" fill="#80B1FF"/>
<path fill-rule="evenodd" clip-rule="evenodd" d="M42.9963 145.199L59.1226 154.611L55.0323 156.963L77.667 158.033L75.4904 145.325L71.3776 147.739L55.0323 138.385L42.9963 145.199Z" fill="#CBDFFF"/>
<path fill-rule="evenodd" clip-rule="evenodd" d="M55.5214 134.989L71.5964 144.428L83.83 137.391V134.878L67.5191 128.156L71.5964 125.831V123.319L50.2891 123.931V137.98L55.5214 134.989Z" fill="url(#paint26_linear_577_642)"/>
<path fill-rule="evenodd" clip-rule="evenodd" d="M55.5214 132.476L71.5964 141.915L83.83 134.878L67.5191 125.643L71.5964 123.319L50.2891 121.418V135.468L55.5214 132.476Z" fill="#80B1FF"/>
<defs>
<linearGradient id="paint0_linear_577_642" x1="173.838" y1="70.0372" x2="37.9787" y2="79.6024" gradientUnits="userSpaceOnUse">
<stop stop-color="#7187B5"/>
<stop offset="1" stop-color="#BFCDED"/>
</linearGradient>
<linearGradient id="paint1_linear_577_642" x1="68.1824" y1="148.351" x2="182.972" y2="132.009" gradientUnits="userSpaceOnUse">
<stop stop-color="#C4D5FF"/>
<stop offset="0.499857" stop-color="#C9DDFF"/>
<stop offset="0.5319" stop-color="#E1ECFF"/>
<stop offset="1" stop-color="#D5E1FF"/>
</linearGradient>
<linearGradient id="paint2_linear_577_642" x1="146.427" y1="49.3038" x2="40.7657" y2="118.262" gradientUnits="userSpaceOnUse">
<stop stop-color="#C0E1FF"/>
<stop offset="1" stop-color="white"/>
</linearGradient>
<linearGradient id="paint3_linear_577_642" x1="85.979" y1="134.303" x2="184.111" y2="125.205" gradientUnits="userSpaceOnUse">
<stop stop-color="#6D94E7"/>
<stop offset="1" stop-color="#7E9EEF"/>
</linearGradient>
<linearGradient id="paint4_linear_577_642" x1="110.629" y1="103.947" x2="106.805" y2="129.062" gradientUnits="userSpaceOnUse">
<stop stop-color="#6D7FE7"/>
<stop offset="1" stop-color="#4E60CD"/>
</linearGradient>
<linearGradient id="paint5_linear_577_642" x1="121.097" y1="96.3962" x2="57.0767" y2="108.926" gradientUnits="userSpaceOnUse">
<stop stop-color="#4F6FCE"/>
<stop offset="1" stop-color="#3B3B5D"/>
</linearGradient>
<linearGradient id="paint6_linear_577_642" x1="159.853" y1="-22.29" x2="75.1769" y2="1.82628" gradientUnits="userSpaceOnUse">
<stop stop-color="#C0E1FF"/>
<stop offset="1" stop-color="white"/>
</linearGradient>
<linearGradient id="paint7_linear_577_642" x1="174.068" y1="-7.95507" x2="72.3502" y2="0.992465" gradientUnits="userSpaceOnUse">
<stop stop-color="#4F6FCE"/>
<stop offset="1" stop-color="#3B3B5D"/>
</linearGradient>
<linearGradient id="paint8_linear_577_642" x1="169.254" y1="80.71" x2="171.41" y2="84.9349" gradientUnits="userSpaceOnUse">
<stop stop-color="#FB6464"/>
<stop offset="1" stop-color="#FA4E40"/>
</linearGradient>
<linearGradient id="paint9_linear_577_642" x1="77.232" y1="87.8009" x2="96.5355" y2="97.0552" gradientUnits="userSpaceOnUse">
<stop stop-color="#15539E"/>
<stop offset="1" stop-color="#092965"/>
</linearGradient>
<linearGradient id="paint10_linear_577_642" x1="93.9557" y1="75.438" x2="90.1617" y2="62.3571" gradientUnits="userSpaceOnUse">
<stop stop-color="#15539E"/>
<stop offset="1" stop-color="#092965"/>
</linearGradient>
<linearGradient id="paint11_linear_577_642" x1="88.4089" y1="60.2747" x2="86.9881" y2="57.8977" gradientUnits="userSpaceOnUse">
<stop stop-color="#BED4EB"/>
<stop offset="1" stop-color="#0041AE"/>
</linearGradient>
<linearGradient id="paint12_linear_577_642" x1="87.4096" y1="81.9149" x2="79.4242" y2="76.8843" gradientUnits="userSpaceOnUse">
<stop stop-color="#1B4A7A"/>
<stop offset="1" stop-color="#0041AE"/>
</linearGradient>
<linearGradient id="paint13_linear_577_642" x1="86.7435" y1="56.0883" x2="86.299" y2="56.9128" gradientUnits="userSpaceOnUse">
<stop stop-color="#F3A6A6"/>
<stop offset="1" stop-color="#FCCBCB"/>
</linearGradient>
<linearGradient id="paint14_linear_577_642" x1="91.1616" y1="59.8716" x2="89.7964" y2="72.8407" gradientUnits="userSpaceOnUse">
<stop stop-color="#15539E"/>
<stop offset="1" stop-color="#092965"/>
</linearGradient>
<linearGradient id="paint15_linear_577_642" x1="84.4802" y1="62.3973" x2="82.3231" y2="59.4954" gradientUnits="userSpaceOnUse">
<stop stop-color="#BED4EB"/>
<stop offset="1" stop-color="#CEDBF0"/>
</linearGradient>
<linearGradient id="paint16_linear_577_642" x1="88.8298" y1="55.97" x2="87.0906" y2="72.4923" gradientUnits="userSpaceOnUse">
<stop stop-color="#15539E"/>
<stop offset="1" stop-color="#092965"/>
</linearGradient>
<linearGradient id="paint17_linear_577_642" x1="93.2371" y1="55.6592" x2="91.5393" y2="71.7874" gradientUnits="userSpaceOnUse">
<stop stop-color="#15539E"/>
<stop offset="1" stop-color="#092965"/>
</linearGradient>
<linearGradient id="paint18_linear_577_642" x1="86.7877" y1="51.906" x2="89.4499" y2="56.2927" gradientUnits="userSpaceOnUse">
<stop stop-color="#FCCBCB"/>
<stop offset="1" stop-color="#E77575"/>
</linearGradient>
<linearGradient id="paint19_linear_577_642" x1="85.7243" y1="49.8959" x2="86.0088" y2="52.9833" gradientUnits="userSpaceOnUse">
<stop stop-color="#0C3564"/>
<stop offset="1" stop-color="#BFA5B1"/>
</linearGradient>
<linearGradient id="paint20_linear_577_642" x1="83.963" y1="52.5306" x2="83.3042" y2="52.4291" gradientUnits="userSpaceOnUse">
<stop stop-color="#FCCBCB"/>
<stop offset="1" stop-color="#E77575"/>
</linearGradient>
<linearGradient id="paint21_linear_577_642" x1="93.3891" y1="80.0172" x2="93.602" y2="80.8455" gradientUnits="userSpaceOnUse">
<stop stop-color="#F3A6A6"/>
<stop offset="1" stop-color="#FCCBCB"/>
</linearGradient>
<linearGradient id="paint22_linear_577_642" x1="87.2079" y1="79.7636" x2="91.8105" y2="66.9822" gradientUnits="userSpaceOnUse">
<stop stop-color="#15539E"/>
<stop offset="1" stop-color="#092965"/>
</linearGradient>
<linearGradient id="paint23_linear_577_642" x1="126.59" y1="78.3071" x2="127.068" y2="78.2866" gradientUnits="userSpaceOnUse">
<stop stop-color="#F8A29B"/>
<stop offset="1" stop-color="#C47770"/>
</linearGradient>
<linearGradient id="paint24_linear_577_642" x1="134.845" y1="92.3667" x2="133.879" y2="110.764" gradientUnits="userSpaceOnUse">
<stop stop-color="#8EBBFF"/>
<stop offset="1" stop-color="#5586FF"/>
</linearGradient>
<linearGradient id="paint25_linear_577_642" x1="133.139" y1="82.3013" x2="132.492" y2="94.6325" gradientUnits="userSpaceOnUse">
<stop stop-color="white"/>
<stop offset="1" stop-color="#F0F0F0"/>
</linearGradient>
<linearGradient id="paint26_linear_577_642" x1="82.5824" y1="119.224" x2="40.3085" y2="126.717" gradientUnits="userSpaceOnUse">
<stop stop-color="#4F6FCE"/>
<stop offset="1" stop-color="#3B3B5D"/>
</linearGradient>
</defs>
</svg>
