<svg width="683" height="121" viewBox="0 0 683 121" fill="none" xmlns="http://www.w3.org/2000/svg">
<path d="M437.11 58.976C437.11 54.5317 437.931 50.19 439.572 45.9509C441.281 41.6434 443.742 37.7461 446.956 34.2591C450.169 30.772 454.067 28.0029 458.648 25.9517C463.297 23.8322 468.528 22.7724 474.339 22.7724C481.313 22.7724 487.398 24.2424 492.595 27.1825C497.791 30.0541 501.654 33.883 504.184 38.6691L488.903 49.5405C488.014 47.1474 486.715 45.3013 485.005 44.0022C483.364 42.7032 481.553 41.8143 479.57 41.3357C477.655 40.7887 475.775 40.5152 473.929 40.5152C471.057 40.5152 468.562 41.0964 466.442 42.2587C464.391 43.3527 462.682 44.8227 461.314 46.6688C460.015 48.5149 459.024 50.5661 458.34 52.8224C457.725 55.0787 457.417 57.335 457.417 59.5913C457.417 62.1211 457.793 64.5484 458.545 66.8731C459.297 69.1977 460.391 71.2831 461.827 73.1292C463.263 74.9069 465.006 76.3085 467.057 77.3341C469.177 78.3597 471.536 78.8725 474.134 78.8725C475.98 78.8725 477.86 78.599 479.775 78.0521C481.689 77.4367 483.433 76.4795 485.005 75.1804C486.578 73.8813 487.775 72.1378 488.595 69.9498L504.902 79.693C503.466 83.2484 501.073 86.291 497.723 88.8208C494.373 91.3506 490.578 93.2993 486.339 94.6667C482.1 95.9658 477.895 96.6154 473.724 96.6154C468.322 96.6154 463.365 95.5556 458.853 93.436C454.408 91.2481 450.545 88.3764 447.263 84.821C444.05 81.1972 441.554 77.1632 439.777 72.719C437.999 68.2063 437.11 63.6253 437.11 58.976ZM507.713 79.693C507.713 76.0692 508.704 72.8899 510.687 70.155C512.67 67.3517 515.405 65.1637 518.892 63.5911C522.447 62.0186 526.481 61.2323 530.994 61.2323C533.113 61.2323 535.096 61.4032 536.942 61.7451C538.857 62.0869 540.498 62.5997 541.865 63.2835V61.6425C541.865 59.1127 541.113 57.2324 539.609 56.0017C538.173 54.771 535.814 54.1557 532.532 54.1557C529.524 54.1557 526.686 54.6685 524.02 55.694C521.422 56.6513 518.687 58.0871 515.815 60.0016L510.174 47.8995C513.798 45.5748 517.593 43.8655 521.558 42.7715C525.592 41.6092 529.9 41.028 534.481 41.028C543.028 41.028 549.626 42.9766 554.275 46.8739C558.993 50.7028 561.351 56.412 561.351 64.0014V74.4625C561.351 76.3085 561.625 77.6076 562.172 78.3597C562.719 79.0435 563.676 79.4537 565.044 79.5905V96C563.471 96.3419 561.967 96.5812 560.531 96.7179C559.164 96.923 557.933 97.0256 556.839 97.0256C553.352 97.0256 550.685 96.4102 548.839 95.1795C547.062 93.8804 545.899 92.0002 545.352 89.5387L544.942 87.5901C542.549 90.6669 539.78 93.0258 536.635 94.6667C533.489 96.2393 530.139 97.0256 526.584 97.0256C523.028 97.0256 519.815 96.2735 516.943 94.7693C514.071 93.2651 511.815 91.2139 510.174 88.6157C508.533 85.9492 507.713 82.9749 507.713 79.693ZM539.301 81.0263C540.053 80.4793 540.669 79.8981 541.147 79.2828C541.626 78.599 541.865 77.9153 541.865 77.2316V73.2318C540.771 72.8215 539.506 72.4796 538.07 72.2062C536.703 71.9327 535.472 71.7959 534.378 71.7959C532.054 71.7959 530.071 72.3771 528.43 73.5394C526.857 74.7018 526.071 76.1718 526.071 77.9495C526.071 78.9067 526.344 79.7956 526.891 80.616C527.438 81.3682 528.191 81.9835 529.148 82.4621C530.105 82.8724 531.199 83.0775 532.43 83.0775C533.592 83.0775 534.789 82.9065 536.019 82.5647C537.318 82.1544 538.412 81.6416 539.301 81.0263ZM593.723 97.0256C589.005 97.0256 584.356 96.2735 579.775 94.7693C575.262 93.1967 571.433 90.9404 568.288 88.0003L574.954 76.0009C578.305 78.1888 581.518 79.8981 584.595 81.1288C587.74 82.3596 590.578 82.9749 593.107 82.9749C594.543 82.9749 595.603 82.804 596.287 82.4621C596.97 82.0519 597.312 81.4023 597.312 80.5135C597.312 79.8981 597.073 79.3853 596.594 78.9751C596.116 78.5649 595.329 78.1546 594.235 77.7444C593.21 77.3341 591.877 76.8897 590.236 76.4111C585.997 74.9069 582.441 73.5052 579.569 72.2062C576.766 70.9071 574.647 69.3345 573.211 67.4884C571.843 65.574 571.16 63.0442 571.16 59.899C571.16 56.2068 572.083 52.9591 573.929 50.1558C575.775 47.2842 578.407 45.0278 581.826 43.3869C585.313 41.7459 589.484 40.9255 594.338 40.9255C597.962 40.9255 601.586 41.5066 605.209 42.669C608.902 43.7629 612.457 45.7799 615.876 48.72L608.491 60.6169C605.073 58.4973 602.167 56.9931 599.774 56.1043C597.449 55.2154 595.364 54.771 593.518 54.771C592.629 54.771 591.842 54.8736 591.159 55.0787C590.543 55.2838 590.065 55.5915 589.723 56.0017C589.381 56.412 589.21 56.959 589.21 57.6427C589.21 58.3264 589.449 58.9076 589.928 59.3862C590.407 59.7964 591.159 60.2067 592.184 60.6169C593.21 60.9588 594.509 61.369 596.082 61.8476C600.731 63.2151 604.526 64.6167 607.466 66.0526C610.406 67.42 612.559 69.0952 613.927 71.078C615.363 73.0608 616.081 75.659 616.081 78.8725C616.081 84.5475 614.064 88.9918 610.03 92.2053C606.064 95.4188 600.628 97.0256 593.723 97.0256ZM677.717 96H658.23V65.6423C658.23 62.9758 657.615 61.0613 656.384 59.899C655.222 58.6683 653.752 58.0529 651.974 58.0529C651.154 58.0529 650.128 58.3606 648.897 58.976C647.735 59.5913 646.607 60.4802 645.513 61.6425C644.419 62.8049 643.564 64.1723 642.949 65.7449V96H623.463V21.1314H642.949V50.0533C644.863 47.1132 647.359 44.8911 650.436 43.3869C653.581 41.8143 657.034 41.028 660.794 41.028C664.623 41.028 667.666 41.6776 669.922 42.9766C672.178 44.2074 673.854 45.8141 674.948 47.797C676.042 49.7798 676.759 51.8993 677.101 54.1557C677.512 56.412 677.717 58.5315 677.717 60.5144V96Z" fill="white"/>
<path d="M31.7934 15.6524C26.05 17.3617 24.4091 18.1138 19.9648 20.9171C14.495 24.3357 11.9652 26.9339 8.13628 32.6773C2.7348 40.8137 -0.00012207 50.2491 -0.00012207 60.5051C-0.00012207 84.0938 14.9736 101.461 38.1521 104.674C42.3912 105.289 45.2629 105.153 53.1258 104.196L62.9031 102.965L70.2874 105.495C74.3898 106.862 78.9708 108.024 80.6118 108.024C85.9449 108.024 90.184 104.537 90.731 99.6829C91.0045 97.0847 90.731 96.3326 88.6114 93.3242C82.4578 84.8459 82.4578 84.9143 85.2611 74.3848C86.8337 68.4364 87.1072 66.0433 87.1072 58.7958C87.0388 51.4799 86.7653 49.4287 85.2611 44.7793C80.2699 29.6688 68.7832 18.9343 53.6728 15.3105C47.9294 14.0114 36.9214 14.1481 31.7934 15.6524ZM49.502 37.0531C53.6044 38.2839 58.8691 43.8221 60.8519 48.8817C62.8348 54.2148 63.0399 63.5135 61.2622 69.0517C58.664 77.2565 52.442 82.5212 44.374 83.205C38.9725 83.752 35.212 82.2478 31.2464 78.077C26.5286 73.0174 25.0244 68.368 25.0244 58.7958C24.9561 52.1636 25.1612 50.4543 26.3919 47.7877C28.3747 43.5486 32.5455 39.036 35.8958 37.5317C39.1093 36.0275 45.3996 35.8224 49.502 37.0531Z" fill="white"/>
<path d="M105.09 15.0381C101.671 16.1321 98.3206 19.2089 96.6113 22.9694L94.9703 26.5248L95.1755 54.4894L95.3806 82.3856L97.2266 86.3513C100.987 94.4193 109.329 100.983 118.969 103.65C125.191 105.359 140.78 105.359 147.002 103.65C156.506 101.051 164.984 94.2825 168.745 86.3513L170.591 82.3856V53.6689C170.591 26.935 170.523 24.8155 169.292 22.5592C167.309 18.7303 164.779 16.5423 161.224 15.3116C155.139 13.3288 149.259 15.6535 146.729 21.1233C145.361 24.0634 145.293 25.6359 144.951 48.5409C144.678 69.8733 144.472 73.0869 143.447 75.0013C139.139 82.7959 128.336 83.1377 122.798 75.6851C121.431 73.839 121.362 72.745 121.02 49.0195C120.679 25.6359 120.61 24.0634 119.243 21.1233C118.354 19.2089 116.85 17.4312 115.414 16.5423C112.611 14.833 107.893 14.1493 105.09 15.0381Z" fill="white"/>
<path d="M189.12 15.1713C185.292 16.1969 180.984 20.7095 179.753 24.9486C178.386 29.6664 178.317 90.3817 179.685 94.8943C182.078 102.826 191.24 107.407 198.077 104.125C201.701 102.415 203.616 98.9283 204.504 92.638C205.53 84.8435 204.983 26.5212 203.821 23.0342C202.658 19.4104 199.308 15.855 196.368 15.0345C193.428 14.214 192.676 14.2824 189.12 15.1713Z" fill="white"/>
<path d="M307.337 15.3772C303.508 16.7447 299.816 20.9154 298.517 25.3597C297.559 28.3681 297.423 33.7012 297.423 59.5462C297.423 78.7591 297.696 91.4765 298.175 93.596C300.294 103.647 310.892 108.365 318.824 102.758C320.464 101.664 324.704 96.7412 328.738 91.4081L335.78 82.041L337.353 83.887C338.173 84.981 340.84 88.3997 343.233 91.6132C349.318 99.818 351.301 101.801 355.198 103.647C361.352 106.587 367.847 105.151 371.676 100.091C373.317 98.0403 373.659 96.8779 373.59 94.0746C373.522 89.4253 371.676 85.9382 362.446 73.6311C358.275 68.0245 354.309 62.623 353.557 61.5974L352.258 59.8197L361.283 47.6493C366.274 40.9487 371.129 34.0431 372.018 32.2654C376.325 23.8555 372.155 15.8558 362.787 14.6251C359.232 14.0781 355.95 15.1037 352.326 17.7019C350.754 18.8642 344.258 26.8639 336.669 36.9831L323.746 54.2815L323.405 38.8975C323.131 25.9066 322.858 23.1717 321.832 21.0522C320.259 17.907 318.687 16.5395 315.405 15.3088C312.123 14.1465 310.755 14.1465 307.337 15.3772Z" fill="white"/>
<path d="M243.613 16.4054C231.579 19.5506 222.349 27.2084 216.537 38.9002C209.563 52.7799 209.837 68.7793 217.289 83.0692C220.845 89.8382 228.503 97.3592 235.203 100.641C251.613 108.641 271.509 105.632 284.363 93.1201C288.397 89.2228 289.286 87.9237 290.244 84.5734C291.884 78.9668 290.791 75.6849 286.346 72.7449C279.851 68.369 273.424 69.2579 269.116 75.138C267.68 77.0524 265.287 79.172 263.099 80.4027C260.023 82.112 258.724 82.3855 254.348 82.3855C249.972 82.3855 248.741 82.112 246.006 80.4711C241.972 78.1464 238.28 73.3602 236.913 68.8476C235.613 64.4034 235.613 55.9251 236.913 51.4125C239.237 43.6863 246.758 37.6011 254.074 37.6011C260.364 37.6011 266.45 40.7463 269.39 45.464C270.21 46.7631 272.125 48.4041 273.902 49.2929C276.774 50.6604 277.389 50.7287 280.603 49.9766C285.663 48.8827 288.876 46.4896 290.244 42.7975C291.337 39.9942 291.337 39.5156 290.244 35.755C289.286 32.4048 288.397 31.0373 284.5 27.2768C274.107 17.0208 257.766 12.7133 243.613 16.4054Z" fill="white"/>
<rect x="374.001" y="25.2061" width="25.9818" height="66.7858" rx="12.9909" transform="rotate(-36.9803 374.001 25.2061)" fill="white"/>
<rect x="415.394" y="43.0771" width="25.9818" height="66.0653" rx="12.9909" transform="rotate(38.7963 415.394 43.0771)" fill="white"/>
</svg>
