<svg width="1373" height="280" viewBox="0 0 1373 280" fill="none" xmlns="http://www.w3.org/2000/svg">
<g filter="url(#filter0_d_1_33)">
<path d="M63.6336 65.5831C54.5548 68.2851 51.9609 69.474 44.9356 73.9053C36.2891 79.3094 32.2901 83.4164 26.2376 92.4952C17.6992 105.357 13.376 120.272 13.376 136.484C13.376 173.772 37.0457 201.225 73.6851 206.304C80.3862 207.277 84.9256 207.061 97.3549 205.548L112.81 203.602L124.483 207.601C130.968 209.763 138.209 211.6 140.803 211.6C149.234 211.6 155.935 206.088 156.799 198.415C157.232 194.308 156.799 193.119 153.449 188.363C143.722 174.961 143.722 175.069 148.153 158.425C150.639 149.022 151.071 145.239 151.071 133.782C150.963 122.218 150.531 118.975 148.153 111.626C140.263 87.7397 122.105 70.771 98.2195 65.0427C89.1407 62.9891 71.7397 63.2053 63.6336 65.5831ZM91.6266 99.4124C98.1114 101.358 106.434 110.112 109.568 118.11C112.702 126.541 113.027 141.24 110.216 149.994C106.109 162.964 96.2741 171.286 83.5205 172.367C74.9821 173.232 69.0377 170.854 62.769 164.261C55.3114 156.263 52.9336 148.914 52.9336 133.782C52.8255 123.298 53.1498 120.596 55.0952 116.381C58.2296 109.68 64.8225 102.547 70.1185 100.169C75.1983 97.7912 85.1417 97.467 91.6266 99.4124Z" fill="#25AAE1"/>
<path d="M45.1658 74.2702L45.1642 74.2711C40.8581 76.9625 37.7255 79.3207 34.9189 82.1273C32.1108 84.9354 29.6162 88.2051 26.597 92.7338C18.1086 105.52 13.8074 120.351 13.8074 136.484C13.8074 173.56 37.3215 200.827 73.7444 205.877L73.7471 205.878C80.3883 206.842 84.8801 206.632 97.3018 205.12C97.3021 205.12 97.3024 205.12 97.3027 205.12L112.757 203.174L112.856 203.162L112.95 203.194L124.62 207.192C124.62 207.192 124.621 207.193 124.621 207.193C127.853 208.27 131.273 209.266 134.206 209.993C137.157 210.724 139.567 211.169 140.803 211.169C149.045 211.169 155.532 205.793 156.37 198.369C156.585 196.332 156.576 195.084 156.134 193.77C155.684 192.434 154.777 190.997 153.098 188.614C153.097 188.613 153.097 188.612 153.096 188.612L152.952 188.413C150.598 185.17 148.809 182.705 147.526 180.596C146.212 178.437 145.411 176.622 145.067 174.685C144.723 172.749 144.843 170.727 145.319 168.161C145.789 165.627 146.613 162.531 147.703 158.438L147.736 158.314C150.21 148.954 150.64 145.209 150.64 133.785C150.586 128.003 150.45 124.326 150.035 121.18C149.622 118.042 148.928 115.422 147.743 111.76C139.898 88.0126 121.856 71.1558 98.1218 65.4629C93.6297 64.4472 87.0491 63.9882 80.5681 64.0825C74.0823 64.1769 67.7518 64.8247 63.755 65.997C59.2194 67.347 56.3244 68.313 53.6905 69.4896C51.0581 70.6655 48.6744 72.0571 45.1658 74.2702ZM109.97 117.953L109.97 117.953L109.972 117.96C111.562 122.236 112.431 128.071 112.553 133.922C112.675 139.773 112.052 145.687 110.628 150.125C106.474 163.243 96.5029 171.698 83.5603 172.797C79.2412 173.234 75.5499 172.853 72.1359 171.512C68.7233 170.172 65.6195 167.885 62.4563 164.558L62.4534 164.555C58.6916 160.521 56.1943 156.631 54.6442 151.829C53.0974 147.038 52.5023 141.367 52.5022 133.784C52.3942 123.3 52.714 120.511 54.7035 116.2L54.7045 116.198C56.2937 112.801 58.753 109.306 61.4797 106.361C64.2014 103.421 67.2183 100.999 69.9387 99.7768C72.5534 98.5538 76.3736 97.8743 80.3308 97.7384C84.2956 97.6021 88.4517 98.0096 91.7505 98.9992C95.0954 100.003 98.8591 102.737 102.165 106.194C105.478 109.656 108.378 113.891 109.97 117.953Z" stroke="black" stroke-width="0.862792"/>
</g>
<g filter="url(#filter1_d_1_33)">
<path d="M179.496 64.6107C174.092 66.34 168.796 71.2037 166.094 77.1481L163.5 82.7683L163.824 126.973L164.148 171.07L167.067 177.339C173.011 190.093 186.197 200.468 201.436 204.684C211.272 207.386 235.914 207.386 245.75 204.684C260.773 200.577 274.175 189.877 280.119 177.339L283.038 171.07V125.676C283.038 83.4168 282.929 80.0663 280.984 76.4996C277.85 70.4471 273.851 66.9885 268.23 65.0431C258.611 61.9087 249.316 65.5835 245.317 74.2299C243.156 78.8774 243.048 81.3633 242.507 117.57C242.075 151.292 241.751 156.371 240.129 159.398C233.32 171.719 216.243 172.259 207.489 160.479C205.327 157.56 205.219 155.831 204.679 118.327C204.138 81.3633 204.03 78.8774 201.869 74.2299C200.464 71.2037 198.086 68.3936 195.816 66.9885C191.385 64.2865 183.927 63.2057 179.496 64.6107Z" fill="#25AAE1"/>
<path d="M166.487 77.3266L166.486 77.3289L163.932 82.8616L164.256 126.97L164.579 170.973L167.458 177.157C167.458 177.157 167.458 177.157 167.458 177.157C173.341 189.778 186.414 200.081 201.551 204.268C206.41 205.603 214.981 206.279 223.593 206.279C232.205 206.279 240.776 205.603 245.635 204.268L245.636 204.268C260.553 200.189 273.844 189.565 279.729 177.156C279.729 177.155 279.729 177.155 279.73 177.154L282.606 170.975V125.676C282.606 104.542 282.579 93.1506 282.309 86.5959C282.04 80.0406 281.528 78.397 280.605 76.7063L280.601 76.698C277.514 70.7369 273.598 67.3586 268.093 65.452C258.66 62.38 249.606 65.9856 245.709 74.411L245.708 74.4119C244.657 76.6719 244.097 78.3984 243.735 84.0927C243.371 89.8077 243.209 99.467 242.939 117.577C242.722 134.434 242.533 144.144 242.195 150.019C241.857 155.881 241.37 157.996 240.51 159.601L240.507 159.606C233.529 172.234 216.062 172.739 207.143 160.736L207.142 160.735C206.582 159.979 206.139 159.276 205.798 158.051C205.463 156.848 205.228 155.149 205.045 152.401C204.68 146.902 204.518 137.078 204.247 118.333C203.977 99.8453 203.815 89.9966 203.451 84.1868C203.089 78.3973 202.528 76.6713 201.478 74.4119L201.477 74.4116C200.101 71.446 197.774 68.7077 195.589 67.3553C193.436 66.0431 190.524 65.1126 187.594 64.6864C184.659 64.2595 181.758 64.346 179.626 65.022C174.352 66.7102 169.144 71.4802 166.487 77.3266Z" stroke="black" stroke-width="0.862792"/>
</g>
<g filter="url(#filter2_d_1_33)">
<path d="M312.329 64.8268C306.277 66.448 299.467 73.5814 297.522 80.2824C295.36 87.74 295.252 183.716 297.414 190.849C301.197 203.387 315.68 210.628 326.488 205.44C332.216 202.738 335.242 197.226 336.647 187.283C338.268 174.961 337.404 82.7682 335.566 77.2561C333.729 71.5278 328.433 65.9076 323.786 64.6107C319.138 63.3137 317.949 63.4218 312.329 64.8268Z" fill="#25AAE1"/>
<path d="M297.827 190.724L297.827 190.725C299.681 196.869 304.161 201.725 309.51 204.406C314.859 207.087 321.04 207.577 326.301 205.051L326.304 205.05C331.834 202.441 334.822 197.114 336.22 187.224C336.621 184.173 336.871 176.133 336.989 165.663C337.108 155.205 337.094 142.357 336.972 129.72C336.851 117.083 336.621 104.661 336.307 95.0546C336.15 90.251 335.972 86.1545 335.776 83.0885C335.678 81.5552 335.576 80.2834 335.47 79.3115C335.363 78.324 335.255 77.6864 335.157 77.3925L335.156 77.3879C334.26 74.5941 332.513 71.8109 330.415 69.5663C328.312 67.3171 325.891 65.6461 323.67 65.0262C321.354 64.3799 319.946 64.0979 318.433 64.1367C316.908 64.1758 315.253 64.5406 312.437 65.2445C309.513 66.0288 306.365 68.1601 303.697 70.9479C301.031 73.7342 298.885 77.134 297.936 80.4025C297.813 80.8281 297.689 81.6057 297.57 82.7205C297.452 83.8258 297.341 85.2355 297.239 86.9083C297.033 90.2533 296.861 94.6365 296.72 99.7134C296.44 109.866 296.292 122.781 296.278 135.688C296.265 148.594 296.386 161.489 296.646 171.601C296.776 176.658 296.941 181.016 297.14 184.33C297.24 185.988 297.348 187.381 297.464 188.468C297.582 189.566 297.705 190.322 297.827 190.724Z" stroke="black" stroke-width="0.862792"/>
</g>
<g filter="url(#filter3_d_1_33)">
<path d="M499.201 65.1509C493.149 67.3125 487.312 73.9055 485.259 80.9307C483.745 85.6863 483.529 94.1166 483.529 134.971C483.529 165.342 483.962 185.445 484.718 188.796C488.069 204.683 504.821 212.141 517.359 203.278C519.953 201.549 526.654 193.767 533.03 185.337L544.163 170.53L546.649 173.448C547.946 175.177 552.161 180.581 555.944 185.661C565.563 198.631 568.697 201.765 574.858 204.683C584.585 209.331 594.853 207.061 600.905 199.063C603.499 195.821 604.04 193.983 603.931 189.552C603.823 182.203 600.905 176.69 586.314 157.236C579.721 148.373 573.453 139.835 572.264 138.214L570.21 135.404L584.477 116.165C592.367 105.573 600.041 94.657 601.446 91.8469C608.255 78.5529 601.662 65.9075 586.855 63.962C581.234 63.0974 576.047 64.7186 570.318 68.8257C567.832 70.663 557.565 83.3085 545.568 99.3045L525.14 126.649L524.6 102.331C524.168 81.7954 523.735 77.4721 522.114 74.1216C519.628 69.1499 517.142 66.9883 511.955 65.0428C506.767 63.2054 504.605 63.2054 499.201 65.1509Z" fill="#25AAE1"/>
<path d="M499.346 65.5572L499.347 65.5568C502.038 64.5882 503.873 64.1227 505.662 64.1097C507.449 64.0967 509.228 64.5349 511.807 65.4481C514.372 66.4103 516.235 67.4137 517.761 68.7698C519.286 70.1255 520.499 71.8566 521.727 74.3123C522.505 75.9197 523.011 77.7793 523.373 81.8204C523.737 85.8697 523.953 92.0694 524.169 102.34L524.169 102.34L524.709 126.659L524.737 127.91L525.486 126.907L545.913 99.5633L499.346 65.5572ZM499.346 65.5572C493.443 67.6655 487.693 74.1386 485.673 81.0518L485.673 81.0518M499.346 65.5572L485.673 81.0518M485.673 81.0518L485.67 81.0615M485.673 81.0518L485.67 81.0615M485.67 81.0615C484.933 83.3756 484.501 86.6168 484.258 94.4272C484.015 102.228 483.961 114.542 483.961 134.971C483.961 150.155 484.069 162.77 484.271 172.006C484.373 176.625 484.497 180.396 484.644 183.22C484.791 186.061 484.96 187.906 485.139 188.7L485.139 188.7M485.67 81.0615L485.139 188.7M485.139 188.7L485.14 188.706M485.139 188.7L485.14 188.706M485.14 188.706C488.436 204.337 504.863 211.583 517.11 202.926L517.11 202.926M485.14 188.706L517.11 202.926M517.11 202.926L517.119 202.919M517.11 202.926L517.119 202.919M517.119 202.919C517.729 202.513 518.608 201.729 519.698 200.628C520.782 199.532 522.056 198.141 523.45 196.537C526.239 193.331 529.502 189.286 532.686 185.077C532.686 185.077 532.686 185.077 532.686 185.077L543.818 170.271L544.142 169.84M517.119 202.919L544.142 169.84M544.142 169.84L544.491 170.25M544.142 169.84L544.491 170.25M544.491 170.25L546.977 173.168L546.986 173.178M544.491 170.25L546.986 173.178M546.986 173.178L546.994 173.189M546.986 173.178L546.994 173.189M546.994 173.189C547.426 173.765 548.197 174.769 549.175 176.042C551.089 178.532 553.793 182.051 556.29 185.404L556.29 185.404M546.994 173.189L556.29 185.404M556.29 185.404C565.909 198.374 568.989 201.426 575.042 204.294L575.044 204.294M556.29 185.404L575.044 204.294M575.044 204.294C584.603 208.861 594.643 206.623 600.561 198.803L600.561 198.803M575.044 204.294L600.561 198.803M600.561 198.803L600.568 198.794M600.561 198.803L600.568 198.794M600.568 198.794C601.851 197.191 602.597 195.969 603.02 194.624C603.444 193.275 603.554 191.765 603.5 189.563L603.5 189.558M600.568 198.794L603.5 189.558M603.5 189.558C603.394 182.375 600.582 176.978 585.969 157.495L585.968 157.493M603.5 189.558L585.968 157.493M585.968 157.493C579.374 148.63 573.105 140.09 571.916 138.469L571.915 138.468M585.968 157.493L571.915 138.468M571.915 138.468L569.862 135.658L569.675 135.402M571.915 138.468L569.675 135.402M569.675 135.402L569.864 135.147M569.675 135.402L569.864 135.147M569.864 135.147L584.13 115.908L584.131 115.907M569.864 135.147L584.131 115.907M584.131 115.907C588.074 110.614 591.962 105.241 595.04 100.841C598.127 96.4265 600.375 93.0242 601.06 91.654L601.062 91.6502M584.131 115.907L601.062 91.6502M601.062 91.6502C604.414 85.1044 604.446 78.7692 601.874 73.8486C599.302 68.9283 594.089 65.3475 586.798 64.3898L586.789 64.3884M601.062 91.6502L586.789 64.3884M586.789 64.3884C581.313 63.5459 576.238 65.113 570.572 69.1744M586.789 64.3884L570.572 69.1744M570.572 69.1744C569.993 69.6033 568.916 70.7015 567.412 72.3996C565.918 74.0871 564.031 76.3347 561.845 79.0275C557.472 84.4125 551.909 91.568 545.913 99.5627L570.572 69.1744Z" stroke="black" stroke-width="0.862792"/>
</g>
<g filter="url(#filter4_d_1_33)">
<path d="M398.469 66.772C379.446 71.7438 364.855 83.8488 355.668 102.331C344.644 124.271 345.077 149.562 356.857 172.151C362.478 182.851 374.583 194.74 385.175 199.928C411.114 212.573 442.566 207.818 462.885 188.039C469.262 181.878 470.667 179.825 472.18 174.529C474.774 165.666 473.044 160.478 466.019 155.831C455.751 148.914 445.592 150.319 438.783 159.614C436.513 162.64 432.73 165.99 429.272 167.936C424.408 170.638 422.354 171.07 415.437 171.07C408.52 171.07 406.575 170.638 402.251 168.044C395.875 164.369 390.038 156.803 387.877 149.67C385.823 142.645 385.823 129.243 387.877 122.109C391.551 109.896 403.44 100.277 415.005 100.277C424.948 100.277 434.568 105.249 439.215 112.706C440.512 114.76 443.538 117.354 446.348 118.759C450.888 120.921 451.861 121.029 456.94 119.84C464.938 118.11 470.018 114.328 472.18 108.491C473.909 104.06 473.909 103.303 472.18 97.3589C470.667 92.063 469.262 89.9014 463.101 83.9569C446.673 67.7448 420.841 60.9357 398.469 66.772Z" fill="#25AAE1"/>
<path d="M356.055 102.523L356.054 102.524C345.095 124.335 345.52 149.48 357.24 171.951C362.819 182.572 374.857 194.394 385.364 199.54C411.145 212.108 442.399 207.378 462.584 187.73L462.585 187.729C465.774 184.648 467.69 182.621 469.001 180.715C470.302 178.823 471.015 177.035 471.765 174.41L471.766 174.408C473.051 170.016 473.244 166.602 472.297 163.734C471.352 160.873 469.247 158.484 465.781 156.191L465.778 156.189C460.709 152.773 455.707 151.439 451.163 152.07C446.624 152.7 442.479 155.298 439.131 159.869L439.128 159.872C436.822 162.946 432.994 166.337 429.483 168.312L429.481 168.313C427.036 169.671 425.265 170.478 423.219 170.937C421.182 171.394 418.897 171.502 415.437 171.502C411.978 171.502 409.719 171.395 407.775 170.95C405.82 170.503 404.208 169.721 402.033 168.416C395.557 164.683 389.655 157.027 387.464 149.795L387.463 149.791C386.419 146.223 385.905 141.07 385.905 135.93C385.905 130.79 386.42 125.612 387.462 121.99L387.463 121.985C391.185 109.617 403.223 99.8457 415.005 99.8457C425.076 99.8457 434.843 104.877 439.581 112.477C440.826 114.449 443.782 116.993 446.538 118.371C448.81 119.453 450.125 119.987 451.486 120.127C452.85 120.267 454.296 120.016 456.842 119.42L456.842 119.42L456.849 119.418C464.754 117.709 469.681 113.997 471.775 108.341L471.775 108.341L471.778 108.334C472.644 106.114 473.045 104.887 473.045 103.493C473.045 102.08 472.634 100.466 471.766 97.4794L471.765 97.4774C471.015 94.8514 470.3 93.035 469.025 91.1421C467.742 89.2376 465.88 87.2381 462.801 84.2674L462.798 84.264C446.479 68.1599 420.805 61.3911 398.578 67.1894C379.682 72.1279 365.189 84.1465 356.055 102.523Z" stroke="black" stroke-width="0.862792"/>
</g>
<g filter="url(#filter5_d_1_33)">
<rect x="604.579" y="80.7156" width="41.0708" height="105.572" rx="20.5354" transform="rotate(-36.9803 604.579 80.7156)" fill="#25AAE1"/>
<rect x="605.183" y="80.8007" width="40.208" height="104.709" rx="20.104" transform="rotate(-36.9803 605.183 80.8007)" stroke="black" stroke-width="0.862792"/>
</g>
<g filter="url(#filter6_d_1_33)">
<rect x="670.012" y="108.97" width="41.0708" height="104.433" rx="20.5354" transform="rotate(38.7963 670.012 108.97)" fill="#3CB64B"/>
<rect x="670.078" y="109.577" width="40.208" height="103.57" rx="20.104" transform="rotate(38.7963 670.078 109.577)" stroke="black" stroke-width="0.862792"/>
</g>
<path d="M754.515 67.6657L754.512 67.6669C722.191 79.5839 703.425 106.649 703.425 141.321C703.425 157.659 708.343 171.717 717.325 182.568C726.308 193.42 739.377 201.09 755.723 204.612C778.305 209.399 800.737 204.198 814.429 194.898C821.277 190.246 825.892 184.602 827.299 178.718C828.697 172.867 826.944 166.687 820.863 160.874C816.942 157.131 812.604 155.37 807.856 155.525C803.093 155.68 797.866 157.765 792.188 161.82C780.642 170.158 768.394 170.88 759.239 165.91C750.083 160.939 744.121 150.327 745.038 136.211L745.038 136.206C746.502 117.172 757.327 104.079 773.727 101.867L773.729 101.867C778.693 101.224 783.211 101.637 787.843 103.342C792.466 105.045 797.183 108.027 802.558 112.491C806.655 115.859 809.051 117.67 811.289 118.548C813.496 119.413 815.581 119.382 819.109 118.93L819.109 118.93L819.117 118.929C832.128 117.503 840.451 105.944 837.083 93.8826C835.934 89.9981 832.641 85.48 828.038 81.215C823.442 76.9577 817.582 72.9907 811.364 70.1969L811.361 70.1956C803.896 66.7778 793.382 64.742 782.864 64.2669C772.344 63.7919 761.881 64.8809 754.515 67.6657Z" fill="#3CB64B" stroke="black" stroke-width="0.862792"/>
<path d="M834.271 179.59L834.27 179.593C830.023 190.742 837.438 202.462 849.899 204.243C854.63 204.867 858.892 204.152 862.592 202.158C866.294 200.163 869.461 196.872 871.97 192.301L871.97 192.301L871.975 192.294L876.15 185.033L876.274 184.817H876.524H901.573C912.273 184.817 918.563 184.907 922.176 185.296C923.973 185.489 925.17 185.761 925.926 186.171C926.313 186.381 926.604 186.637 926.795 186.955C926.985 187.274 927.054 187.619 927.054 187.971C927.054 190.484 928.276 193.622 930.136 196.422C931.994 199.221 934.433 201.599 936.781 202.642L936.787 202.645C951.045 209.239 967.94 198.886 967.94 183.796C967.94 183.518 967.842 182.871 967.636 181.85C967.433 180.848 967.134 179.525 966.752 177.926C965.987 174.729 964.889 170.439 963.561 165.414C960.904 155.366 957.326 142.39 953.639 129.368C949.952 116.345 946.158 103.278 943.071 93.0486C941.527 87.9333 940.16 83.5294 939.072 80.1956C937.978 76.8441 937.178 74.6139 936.767 73.8121C931.815 64.2645 918.135 61.0273 908.155 67.2645C908.049 67.3312 907.868 67.4877 907.605 67.7619C907.347 68.0295 907.032 68.3865 906.662 68.8301C905.921 69.717 904.973 70.9342 903.846 72.4399C901.592 75.4503 898.632 79.5978 895.202 84.5256C888.344 94.3803 879.617 107.344 870.916 120.548C862.216 133.751 853.545 147.192 846.8 157.999C843.428 163.403 840.538 168.147 838.368 171.873C836.189 175.612 834.755 178.293 834.271 179.59ZM916.154 140.327L916.155 140.334C916.701 143.242 917.156 146.021 917.408 148.122C917.533 149.171 917.609 150.062 917.618 150.72C917.622 151.047 917.61 151.333 917.574 151.559C917.557 151.671 917.53 151.785 917.489 151.887C917.454 151.972 917.393 152.09 917.279 152.18C917.127 152.317 916.909 152.396 916.72 152.45C916.496 152.515 916.217 152.568 915.897 152.614C915.254 152.705 914.403 152.768 913.409 152.802C911.419 152.871 908.818 152.825 906.085 152.643C906.084 152.643 906.083 152.642 906.082 152.642L895.923 152.098L895.234 152.061L895.569 151.458L903.011 138.026L903.011 138.026C905.05 134.355 906.639 131.577 907.925 129.75C908.567 128.839 909.151 128.139 909.696 127.682C910.236 127.229 910.808 126.956 911.4 127.055C911.991 127.153 912.451 127.595 912.829 128.2C913.213 128.812 913.564 129.67 913.907 130.753C914.596 132.923 915.293 136.112 916.154 140.327Z" fill="#3CB64B" stroke="black" stroke-width="0.862792"/>
<g filter="url(#filter7_d_1_33)">
<path d="M1027.81 232.587C1017.3 232.587 1012.87 227.54 1014.51 217.447L1015.94 207.83C1010.89 207.148 1005.64 206.057 1000.18 204.556C994.728 202.92 989.954 201.078 985.862 199.032C982.179 197.122 979.587 194.667 978.087 191.666C976.723 188.529 976.245 185.324 976.654 182.05C977.2 178.776 978.428 175.912 980.337 173.457C982.383 171.001 985.043 169.364 988.317 168.546C991.591 167.728 995.273 168.273 999.366 170.183C1004.55 172.775 1010.28 174.752 1016.55 176.116C1022.83 177.344 1028.83 177.958 1034.56 177.958C1041.79 177.958 1047.38 176.798 1051.34 174.48C1055.29 172.161 1057.27 169.023 1057.27 165.068C1057.27 161.93 1056.04 159.407 1053.59 157.497C1051.27 155.588 1047.52 153.951 1042.33 152.587L1020.24 147.063C1010 144.471 1001.89 139.901 995.887 133.354C990.022 126.807 987.089 118.691 987.089 109.006C987.089 99.5943 989.408 91.5465 994.046 84.8628C998.82 78.179 1005.09 72.9275 1012.87 69.1082C1020.78 65.1525 1029.51 62.7655 1039.06 61.9471L1041.1 49.057C1041.65 45.6469 1043.22 42.9188 1045.81 40.8728C1048.54 38.8268 1052.02 37.8037 1056.25 37.8037C1060.2 37.8037 1063.47 38.9632 1066.07 41.282C1068.66 43.6009 1069.61 47.0791 1068.93 51.7168L1067.09 63.7885C1070.36 64.6069 1073.71 65.6981 1077.12 67.0622C1080.53 68.2898 1084 69.8584 1087.55 71.7681C1090.55 73.2685 1092.67 75.451 1093.89 78.3154C1095.26 81.0435 1095.73 83.9762 1095.33 87.1134C1094.92 90.1143 1093.76 92.7742 1091.85 95.093C1090.07 97.4119 1087.55 98.9805 1084.28 99.7989C1081.14 100.481 1077.32 99.8671 1072.82 97.9575C1068.59 95.9114 1064.23 94.4792 1059.72 93.6608C1055.22 92.8424 1050.93 92.4331 1046.83 92.4331C1039.33 92.4331 1033.53 93.5926 1029.44 95.9114C1025.35 98.2303 1023.3 101.231 1023.3 104.914C1023.3 108.051 1024.33 110.643 1026.37 112.689C1028.56 114.735 1032.1 116.372 1037.01 117.6L1059.31 123.124C1070.23 125.715 1078.62 130.353 1084.48 137.037C1090.48 143.721 1093.48 151.768 1093.48 161.18C1093.48 170.592 1091.23 178.572 1086.73 185.119C1082.37 191.666 1076.43 196.85 1068.93 200.669C1061.43 204.352 1053.18 206.807 1044.17 208.035L1042.13 221.334C1041.58 224.881 1040.01 227.609 1037.42 229.518C1034.97 231.564 1031.76 232.587 1027.81 232.587Z" fill="#3CB64B"/>
<path d="M1014.51 217.447L1015.36 217.585L1015.36 217.574L1014.51 217.447ZM1015.94 207.83L1016.79 207.957L1016.92 207.092L1016.05 206.975L1015.94 207.83ZM1000.18 204.556L999.936 205.383L999.946 205.386L999.955 205.388L1000.18 204.556ZM985.862 199.032L985.464 199.798L985.476 199.804L985.862 199.032ZM978.087 191.666L977.295 192.01L977.305 192.032L977.315 192.052L978.087 191.666ZM976.654 182.05L975.803 181.908L975.8 181.925L975.798 181.943L976.654 182.05ZM980.337 173.457L979.674 172.904L979.665 172.915L979.656 172.927L980.337 173.457ZM988.317 168.546L988.526 169.383L988.317 168.546ZM999.366 170.183L999.751 169.411L999.741 169.406L999.73 169.401L999.366 170.183ZM1016.55 176.116L1016.37 176.96L1016.38 176.961L1016.39 176.963L1016.55 176.116ZM1051.34 174.48L1051.77 175.224L1051.34 174.48ZM1053.59 157.497L1053.04 158.163L1053.05 158.171L1053.06 158.178L1053.59 157.497ZM1042.33 152.587L1042.55 151.752L1042.54 151.75L1042.33 152.587ZM1020.24 147.063L1020.02 147.899L1020.03 147.9L1020.24 147.063ZM995.887 133.354L995.245 133.93L995.251 133.937L995.887 133.354ZM994.046 84.8628L993.344 84.3612L993.337 84.3709L994.046 84.8628ZM1012.87 69.1082L1013.25 69.8827L1013.26 69.8799L1012.87 69.1082ZM1039.06 61.9471L1039.13 62.8067L1039.81 62.7491L1039.91 62.0823L1039.06 61.9471ZM1041.1 49.057L1040.25 48.9207L1040.25 48.9217L1041.1 49.057ZM1045.81 40.8728L1045.29 40.1826L1045.28 40.189L1045.28 40.1956L1045.81 40.8728ZM1068.93 51.7168L1069.78 51.8469L1069.78 51.8424L1068.93 51.7168ZM1067.09 63.7885L1066.24 63.6584L1066.12 64.435L1066.88 64.6255L1067.09 63.7885ZM1077.12 67.0622L1076.79 67.8633L1076.81 67.8689L1076.82 67.874L1077.12 67.0622ZM1087.55 71.7681L1087.14 72.5277L1087.15 72.5339L1087.16 72.5398L1087.55 71.7681ZM1093.89 78.3154L1093.1 78.6553L1093.11 78.6786L1093.12 78.7013L1093.89 78.3154ZM1095.33 87.1134L1096.18 87.23L1096.18 87.225L1095.33 87.1134ZM1091.85 95.093L1091.18 94.5445L1091.17 94.5565L1091.16 94.5689L1091.85 95.093ZM1084.28 99.7989L1084.46 100.642L1084.47 100.639L1084.49 100.636L1084.28 99.7989ZM1072.82 97.9575L1072.44 98.7341L1072.46 98.7434L1072.48 98.7517L1072.82 97.9575ZM1059.72 93.6608L1059.57 94.5097L1059.72 93.6608ZM1029.44 95.9114L1029.02 95.1608L1029.44 95.9114ZM1026.37 112.689L1025.76 113.299L1025.77 113.309L1025.78 113.318L1026.37 112.689ZM1037.01 117.6L1036.8 118.437L1036.81 118.437L1037.01 117.6ZM1059.31 123.124L1059.11 123.961L1059.12 123.963L1059.31 123.124ZM1084.48 137.037L1083.83 137.606L1083.84 137.613L1084.48 137.037ZM1086.73 185.119L1086.02 184.63L1086.01 184.64L1086.73 185.119ZM1068.93 200.669L1069.31 201.444L1069.32 201.438L1068.93 200.669ZM1044.17 208.035L1044.06 207.18L1043.42 207.267L1043.32 207.904L1044.17 208.035ZM1042.13 221.334L1042.98 221.465L1042.13 221.334ZM1037.42 229.518L1036.91 228.824L1036.89 228.839L1036.87 228.855L1037.42 229.518ZM1027.81 231.724C1022.66 231.724 1019.23 230.486 1017.25 228.233C1015.28 225.986 1014.56 222.512 1015.36 217.585L1013.65 217.308C1012.82 222.475 1013.5 226.571 1015.96 229.371C1018.41 232.165 1022.44 233.45 1027.81 233.45V231.724ZM1015.36 217.574L1016.79 207.957L1015.09 207.703L1013.65 217.319L1015.36 217.574ZM1016.05 206.975C1011.05 206.299 1005.84 205.216 1000.41 203.725L999.955 205.388C1005.44 206.898 1010.73 207.997 1015.82 208.685L1016.05 206.975ZM1000.43 203.73C995.012 202.104 990.286 200.28 986.247 198.26L985.476 199.804C989.621 201.877 994.443 203.735 999.936 205.383L1000.43 203.73ZM986.259 198.266C982.699 196.42 980.26 194.083 978.858 191.281L977.315 192.052C978.915 195.251 981.659 197.825 985.464 199.798L986.259 198.266ZM978.878 191.322C977.573 188.321 977.121 185.271 977.511 182.157L975.798 181.943C975.369 185.376 975.872 188.737 977.295 192.01L978.878 191.322ZM977.505 182.192C978.029 179.05 979.203 176.321 981.018 173.986L979.656 172.927C977.653 175.503 976.371 178.503 975.803 181.908L977.505 182.192ZM981 174.009C982.922 171.702 985.419 170.16 988.526 169.383L988.108 167.709C984.667 168.569 981.844 170.3 979.674 172.904L981 174.009ZM988.526 169.383C991.551 168.627 995.027 169.11 999.001 170.965L999.73 169.401C995.52 167.436 991.63 166.829 988.108 167.709L988.526 169.383ZM998.98 170.955C1004.23 173.582 1010.03 175.582 1016.37 176.96L1016.74 175.273C1010.52 173.923 1004.86 171.967 999.751 169.411L998.98 170.955ZM1016.39 176.963C1022.71 178.2 1028.77 178.821 1034.56 178.821V177.095C1028.89 177.095 1022.94 176.488 1016.72 175.27L1016.39 176.963ZM1034.56 178.821C1041.86 178.821 1047.63 177.653 1051.77 175.224L1050.9 173.735C1047.13 175.944 1041.71 177.095 1034.56 177.095V178.821ZM1051.77 175.224C1055.94 172.78 1058.13 169.384 1058.13 165.068H1056.41C1056.41 168.663 1054.64 171.542 1050.9 173.735L1051.77 175.224ZM1058.13 165.068C1058.13 161.667 1056.78 158.891 1054.12 156.816L1053.06 158.178C1055.3 159.923 1056.41 162.194 1056.41 165.068H1058.13ZM1054.13 156.831C1051.67 154.803 1047.78 153.127 1042.55 151.753L1042.11 153.421C1047.26 154.775 1050.86 156.373 1053.04 158.163L1054.13 156.831ZM1042.54 151.75L1020.44 146.226L1020.03 147.9L1042.12 153.424L1042.54 151.75ZM1020.45 146.226C1010.35 143.668 1002.39 139.173 996.523 132.771L995.251 133.937C1001.39 140.63 1009.66 145.274 1020.02 147.899L1020.45 146.226ZM996.53 132.778C990.821 126.406 987.952 118.502 987.952 109.006H986.226C986.226 118.88 989.223 127.208 995.245 133.93L996.53 132.778ZM987.952 109.006C987.952 99.7417 990.232 91.8722 994.755 85.3546L993.337 84.3709C988.584 91.2208 986.226 99.4469 986.226 109.006H987.952ZM994.748 85.3643C999.434 78.8031 1005.6 73.6425 1013.25 69.8826L1012.49 68.3338C1004.59 72.2125 998.205 77.555 993.344 84.3613L994.748 85.3643ZM1013.26 69.8799C1021.06 65.977 1029.68 63.6166 1039.13 62.8067L1038.99 61.0874C1029.34 61.9144 1020.5 64.3281 1012.48 68.3365L1013.26 69.8799ZM1039.91 62.0823L1041.96 49.1922L1040.25 48.9217L1038.21 61.8118L1039.91 62.0823ZM1041.96 49.1933C1042.47 45.9861 1043.93 43.4553 1046.35 41.55L1045.28 40.1956C1042.51 42.3824 1040.83 45.3077 1040.25 48.9207L1041.96 49.1933ZM1046.33 41.563C1048.87 39.6536 1052.16 38.6665 1056.25 38.6665V36.9409C1051.88 36.9409 1048.2 37.9999 1045.29 40.1826L1046.33 41.563ZM1056.25 38.6665C1060.02 38.6665 1063.08 39.7672 1065.49 41.925L1066.64 40.639C1063.87 38.1591 1060.38 36.9409 1056.25 36.9409V38.6665ZM1065.49 41.925C1067.8 43.9866 1068.73 47.13 1068.08 51.5913L1069.78 51.8424C1070.49 47.0283 1069.52 43.2151 1066.64 40.639L1065.49 41.925ZM1068.08 51.5867L1066.24 63.6584L1067.94 63.9186L1069.78 51.8469L1068.08 51.5867ZM1066.88 64.6255C1070.11 65.4337 1073.42 66.5125 1076.79 67.8633L1077.44 66.2611C1073.99 64.8838 1070.61 63.7801 1067.3 62.9515L1066.88 64.6255ZM1076.82 67.874C1080.19 69.0856 1083.63 70.6361 1087.14 72.5277L1087.96 71.0084C1084.38 69.0807 1080.86 67.494 1077.41 66.2504L1076.82 67.874ZM1087.16 72.5398C1090 73.9565 1091.96 75.9933 1093.1 78.6553L1094.69 77.9756C1093.37 74.9086 1091.1 72.5805 1087.94 70.9964L1087.16 72.5398ZM1093.12 78.7013C1094.41 81.2696 1094.86 84.0283 1094.47 87.0018L1096.18 87.225C1096.61 83.924 1096.11 80.8174 1094.66 77.9296L1093.12 78.7013ZM1094.47 86.9969C1094.08 89.8404 1092.99 92.3504 1091.18 94.5445L1092.51 95.6415C1094.53 93.1979 1095.75 90.3882 1096.18 87.23L1094.47 86.9969ZM1091.16 94.5689C1089.52 96.7089 1087.18 98.1831 1084.07 98.9619L1084.49 100.636C1087.92 99.7779 1090.62 98.1148 1092.53 95.6171L1091.16 94.5689ZM1084.09 98.9558C1081.2 99.5848 1077.57 99.0374 1073.16 97.1632L1072.48 98.7517C1077.07 100.697 1081.08 101.377 1084.46 100.642L1084.09 98.9558ZM1073.19 97.1808C1068.9 95.1017 1064.46 93.6446 1059.88 92.8119L1059.57 94.5097C1063.99 95.3137 1068.28 96.7211 1072.44 98.7341L1073.19 97.1808ZM1059.88 92.8119C1055.33 91.9853 1050.98 91.5704 1046.83 91.5704V93.2959C1050.87 93.2959 1055.11 93.6994 1059.57 94.5097L1059.88 92.8119ZM1046.83 91.5704C1039.26 91.5704 1033.29 92.7371 1029.02 95.1608L1029.87 96.6621C1033.77 94.4481 1039.4 93.2959 1046.83 93.2959V91.5704ZM1029.02 95.1608C1024.74 97.5836 1022.44 100.832 1022.44 104.914H1024.17C1024.17 101.63 1025.96 98.877 1029.87 96.6621L1029.02 95.1608ZM1022.44 104.914C1022.44 108.259 1023.54 111.077 1025.76 113.299L1026.98 112.079C1025.11 110.209 1024.17 107.844 1024.17 104.914H1022.44ZM1025.78 113.318C1028.12 115.512 1031.84 117.195 1036.8 118.437L1037.22 116.762C1032.37 115.549 1028.99 113.958 1026.96 112.06L1025.78 113.318ZM1036.81 118.437L1059.11 123.961L1059.52 122.286L1037.22 116.762L1036.81 118.437ZM1059.12 123.963C1069.9 126.524 1078.11 131.088 1083.83 137.606L1085.13 136.468C1079.12 129.618 1070.55 124.907 1059.51 122.284L1059.12 123.963ZM1083.84 137.613C1089.69 144.131 1092.62 151.97 1092.62 161.18H1094.35C1094.35 151.567 1091.27 143.311 1085.12 136.46L1083.84 137.613ZM1092.62 161.18C1092.62 170.45 1090.41 178.252 1086.02 184.63L1087.44 185.608C1092.06 178.892 1094.35 170.734 1094.35 161.18H1092.62ZM1086.01 184.64C1081.74 191.056 1075.92 196.143 1068.54 199.9L1069.32 201.438C1076.95 197.556 1083 192.277 1087.45 185.598L1086.01 184.64ZM1068.55 199.894C1061.14 203.533 1052.98 205.964 1044.06 207.18L1044.29 208.89C1053.38 207.651 1061.72 205.17 1069.31 201.443L1068.55 199.894ZM1043.32 207.904L1041.28 221.203L1042.98 221.465L1045.03 208.166L1043.32 207.904ZM1041.28 221.203C1040.76 224.552 1039.3 227.065 1036.91 228.824L1037.93 230.213C1040.73 228.152 1042.4 225.209 1042.98 221.465L1041.28 221.203ZM1036.87 228.855C1034.6 230.744 1031.61 231.724 1027.81 231.724V233.45C1031.91 233.45 1035.33 232.385 1037.97 230.181L1036.87 228.855Z" fill="black"/>
</g>
<g filter="url(#filter8_d_1_33)">
<mask id="path-19-inside-1_1_33" fill="white">
<path fill-rule="evenodd" clip-rule="evenodd" d="M1130.54 71.9331C1127.63 74.2928 1124.37 78.6492 1123.28 81.372C1120.55 88.0881 1104.76 179.573 1104.76 188.104C1104.76 196.635 1107.12 200.992 1113.84 204.441C1120.92 208.071 1128.18 207.889 1135.08 203.533C1142.88 198.814 1144.51 195.002 1148.14 174.672L1151.23 157.246L1174.46 156.702L1197.88 156.157L1196.61 163.962C1192.25 192.642 1193.16 199.54 1203.14 204.622C1213.85 210.068 1228.01 204.985 1232.73 193.913C1235.08 188.129 1240.88 157.406 1245.45 129.426H1276.75C1280.56 129.426 1283.65 126.336 1283.65 122.524C1283.65 118.712 1280.56 115.622 1276.75 115.622H1253.89H1247.64L1205.35 115.622L1182.09 116.042L1158.67 116.586L1159.94 109.689C1160.64 106.039 1161.5 98.0611 1162.21 91.4937L1162.3 90.6294C1163.39 78.8307 1163.21 78.2862 1157.76 73.0222C1150.5 65.58 1138.52 65.0354 1130.54 71.9331ZM1207.25 105.699H1249.12C1249.9 100.271 1250.54 95.4169 1251 91.4634H1210.25C1209.32 95.2428 1208.32 99.9004 1207.25 105.699ZM1213.26 81.5413H1251.69C1251.67 81.3204 1251.65 81.1423 1251.61 81.0089C1249.25 72.4776 1242.17 67.3952 1232.37 67.3952C1225.47 67.3952 1221.53 69.6779 1218.21 73.3852C1216.6 75.1855 1215.01 77.0778 1213.26 81.5413Z"/>
</mask>
<path fill-rule="evenodd" clip-rule="evenodd" d="M1130.54 71.9331C1127.63 74.2928 1124.37 78.6492 1123.28 81.372C1120.55 88.0881 1104.76 179.573 1104.76 188.104C1104.76 196.635 1107.12 200.992 1113.84 204.441C1120.92 208.071 1128.18 207.889 1135.08 203.533C1142.88 198.814 1144.51 195.002 1148.14 174.672L1151.23 157.246L1174.46 156.702L1197.88 156.157L1196.61 163.962C1192.25 192.642 1193.16 199.54 1203.14 204.622C1213.85 210.068 1228.01 204.985 1232.73 193.913C1235.08 188.129 1240.88 157.406 1245.45 129.426H1276.75C1280.56 129.426 1283.65 126.336 1283.65 122.524C1283.65 118.712 1280.56 115.622 1276.75 115.622H1253.89H1247.64L1205.35 115.622L1182.09 116.042L1158.67 116.586L1159.94 109.689C1160.64 106.039 1161.5 98.0611 1162.21 91.4937L1162.3 90.6294C1163.39 78.8307 1163.21 78.2862 1157.76 73.0222C1150.5 65.58 1138.52 65.0354 1130.54 71.9331ZM1207.25 105.699H1249.12C1249.9 100.271 1250.54 95.4169 1251 91.4634H1210.25C1209.32 95.2428 1208.32 99.9004 1207.25 105.699ZM1213.26 81.5413H1251.69C1251.67 81.3204 1251.65 81.1423 1251.61 81.0089C1249.25 72.4776 1242.17 67.3952 1232.37 67.3952C1225.47 67.3952 1221.53 69.6779 1218.21 73.3852C1216.6 75.1855 1215.01 77.0778 1213.26 81.5413Z" fill="#3CB64B"/>
<path d="M1123.28 81.372L1124.08 81.6961L1124.08 81.6924L1123.28 81.372ZM1130.54 71.9331L1131.08 72.6027L1131.09 72.5945L1131.1 72.5861L1130.54 71.9331ZM1113.84 204.441L1113.44 205.208L1113.44 205.208L1113.84 204.441ZM1135.08 203.533L1134.63 202.795L1134.62 202.799L1134.61 202.804L1135.08 203.533ZM1148.14 174.672L1148.99 174.823L1148.99 174.822L1148.14 174.672ZM1151.23 157.246L1151.21 156.384L1150.5 156.4L1150.38 157.096L1151.23 157.246ZM1174.46 156.702L1174.44 155.839L1174.44 155.839L1174.46 156.702ZM1197.88 156.157L1198.73 156.296L1198.9 155.27L1197.86 155.294L1197.88 156.157ZM1196.61 163.962L1195.76 163.824L1195.76 163.833L1196.61 163.962ZM1203.14 204.622L1202.75 205.391L1202.75 205.391L1203.14 204.622ZM1232.73 193.913L1233.53 194.251L1233.53 194.244L1233.53 194.238L1232.73 193.913ZM1245.45 129.426V128.563H1244.72L1244.6 129.287L1245.45 129.426ZM1247.64 115.622V114.759V115.622ZM1205.35 115.622L1205.35 114.759H1205.35L1205.34 114.759L1205.35 115.622ZM1182.09 116.042L1182.07 115.179L1182.07 115.179L1182.09 116.042ZM1158.67 116.586L1157.82 116.43L1157.63 117.474L1158.69 117.449L1158.67 116.586ZM1159.94 109.689L1159.1 109.527L1159.09 109.532L1159.94 109.689ZM1162.21 91.4937L1161.35 91.4011L1161.35 91.4011L1162.21 91.4937ZM1162.3 90.6294L1163.16 90.7221L1163.16 90.7087L1162.3 90.6294ZM1157.76 73.0222L1157.15 73.6247L1157.16 73.6337L1157.17 73.6425L1157.76 73.0222ZM1249.12 105.699V106.562H1249.87L1249.97 105.822L1249.12 105.699ZM1207.25 105.699L1206.4 105.543L1206.22 106.562H1207.25V105.699ZM1251 91.4634L1251.85 91.5615L1251.96 90.6006H1251V91.4634ZM1210.25 91.4634V90.6006H1209.58L1209.41 91.2562L1210.25 91.4634ZM1251.69 81.5413V82.4041H1252.63L1252.55 81.4671L1251.69 81.5413ZM1213.26 81.5413L1212.46 81.2269L1212 82.4041H1213.26V81.5413ZM1251.61 81.0089L1252.44 80.7819L1252.44 80.7789L1251.61 81.0089ZM1218.21 73.3852L1217.57 72.8095V72.8095L1218.21 73.3852ZM1124.08 81.6924C1124.58 80.4334 1125.62 78.7343 1126.91 77.0398C1128.2 75.3512 1129.7 73.7272 1131.08 72.6027L1129.99 71.2635C1128.47 72.4987 1126.88 74.2327 1125.54 75.993C1124.2 77.7474 1123.06 79.5878 1122.48 81.0516L1124.08 81.6924ZM1105.62 188.104C1105.62 187.105 1105.86 184.803 1106.3 181.456C1106.74 178.134 1107.36 173.842 1108.12 168.904C1109.65 159.029 1111.7 146.59 1113.85 134.204C1115.99 121.819 1118.22 109.493 1120.08 99.846C1121.01 95.0218 1121.85 90.8719 1122.54 87.7211C1123.24 84.5332 1123.77 82.4523 1124.08 81.6961L1122.48 81.0478C1122.1 81.9707 1121.54 84.2179 1120.86 87.3519C1120.16 90.523 1119.32 94.6888 1118.39 99.519C1116.52 109.181 1114.29 121.518 1112.15 133.91C1110 146.302 1107.94 158.753 1106.42 168.641C1105.66 173.585 1105.03 177.891 1104.59 181.232C1104.16 184.547 1103.9 186.97 1103.9 188.104H1105.62ZM1114.23 203.673C1110.97 201.998 1108.86 200.151 1107.54 197.761C1106.21 195.356 1105.62 192.301 1105.62 188.104H1103.9C1103.9 192.438 1104.5 195.827 1106.03 198.596C1107.56 201.379 1109.99 203.434 1113.44 205.208L1114.23 203.673ZM1134.61 202.804C1127.98 206.992 1121.05 207.168 1114.23 203.673L1113.44 205.208C1120.79 208.974 1128.37 208.786 1135.54 204.262L1134.61 202.804ZM1147.29 174.52C1145.48 184.71 1144.17 190.634 1142.39 194.602C1140.64 198.477 1138.44 200.493 1134.63 202.795L1135.52 204.271C1139.52 201.854 1142.03 199.604 1143.96 195.31C1145.85 191.111 1147.18 184.964 1148.99 174.823L1147.29 174.52ZM1150.38 157.096L1147.29 174.521L1148.99 174.822L1152.08 157.397L1150.38 157.096ZM1174.44 155.839L1151.21 156.384L1151.25 158.109L1174.48 157.564L1174.44 155.839ZM1197.86 155.294L1174.44 155.839L1174.48 157.564L1197.9 157.02L1197.86 155.294ZM1197.46 164.101L1198.73 156.296L1197.03 156.018L1195.76 163.824L1197.46 164.101ZM1203.54 203.853C1201.1 202.614 1199.29 201.3 1197.98 199.625C1196.67 197.957 1195.8 195.87 1195.35 193.008C1194.45 187.218 1195.28 178.461 1197.46 164.092L1195.76 163.833C1193.58 178.144 1192.69 187.175 1193.65 193.275C1194.13 196.357 1195.09 198.74 1196.62 200.691C1198.15 202.635 1200.19 204.089 1202.75 205.391L1203.54 203.853ZM1231.94 193.574C1227.42 204.184 1213.8 209.074 1203.54 203.853L1202.75 205.391C1213.9 211.061 1228.61 205.786 1233.53 194.251L1231.94 193.574ZM1244.6 129.287C1242.32 143.27 1239.72 157.937 1237.41 169.828C1236.26 175.774 1235.17 181.021 1234.23 185.139C1233.28 189.282 1232.49 192.217 1231.93 193.588L1233.53 194.238C1234.15 192.716 1234.97 189.642 1235.91 185.524C1236.86 181.38 1237.95 176.113 1239.11 170.157C1241.42 158.246 1244.02 143.562 1246.3 129.565L1244.6 129.287ZM1276.75 128.563H1245.45V130.289H1276.75V128.563ZM1282.79 122.524C1282.79 125.859 1280.09 128.563 1276.75 128.563V130.289C1281.04 130.289 1284.52 126.812 1284.52 122.524H1282.79ZM1276.75 116.484C1280.09 116.484 1282.79 119.188 1282.79 122.524H1284.52C1284.52 118.235 1281.04 114.759 1276.75 114.759V116.484ZM1253.89 116.484H1276.75V114.759H1253.89V116.484ZM1247.64 116.484H1253.89V114.759H1247.64V116.484ZM1205.35 116.484L1247.64 116.484V114.759L1205.35 114.759L1205.35 116.484ZM1182.1 116.904L1205.37 116.484L1205.34 114.759L1182.07 115.179L1182.1 116.904ZM1158.69 117.449L1182.11 116.904L1182.07 115.179L1158.65 115.724L1158.69 117.449ZM1159.09 109.532L1157.82 116.43L1159.52 116.743L1160.79 109.845L1159.09 109.532ZM1161.35 91.4011C1160.64 97.9904 1159.78 105.921 1159.1 109.527L1160.79 109.85C1161.49 106.156 1162.36 98.1318 1163.07 91.5864L1161.35 91.4011ZM1161.44 90.5367L1161.35 91.4011L1163.07 91.5864L1163.16 90.722L1161.44 90.5367ZM1157.17 73.6425C1159.92 76.3055 1161.13 77.5964 1161.65 79.5924C1161.91 80.6117 1162.01 81.8565 1161.96 83.6164C1161.91 85.3766 1161.72 87.595 1161.44 90.5501L1163.16 90.7087C1163.43 87.7644 1163.63 85.4903 1163.68 83.6655C1163.73 81.8404 1163.64 80.4079 1163.32 79.1582C1162.66 76.6163 1161.06 75.0028 1158.36 72.4019L1157.17 73.6425ZM1131.1 72.5861C1138.74 65.9855 1150.21 66.5102 1157.15 73.6247L1158.38 72.4197C1150.8 64.6498 1138.3 64.0854 1129.97 71.2801L1131.1 72.5861ZM1249.12 104.837H1207.25V106.562H1249.12V104.837ZM1250.14 91.3653C1249.69 95.3076 1249.04 100.153 1248.27 105.577L1249.97 105.822C1250.75 100.389 1251.4 95.5261 1251.85 91.5615L1250.14 91.3653ZM1210.25 92.3262H1251V90.6006H1210.25V92.3262ZM1208.1 105.856C1209.17 100.069 1210.16 95.4287 1211.09 91.6705L1209.41 91.2562C1208.47 95.0568 1207.48 99.732 1206.4 105.543L1208.1 105.856ZM1251.69 80.6785H1213.26V82.4041H1251.69V80.6785ZM1250.78 81.236C1250.79 81.298 1250.82 81.4181 1250.83 81.6155L1252.55 81.4671C1252.53 81.2227 1252.5 80.9867 1252.44 80.7819L1250.78 81.236ZM1232.37 68.258C1241.83 68.258 1248.53 73.1263 1250.78 81.239L1252.44 80.7789C1249.97 71.829 1242.51 66.5324 1232.37 66.5324V68.258ZM1218.85 73.961C1220.46 72.1704 1222.18 70.7569 1224.31 69.7846C1226.43 68.8119 1229.02 68.258 1232.37 68.258V66.5324C1228.82 66.5324 1225.99 67.1198 1223.59 68.2152C1221.19 69.3111 1219.28 70.8927 1217.57 72.8095L1218.85 73.961ZM1214.07 81.8557C1215.77 77.5134 1217.29 75.7075 1218.85 73.961L1217.57 72.8095C1215.91 74.6635 1214.25 76.6423 1212.46 81.2269L1214.07 81.8557Z" fill="black" mask="url(#path-19-inside-1_1_33)"/>
<mask id="path-21-inside-2_1_33" fill="white">
<path fill-rule="evenodd" clip-rule="evenodd" d="M1255.58 67.3201H1233.58C1220.64 66.8886 1214.18 75.9966 1213.09 81.5562H1233.8C1233.83 81.5564 1233.85 81.5565 1233.87 81.5565H1335.68C1339.61 81.5565 1342.8 78.3697 1342.8 74.4385C1342.8 70.5073 1339.61 67.3204 1335.68 67.3204H1255.58V67.3201Z"/>
</mask>
<path fill-rule="evenodd" clip-rule="evenodd" d="M1255.58 67.3201H1233.58C1220.64 66.8886 1214.18 75.9966 1213.09 81.5562H1233.8C1233.83 81.5564 1233.85 81.5565 1233.87 81.5565H1335.68C1339.61 81.5565 1342.8 78.3697 1342.8 74.4385C1342.8 70.5073 1339.61 67.3204 1335.68 67.3204H1255.58V67.3201Z" fill="#3CB64B"/>
<path d="M1233.58 67.3201L1233.55 68.1824L1233.57 68.1829H1233.58V67.3201ZM1255.58 67.3201H1256.44V66.4573H1255.58V67.3201ZM1213.09 81.5562L1212.24 81.3894L1212.04 82.4189H1213.09V81.5562ZM1233.8 81.5562L1233.81 80.6934H1233.8V81.5562ZM1255.58 67.3204H1254.72V68.1832H1255.58V67.3204ZM1233.58 68.1829H1255.58V66.4573H1233.58V68.1829ZM1213.94 81.7229C1214.96 76.5141 1221.09 67.7671 1233.55 68.1824L1233.61 66.4578C1220.18 66.0102 1213.41 75.4792 1212.24 81.3894L1213.94 81.7229ZM1233.8 80.6934H1213.09V82.4189H1233.8V80.6934ZM1233.87 80.6937C1233.85 80.6937 1233.83 80.6936 1233.81 80.6934L1233.79 82.4189C1233.82 82.4192 1233.85 82.4193 1233.87 82.4193V80.6937ZM1335.68 80.6937H1233.87V82.4193H1335.68V80.6937ZM1341.94 74.4385C1341.94 77.8931 1339.14 80.6937 1335.68 80.6937V82.4193C1340.09 82.4193 1343.66 78.8462 1343.66 74.4385H1341.94ZM1335.68 68.1832C1339.14 68.1832 1341.94 70.9838 1341.94 74.4385H1343.66C1343.66 70.0308 1340.09 66.4576 1335.68 66.4576V68.1832ZM1255.58 68.1832H1335.68V66.4576H1255.58V68.1832ZM1254.72 67.3201V67.3204H1256.44V67.3201H1254.72Z" fill="black" mask="url(#path-21-inside-2_1_33)"/>
<mask id="path-23-inside-3_1_33" fill="white">
<path fill-rule="evenodd" clip-rule="evenodd" d="M1228.91 91.4634H1210.28L1207.48 105.699H1228.91H1249.97H1302.25C1306.18 105.699 1309.37 102.513 1309.37 98.5814C1309.37 94.6502 1306.18 91.4634 1302.25 91.4634H1249.97H1228.91Z"/>
</mask>
<path fill-rule="evenodd" clip-rule="evenodd" d="M1228.91 91.4634H1210.28L1207.48 105.699H1228.91H1249.97H1302.25C1306.18 105.699 1309.37 102.513 1309.37 98.5814C1309.37 94.6502 1306.18 91.4634 1302.25 91.4634H1249.97H1228.91Z" fill="#25AAE1"/>
<path d="M1210.28 91.4634V90.6006H1209.58L1209.44 91.2966L1210.28 91.4634ZM1207.48 105.699L1206.63 105.533L1206.43 106.562H1207.48V105.699ZM1210.28 92.3262H1228.91V90.6006H1210.28V92.3262ZM1208.33 105.866L1211.13 91.6301L1209.44 91.2966L1206.63 105.533L1208.33 105.866ZM1228.91 104.837H1207.48V106.562H1228.91V104.837ZM1249.97 104.837H1228.91V106.562H1249.97V104.837ZM1302.25 104.837H1249.97V106.562H1302.25V104.837ZM1308.5 98.5814C1308.5 102.036 1305.7 104.837 1302.25 104.837V106.562C1306.66 106.562 1310.23 102.989 1310.23 98.5814H1308.5ZM1302.25 92.3262C1305.7 92.3262 1308.5 95.1267 1308.5 98.5814H1310.23C1310.23 94.1737 1306.66 90.6006 1302.25 90.6006V92.3262ZM1249.97 92.3262H1302.25V90.6006H1249.97V92.3262ZM1228.91 92.3262H1249.97V90.6006H1228.91V92.3262Z" fill="black" mask="url(#path-23-inside-3_1_33)"/>
<rect x="1205.75" y="115.622" width="10.7849" height="0.862792" fill="#020202"/>
</g>
<defs>
<filter id="filter0_d_1_33" x="0.434095" y="50.6972" width="178.074" height="182.473" filterUnits="userSpaceOnUse" color-interpolation-filters="sRGB">
<feFlood flood-opacity="0" result="BackgroundImageFix"/>
<feColorMatrix in="SourceAlpha" type="matrix" values="0 0 0 0 0 0 0 0 0 0 0 0 0 0 0 0 0 0 127 0" result="hardAlpha"/>
<feOffset dx="4.31396" dy="4.31396"/>
<feGaussianBlur stdDeviation="8.62792"/>
<feComposite in2="hardAlpha" operator="out"/>
<feColorMatrix type="matrix" values="0 0 0 0 0 0 0 0 0 0 0 0 0 0 0 0 0 0 0.25 0"/>
<feBlend mode="normal" in2="BackgroundImageFix" result="effect1_dropShadow_1_33"/>
<feBlend mode="normal" in="SourceGraphic" in2="effect1_dropShadow_1_33" result="shape"/>
</filter>
<filter id="filter1_d_1_33" x="150.558" y="50.9956" width="154.049" height="177.284" filterUnits="userSpaceOnUse" color-interpolation-filters="sRGB">
<feFlood flood-opacity="0" result="BackgroundImageFix"/>
<feColorMatrix in="SourceAlpha" type="matrix" values="0 0 0 0 0 0 0 0 0 0 0 0 0 0 0 0 0 0 127 0" result="hardAlpha"/>
<feOffset dx="4.31396" dy="4.31396"/>
<feGaussianBlur stdDeviation="8.62792"/>
<feComposite in2="hardAlpha" operator="out"/>
<feColorMatrix type="matrix" values="0 0 0 0 0 0 0 0 0 0 0 0 0 0 0 0 0 0 0.25 0"/>
<feBlend mode="normal" in2="BackgroundImageFix" result="effect1_dropShadow_1_33"/>
<feBlend mode="normal" in="SourceGraphic" in2="effect1_dropShadow_1_33" result="shape"/>
</filter>
<filter id="filter2_d_1_33" x="282.904" y="50.76" width="76.1689" height="177.945" filterUnits="userSpaceOnUse" color-interpolation-filters="sRGB">
<feFlood flood-opacity="0" result="BackgroundImageFix"/>
<feColorMatrix in="SourceAlpha" type="matrix" values="0 0 0 0 0 0 0 0 0 0 0 0 0 0 0 0 0 0 127 0" result="hardAlpha"/>
<feOffset dx="4.31396" dy="4.31396"/>
<feGaussianBlur stdDeviation="8.62792"/>
<feComposite in2="hardAlpha" operator="out"/>
<feColorMatrix type="matrix" values="0 0 0 0 0 0 0 0 0 0 0 0 0 0 0 0 0 0 0.25 0"/>
<feBlend mode="normal" in2="BackgroundImageFix" result="effect1_dropShadow_1_33"/>
<feBlend mode="normal" in="SourceGraphic" in2="effect1_dropShadow_1_33" result="shape"/>
</filter>
<filter id="filter3_d_1_33" x="470.587" y="50.7362" width="155.114" height="177.906" filterUnits="userSpaceOnUse" color-interpolation-filters="sRGB">
<feFlood flood-opacity="0" result="BackgroundImageFix"/>
<feColorMatrix in="SourceAlpha" type="matrix" values="0 0 0 0 0 0 0 0 0 0 0 0 0 0 0 0 0 0 127 0" result="hardAlpha"/>
<feOffset dx="4.31396" dy="4.31396"/>
<feGaussianBlur stdDeviation="8.62792"/>
<feComposite in2="hardAlpha" operator="out"/>
<feColorMatrix type="matrix" values="0 0 0 0 0 0 0 0 0 0 0 0 0 0 0 0 0 0 0.25 0"/>
<feBlend mode="normal" in2="BackgroundImageFix" result="effect1_dropShadow_1_33"/>
<feBlend mode="normal" in="SourceGraphic" in2="effect1_dropShadow_1_33" result="shape"/>
</filter>
<filter id="filter4_d_1_33" x="334.758" y="51.7681" width="160.288" height="176.74" filterUnits="userSpaceOnUse" color-interpolation-filters="sRGB">
<feFlood flood-opacity="0" result="BackgroundImageFix"/>
<feColorMatrix in="SourceAlpha" type="matrix" values="0 0 0 0 0 0 0 0 0 0 0 0 0 0 0 0 0 0 127 0" result="hardAlpha"/>
<feOffset dx="4.31396" dy="4.31396"/>
<feGaussianBlur stdDeviation="8.62792"/>
<feComposite in2="hardAlpha" operator="out"/>
<feColorMatrix type="matrix" values="0 0 0 0 0 0 0 0 0 0 0 0 0 0 0 0 0 0 0.25 0"/>
<feBlend mode="normal" in2="BackgroundImageFix" result="effect1_dropShadow_1_33"/>
<feBlend mode="normal" in="SourceGraphic" in2="effect1_dropShadow_1_33" result="shape"/>
</filter>
<filter id="filter5_d_1_33" x="599.858" y="51.2888" width="114.385" height="127.111" filterUnits="userSpaceOnUse" color-interpolation-filters="sRGB">
<feFlood flood-opacity="0" result="BackgroundImageFix"/>
<feColorMatrix in="SourceAlpha" type="matrix" values="0 0 0 0 0 0 0 0 0 0 0 0 0 0 0 0 0 0 127 0" result="hardAlpha"/>
<feOffset dx="4.31396" dy="4.31396"/>
<feGaussianBlur stdDeviation="8.62792"/>
<feComposite in2="hardAlpha" operator="out"/>
<feColorMatrix type="matrix" values="0 0 0 0 0 0 0 0 0 0 0 0 0 0 0 0 0 0 0.25 0"/>
<feBlend mode="normal" in2="BackgroundImageFix" result="effect1_dropShadow_1_33"/>
<feBlend mode="normal" in="SourceGraphic" in2="effect1_dropShadow_1_33" result="shape"/>
</filter>
<filter id="filter6_d_1_33" x="599.972" y="104.364" width="115.284" height="124.967" filterUnits="userSpaceOnUse" color-interpolation-filters="sRGB">
<feFlood flood-opacity="0" result="BackgroundImageFix"/>
<feColorMatrix in="SourceAlpha" type="matrix" values="0 0 0 0 0 0 0 0 0 0 0 0 0 0 0 0 0 0 127 0" result="hardAlpha"/>
<feOffset dx="4.31396" dy="4.31396"/>
<feGaussianBlur stdDeviation="8.62792"/>
<feComposite in2="hardAlpha" operator="out"/>
<feColorMatrix type="matrix" values="0 0 0 0 0 0 0 0 0 0 0 0 0 0 0 0 0 0 0.25 0"/>
<feBlend mode="normal" in2="BackgroundImageFix" result="effect1_dropShadow_1_33"/>
<feBlend mode="normal" in="SourceGraphic" in2="effect1_dropShadow_1_33" result="shape"/>
</filter>
<filter id="filter7_d_1_33" x="963.099" y="24.8618" width="154.409" height="229.295" filterUnits="userSpaceOnUse" color-interpolation-filters="sRGB">
<feFlood flood-opacity="0" result="BackgroundImageFix"/>
<feColorMatrix in="SourceAlpha" type="matrix" values="0 0 0 0 0 0 0 0 0 0 0 0 0 0 0 0 0 0 127 0" result="hardAlpha"/>
<feOffset dx="4.31396" dy="4.31396"/>
<feGaussianBlur stdDeviation="8.62792"/>
<feComposite in2="hardAlpha" operator="out"/>
<feColorMatrix type="matrix" values="0 0 0 0 0 0 0 0 0 0 0 0 0 0 0 0 0 0 0.25 0"/>
<feBlend mode="normal" in2="BackgroundImageFix" result="effect1_dropShadow_1_33"/>
<feBlend mode="normal" in="SourceGraphic" in2="effect1_dropShadow_1_33" result="shape"/>
</filter>
<filter id="filter8_d_1_33" x="1094.76" y="57.0828" width="278.039" height="179.913" filterUnits="userSpaceOnUse" color-interpolation-filters="sRGB">
<feFlood flood-opacity="0" result="BackgroundImageFix"/>
<feColorMatrix in="SourceAlpha" type="matrix" values="0 0 0 0 0 0 0 0 0 0 0 0 0 0 0 0 0 0 127 0" result="hardAlpha"/>
<feOffset dx="10" dy="10"/>
<feGaussianBlur stdDeviation="10"/>
<feComposite in2="hardAlpha" operator="out"/>
<feColorMatrix type="matrix" values="0 0 0 0 0 0 0 0 0 0 0 0 0 0 0 0 0 0 0.25 0"/>
<feBlend mode="normal" in2="BackgroundImageFix" result="effect1_dropShadow_1_33"/>
<feBlend mode="normal" in="SourceGraphic" in2="effect1_dropShadow_1_33" result="shape"/>
</filter>
</defs>
</svg>
