<svg width="3338" height="699" viewBox="0 0 3338 699" fill="none" xmlns="http://www.w3.org/2000/svg">
<path d="M206.69 197.661L206.687 197.663C196.705 203.902 189.444 209.368 182.938 215.874C176.428 222.384 170.645 229.963 163.647 240.461C143.97 270.101 134 304.48 134 341.876C134 427.82 188.507 491.027 272.937 502.733L272.944 502.734C288.338 504.969 298.751 504.483 327.545 500.977C327.546 500.977 327.546 500.977 327.547 500.977L363.37 496.468L363.6 496.439L363.819 496.514L390.869 505.781C390.87 505.782 390.872 505.782 390.873 505.783C398.365 508.28 406.293 510.589 413.091 512.273C419.93 513.968 425.517 515 428.384 515C447.489 515 462.528 502.537 464.469 485.326C464.966 480.605 464.946 477.713 463.921 474.667C462.878 471.57 460.776 468.241 456.883 462.716C456.882 462.714 456.881 462.712 456.879 462.71L456.546 462.252C451.088 454.732 446.942 449.02 443.967 444.13C440.922 439.125 439.063 434.918 438.266 430.428C437.47 425.941 437.748 421.252 438.851 415.305C439.941 409.43 441.851 402.255 444.377 392.768L444.454 392.48C450.19 370.782 451.185 362.101 451.185 335.616C451.06 322.216 450.746 313.691 449.784 306.399C448.825 299.126 447.217 293.053 444.471 284.565C426.287 229.517 384.463 190.441 329.445 177.245C319.032 174.891 303.778 173.827 288.755 174.045C273.721 174.264 259.046 175.766 249.781 178.483C239.268 181.612 232.557 183.852 226.451 186.579C220.349 189.305 214.824 192.531 206.69 197.661ZM356.91 298.92L356.913 298.928L356.916 298.936C360.601 308.849 362.614 322.373 362.897 335.936C363.18 349.5 361.736 363.21 358.434 373.498C348.804 403.906 325.692 423.505 295.691 426.051C285.679 427.064 277.123 426.181 269.209 423.073C261.298 419.967 254.103 414.665 246.771 406.954L246.764 406.946C238.044 397.594 232.255 388.577 228.662 377.447C225.077 366.341 223.697 353.194 223.697 335.618C223.446 311.316 224.188 304.85 228.8 294.857L228.802 294.853C232.486 286.977 238.186 278.875 244.507 272.049C250.816 265.234 257.81 259.619 264.116 256.786C270.177 253.951 279.032 252.377 288.205 252.061C297.396 251.745 307.03 252.69 314.677 254.984C322.43 257.31 331.155 263.65 338.819 271.661C346.498 279.687 353.219 289.503 356.91 298.92Z" fill="white" stroke="white" stroke-width="2"/>
<path d="M487.917 204.751L487.92 204.746C494.08 191.193 506.153 180.135 518.381 176.222C523.322 174.656 530.046 174.456 536.848 175.445C543.642 176.433 550.394 178.591 555.385 181.634C560.448 184.77 565.84 191.116 569.03 197.989L569.031 197.989C571.467 203.227 572.765 207.228 573.606 220.648C574.449 234.115 574.825 256.945 575.452 299.801C575.452 299.801 575.452 299.801 575.452 299.802L576.451 299.787C577.704 386.723 577.955 390.732 582.965 397.497L487.917 204.751ZM487.917 204.751L481.998 217.576L482.748 319.823L483.498 421.824L490.171 436.158C490.171 436.158 490.171 436.158 490.171 436.158C503.808 465.415 534.111 489.296 569.2 499.002C580.463 502.097 600.331 503.664 620.296 503.664C640.26 503.664 660.128 502.097 671.391 499.002L671.392 499.002C705.971 489.549 736.783 464.92 750.422 436.154C750.423 436.153 750.423 436.153 750.423 436.152L757.091 421.828V316.823C757.091 267.832 757.028 241.427 756.403 226.233C755.778 211.037 754.591 207.227 752.453 203.308L752.448 203.298L752.443 203.289C745.287 189.471 736.211 181.639 723.449 177.22C701.582 170.099 680.594 178.457 671.561 197.987L671.56 197.989C669.124 203.228 667.826 207.23 666.985 220.43C666.142 233.677 665.766 256.068 665.14 298.046L487.917 204.751Z" fill="white" stroke="white" stroke-width="2"/>
<path d="M792.37 467.608L792.371 467.609C796.669 481.853 807.054 493.108 819.452 499.323C831.853 505.539 846.18 506.672 858.375 500.819L858.381 500.816C871.201 494.769 878.128 482.42 881.368 459.494C882.297 452.424 882.877 433.785 883.152 409.515C883.426 385.272 883.394 355.489 883.112 326.197C882.831 296.904 882.298 268.108 881.571 245.84C881.207 234.705 880.794 225.209 880.34 218.102C880.113 214.548 879.876 211.6 879.63 209.347C879.381 207.058 879.132 205.58 878.905 204.899L878.901 204.888C876.824 198.412 872.776 191.96 867.911 186.757C863.037 181.543 857.425 177.67 852.276 176.233C846.907 174.735 843.645 174.081 840.137 174.171C836.603 174.262 832.765 175.107 826.239 176.739C819.462 178.556 812.163 183.497 805.978 189.96C799.798 196.419 794.824 204.3 792.624 211.876C792.338 212.863 792.051 214.665 791.775 217.249C791.501 219.811 791.245 223.079 791.007 226.957C790.532 234.711 790.131 244.871 789.806 256.64C789.156 280.175 788.812 310.112 788.781 340.03C788.749 369.948 789.031 399.839 789.634 423.28C789.935 435.001 790.316 445.103 790.778 452.786C791.009 456.628 791.26 459.857 791.53 462.378C791.802 464.923 792.088 466.675 792.37 467.608Z" fill="white" stroke="white" stroke-width="2"/>
<path d="M1259.5 177.464L1259.51 177.463C1265.74 175.218 1270 174.138 1274.14 174.108C1278.29 174.078 1282.41 175.094 1288.39 177.211C1294.33 179.441 1298.65 181.767 1302.19 184.911C1305.73 188.053 1308.54 192.066 1311.38 197.758C1313.19 201.484 1314.36 205.795 1315.2 215.163C1316.04 224.549 1316.54 238.92 1317.04 262.728L1317.04 262.729L1318.3 319.1L1318.36 322.001L1320.1 319.676L1367.45 256.292L1259.5 177.464ZM1259.5 177.464C1245.82 182.351 1232.49 197.356 1227.81 213.381L1227.8 213.392M1259.5 177.464L1227.8 213.392M1227.8 213.392L1227.8 213.404M1227.8 213.392L1227.8 213.404M1227.8 213.404C1226.09 218.768 1225.09 226.281 1224.53 244.386C1223.96 262.469 1223.84 291.013 1223.84 338.369C1223.84 373.566 1224.09 402.808 1224.56 424.219C1224.79 434.925 1225.08 443.667 1225.42 450.214C1225.77 456.797 1226.15 461.075 1226.57 462.917L1226.57 462.924M1227.8 213.404L1226.57 462.924M1226.57 462.924L1226.57 462.931M1226.57 462.924L1226.57 462.931M1226.57 462.931C1234.21 499.163 1272.29 515.96 1300.68 495.892L1300.69 495.885M1226.57 462.931L1300.69 495.885M1300.69 495.885L1300.7 495.877M1300.69 495.885L1300.7 495.877M1300.7 495.877C1302.12 494.935 1304.15 493.119 1306.68 490.564C1309.19 488.024 1312.15 484.8 1315.38 481.083C1321.84 473.65 1329.41 464.273 1336.79 454.516L1362.59 420.195L1363.34 419.197M1300.7 495.877L1363.34 419.197M1363.34 419.197L1364.15 420.148M1363.34 419.197L1364.15 420.148M1364.15 420.148L1369.91 426.912L1369.93 426.936M1364.15 420.148L1369.93 426.936M1369.93 426.936L1369.95 426.961M1369.93 426.936L1369.95 426.961M1369.95 426.961C1370.95 428.296 1372.74 430.623 1375.01 433.573C1379.45 439.346 1385.71 447.503 1391.5 455.274L1391.5 455.276M1369.95 426.961L1391.5 455.276M1391.5 455.276C1413.8 485.341 1420.94 492.415 1434.97 499.062L1434.97 499.064M1391.5 455.276L1434.97 499.064M1434.97 499.064C1457.13 509.651 1480.41 504.462 1494.13 486.335L1494.13 486.324M1434.97 499.064L1494.13 486.324M1494.13 486.324L1494.14 486.313M1494.13 486.324L1494.14 486.313M1494.14 486.313C1497.12 482.597 1498.85 479.766 1499.83 476.648C1500.81 473.52 1501.06 470.02 1500.94 464.915L1500.94 464.905M1494.14 486.313L1500.94 464.905M1500.94 464.905C1500.69 448.254 1494.17 435.744 1460.3 390.58L1460.3 390.577M1500.94 464.905L1460.3 390.577M1460.3 390.577C1445.01 370.03 1430.48 350.236 1427.72 346.477L1427.72 346.475M1460.3 390.577L1427.72 346.475M1427.72 346.475L1422.96 339.961L1422.53 339.367M1427.72 346.475L1422.53 339.367M1422.53 339.367L1422.97 338.776M1422.53 339.367L1422.97 338.776M1422.97 338.776L1456.04 294.18L1456.04 294.178M1422.97 338.776L1456.04 294.178M1456.04 294.178C1465.18 281.908 1474.19 269.452 1481.33 259.253C1488.48 249.02 1493.69 241.134 1495.28 237.957L1495.29 237.949M1456.04 294.178L1495.29 237.949M1495.29 237.949C1503.06 222.775 1503.13 208.09 1497.17 196.684C1491.21 185.278 1479.12 176.978 1462.22 174.757L1462.21 174.756M1495.29 237.949L1462.21 174.756M1462.21 174.756L1462.2 174.754M1462.21 174.756L1462.2 174.754M1462.2 174.754C1449.51 172.801 1437.74 176.434 1424.61 185.848M1462.2 174.754L1424.61 185.848M1424.61 185.848C1423.27 186.842 1420.77 189.388 1417.29 193.325C1413.82 197.236 1409.45 202.446 1404.38 208.689C1394.24 221.171 1381.35 237.758 1367.45 256.29L1424.61 185.848Z" fill="white" stroke="white" stroke-width="2"/>
<path d="M927.348 263.152L927.346 263.156C901.942 313.715 902.929 372.001 930.095 424.09C943.027 448.711 970.934 476.115 995.289 488.044C1055.05 517.177 1127.5 506.211 1174.29 460.666L1174.29 460.664C1181.68 453.522 1186.13 448.824 1189.16 444.406C1192.18 440.02 1193.83 435.875 1195.57 429.791L1195.57 429.785C1198.55 419.606 1199 411.692 1196.8 405.044C1194.61 398.412 1189.73 392.872 1181.7 387.557L1181.69 387.552C1169.94 379.636 1158.35 376.544 1147.81 378.005C1137.29 379.465 1127.68 385.488 1119.92 396.083L1119.92 396.092C1114.57 403.217 1105.7 411.076 1097.56 415.655L1097.55 415.657C1091.89 418.806 1087.78 420.676 1083.04 421.74C1078.32 422.8 1073.02 423.049 1065 423.049C1056.98 423.049 1051.75 422.801 1047.24 421.771C1042.71 420.735 1038.97 418.921 1033.93 415.895C1018.92 407.242 1005.24 389.495 1000.16 372.732L1000.15 372.723C997.735 364.451 996.543 352.506 996.543 340.593C996.543 328.678 997.735 316.673 1000.15 308.278L1000.16 308.267C1008.78 279.598 1036.69 256.946 1064 256.946C1087.34 256.946 1109.98 268.608 1120.96 286.226C1123.85 290.796 1130.7 296.694 1137.09 299.89C1142.36 302.398 1145.41 303.634 1148.56 303.959C1151.72 304.284 1155.08 303.701 1160.98 302.32L1160.99 302.318L1161 302.316C1179.32 298.354 1190.74 289.75 1195.59 276.64L1195.6 276.632L1195.6 276.624C1197.61 271.477 1198.54 268.633 1198.54 265.4C1198.54 262.125 1197.59 258.385 1195.57 251.461L1195.57 251.457C1193.83 245.369 1192.18 241.159 1189.22 236.771C1186.25 232.356 1181.93 227.721 1174.79 220.835L1174.78 220.827C1136.96 183.497 1077.44 167.806 1025.92 181.247C982.118 192.695 948.522 220.555 927.348 263.152Z" fill="white" stroke="white" stroke-width="2"/>
<rect x="1504.84" y="212.799" width="93.2043" height="242.721" rx="46.6022" transform="rotate(-36.9803 1504.84 212.799)" fill="white" stroke="white" stroke-width="2"/>
<rect x="1655.27" y="279.504" width="93.2043" height="240.081" rx="46.6022" transform="rotate(38.7963 1655.27 279.504)" fill="white" stroke="white" stroke-width="2"/>
<path d="M1851 182.351L1850.99 182.354C1776.07 209.978 1732.57 272.716 1732.57 353.089C1732.57 390.961 1743.97 423.549 1764.79 448.701C1785.61 473.856 1815.91 491.635 1853.8 499.8C1906.15 510.897 1958.15 498.841 1989.88 477.282C2005.76 466.499 2016.46 453.416 2019.72 439.777C2022.96 426.213 2018.9 411.888 2004.8 398.413C1995.71 389.738 1985.65 385.656 1974.65 386.014C1963.61 386.373 1951.49 391.206 1938.33 400.606C1911.57 419.935 1883.17 421.609 1861.95 410.087C1840.73 398.564 1826.91 373.965 1829.03 341.242L1829.03 341.231C1832.43 297.111 1857.52 266.759 1895.54 261.633L1895.54 261.632C1907.05 260.141 1917.52 261.099 1928.26 265.052C1938.97 268.998 1949.91 275.911 1962.37 286.259C1971.86 294.066 1977.42 298.263 1982.61 300.298C1987.72 302.304 1992.56 302.233 2000.73 301.184L2000.74 301.183L2000.75 301.182C2030.91 297.877 2050.2 271.084 2042.4 243.125C2039.73 234.12 2032.1 223.646 2021.43 213.76C2010.78 203.891 1997.19 194.695 1982.78 188.219L1982.77 188.216C1965.47 180.293 1941.1 175.574 1916.71 174.473C1892.33 173.372 1868.08 175.896 1851 182.351Z" fill="white" stroke="white" stroke-width="2"/>
<path d="M2035.88 441.799L2035.88 441.805C2026.03 467.648 2043.22 494.816 2072.11 498.945C2083.07 500.392 2092.95 498.733 2101.53 494.112C2110.11 489.487 2117.45 481.859 2123.27 471.263L2123.27 471.255L2123.28 471.246L2132.96 454.415L2133.24 453.914H2133.82H2191.89C2216.69 453.914 2231.27 454.123 2239.65 455.024C2243.81 455.472 2246.59 456.103 2248.34 457.052C2249.24 457.539 2249.91 458.133 2250.35 458.87C2250.8 459.609 2250.95 460.41 2250.95 461.225C2250.95 467.052 2253.79 474.326 2258.1 480.816C2262.41 487.304 2268.06 492.816 2273.5 495.235L2273.51 495.238L2273.52 495.241C2306.57 510.527 2345.73 486.526 2345.73 451.548C2345.73 450.904 2345.5 449.403 2345.03 447.038C2344.56 444.713 2343.86 441.648 2342.98 437.941C2341.2 430.53 2338.66 420.585 2335.58 408.938C2329.42 385.645 2321.13 355.566 2312.58 325.38C2304.03 295.193 2295.24 264.904 2288.08 241.19C2284.5 229.333 2281.34 219.124 2278.81 211.396C2276.28 203.628 2274.42 198.459 2273.47 196.6C2261.99 174.467 2230.28 166.963 2207.15 181.422C2206.9 181.576 2206.48 181.939 2205.87 182.574C2205.27 183.195 2204.54 184.022 2203.68 185.05C2201.97 187.106 2199.77 189.928 2197.16 193.418C2191.93 200.396 2185.07 210.011 2177.12 221.433C2161.22 244.277 2140.99 274.328 2120.83 304.935C2100.66 335.541 2080.56 366.697 2064.92 391.75C2057.1 404.277 2050.41 415.273 2045.38 423.909C2040.33 432.577 2037 438.791 2035.88 441.799ZM2225.69 350.784L2225.69 350.792L2225.69 350.8C2226.96 357.542 2228.01 363.983 2228.59 368.853C2228.88 371.284 2229.06 373.35 2229.08 374.876C2229.09 375.634 2229.06 376.298 2228.98 376.821C2228.94 377.081 2228.88 377.344 2228.78 377.58C2228.7 377.778 2228.56 378.052 2228.3 378.261C2227.94 378.578 2227.44 378.762 2227 378.887C2226.48 379.036 2225.83 379.16 2225.09 379.265C2223.6 379.476 2221.63 379.622 2219.33 379.702C2214.71 379.861 2208.68 379.755 2202.35 379.332C2202.35 379.332 2202.34 379.332 2202.34 379.332L2178.79 378.07L2177.2 377.985L2177.97 376.587L2195.22 345.451L2195.22 345.45C2199.95 336.94 2203.63 330.5 2206.61 326.267C2208.1 324.154 2209.46 322.531 2210.72 321.471C2211.97 320.422 2213.3 319.789 2214.67 320.018C2216.04 320.246 2217.1 321.271 2217.98 322.673C2218.87 324.092 2219.68 326.08 2220.48 328.592C2222.08 333.622 2223.69 341.013 2225.69 350.784Z" fill="white" stroke="white" stroke-width="2"/>
<path d="M2484.51 564.811C2460.16 564.811 2449.88 553.112 2453.68 529.714L2457 507.423C2445.3 505.842 2433.12 503.312 2420.48 499.834C2407.83 496.04 2396.76 491.771 2387.28 487.029C2378.74 482.602 2372.73 476.911 2369.25 469.954C2366.09 462.682 2364.99 455.252 2365.93 447.663C2367.2 440.074 2370.05 433.434 2374.47 427.743C2379.21 422.052 2385.38 418.257 2392.97 416.36C2400.56 414.463 2409.09 415.728 2418.58 420.154C2430.6 426.162 2443.88 430.747 2458.42 433.909C2472.96 436.754 2486.88 438.177 2500.16 438.177C2516.92 438.177 2529.88 435.49 2539.05 430.114C2548.22 424.739 2552.8 417.467 2552.8 408.297C2552.8 401.025 2549.96 395.175 2544.27 390.749C2538.89 386.322 2530.2 382.528 2518.18 379.366L2466.96 366.56C2443.24 360.553 2424.43 349.96 2410.52 334.783C2396.92 319.606 2390.12 300.793 2390.12 278.343C2390.12 256.526 2395.5 237.871 2406.25 222.378C2417.32 206.884 2431.86 194.711 2449.88 185.858C2468.22 176.688 2488.46 171.155 2510.59 169.258L2515.33 139.378C2516.6 131.473 2520.24 125.149 2526.24 120.407C2532.57 115.664 2540.63 113.292 2550.43 113.292C2559.6 113.292 2567.19 115.98 2573.2 121.355C2579.2 126.73 2581.42 134.793 2579.84 145.544L2575.57 173.526C2583.16 175.424 2590.9 177.953 2598.81 181.115C2606.71 183.961 2614.78 187.597 2623 192.024C2629.95 195.502 2634.85 200.561 2637.7 207.201C2640.86 213.524 2641.97 220.323 2641.02 227.595C2640.07 234.551 2637.38 240.717 2632.96 246.092C2628.85 251.467 2623 255.103 2615.41 257.001C2608.14 258.581 2599.28 257.159 2588.85 252.732C2579.05 247.989 2568.93 244.669 2558.49 242.772C2548.06 240.875 2538.1 239.926 2528.61 239.926C2511.22 239.926 2497.79 242.614 2488.3 247.989C2478.81 253.364 2474.07 260.321 2474.07 268.858C2474.07 276.13 2476.44 282.138 2481.19 286.88C2486.24 291.623 2494.47 295.418 2505.85 298.263L2557.55 311.069C2582.84 317.077 2602.29 327.827 2615.88 343.32C2629.8 358.814 2636.75 377.469 2636.75 399.286C2636.75 421.103 2631.53 439.6 2621.1 454.777C2610.98 469.954 2597.23 481.97 2579.84 490.823C2562.45 499.36 2543.32 505.051 2522.45 507.897L2517.71 538.726C2516.44 546.947 2512.8 553.27 2506.8 557.697C2501.11 562.44 2493.68 564.811 2484.51 564.811Z" fill="white"/>
<path d="M2453.68 529.714L2455.65 530.034L2455.65 530.022L2455.66 530.009L2453.68 529.714ZM2457 507.423L2458.98 507.717L2459.27 505.712L2457.27 505.441L2457 507.423ZM2420.48 499.834L2419.9 501.75L2419.92 501.757L2419.95 501.763L2420.48 499.834ZM2387.28 487.029L2386.36 488.804L2386.37 488.811L2386.38 488.817L2387.28 487.029ZM2369.25 469.954L2367.42 470.752L2367.44 470.801L2367.47 470.849L2369.25 469.954ZM2365.93 447.663L2363.96 447.334L2363.96 447.374L2363.95 447.415L2365.93 447.663ZM2374.47 427.743L2372.94 426.463L2372.91 426.489L2372.89 426.515L2374.47 427.743ZM2392.97 416.36L2393.45 418.3L2393.45 418.3L2392.97 416.36ZM2418.58 420.154L2419.47 418.366L2419.45 418.354L2419.43 418.342L2418.58 420.154ZM2458.42 433.909L2458 435.863L2458.02 435.868L2458.04 435.872L2458.42 433.909ZM2539.05 430.114L2540.06 431.84L2540.06 431.84L2539.05 430.114ZM2544.27 390.749L2542.99 392.293L2543.02 392.31L2543.04 392.328L2544.27 390.749ZM2518.18 379.366L2518.69 377.432L2518.68 377.429L2518.67 377.426L2518.18 379.366ZM2466.96 366.56L2466.47 368.499L2466.47 368.501L2466.96 366.56ZM2410.52 334.783L2409.03 336.118L2409.04 336.126L2409.04 336.135L2410.52 334.783ZM2406.25 222.378L2404.62 221.215L2404.61 221.226L2404.61 221.238L2406.25 222.378ZM2449.88 185.858L2450.76 187.653L2450.78 187.647L2449.88 185.858ZM2510.59 169.258L2510.76 171.251L2512.32 171.117L2512.57 169.571L2510.59 169.258ZM2515.33 139.378L2513.36 139.062L2513.36 139.064L2515.33 139.378ZM2526.24 120.407L2525.04 118.807L2525.02 118.821L2525 118.837L2526.24 120.407ZM2579.84 145.544L2581.81 145.845L2581.82 145.835L2579.84 145.544ZM2575.57 173.526L2573.59 173.225L2573.32 175.025L2575.08 175.467L2575.57 173.526ZM2598.81 181.115L2598.07 182.972L2598.1 182.985L2598.13 182.997L2598.81 181.115ZM2623 192.024L2622.05 193.784L2622.08 193.799L2622.1 193.812L2623 192.024ZM2637.7 207.201L2635.86 207.988L2635.88 208.042L2635.91 208.095L2637.7 207.201ZM2641.02 227.595L2643 227.865L2643 227.854L2641.02 227.595ZM2632.96 246.092L2631.41 244.821L2631.39 244.848L2631.37 244.877L2632.96 246.092ZM2615.41 257.001L2615.83 258.955L2615.86 258.948L2615.89 258.941L2615.41 257.001ZM2588.85 252.732L2587.98 254.532L2588.02 254.554L2588.07 254.573L2588.85 252.732ZM2558.49 242.772L2558.14 244.74L2558.14 244.74L2558.49 242.772ZM2488.3 247.989L2487.31 246.249L2487.31 246.249L2488.3 247.989ZM2481.19 286.88L2479.77 288.295L2479.79 288.317L2479.82 288.34L2481.19 286.88ZM2505.85 298.263L2505.36 300.204L2505.37 300.205L2505.85 298.263ZM2557.55 311.069L2557.06 313.01L2557.07 313.013L2557.08 313.015L2557.55 311.069ZM2615.88 343.32L2614.38 344.64L2614.39 344.648L2614.39 344.657L2615.88 343.32ZM2621.1 454.777L2619.45 453.644L2619.44 453.656L2619.44 453.668L2621.1 454.777ZM2579.84 490.823L2580.72 492.618L2580.73 492.612L2580.74 492.605L2579.84 490.823ZM2522.45 507.897L2522.18 505.915L2520.7 506.117L2520.47 507.593L2522.45 507.897ZM2517.71 538.726L2519.68 539.03L2517.71 538.726ZM2506.8 557.697L2505.61 556.087L2505.56 556.122L2505.52 556.161L2506.8 557.697ZM2484.51 562.811C2472.59 562.811 2464.63 559.94 2460.04 554.717C2455.47 549.51 2453.8 541.456 2455.65 530.034L2451.7 529.394C2449.76 541.371 2451.33 550.865 2457.04 557.357C2462.72 563.833 2472.08 566.811 2484.51 566.811V562.811ZM2455.66 530.009L2458.98 507.717L2455.02 507.128L2451.7 529.42L2455.66 530.009ZM2457.27 505.441C2445.66 503.873 2433.58 501.363 2421.01 497.906L2419.95 501.763C2432.67 505.262 2444.93 507.811 2456.73 509.405L2457.27 505.441ZM2421.05 497.919C2408.49 494.15 2397.53 489.921 2388.17 485.24L2386.38 488.817C2395.99 493.622 2407.17 497.93 2419.9 501.75L2421.05 497.919ZM2388.2 485.253C2379.95 480.974 2374.29 475.556 2371.04 469.06L2367.47 470.849C2371.17 478.265 2377.53 484.23 2386.36 488.804L2388.2 485.253ZM2371.09 469.157C2368.06 462.201 2367.02 455.13 2367.92 447.911L2363.95 447.415C2362.96 455.373 2364.12 463.163 2367.42 470.752L2371.09 469.157ZM2367.91 447.992C2369.12 440.708 2371.84 434.382 2376.05 428.971L2372.89 426.515C2368.25 432.486 2365.28 439.44 2363.96 447.334L2367.91 447.992ZM2376.01 429.023C2380.46 423.677 2386.25 420.101 2393.45 418.3L2392.48 414.42C2384.51 416.414 2377.97 420.426 2372.94 426.463L2376.01 429.023ZM2393.45 418.3C2400.47 416.547 2408.52 417.668 2417.73 421.967L2419.43 418.342C2409.67 413.787 2400.65 412.379 2392.48 414.42L2393.45 418.3ZM2417.69 421.943C2429.87 428.033 2443.31 432.67 2458 435.863L2458.85 431.954C2444.45 428.824 2431.33 424.291 2419.47 418.366L2417.69 421.943ZM2458.04 435.872C2472.69 438.739 2486.73 440.177 2500.16 440.177V436.177C2487.02 436.177 2473.24 434.77 2458.8 431.946L2458.04 435.872ZM2500.16 440.177C2517.08 440.177 2530.46 437.47 2540.06 431.84L2538.04 428.389C2529.3 433.509 2516.75 436.177 2500.16 436.177V440.177ZM2540.06 431.84C2549.73 426.174 2554.8 418.302 2554.8 408.297H2550.8C2550.8 416.632 2546.71 423.305 2538.04 428.389L2540.06 431.84ZM2554.8 408.297C2554.8 400.414 2551.68 393.979 2545.49 389.17L2543.04 392.328C2548.24 396.371 2550.8 401.636 2550.8 408.297H2554.8ZM2545.54 389.205C2539.83 384.503 2530.8 380.618 2518.69 377.432L2517.67 381.3C2529.59 384.437 2537.95 388.142 2542.99 392.293L2545.54 389.205ZM2518.67 377.426L2467.44 364.62L2466.47 368.501L2517.69 381.306L2518.67 377.426ZM2467.45 364.622C2444.04 358.691 2425.59 348.271 2411.99 333.432L2409.04 336.135C2423.27 351.65 2442.45 362.414 2466.47 368.499L2467.45 364.622ZM2412.01 333.449C2398.77 318.677 2392.12 300.354 2392.12 278.343H2388.12C2388.12 301.231 2395.07 320.535 2409.03 336.118L2412.01 333.449ZM2392.12 278.343C2392.12 256.868 2397.41 238.626 2407.89 223.518L2404.61 221.238C2393.59 237.116 2388.12 256.185 2388.12 278.343H2392.12ZM2407.88 223.54C2418.74 208.331 2433.02 196.369 2450.76 187.653L2449 184.063C2430.7 193.054 2415.89 205.438 2404.62 221.215L2407.88 223.54ZM2450.78 187.647C2468.87 178.599 2488.86 173.128 2510.76 171.251L2510.42 167.265C2488.06 169.182 2467.57 174.777 2448.99 184.069L2450.78 187.647ZM2512.57 169.571L2517.31 139.691L2513.36 139.064L2508.62 168.944L2512.57 169.571ZM2517.31 139.694C2518.5 132.26 2521.89 126.393 2527.48 121.976L2525 118.837C2518.58 123.906 2514.7 130.687 2513.36 139.062L2517.31 139.694ZM2527.44 122.007C2533.34 117.58 2540.96 115.292 2550.43 115.292V111.292C2540.3 111.292 2531.79 113.747 2525.04 118.807L2527.44 122.007ZM2550.43 115.292C2559.18 115.292 2566.27 117.844 2571.86 122.846L2574.53 119.865C2568.11 114.116 2560.02 111.292 2550.43 111.292V115.292ZM2571.86 122.846C2577.2 127.624 2579.38 134.911 2577.86 145.253L2581.82 145.835C2583.46 134.675 2581.2 125.836 2574.53 119.865L2571.86 122.846ZM2577.86 145.242L2573.59 173.225L2577.55 173.828L2581.81 145.845L2577.86 145.242ZM2575.08 175.467C2582.58 177.34 2590.24 179.841 2598.07 182.972L2599.55 179.258C2591.57 176.065 2583.74 173.507 2576.05 171.586L2575.08 175.467ZM2598.13 182.997C2605.93 185.805 2613.91 189.4 2622.05 193.784L2623.95 190.263C2615.65 185.794 2607.49 182.116 2599.49 179.233L2598.13 182.997ZM2622.1 193.812C2628.67 197.096 2633.22 201.818 2635.86 207.988L2639.54 206.413C2636.49 199.303 2631.24 193.907 2623.89 190.235L2622.1 193.812ZM2635.91 208.095C2638.89 214.049 2639.94 220.443 2639.04 227.336L2643 227.854C2644 220.202 2642.84 213 2639.49 206.306L2635.91 208.095ZM2639.04 227.325C2638.14 233.916 2635.6 239.734 2631.41 244.821L2634.5 247.363C2639.17 241.699 2642 235.186 2643 227.865L2639.04 227.325ZM2631.37 244.877C2627.57 249.838 2622.14 253.255 2614.92 255.06L2615.89 258.941C2623.85 256.952 2630.12 253.097 2634.55 247.307L2631.37 244.877ZM2614.98 255.046C2608.28 256.504 2599.87 255.235 2589.63 250.891L2588.07 254.573C2598.7 259.082 2608 260.659 2615.83 258.955L2614.98 255.046ZM2589.72 250.932C2579.76 246.112 2569.47 242.735 2558.85 240.804L2558.14 244.74C2568.39 246.604 2578.33 249.866 2587.98 254.532L2589.72 250.932ZM2558.85 240.804C2548.31 238.888 2538.23 237.926 2528.61 237.926V241.926C2537.97 241.926 2547.81 242.862 2558.14 244.74L2558.85 240.804ZM2528.61 237.926C2511.06 237.926 2497.23 240.631 2487.31 246.249L2489.29 249.729C2498.34 244.597 2511.38 241.926 2528.61 241.926V237.926ZM2487.31 246.249C2477.4 251.865 2472.07 259.395 2472.07 268.858H2476.07C2476.07 261.246 2480.23 254.863 2489.29 249.729L2487.31 246.249ZM2472.07 268.858C2472.07 276.611 2474.62 283.143 2479.77 288.295L2482.6 285.466C2478.27 281.132 2476.07 275.649 2476.07 268.858H2472.07ZM2479.82 288.34C2485.24 293.425 2493.85 297.325 2505.36 300.204L2506.33 296.323C2495.08 293.51 2487.25 289.822 2482.55 285.421L2479.82 288.34ZM2505.37 300.205L2557.06 313.01L2558.03 309.128L2506.33 296.322L2505.37 300.205ZM2557.08 313.015C2582.08 318.952 2601.12 329.531 2614.38 344.64L2617.39 342.001C2603.45 326.123 2583.6 315.201 2558.01 309.123L2557.08 313.015ZM2614.39 344.657C2627.96 359.764 2634.75 377.936 2634.75 399.286H2638.75C2638.75 377.001 2631.63 357.863 2617.37 341.984L2614.39 344.657ZM2634.75 399.286C2634.75 420.775 2629.62 438.858 2619.45 453.644L2622.75 455.91C2633.45 440.342 2638.75 421.431 2638.75 399.286H2634.75ZM2619.44 453.668C2609.52 468.54 2596.04 480.332 2578.93 489.041L2580.74 492.605C2598.42 483.607 2612.44 471.369 2622.76 455.887L2619.44 453.668ZM2578.96 489.028C2561.77 497.462 2542.85 503.096 2522.18 505.915L2522.72 509.879C2543.78 507.007 2563.12 501.258 2580.72 492.618L2578.96 489.028ZM2520.47 507.593L2515.73 538.422L2519.68 539.03L2524.43 508.201L2520.47 507.593ZM2515.73 538.422C2514.53 546.185 2511.14 552.011 2505.61 556.087L2507.98 559.307C2514.47 554.53 2518.35 547.708 2519.68 539.03L2515.73 538.422ZM2505.52 556.161C2500.26 560.538 2493.32 562.811 2484.51 562.811V566.811C2494.03 566.811 2501.95 564.342 2508.08 559.233L2505.52 556.161Z" fill="white"/>
<mask id="path-12-inside-1_929_818" fill="white">
<path fill-rule="evenodd" clip-rule="evenodd" d="M2722.64 192.243C2715.91 197.713 2708.33 207.812 2705.81 214.123C2699.5 229.692 2662.89 441.758 2662.89 461.534C2662.89 481.31 2668.36 491.409 2683.93 499.403C2700.34 507.818 2717.17 507.398 2733.16 497.299C2751.25 486.359 2755.04 477.523 2763.45 430.397L2770.61 390.004L2824.47 388.741L2878.74 387.479L2875.8 405.572C2865.7 472.053 2867.8 488.042 2890.95 499.824C2915.77 512.447 2948.59 500.665 2959.53 474.999C2964.99 461.591 2978.42 390.374 2989.02 325.516H3061.57C3070.41 325.516 3077.57 318.352 3077.57 309.516C3077.57 300.679 3070.41 293.516 3061.57 293.516H3008.57H2994.1H2896.07L2842.14 294.49L2787.86 295.752L2790.8 279.763C2792.42 271.302 2794.41 252.813 2796.06 237.59L2796.06 237.587L2796.27 235.582C2798.8 208.232 2798.38 206.97 2785.75 194.768C2768.92 177.516 2741.15 176.254 2722.64 192.243ZM2900.47 270.516H2997.52C2999.33 257.933 3000.82 246.68 3001.87 237.516H2907.42C2905.26 246.276 2902.95 257.073 2900.47 270.516ZM2914.4 214.516H3003.48C3003.44 214.004 3003.38 213.591 3003.29 213.282C2997.82 193.506 2981.41 181.724 2958.69 181.724C2942.7 181.724 2933.57 187.016 2925.87 195.609C2922.13 199.783 2918.45 204.169 2914.4 214.516Z"/>
</mask>
<path fill-rule="evenodd" clip-rule="evenodd" d="M2722.64 192.243C2715.91 197.713 2708.33 207.812 2705.81 214.123C2699.5 229.692 2662.89 441.758 2662.89 461.534C2662.89 481.31 2668.36 491.409 2683.93 499.403C2700.34 507.818 2717.17 507.398 2733.16 497.299C2751.25 486.359 2755.04 477.523 2763.45 430.397L2770.61 390.004L2824.47 388.741L2878.74 387.479L2875.8 405.572C2865.7 472.053 2867.8 488.042 2890.95 499.824C2915.77 512.447 2948.59 500.665 2959.53 474.999C2964.99 461.591 2978.42 390.374 2989.02 325.516H3061.57C3070.41 325.516 3077.57 318.352 3077.57 309.516C3077.57 300.679 3070.41 293.516 3061.57 293.516H3008.57H2994.1H2896.07L2842.14 294.49L2787.86 295.752L2790.8 279.763C2792.42 271.302 2794.41 252.813 2796.06 237.59L2796.06 237.587L2796.27 235.582C2798.8 208.232 2798.38 206.97 2785.75 194.768C2768.92 177.516 2741.15 176.254 2722.64 192.243ZM2900.47 270.516H2997.52C2999.33 257.933 3000.82 246.68 3001.87 237.516H2907.42C2905.26 246.276 2902.95 257.073 2900.47 270.516ZM2914.4 214.516H3003.48C3003.44 214.004 3003.38 213.591 3003.29 213.282C2997.82 193.506 2981.41 181.724 2958.69 181.724C2942.7 181.724 2933.57 187.016 2925.87 195.609C2922.13 199.783 2918.45 204.169 2914.4 214.516Z" fill="white"/>
<path d="M2705.81 214.123L2707.66 214.875L2707.67 214.866L2705.81 214.123ZM2722.64 192.243L2723.9 193.796L2723.92 193.777L2723.95 193.757L2722.64 192.243ZM2683.93 499.403L2683.02 501.182L2683.02 501.183L2683.93 499.403ZM2733.16 497.299L2732.12 495.588L2732.11 495.598L2732.09 495.608L2733.16 497.299ZM2763.45 430.397L2765.42 430.749L2765.42 430.746L2763.45 430.397ZM2770.61 390.004L2770.56 388.004L2768.92 388.043L2768.64 389.655L2770.61 390.004ZM2824.47 388.741L2824.42 386.742L2824.42 386.742L2824.47 388.741ZM2878.74 387.479L2880.72 387.8L2881.1 385.424L2878.7 385.48L2878.74 387.479ZM2875.8 405.572L2873.82 405.251L2873.82 405.261L2873.82 405.272L2875.8 405.572ZM2890.95 499.824L2890.04 501.606L2890.04 501.607L2890.95 499.824ZM2959.53 474.999L2961.37 475.783L2961.38 475.768L2961.38 475.752L2959.53 474.999ZM2989.02 325.516V323.516H2987.32L2987.05 325.193L2989.02 325.516ZM2896.07 293.516V291.516H2896.05L2896.03 291.516L2896.07 293.516ZM2842.14 294.49L2842.1 292.49L2842.09 292.49L2842.14 294.49ZM2787.86 295.752L2785.89 295.39L2785.45 297.809L2787.9 297.751L2787.86 295.752ZM2790.8 279.763L2788.84 279.389L2788.84 279.401L2790.8 279.763ZM2796.06 237.59L2794.07 237.37L2794.07 237.375L2796.06 237.59ZM2796.06 237.587L2798.04 237.807L2798.05 237.802L2796.06 237.587ZM2796.27 235.582L2798.26 235.797L2798.26 235.782L2798.27 235.766L2796.27 235.582ZM2785.75 194.768L2784.32 196.165L2784.34 196.186L2784.36 196.206L2785.75 194.768ZM2997.52 270.516V272.516H2999.26L2999.5 270.8L2997.52 270.516ZM2900.47 270.516L2898.51 270.152L2898.07 272.516H2900.47V270.516ZM3001.87 237.516L3003.86 237.743L3004.11 235.516H3001.87V237.516ZM2907.42 237.516V235.516H2905.86L2905.48 237.035L2907.42 237.516ZM3003.48 214.516V216.516H3005.66L3005.48 214.344L3003.48 214.516ZM2914.4 214.516L2912.54 213.787L2911.47 216.516H2914.4V214.516ZM3003.29 213.282L3005.22 212.755L3005.22 212.748L3003.29 213.282ZM2925.87 195.609L2924.38 194.275L2924.38 194.275L2925.87 195.609ZM2707.67 214.866C2708.83 211.948 2711.24 208.009 2714.24 204.081C2717.22 200.167 2720.69 196.402 2723.9 193.796L2721.38 190.691C2717.85 193.555 2714.17 197.574 2711.06 201.654C2707.95 205.721 2705.31 209.987 2703.95 213.38L2707.67 214.866ZM2664.89 461.534C2664.89 459.219 2665.44 453.883 2666.46 446.124C2667.47 438.423 2668.92 428.473 2670.69 417.027C2674.21 394.137 2678.98 365.301 2683.95 336.592C2688.92 307.882 2694.09 279.31 2698.4 256.947C2700.56 245.764 2702.51 236.145 2704.11 228.841C2705.72 221.451 2706.95 216.627 2707.66 214.875L2703.96 213.372C2703.09 215.511 2701.79 220.72 2700.2 227.985C2698.59 235.336 2696.64 244.992 2694.48 256.189C2690.15 278.585 2684.98 307.185 2680.01 335.91C2675.04 364.635 2670.27 393.497 2666.73 416.418C2664.97 427.877 2663.51 437.861 2662.49 445.604C2661.48 453.288 2660.89 458.905 2660.89 461.534H2664.89ZM2684.84 497.624C2677.28 493.742 2672.38 489.46 2669.32 483.919C2666.24 478.345 2664.89 471.264 2664.89 461.534H2660.89C2660.89 471.581 2662.27 479.437 2665.82 485.854C2669.39 492.306 2675.01 497.07 2683.02 501.182L2684.84 497.624ZM2732.09 495.608C2716.72 505.318 2700.64 505.725 2684.84 497.624L2683.02 501.183C2700.04 509.912 2717.62 509.477 2734.23 498.99L2732.09 495.608ZM2761.49 430.046C2757.27 453.665 2754.25 467.398 2750.11 476.597C2746.07 485.58 2740.95 490.252 2732.12 495.588L2734.19 499.011C2743.46 493.407 2749.28 488.19 2753.76 478.239C2758.14 468.504 2761.23 454.255 2765.42 430.749L2761.49 430.046ZM2768.64 389.655L2761.48 430.049L2765.42 430.746L2772.58 390.352L2768.64 389.655ZM2824.42 386.742L2770.56 388.004L2770.65 392.003L2824.51 390.741L2824.42 386.742ZM2878.7 385.48L2824.42 386.742L2824.51 390.741L2878.79 389.479L2878.7 385.48ZM2877.77 405.893L2880.72 387.8L2876.77 387.158L2873.82 405.251L2877.77 405.893ZM2891.85 498.042C2886.21 495.17 2882.02 492.123 2878.97 488.24C2875.93 484.374 2873.92 479.536 2872.88 472.901C2870.78 459.481 2872.72 439.18 2877.78 405.872L2873.82 405.272C2868.78 438.445 2866.72 459.38 2868.93 473.52C2870.05 480.665 2872.27 486.188 2875.82 490.711C2879.36 495.217 2884.11 498.588 2890.04 501.606L2891.85 498.042ZM2957.69 474.214C2947.21 498.808 2915.65 510.144 2891.85 498.041L2890.04 501.607C2915.89 514.75 2949.97 502.523 2961.37 475.783L2957.69 474.214ZM2987.05 325.193C2981.75 357.607 2975.74 391.606 2970.38 419.169C2967.7 432.952 2965.18 445.114 2963 454.66C2960.8 464.264 2958.97 471.069 2957.68 474.245L2961.38 475.752C2962.82 472.225 2964.71 465.099 2966.9 455.552C2969.1 445.947 2971.62 433.737 2974.31 419.933C2979.68 392.321 2985.69 358.282 2991 325.838L2987.05 325.193ZM3061.57 323.516H2989.02V327.516H3061.57V323.516ZM3075.57 309.516C3075.57 317.248 3069.3 323.516 3061.57 323.516V327.516C3071.51 327.516 3079.57 319.457 3079.57 309.516H3075.57ZM3061.57 295.516C3069.3 295.516 3075.57 301.784 3075.57 309.516H3079.57C3079.57 299.574 3071.51 291.516 3061.57 291.516V295.516ZM3008.57 295.516H3061.57V291.516H3008.57V295.516ZM2994.1 295.516H3008.57V291.516H2994.1V295.516ZM2896.07 295.516H2994.1V291.516H2896.07V295.516ZM2842.17 296.489L2896.11 295.515L2896.03 291.516L2842.1 292.49L2842.17 296.489ZM2787.9 297.751L2842.18 296.489L2842.09 292.49L2787.81 293.753L2787.9 297.751ZM2788.84 279.401L2785.89 295.39L2789.83 296.114L2792.77 280.125L2788.84 279.401ZM2794.07 237.375C2792.42 252.649 2790.43 271.03 2788.84 279.389L2792.77 280.137C2794.4 271.575 2796.41 252.977 2798.05 237.805L2794.07 237.375ZM2794.07 237.368L2794.07 237.37L2798.04 237.81L2798.04 237.807L2794.07 237.368ZM2794.29 235.367L2794.07 237.373L2798.05 237.802L2798.26 235.797L2794.29 235.367ZM2784.36 196.206C2790.75 202.379 2793.56 205.371 2794.76 209.998C2795.37 212.361 2795.59 215.246 2795.47 219.326C2795.35 223.406 2794.91 228.549 2794.28 235.398L2798.27 235.766C2798.9 228.941 2799.35 223.67 2799.47 219.44C2799.59 215.209 2799.38 211.888 2798.63 208.992C2797.1 203.099 2793.38 199.359 2787.14 193.33L2784.36 196.206ZM2723.95 193.757C2741.66 178.457 2768.23 179.673 2784.32 196.165L2787.19 193.371C2769.61 175.36 2740.64 174.052 2721.33 190.73L2723.95 193.757ZM2997.52 268.516H2900.47V272.516H2997.52V268.516ZM2999.88 237.288C2998.84 246.427 2997.35 257.659 2995.54 270.231L2999.5 270.8C3001.31 258.206 3002.8 246.933 3003.86 237.743L2999.88 237.288ZM2907.42 239.516H3001.87V235.516H2907.42V239.516ZM2902.44 270.879C2904.92 257.463 2907.21 246.708 2909.36 237.996L2905.48 237.035C2903.3 245.845 2900.99 256.683 2898.51 270.152L2902.44 270.879ZM3003.48 212.516H2914.4V216.516H3003.48V212.516ZM3001.36 213.808C3001.4 213.952 3001.45 214.23 3001.49 214.688L3005.48 214.344C3005.43 213.777 3005.35 213.23 3005.22 212.755L3001.36 213.808ZM2958.69 183.724C2980.62 183.724 2996.16 195.009 3001.36 213.815L3005.22 212.748C2999.48 192.002 2982.2 179.724 2958.69 179.724V183.724ZM2927.36 196.944C2931.08 192.793 2935.07 189.517 2940 187.263C2944.94 185.008 2950.92 183.724 2958.69 183.724V179.724C2950.47 179.724 2943.9 181.086 2938.34 183.625C2932.78 186.166 2928.36 189.832 2924.38 194.275L2927.36 196.944ZM2916.26 215.244C2920.2 205.179 2923.73 200.993 2927.36 196.944L2924.38 194.275C2920.53 198.573 2916.7 203.159 2912.54 213.787L2916.26 215.244Z" fill="white" mask="url(#path-12-inside-1_929_818)"/>
<mask id="path-14-inside-2_929_818" fill="white">
<path fill-rule="evenodd" clip-rule="evenodd" d="M3012.5 181.55H2961.5C2931.5 180.55 2916.54 201.663 2914 214.55H2962.02C2962.07 214.55 2962.13 214.551 2962.18 214.551H3198.18C3207.29 214.551 3214.68 207.163 3214.68 198.051C3214.68 188.938 3207.29 181.551 3198.18 181.551H3012.5V181.55Z"/>
</mask>
<path fill-rule="evenodd" clip-rule="evenodd" d="M3012.5 181.55H2961.5C2931.5 180.55 2916.54 201.663 2914 214.55H2962.02C2962.07 214.55 2962.13 214.551 2962.18 214.551H3198.18C3207.29 214.551 3214.68 207.163 3214.68 198.051C3214.68 188.938 3207.29 181.551 3198.18 181.551H3012.5V181.55Z" fill="white"/>
<path d="M2961.5 181.55L2961.43 183.549L2961.47 183.55H2961.5V181.55ZM3012.5 181.55H3014.5V179.55H3012.5V181.55ZM2914 214.55L2912.04 214.163L2911.57 216.55H2914V214.55ZM2962.02 214.55L2962.04 212.55L2962.03 212.55H2962.02V214.55ZM3012.5 181.551H3010.5V183.551H3012.5V181.551ZM2961.5 183.55H3012.5V179.55H2961.5V183.55ZM2915.96 214.936C2918.34 202.862 2932.56 182.586 2961.43 183.549L2961.57 179.551C2930.44 178.513 2914.74 200.463 2912.04 214.163L2915.96 214.936ZM2962.02 212.55H2914V216.55H2962.02V212.55ZM2962.18 212.551C2962.13 212.551 2962.08 212.55 2962.04 212.55L2962 216.55C2962.06 216.55 2962.12 216.551 2962.18 216.551V212.551ZM3198.18 212.551H2962.18V216.551H3198.18V212.551ZM3212.68 198.051C3212.68 206.059 3206.19 212.551 3198.18 212.551V216.551C3208.4 216.551 3216.68 208.268 3216.68 198.051H3212.68ZM3198.18 183.551C3206.19 183.551 3212.68 190.043 3212.68 198.051H3216.68C3216.68 187.833 3208.4 179.551 3198.18 179.551V183.551ZM3012.5 183.551H3198.18V179.551H3012.5V183.551ZM3010.5 181.55V181.551H3014.5V181.55H3010.5Z" fill="white" mask="url(#path-14-inside-2_929_818)"/>
<mask id="path-16-inside-3_929_818" fill="white">
<path fill-rule="evenodd" clip-rule="evenodd" d="M2950.68 237.516H2907.5L2901 270.516H2950.68H2999.5H3120.68C3129.79 270.516 3137.18 263.128 3137.18 254.016C3137.18 244.903 3129.79 237.516 3120.68 237.516H2999.5H2950.68Z"/>
</mask>
<path fill-rule="evenodd" clip-rule="evenodd" d="M2950.68 237.516H2907.5L2901 270.516H2950.68H2999.5H3120.68C3129.79 270.516 3137.18 263.128 3137.18 254.016C3137.18 244.903 3129.79 237.516 3120.68 237.516H2999.5H2950.68Z" fill="white"/>
<path d="M2907.5 237.516V235.516H2905.86L2905.54 237.129L2907.5 237.516ZM2901 270.516L2899.04 270.129L2898.57 272.516H2901V270.516ZM2907.5 239.516H2950.68V235.516H2907.5V239.516ZM2902.96 270.902L2909.46 237.902L2905.54 237.129L2899.04 270.129L2902.96 270.902ZM2950.68 268.516H2901V272.516H2950.68V268.516ZM2999.5 268.516H2950.68V272.516H2999.5V268.516ZM3120.68 268.516H2999.5V272.516H3120.68V268.516ZM3135.18 254.016C3135.18 262.024 3128.69 268.516 3120.68 268.516V272.516C3130.9 272.516 3139.18 264.233 3139.18 254.016H3135.18ZM3120.68 239.516C3128.69 239.516 3135.18 246.007 3135.18 254.016H3139.18C3139.18 243.798 3130.9 235.516 3120.68 235.516V239.516ZM2999.5 239.516H3120.68V235.516H2999.5V239.516ZM2950.68 239.516H2999.5V235.516H2950.68V239.516Z" fill="white" mask="url(#path-16-inside-3_929_818)"/>
<rect x="2897" y="293.516" width="25" height="2" fill="#020202"/>
</svg>
