<svg width="805" height="611" viewBox="0 0 805 611" fill="none" xmlns="http://www.w3.org/2000/svg">
<g clip-path="url(#clip0_946_1380)">
<path d="M717.4 610.3C759.539 610.3 793.7 602.42 793.7 592.7C793.7 582.98 759.539 575.1 717.4 575.1C675.26 575.1 641.1 582.98 641.1 592.7C641.1 602.42 675.26 610.3 717.4 610.3Z" fill="#E6E6E6"/>
<path d="M716.4 143.1V166.1L728.4 196.1L747.4 162.1V136.1L716.4 143.1Z" fill="#A0616A"/>
<path d="M662.9 321.6L659.9 343.6C659.9 343.6 652.9 367.6 662.9 367.6C672.9 367.6 672.9 341.6 672.9 341.6L674.9 326.6L662.9 321.6Z" fill="#A0616A"/>
<path d="M783.9 318.6L780.9 340.6C780.9 340.6 773.9 364.6 783.9 364.6C793.9 364.6 793.9 338.6 793.9 338.6L795.9 323.6L783.9 318.6Z" fill="#A0616A"/>
<path d="M691.4 296.1L686.7 297.4C686.7 297.4 674.4 377.1 673.4 419.1C672.4 461.1 670.4 567.1 670.4 567.1H702.4L723.4 387.1L733.4 567.1H767.4C767.4 567.1 781.4 331.1 772.4 312.1C763.4 293.1 691.4 296.1 691.4 296.1Z" fill="#2F2E41"/>
<path d="M672.4 565.1L663.4 579.1C663.4 579.1 638.4 600.1 660.4 599.1C682.4 598.1 691.4 588.1 691.4 588.1V591.1L703.4 587.1L701.4 565.1H672.4Z" fill="#2F2E41"/>
<path d="M764.4 565.1L773.4 579.1C773.4 579.1 798.4 600.1 776.4 599.1C754.4 598.1 745.4 588.1 745.4 588.1V591.1L733.4 587.1L735.4 565.1H764.4Z" fill="#2F2E41"/>
<path d="M728.9 148.6C741.05 148.6 750.9 138.75 750.9 126.6C750.9 114.45 741.05 104.6 728.9 104.6C716.75 104.6 706.9 114.45 706.9 126.6C706.9 138.75 716.75 148.6 728.9 148.6Z" fill="#A0616A"/>
<path d="M727.4 181.1L716.4 158.6L711.4 170.1L709.4 269.1L755.4 166.1L747.4 157.3L727.4 181.1Z" fill="#575A89"/>
<path d="M788.4 186.1L752 162.3C752 162.3 749.5 185.1 726.5 183.1C703.5 181.1 714.2 163.8 714.2 163.8L677.4 184.1L691.4 262.1L685.4 307.1C685.4 307.1 739.4 301.1 751.4 310.1C758.4 315.4 766.7 318.9 775.4 320.1L773.4 243.1L788.4 186.1Z" fill="#D1D1D1"/>
<path d="M777.4 190.1L784.3 183.4L789.4 187.1C789.4 187.1 794.4 193.1 798.4 211.1C802.4 229.1 800.4 309.1 800.4 309.1L778.4 306.1L779.4 273.1L770.4 229.1L777.4 190.1Z" fill="#D1D1D1"/>
<path d="M684.4 183.1L680.6 182.3L677.4 184.1C677.4 184.1 668.4 196.1 668.4 207.1C668.4 218.1 659.4 312.1 659.4 312.1L679.4 321.1L693.4 250.1L684.4 183.1Z" fill="#D1D1D1"/>
<path d="M803.4 311.1C803.4 311.1 783.4 299.1 776.4 307.1C769.4 315.1 780.4 323.1 780.4 323.1C780.4 323.1 811.4 335.1 803.4 311.1Z" fill="#575A89"/>
<path d="M681.4 317.1C681.4 317.1 661.4 305.1 654.4 313.1C647.4 321.1 658.4 329.1 658.4 329.1C658.4 329.1 689.4 341.1 681.4 317.1Z" fill="#575A89"/>
<path d="M748.2 110.5C748.2 110.5 754 99.4997 741.3 98.4997C741.3 98.4997 729.8 91.4998 720.6 99.4997C720.6 99.4997 712.5 97.4997 710.2 103.5C710.2 103.5 709 100.5 712.5 98.4997C712.5 98.4997 704.4 96.4998 704.4 106.5C704.4 106.5 700.9 116.5 704.4 125.5C707.9 134.5 709 135.5 709 135.5C709 135.5 703.3 116.6 717.1 115.6C730.9 114.6 746.4 106 747.5 117C748.7 128 751 131 751 131C751 131 761.4 115 748.2 110.5Z" fill="#2F2E41"/>
<path d="M268.3 524.3H268.2C263.1 524.3 257.9 524.1 252.8 523.8L252.9 522.5C258 522.8 263.1 523 268.2 523H268.3V524.3ZM283.8 523.8L283.7 522.5C288.8 522.2 294 521.7 299.1 521.1L299.3 522.4C294.2 523.1 289 523.5 283.8 523.8ZM237.3 522.5C232.2 521.9 227 521.1 221.9 520.2L222.1 518.9C227.1 519.8 232.3 520.6 237.4 521.2L237.3 522.5ZM314.6 520.1L314.4 518.8C319.4 517.9 324.5 516.8 329.5 515.6L329.8 516.9C324.8 518.1 319.7 519.2 314.6 520.1ZM206.8 516.9C201.8 515.7 196.8 514.3 191.8 512.7L192.2 511.5C197.1 513 202.1 514.4 207.1 515.6L206.8 516.9ZM344.8 512.7L344.4 511.5C349.3 510 354.2 508.3 359 506.5L359.5 507.7C354.6 509.5 349.7 511.2 344.8 512.7ZM177.1 507.7C172.3 505.9 167.4 503.9 162.7 501.8L163.2 500.6C167.9 502.7 172.7 504.7 177.5 506.5L177.1 507.7ZM373.8 501.7L373.3 500.5C378 498.4 382.6 496.1 387.2 493.7L387.8 494.8C383.2 497.3 378.5 499.6 373.8 501.7ZM148.7 494.9C144.1 492.5 139.6 489.9 135.2 487.3L135.9 486.2C140.3 488.9 144.8 491.4 149.4 493.8L148.7 494.9ZM401.2 487.2L400.5 486.1C404.9 483.4 409.2 480.6 413.5 477.7L414.2 478.8C410 481.7 405.6 484.6 401.2 487.2ZM122.2 478.9C118 476 113.7 472.9 109.7 469.7L110.5 468.7C114.5 471.9 118.7 474.9 123 477.9L122.2 478.9ZM426.7 469.6L425.9 468.6C429.9 465.4 433.9 462.1 437.8 458.7L438.7 459.7C434.8 463.1 430.8 466.4 426.7 469.6ZM97.7 459.7C93.8 456.3 90 452.7 86.4 449.1L87.3 448.2C90.9 451.8 94.7 455.4 98.6 458.8L97.7 459.7ZM450 449L449.1 448.1C452.7 444.5 456.3 440.7 459.7 436.8L460.7 437.7C457.2 441.5 453.6 445.3 450 449ZM75.7 437.8C72.3 433.9 68.9 429.9 65.7 425.9L66.7 425.1C69.9 429.1 73.2 433.1 76.6 437L75.7 437.8ZM470.6 425.8L469.6 425C472.8 421 475.9 416.8 478.8 412.6L479.9 413.3C476.9 417.5 473.8 421.7 470.6 425.8ZM56.6 413.4C53.7 409.2 50.8 404.8 48.2 400.4L49.3 399.7C52 404.1 54.8 408.4 57.7 412.7L56.6 413.4ZM488.2 400.2L487.1 399.5C489.8 395.1 492.3 390.6 494.7 386L495.8 386.6C493.5 391.3 490.9 395.8 488.2 400.2ZM40.5 386.8C38.1 382.2 35.8 377.6 33.7 372.9L34.9 372.4C37 377.1 39.3 381.7 41.7 386.3L40.5 386.8ZM502.7 372.7L501.5 372.2C503.6 367.5 505.6 362.7 507.4 357.9L508.6 358.4C506.8 363.2 504.8 368 502.7 372.7ZM27.7 358.6C25.9 353.8 24.2 348.8 22.6 343.9L23.8 343.5C25.3 348.4 27 353.3 28.9 358.1L27.7 358.6ZM513.7 343.6L512.5 343.2C514 338.3 515.4 333.3 516.6 328.3L517.9 328.6C516.7 333.7 515.3 338.7 513.7 343.6ZM18.5 328.9C17.3 323.9 16.2 318.8 15.2 313.7L16.5 313.5C17.4 318.5 18.5 323.6 19.7 328.6L18.5 328.9ZM521.1 313.5L519.8 313.3C520.7 308.3 521.5 303.1 522.1 298L523.4 298.2C522.8 303.3 522.1 308.4 521.1 313.5ZM12.9 298.4C12.3 293.3 11.8 288.1 11.5 282.9L12.8 282.8C13.1 287.9 13.6 293.1 14.2 298.2L12.9 298.4ZM524.8 282.7L523.5 282.6C523.8 277.5 524 272.3 524 267.2V266.7H525.3V267.2C525.3 272.3 525.2 277.5 524.8 282.7ZM12.3 267.4H11V267.1C11 262 11.1 256.9 11.4 251.9L12.7 252C12.4 257 12.3 262.1 12.3 267.2V267.4ZM523.5 251.2C523.2 246.1 522.7 240.9 522.1 235.8L523.4 235.6C524 240.7 524.5 245.9 524.8 251.1L523.5 251.2ZM14.1 236.6L12.8 236.4C13.4 231.3 14.2 226.1 15.1 221L16.4 221.2C15.5 226.4 14.7 231.5 14.1 236.6ZM519.8 220.5C518.9 215.4 517.8 210.4 516.5 205.4L517.8 205.1C519 210.1 520.1 215.2 521.1 220.3L519.8 220.5ZM19.6 206.2L18.3 205.9C19.5 200.9 20.9 195.9 22.4 190.9L23.6 191.3C22.2 196.2 20.8 201.2 19.6 206.2ZM512.3 190.5C510.8 185.6 509.1 180.7 507.2 175.9L508.4 175.4C510.2 180.2 512 185.2 513.5 190.1L512.3 190.5ZM28.8 176.7L27.6 176.2C29.4 171.4 31.4 166.5 33.5 161.8L34.7 162.3C32.6 167.1 30.6 171.9 28.8 176.7ZM501.3 161.7C499.2 157 496.9 152.4 494.5 147.8L495.6 147.2C498 151.8 500.3 156.4 502.4 161.1L501.3 161.7ZM41.4 148.5L40.3 147.9C42.7 143.3 45.3 138.8 47.9 134.4L49 135.1C46.4 139.4 43.8 143.9 41.4 148.5ZM486.9 134.4C484.2 130 481.4 125.7 478.5 121.5L479.6 120.8C482.5 125 485.4 129.4 488.1 133.8L486.9 134.4ZM57.4 122L56.3 121.3C59.2 117.1 62.3 112.8 65.5 108.8L66.5 109.6C63.4 113.6 60.3 117.8 57.4 122ZM469.3 109C466.1 105 462.8 101 459.4 97.2L460.4 96.3C463.8 100.1 467.2 104.2 470.4 108.2L469.3 109ZM76.5 97.7L75.5 96.8C78.9 92.9 82.5 89.1 86.1 85.5L87 86.4C83.4 90 79.9 93.8 76.5 97.7ZM448.8 86C445.2 82.4 441.4 78.8 437.5 75.4L438.4 74.4C442.3 77.8 446.1 81.4 449.7 85L448.8 86ZM98.3 75.8L97.4 74.8C101.2 71.4 105.3 68 109.3 64.8L110.1 65.8C106.1 69.1 102.1 72.4 98.3 75.8ZM425.7 65.5C421.7 62.3 417.5 59.3 413.2 56.3L413.9 55.2C418.2 58.1 422.4 61.2 426.4 64.4L425.7 65.5ZM122.6 56.7L121.9 55.6C126.1 52.7 130.5 49.8 134.9 47.1L135.6 48.2C131.1 51 126.8 53.8 122.6 56.7ZM400.2 48C395.8 45.3 391.3 42.8 386.7 40.4L387.3 39.3C391.9 41.7 396.4 44.3 400.8 46.9L400.2 48ZM149 40.7L148.4 39.6C153 37.2 157.6 34.9 162.3 32.8L162.8 34C158.2 36 153.5 38.3 149 40.7ZM372.8 33.6C368.1 31.5 363.3 29.5 358.5 27.7L359 26.5C363.8 28.3 368.7 30.3 373.4 32.4L372.8 33.6ZM177.1 28L176.6 26.8C181.4 25 186.4 23.3 191.3 21.7L191.7 22.9C186.8 24.4 181.9 26.2 177.1 28ZM343.9 22.7C339 21.2 334 19.8 329 18.6L329.3 17.3C334.3 18.5 339.3 19.9 344.3 21.4L343.9 22.7ZM206.5 18.8L206.2 17.5C211.2 16.3 216.3 15.2 221.4 14.2L221.6 15.5C216.6 16.4 211.5 17.5 206.5 18.8ZM313.9 15.4C308.9 14.5 303.7 13.7 298.6 13.1L298.8 11.8C303.9 12.4 309.1 13.2 314.2 14.1L313.9 15.4ZM236.9 13.2L236.7 11.9C241.8 11.3 247 10.8 252.2 10.5L252.3 11.8C247.2 12.1 242 12.6 236.9 13.2ZM283.2 11.7C278.2 11.4 273.2 11.3 268.2 11.3H267.8V10H268.2C273.2 10 278.3 10.1 283.3 10.4L283.2 11.7Z" fill="#3F3B56"/>
<path d="M527.6 430.3H374.8V544.9H527.6V430.3Z" fill="#25AAE1"/>
<path d="M508.5 460.8H393.9V468.4H508.5V460.8Z" fill="white"/>
<path d="M508.5 483.7H393.9V491.3H508.5V483.7Z" fill="white"/>
<path d="M508.5 506.7H393.9V514.3H508.5V506.7Z" fill="white"/>
<path d="M114.7 0H8V80.1H114.7V0Z" fill="#E6E6E6"/>
<path d="M101.4 21.2998H21.2998V26.5998H101.4V21.2998Z" fill="white"/>
<path d="M101.4 37.3999H21.2998V42.6999H101.4V37.3999Z" fill="white"/>
<path d="M101.4 53.3999H21.2998V58.6999H101.4V53.3999Z" fill="white"/>
<path d="M160.1 41.3999H53.4004V121.5H160.1V41.3999Z" fill="#25AAE1"/>
<path d="M146.8 62.7002H66.7002V68.0002H146.8V62.7002Z" fill="white"/>
<path d="M146.8 78.7002H66.7002V84.0002H146.8V78.7002Z" fill="white"/>
<path d="M146.8 94.7002H66.7002V100H146.8V94.7002Z" fill="white"/>
<path d="M414 376H123V158H414V376ZM126 161V373H411V161H126Z" fill="#E6E6E6"/>
<path d="M268.366 212.032C237.766 212.032 212.966 236.832 212.966 267.432C212.966 298.032 237.766 322.832 268.366 322.832C298.966 322.832 323.766 298.032 323.766 267.432C323.866 236.832 298.966 212.032 268.366 212.032ZM291.466 271.632H272.666V290.432C272.666 291.632 272.166 292.732 271.366 293.532C270.566 294.332 269.466 294.832 268.266 294.832C265.766 294.832 263.866 292.832 263.866 290.432V271.632H245.066C243.866 271.632 242.766 271.132 241.966 270.332C241.166 269.532 240.666 268.432 240.666 267.232C240.666 264.732 242.666 262.832 245.066 262.832H263.866V244.032C263.866 242.832 264.366 241.732 265.166 240.932C265.966 240.132 267.066 239.632 268.266 239.632C270.666 239.632 272.666 241.632 272.666 244.032V262.832H291.466C292.666 262.832 293.766 263.332 294.566 264.132C295.366 264.932 295.866 266.032 295.866 267.232C295.866 269.632 293.866 271.632 291.466 271.632Z" fill="#25AAE1"/>
<path d="M106.7 411H0V491.1H106.7V411Z" fill="#E6E6E6"/>
<path d="M93.3998 432.3H13.2998V437.6H93.3998V432.3Z" fill="white"/>
<path d="M93.3998 448.4H13.2998V453.7H93.3998V448.4Z" fill="white"/>
<path d="M93.3998 464.4H13.2998V469.7H93.3998V464.4Z" fill="white"/>
</g>
<defs>
<clipPath id="clip0_946_1380">
<rect width="804.7" height="610.3" fill="white"/>
</clipPath>
</defs>
</svg>
