<svg width="1440" height="690" viewBox="0 0 1440 690" fill="none" xmlns="http://www.w3.org/2000/svg">
<path fill-rule="evenodd" clip-rule="evenodd" d="M1020.66 501.737C957.957 500.122 885.347 513.76 838.104 481.237C790.793 448.667 799.064 389.963 787.603 341.295C778.825 304.017 779.152 267.978 778.956 230.064C778.722 184.913 754.877 135.22 786.339 97.4809C818.121 59.3587 881.146 40.8737 938.936 38.165C992.407 35.6588 1034.58 70.3829 1085.51 83.4586C1134.38 96.0062 1191.5 88.1512 1231.75 113.342C1274.87 140.331 1301.04 181.882 1310.94 224.563C1321.04 268.131 1303.33 310.938 1287.4 353.412C1269.04 402.359 1263.98 461.412 1211.06 490.845C1157.99 520.351 1085.57 503.409 1020.66 501.737Z" fill="#1F34E9"/>
<path fill-rule="evenodd" clip-rule="evenodd" d="M870.393 262.154C924.846 263.415 975.048 279.836 1019.72 302.159C1065.15 324.86 1111.15 351.631 1125.94 389.85C1140.47 427.405 1122 467.367 1097.07 502.011C1074.95 532.752 1032.6 550.339 994.891 571.951C954.864 594.891 921.097 626.46 870.393 631.919C816.14 637.761 758.692 626.127 715.346 602.051C672.699 578.363 647.692 541.285 638.635 503.192C630.373 468.443 655.485 436.296 667.821 402.171C681.222 365.103 675.394 321.669 713.873 295.073C753.973 267.355 814.68 260.863 870.393 262.154Z" fill="#FFCC00"/>
<path fill-rule="evenodd" clip-rule="evenodd" d="M899.873 269.114C901.686 268.144 903.866 268.157 905.668 269.149L1172.89 416.219V425.11C1172.89 426.194 1172.31 427.196 1171.37 427.739L1002.57 525.443C1000.69 526.532 998.366 526.533 996.483 525.444L730.934 371.819C729.996 371.277 729.418 370.274 729.418 369.19L729.418 360.3L899.873 269.114Z" fill="url(#paint0_linear_463_3351)"/>
<path fill-rule="evenodd" clip-rule="evenodd" d="M899.873 267.021C901.686 266.051 903.866 266.064 905.668 267.055L1172.89 414.126V423.017C1172.89 424.101 1172.31 425.103 1171.37 425.646L1002.57 523.35C1000.69 524.439 998.366 524.439 996.483 523.35L730.934 369.726C729.996 369.183 729.418 368.181 729.418 367.097L729.418 358.207L899.873 267.021Z" fill="url(#paint1_linear_463_3351)"/>
<path fill-rule="evenodd" clip-rule="evenodd" d="M899.741 258.098C901.621 257.013 903.938 257.013 905.818 258.099L1171.38 411.495C1173.4 412.665 1173.4 415.587 1171.38 416.756L1002.56 514.234C1000.68 515.32 998.368 515.32 996.488 514.234L730.931 360.837C728.906 359.668 728.906 356.746 730.931 355.576L899.741 258.098Z" fill="url(#paint2_linear_463_3351)"/>
<path opacity="0.246257" fill-rule="evenodd" clip-rule="evenodd" d="M913.888 279.967C912.228 278.994 910.167 279.012 908.523 280.013L855.71 312.176C854.576 312.867 854.6 314.522 855.754 315.179L1071.99 438.362C1075.18 440.18 1079.1 440.19 1082.3 438.389L1131.64 410.628C1132.81 409.968 1132.82 408.285 1131.66 407.605L913.888 279.967Z" fill="url(#paint3_linear_463_3351)"/>
<path fill-rule="evenodd" clip-rule="evenodd" d="M892.551 358.824C893.223 358.441 894.046 358.441 894.717 358.824L990.835 413.613C991.571 414.033 991.571 415.094 990.835 415.514L929.735 450.33C929.064 450.713 928.24 450.713 927.569 450.33L831.452 395.54C830.716 395.121 830.716 394.06 831.452 393.64L892.551 358.824Z" fill="url(#paint4_linear_463_3351)"/>
<mask id="mask0_463_3351" style="mask-type:alpha" maskUnits="userSpaceOnUse" x="830" y="358" width="162" height="93">
<path fill-rule="evenodd" clip-rule="evenodd" d="M892.551 358.824C893.223 358.441 894.046 358.441 894.717 358.824L990.835 413.613C991.571 414.033 991.571 415.094 990.835 415.514L929.735 450.33C929.064 450.713 928.24 450.713 927.569 450.33L831.452 395.54C830.716 395.121 830.716 394.06 831.452 393.64L892.551 358.824Z" fill="white"/>
</mask>
<g mask="url(#mask0_463_3351)">
<path fill-rule="evenodd" clip-rule="evenodd" d="M892.551 363.385C893.223 363.002 894.046 363.002 894.717 363.385L990.835 418.174C991.571 418.594 991.571 419.655 990.835 420.075L929.735 454.891C929.064 455.274 928.241 455.274 927.569 454.891L831.452 400.101C830.716 399.682 830.716 398.621 831.452 398.201L892.551 363.385Z" fill="url(#paint5_linear_463_3351)"/>
<rect x="784" y="348" width="100" height="100" fill="#C4C4C4"/>
</g>
<path fill-rule="evenodd" clip-rule="evenodd" d="M909.02 53.1635C909.881 52.819 910.853 52.887 911.658 53.3482L1177.44 205.609C1179.33 206.692 1180.49 208.703 1180.49 210.881V406.325C1180.49 407.392 1179.93 408.38 1179.02 408.929L1175.23 411.2C1173.79 412.065 1171.99 412.065 1170.54 411.2L910.213 255.025C908.426 253.953 907.313 252.04 907.265 249.956L902.853 58.8204C902.809 56.9192 903.95 55.1907 905.716 54.4846L909.02 53.1635Z" fill="#80B1FF"/>
<path fill-rule="evenodd" clip-rule="evenodd" d="M902.779 57.8807C902.779 55.5421 905.311 54.0807 907.336 55.2504L1172.89 208.646C1174.77 209.732 1175.93 211.737 1175.93 213.907V408.863C1175.93 411.202 1173.4 412.663 1171.37 411.494L905.816 258.098C903.937 257.012 902.779 255.007 902.779 252.837V57.8807Z" fill="url(#paint6_linear_463_3351)"/>
<path fill-rule="evenodd" clip-rule="evenodd" d="M913.424 72.3825L1164.34 217.702V394.694L913.424 249.375V72.3825Z" fill="url(#paint7_linear_463_3351)"/>
<path fill-rule="evenodd" clip-rule="evenodd" d="M885.02 70.7652C881.124 68.4802 876.219 71.2898 876.219 75.8065V197.061C876.219 203.294 879.528 209.058 884.91 212.201L1030 296.936C1033.89 299.211 1038.79 296.401 1038.79 291.889V170.992C1038.79 164.771 1035.49 159.016 1030.13 155.868L885.02 70.7652Z" fill="#C7DCFF"/>
<path fill-rule="evenodd" clip-rule="evenodd" d="M889.828 98.5444L906.202 107.879V192.583L889.828 183.249V98.5444Z" fill="#528BE1"/>
<path fill-rule="evenodd" clip-rule="evenodd" d="M919.068 116.191L935.442 125.525V209.053L919.068 199.719V116.191Z" fill="#528BE1"/>
<path fill-rule="evenodd" clip-rule="evenodd" d="M948.307 131.485L964.681 140.819V225.524L948.307 216.189V131.485Z" fill="#528BE1"/>
<path fill-rule="evenodd" clip-rule="evenodd" d="M977.546 147.955L993.92 157.289V241.994L977.546 232.66L977.546 147.955Z" fill="#528BE1"/>
<path fill-rule="evenodd" clip-rule="evenodd" d="M1006.78 163.249L1023.16 172.583V254.935L1006.78 245.601L1006.78 163.249Z" fill="#528BE1"/>
<path fill-rule="evenodd" clip-rule="evenodd" d="M889.828 174.94L906.202 184.274V206.7L889.828 197.366L889.828 174.94Z" fill="white"/>
<path fill-rule="evenodd" clip-rule="evenodd" d="M919.068 153.359L935.442 162.694V223.171L919.068 213.836V153.359Z" fill="white"/>
<path fill-rule="evenodd" clip-rule="evenodd" d="M948.307 183.249L964.681 192.583V239.641L948.307 230.307V183.249Z" fill="white"/>
<path fill-rule="evenodd" clip-rule="evenodd" d="M977.546 185.602L993.92 194.936V256.111L977.546 246.777L977.546 185.602Z" fill="white"/>
<path fill-rule="evenodd" clip-rule="evenodd" d="M1006.78 177.367L1023.16 186.701V269.053L1006.78 259.718L1006.78 177.367Z" fill="white"/>
<path fill-rule="evenodd" clip-rule="evenodd" d="M1067.53 180.145C1063.64 177.86 1058.73 180.67 1058.73 185.186V306.441C1058.73 312.674 1062.04 318.438 1067.42 321.581L1212.51 406.316C1216.41 408.591 1221.3 405.781 1221.3 401.269V280.372C1221.3 274.151 1218 268.396 1212.64 265.248L1067.53 180.145Z" fill="#C7DCFF"/>
<path fill-rule="evenodd" clip-rule="evenodd" d="M1072.34 296.636L1088.72 305.97V316.08L1072.34 306.746L1072.34 296.636Z" fill="#98BDF4"/>
<path fill-rule="evenodd" clip-rule="evenodd" d="M1101.58 299.688L1117.95 309.022V332.551L1101.58 323.217L1101.58 299.688Z" fill="#98BDF4"/>
<path fill-rule="evenodd" clip-rule="evenodd" d="M1130.82 323.418L1147.19 332.753V349.021L1130.82 339.687V323.418Z" fill="#98BDF4"/>
<path fill-rule="evenodd" clip-rule="evenodd" d="M1160.06 313.456L1176.43 322.79V365.491L1160.06 356.157L1160.06 313.456Z" fill="#98BDF4"/>
<path fill-rule="evenodd" clip-rule="evenodd" d="M1189.3 305.22L1205.67 314.554V378.432L1189.3 369.098L1189.3 305.22Z" fill="#98BDF4"/>
<path d="M1205.67 293.217C1205.67 293.217 1193.83 287.969 1172.29 293.217C1150.76 298.465 1146.14 313.164 1129.44 296.636C1112.75 280.108 1109.77 282.374 1072.34 286.032" stroke="white" stroke-width="6.14933" stroke-linecap="round"/>
<path fill-rule="evenodd" clip-rule="evenodd" d="M1143.05 310.094C1141.13 311.076 1138.04 308.86 1136.15 305.145C1134.26 301.43 1134.29 297.622 1136.21 296.641C1138.13 295.659 1141.22 297.875 1143.11 301.59C1145 305.305 1144.98 309.113 1143.05 310.094Z" fill="url(#paint8_linear_463_3351)"/>
<path d="M1144.07 312.087C1141.98 313.152 1139.78 312.27 1138.29 311.2C1136.69 310.056 1135.23 308.271 1134.16 306.161C1133.08 304.051 1132.5 301.818 1132.52 299.853C1132.53 298.015 1133.11 295.712 1135.2 294.648C1137.28 293.583 1139.48 294.465 1140.98 295.535C1142.57 296.679 1144.03 298.464 1145.1 300.574C1146.18 302.684 1146.76 304.917 1146.75 306.882C1146.73 308.72 1146.15 311.023 1144.07 312.087Z" stroke="white" stroke-opacity="0.285621" stroke-width="4.47224"/>
<path fill-rule="evenodd" clip-rule="evenodd" d="M860.347 365.212C860.347 365.212 857.042 366.33 857.673 370.895C858.304 375.459 860.713 373.868 861.876 378.078C863.039 382.288 866.823 385.799 868.928 386.407C871.033 387.016 875.148 387.793 875.97 384.399C876.792 381.005 860.347 365.212 860.347 365.212Z" fill="#30334F"/>
<path fill-rule="evenodd" clip-rule="evenodd" d="M861.434 364.005C861.434 364.005 856.523 367.863 860.635 373.782C864.747 379.702 864.845 385.091 871.87 385.696C878.895 386.302 875.632 381.805 873.423 378.476C870.826 374.962 869.826 367.269 869.826 367.269L861.434 364.005Z" fill="#181E36"/>
<path fill-rule="evenodd" clip-rule="evenodd" d="M894.766 267.43C894.766 267.43 901.607 310.448 900.852 325.457C900.096 340.465 869.656 370.582 869.656 370.582C869.656 370.582 861.959 370.041 860.411 363.402L880.76 325.457L870.85 269.185L894.766 267.43Z" fill="#092965"/>
<mask id="mask1_463_3351" style="mask-type:alpha" maskUnits="userSpaceOnUse" x="860" y="267" width="41" height="104">
<path fill-rule="evenodd" clip-rule="evenodd" d="M894.766 267.43C894.766 267.43 901.607 310.448 900.852 325.457C900.096 340.465 869.656 370.582 869.656 370.582C869.656 370.582 861.959 370.041 860.411 363.402L880.76 325.457L870.85 269.185L894.766 267.43Z" fill="white"/>
</mask>
<g mask="url(#mask1_463_3351)">
</g>
<path fill-rule="evenodd" clip-rule="evenodd" d="M894.08 397.141C894.08 397.141 893.584 398.57 893.75 400.433C893.915 402.297 899.56 404.025 900.786 404.555C902.011 405.085 903.343 410.28 910.184 411.448C917.024 412.615 919.826 410.517 919.299 408.166C918.771 405.815 894.08 397.141 894.08 397.141Z" fill="#30334F"/>
<path fill-rule="evenodd" clip-rule="evenodd" d="M905.309 388.118C905.309 388.118 911.314 398.317 917.235 404.166C923.156 410.015 915.014 411.358 909.388 410.015C903.762 408.671 902.651 403.044 899.725 402.138C898.579 401.783 894.283 399.955 893.81 397.71C893.478 396.133 894.971 390.178 894.971 390.178" fill="#181E36"/>
<path fill-rule="evenodd" clip-rule="evenodd" d="M856.476 272.403C856.476 272.403 856.467 290.405 861.688 302.185C863.326 305.879 872.718 318.907 877.044 330.869C881.917 344.341 893.708 390.533 893.708 390.533C893.708 390.533 895.46 394.012 900.786 393.445C906.111 392.877 906.978 389.607 906.978 389.607C906.978 389.607 899.084 335.27 894.423 320.638C889.763 306.007 882.025 268.213 882.025 268.213L856.476 272.403Z" fill="url(#paint9_linear_463_3351)"/>
<path d="M858.757 285.902C858.757 285.902 870.392 314.403 881.031 330.999C884.172 336.175 895.805 393.14 895.805 393.14" stroke="#1C478A" stroke-width="0.690693"/>
<path fill-rule="evenodd" clip-rule="evenodd" d="M892.643 212.874C895.286 213.153 909.223 256.931 909.223 256.931L927.625 280.926C927.625 280.926 925.679 279.978 923.595 281.227C921.511 282.475 918.95 284.196 918.95 284.196C918.95 284.196 902.571 268.801 899.889 265.722C897.206 262.642 887.287 229.523 887.858 224.083C888.429 218.644 890 212.596 892.643 212.874Z" fill="url(#paint10_linear_463_3351)"/>
<mask id="mask2_463_3351" style="mask-type:alpha" maskUnits="userSpaceOnUse" x="887" y="212" width="41" height="73">
<path fill-rule="evenodd" clip-rule="evenodd" d="M892.643 212.874C895.286 213.153 909.223 256.931 909.223 256.931L927.625 280.926C927.625 280.926 925.679 279.978 923.595 281.227C921.511 282.475 918.95 284.196 918.95 284.196C918.95 284.196 902.571 268.801 899.889 265.722C897.206 262.642 887.287 229.523 887.858 224.083C888.429 218.644 890 212.596 892.643 212.874Z" fill="white"/>
</mask>
<g mask="url(#mask2_463_3351)">
<path fill-rule="evenodd" clip-rule="evenodd" d="M891.381 259.487C891.381 259.487 899.61 247.148 897.869 240.285C896.128 233.423 892.914 223.512 893.281 220.014C893.648 216.516 884.316 222.591 884.316 222.591L891.381 259.487Z" fill="#0B224E"/>
</g>
<path fill-rule="evenodd" clip-rule="evenodd" d="M871.898 216.056C865.878 219.44 855.294 226.38 853.302 228.98C851.309 231.579 854.57 243.839 857.306 249.486C860.042 255.134 857.749 270.597 856.028 274.773C855.56 275.91 872.082 281.714 883.627 276.768C893.559 272.512 893.197 267.504 892.309 262.795C891.42 258.087 892.146 251.171 892.146 251.171C892.146 251.171 894.154 232.544 893.524 228.268C892.895 223.992 895.133 214.494 893.211 213.182C891.289 211.87 877.918 212.672 871.898 216.056Z" fill="white"/>
<mask id="mask3_463_3351" style="mask-type:alpha" maskUnits="userSpaceOnUse" x="852" y="212" width="43" height="67">
<path fill-rule="evenodd" clip-rule="evenodd" d="M871.898 216.056C865.878 219.44 855.294 226.38 853.302 228.98C851.309 231.579 854.57 243.839 857.306 249.486C860.042 255.134 857.749 270.597 856.028 274.773C855.56 275.91 872.082 281.714 883.627 276.768C893.559 272.512 893.197 267.504 892.309 262.795C891.42 258.087 892.146 251.171 892.146 251.171C892.146 251.171 894.154 232.544 893.524 228.268C892.895 223.992 895.133 214.494 893.211 213.182C891.289 211.87 877.918 212.672 871.898 216.056Z" fill="white"/>
</mask>
<g mask="url(#mask3_463_3351)">
<path fill-rule="evenodd" clip-rule="evenodd" d="M880.889 225.342L888.84 227.382C888.84 227.382 885.846 219.152 883.276 216.756C880.705 214.359 880.9 216.759 880.9 216.759C880.9 216.759 881.515 217.426 881.624 220.005C881.732 222.584 880.889 225.342 880.889 225.342Z" fill="url(#paint11_linear_463_3351)" fill-opacity="0.2"/>
<g style="mix-blend-mode:multiply">
<path fill-rule="evenodd" clip-rule="evenodd" d="M878.906 213.586C883.105 215.078 886.625 223.743 888.944 233.776C891.262 243.809 890.376 250.236 888.571 258.112C887.687 261.971 886.557 266.051 886.402 269.272C886.241 272.626 886.267 275.736 887.01 277.214C888.465 280.111 894.661 285.479 894.661 285.479C894.661 285.479 889.376 278.706 889.848 273.168C890.32 267.63 896.643 249.105 896.525 242.814C896.407 236.523 893.862 230.422 893.742 225.399C893.621 220.376 895.108 214.734 893.27 213.211C891.432 211.688 884.933 212.439 878.906 213.586Z" fill="url(#paint12_linear_463_3351)" fill-opacity="0.2"/>
</g>
<path fill-rule="evenodd" clip-rule="evenodd" d="M867.687 215.862C864.091 217.925 867.338 222.832 872.852 224.458C876.772 225.613 880.687 227.795 880.687 227.795C880.687 227.795 881.855 223.161 881.858 221.009C881.868 213.523 875.657 210.66 875.657 210.66C875.657 210.66 871.283 213.8 867.687 215.862Z" fill="url(#paint13_linear_463_3351)"/>
<path fill-rule="evenodd" clip-rule="evenodd" d="M879.043 228.838L880.536 265.227L885.642 269.698L887.589 262.871L882.043 227.593L879.043 228.838Z" fill="url(#paint14_linear_463_3351)"/>
<path fill-rule="evenodd" clip-rule="evenodd" d="M878.163 225.958L881.426 225.327L883.264 225.951L882.298 229.14L879.042 229.843L876.416 227.855L878.163 225.958Z" fill="#092965"/>
<path fill-rule="evenodd" clip-rule="evenodd" d="M878.163 225.958L873.164 232.488C873.164 232.488 866.879 220.97 868.879 216.36C868.879 216.36 869.149 221.341 872.152 223.174C875.155 225.007 878.163 225.958 878.163 225.958Z" fill="url(#paint15_linear_463_3351)"/>
</g>
<path fill-rule="evenodd" clip-rule="evenodd" d="M869.393 217.491C868.3 219.459 874.405 234.384 876.017 243.001C877.63 251.619 878.087 266.52 878.486 275.069C878.695 279.538 881.1 289.034 881.1 289.034C881.1 289.034 861.468 293.547 853.883 282.969C854.962 279.472 854.97 274.031 856.241 268.066C857.513 262.102 858.216 250.353 853.912 239.914C852.409 230.013 852.113 229.53 852.113 229.53C852.113 229.53 856.384 224.839 869.393 217.491Z" fill="#092965"/>
<mask id="mask4_463_3351" style="mask-type:alpha" maskUnits="userSpaceOnUse" x="852" y="217" width="30" height="73">
<path fill-rule="evenodd" clip-rule="evenodd" d="M869.393 217.491C868.3 219.459 874.405 234.384 876.017 243.001C877.63 251.619 878.087 266.52 878.486 275.069C878.695 279.538 881.1 289.034 881.1 289.034C881.1 289.034 861.468 293.547 853.883 282.969C854.962 279.472 854.97 274.031 856.241 268.066C857.513 262.102 858.216 250.353 853.912 239.914C852.409 230.013 852.113 229.53 852.113 229.53C852.113 229.53 856.384 224.839 869.393 217.491Z" fill="white"/>
</mask>
<g mask="url(#mask4_463_3351)">
<path fill-rule="evenodd" clip-rule="evenodd" d="M877.148 266.522C876.315 252.175 866.531 246.942 866.531 246.942L870.167 238.655L865.016 236.843C865.016 236.843 866.939 226.567 867.139 222.891C867.339 219.216 867.634 218.35 867.634 218.35L869.165 215.785C869.165 215.785 872.059 213.978 874.129 213.784C876.2 213.59 871.211 216.734 871.211 216.734C871.211 216.734 870.435 216.709 869.874 217.273C869.314 217.837 879.86 244.835 879.86 244.835C879.86 244.835 877.982 280.868 877.148 266.522Z" fill="#0B224E"/>
</g>
<path fill-rule="evenodd" clip-rule="evenodd" d="M867.139 222.891C867.006 225.342 866.283 229.076 864.97 234.093L870.465 237.354L867.127 244.342C871.18 252.025 877.695 259.159 878.253 268.716C877.84 259.237 877.553 251.211 876.017 243.001C874.405 234.384 868.295 219.49 869.389 217.522C870.261 215.587 871.574 215.146 871.574 215.146C871.574 215.146 871.841 214.684 871.253 214.957C870.664 215.229 869.597 215.715 868.88 216.36C868.196 216.974 867.786 217.519 867.582 218.526C867.408 219.203 867.261 220.658 867.139 222.891Z" fill="url(#paint16_linear_463_3351)"/>
<path fill-rule="evenodd" clip-rule="evenodd" d="M878.906 213.586C883.105 215.078 887.809 223.618 889.549 233.404C891.289 243.191 890.376 250.235 888.571 258.112C886.766 265.989 889.977 272.877 891.433 275.774C892.888 278.671 895.452 283.505 895.452 283.505C895.452 283.505 896.694 279.303 896.757 273.673C896.819 268.042 893.43 255.292 893.312 249C893.237 244.983 894.129 239.949 894.284 234.494C894.372 231.407 894.328 226.648 894.284 224.832C894.164 219.809 895.108 214.734 893.27 213.211C891.432 211.688 884.933 212.439 878.906 213.586Z" fill="#092965"/>
<path fill-rule="evenodd" clip-rule="evenodd" d="M878.905 213.586C883.105 215.078 887.809 223.618 889.548 233.405C891.288 243.191 890.376 250.236 888.571 258.112C888.204 259.713 888.262 261.98 888.309 263.774C888.323 264.321 888.336 264.824 888.335 265.251C888.335 265.499 888.331 265.745 888.324 265.987C888.425 266.116 888.488 266.063 888.509 265.803C888.872 261.277 894.754 244.129 894.754 244.129L891.441 233.645L892.974 231.879C892.974 231.879 885.044 216.659 880.372 213.317C879.882 213.403 879.392 213.493 878.905 213.586Z" fill="url(#paint17_linear_463_3351)"/>
<path fill-rule="evenodd" clip-rule="evenodd" d="M868.695 204.417C868.695 204.417 868.864 207.603 869.351 211.058C869.839 214.513 869.329 216.805 869.329 216.805C869.329 216.805 870.096 220.648 874.645 222.263C879.195 223.877 880.78 220.605 880.78 220.605L880.071 211.734L868.695 204.417Z" fill="#FCCBCB"/>
<mask id="mask5_463_3351" style="mask-type:alpha" maskUnits="userSpaceOnUse" x="868" y="204" width="13" height="19">
<path fill-rule="evenodd" clip-rule="evenodd" d="M868.695 204.417C868.695 204.417 868.864 207.603 869.351 211.058C869.839 214.513 869.329 216.805 869.329 216.805C869.329 216.805 870.096 220.648 874.645 222.263C879.195 223.877 880.78 220.605 880.78 220.605L880.071 211.734L868.695 204.417Z" fill="white"/>
</mask>
<g mask="url(#mask5_463_3351)">
<path fill-rule="evenodd" clip-rule="evenodd" d="M880.549 219.987C880.549 219.987 875.409 219.682 872.83 216.719C870.25 213.756 870.56 208.454 870.56 208.454L880.762 210.569L880.549 219.987Z" fill="url(#paint18_linear_463_3351)"/>
</g>
<path fill-rule="evenodd" clip-rule="evenodd" d="M885.101 196.745C885.101 196.745 885.546 199.075 885.294 205.19C885.041 211.304 884.646 215.569 884.105 216.512C883.565 217.455 879.919 218.553 876.525 217.068C873.131 215.584 871.431 213.77 870.841 212.35C870.252 210.929 869.581 208.77 868.583 205.891C867.586 203.012 864.846 198.51 865.991 195.142C867.136 191.773 870.783 188.83 876.363 189.903C881.942 190.976 885.101 196.745 885.101 196.745Z" fill="#FCCBCB"/>
<mask id="mask6_463_3351" style="mask-type:alpha" maskUnits="userSpaceOnUse" x="865" y="189" width="21" height="29">
<path fill-rule="evenodd" clip-rule="evenodd" d="M885.101 196.745C885.101 196.745 885.546 199.075 885.294 205.19C885.041 211.304 884.646 215.569 884.105 216.512C883.565 217.455 879.919 218.553 876.525 217.068C873.131 215.584 871.431 213.77 870.841 212.35C870.252 210.929 869.581 208.77 868.583 205.891C867.586 203.012 864.846 198.51 865.991 195.142C867.136 191.773 870.783 188.83 876.363 189.903C881.942 190.976 885.101 196.745 885.101 196.745Z" fill="white"/>
</mask>
<g mask="url(#mask6_463_3351)">
</g>
<path fill-rule="evenodd" clip-rule="evenodd" d="M873.221 197.039C873.221 197.039 877.008 199.36 881.244 199.389C885.48 199.417 887.286 197.627 886.773 194.805C886.26 191.983 882.605 188.221 875.685 187.695C868.765 187.17 867.066 192.368 867.066 192.368C867.066 192.368 865.067 192.525 864.752 194.714C864.436 196.904 866.362 204.001 867.594 205.514C868.826 207.027 869.634 204.309 869.634 204.309C869.634 204.309 869.558 207.039 870.154 206.395C870.751 205.752 871.117 205.836 870.985 203.945C870.853 202.054 871.174 200.892 872.044 200.895C872.914 200.898 873.961 199.386 873.778 198.355C873.595 197.324 873.221 197.039 873.221 197.039Z" fill="#30334F"/>
<mask id="mask7_463_3351" style="mask-type:alpha" maskUnits="userSpaceOnUse" x="864" y="187" width="23" height="20">
<path fill-rule="evenodd" clip-rule="evenodd" d="M873.221 197.039C873.221 197.039 877.008 199.36 881.244 199.389C885.48 199.417 887.286 197.627 886.773 194.805C886.26 191.983 882.605 188.221 875.685 187.695C868.765 187.17 867.066 192.368 867.066 192.368C867.066 192.368 865.067 192.525 864.752 194.714C864.436 196.904 866.362 204.001 867.594 205.514C868.826 207.027 869.634 204.309 869.634 204.309C869.634 204.309 869.558 207.039 870.154 206.395C870.751 205.752 871.117 205.836 870.985 203.945C870.853 202.054 871.174 200.892 872.044 200.895C872.914 200.898 873.961 199.386 873.778 198.355C873.595 197.324 873.221 197.039 873.221 197.039Z" fill="white"/>
</mask>
<g mask="url(#mask7_463_3351)">
<path fill-rule="evenodd" clip-rule="evenodd" d="M871.734 201.308C871.734 201.308 868.204 198.899 866.225 199.09C864.247 199.282 864.07 200.968 864.07 200.968C864.07 200.968 867.583 208.639 867.944 208.677C868.306 208.715 872.2 208.321 872.2 208.321L871.734 201.308Z" fill="url(#paint19_linear_463_3351)"/>
<path fill-rule="evenodd" clip-rule="evenodd" d="M867.489 192.845L872.736 196.823C872.736 196.823 870.688 195.727 869.167 194.734C867.645 193.742 867.489 192.845 867.489 192.845Z" fill="#031120"/>
<path fill-rule="evenodd" clip-rule="evenodd" d="M875.674 196.003C875.674 196.003 881.891 198.554 884.884 195.228C881.356 197.73 875.674 196.003 875.674 196.003Z" fill="#031120"/>
</g>
<path fill-rule="evenodd" clip-rule="evenodd" d="M869.591 202.983C869.591 202.983 869.391 202.19 868.287 201.72C867.183 201.25 866.147 202.978 866.876 204.734C867.326 205.819 867.703 206.575 868.472 207.22C868.663 207.38 869.055 207.281 869.055 207.281C869.055 207.281 869.21 207.744 869.304 207.999C869.504 207.087 869.602 205.623 869.616 205.023C869.643 203.86 869.591 202.983 869.591 202.983Z" fill="#FCCBCB"/>
<path fill-rule="evenodd" clip-rule="evenodd" d="M868.922 203.27C868.922 203.27 868.335 202.636 867.859 202.772C867.382 202.908 867.101 203.935 867.733 204.894C868.365 205.852 868.741 205.933 868.741 205.933L868.922 203.27Z" fill="url(#paint20_linear_463_3351)"/>
<path fill-rule="evenodd" clip-rule="evenodd" d="M891.005 292.732C891.102 292.732 893.367 301.927 908.349 302.114C923.332 302.301 892.359 287.717 892.359 287.717C892.359 287.717 890.909 292.732 891.005 292.732Z" fill="url(#paint21_linear_463_3351)"/>
<path fill-rule="evenodd" clip-rule="evenodd" d="M852.693 228.959C846.251 234.142 845.706 249.305 854.117 263.437C862.528 277.57 858.666 274.13 864.984 278.587C871.301 283.043 891.887 295.877 891.887 295.877C891.887 295.877 893.095 290.318 898.388 290.318L871.512 267.022C871.512 267.022 859.434 228.182 852.693 228.959Z" fill="url(#paint22_linear_463_3351)"/>
<path fill-rule="evenodd" clip-rule="evenodd" d="M891.399 292.114C891.892 292.114 892.291 291.708 892.291 291.208C892.291 290.708 891.892 290.303 891.399 290.303C890.906 290.303 890.507 290.708 890.507 291.208C890.507 291.708 890.906 292.114 891.399 292.114Z" fill="#D8D8D8"/>
<path d="M928.451 319.764C912.676 319.764 899.887 311.644 899.887 301.629C899.887 300.174 899.887 296.096 899.887 296.096C899.887 296.096 914.967 283.494 928.451 283.494C944.227 283.494 957.015 291.613 957.015 301.629C957.015 311.644 944.227 319.764 928.451 319.764Z" fill="#C06100"/>
<path fill-rule="evenodd" clip-rule="evenodd" d="M928.451 316.075C912.676 316.075 899.887 307.956 899.887 297.94C899.887 287.924 912.676 279.805 928.451 279.805C944.227 279.805 957.015 287.924 957.015 297.94C957.015 307.956 944.227 316.075 928.451 316.075Z" fill="white"/>
<path d="M928.451 314.866C912.676 314.866 899.887 306.605 899.887 296.414C899.887 286.222 912.676 277.961 928.451 277.961C944.227 277.961 957.015 286.222 957.015 296.414C957.015 306.605 944.227 314.866 928.451 314.866Z" fill="#FFB74F"/>
<path d="M928.144 311.157C915.252 311.157 904.801 304.552 904.801 296.403C904.801 288.255 915.252 281.649 928.144 281.649C941.036 281.649 951.487 288.255 951.487 296.403C951.487 304.552 941.036 311.157 928.144 311.157Z" fill="#C06100"/>
<mask id="mask8_463_3351" style="mask-type:alpha" maskUnits="userSpaceOnUse" x="904" y="281" width="48" height="31">
<path d="M928.144 311.157C915.252 311.157 904.801 304.552 904.801 296.403C904.801 288.255 915.252 281.649 928.144 281.649C941.036 281.649 951.487 288.255 951.487 296.403C951.487 304.552 941.036 311.157 928.144 311.157Z" fill="white"/>
</mask>
<g mask="url(#mask8_463_3351)">
<path d="M928.144 313.616C915.252 313.616 904.801 307.011 904.801 298.862C904.801 290.714 915.252 284.108 928.144 284.108C941.036 284.108 951.487 290.714 951.487 298.862C951.487 307.011 941.036 313.616 928.144 313.616Z" fill="#FF8900"/>
<path fill-rule="evenodd" clip-rule="evenodd" d="M942.309 295.606C942.309 295.606 940.768 294.764 940.069 294.248L942.2 293.413L942.2 290.954L940.069 291.789L938.786 293.302C938.115 292.922 937.337 292.601 936.455 292.34C935.572 292.078 934.653 291.905 933.696 291.818C932.74 291.732 931.753 291.749 930.736 291.87C929.718 291.99 928.732 292.238 927.778 292.611C927.002 292.915 926.321 292.835 925.787 292.773C925.26 292.711 924.878 292.666 924.693 293.026C924.322 293.749 924.599 296.145 925.096 297.061C925.096 297.061 919.891 299.531 919.686 299.07C919.481 298.609 919.534 298.128 919.847 297.625L914.069 295.608C913.803 296.443 914.007 299.162 914.49 299.931C914.973 300.7 914.366 300.405 914.366 300.405L914.366 302.864L915.648 303.81L917.78 302.975C918.516 303.403 919.332 303.764 920.226 304.057C921.121 304.35 922.067 304.543 923.062 304.636C924.058 304.728 925.085 304.706 926.144 304.57C927.202 304.433 928.269 304.155 929.345 303.733C930.766 303.177 931.682 302.529 932.094 301.79C932.506 301.051 932.414 298.085 932.414 298.085L931.025 297.789L935.867 295.893C936.241 296.215 936.532 296.561 936.741 296.933C936.95 297.304 936.996 297.688 936.881 298.084L942.309 298.065L942.309 295.606ZM922.894 301.642C922.582 301.537 922.298 301.425 922.043 301.306L926.61 299.517L926.766 299.873C926.833 300.037 926.888 300.198 926.932 300.357C926.976 300.515 926.98 300.667 926.944 300.812C926.909 300.958 926.815 301.101 926.663 301.241C926.511 301.381 926.272 301.514 925.948 301.641C925.602 301.777 925.254 301.858 924.904 301.886C924.553 301.913 924.208 301.906 923.87 301.863C923.532 301.82 923.206 301.746 922.894 301.642Z" fill="#C06100"/>
<path fill-rule="evenodd" clip-rule="evenodd" d="M940.069 291.789C940.768 292.305 941.352 292.895 941.819 293.56C942.286 294.226 942.449 294.907 942.309 295.606L936.881 295.625C936.996 295.229 936.949 294.845 936.741 294.474C936.532 294.102 936.241 293.756 935.867 293.434L931.025 295.33L932.038 297.039C932.487 297.828 932.506 298.592 932.094 299.331C931.682 300.07 930.766 300.718 929.345 301.274C928.269 301.696 927.202 301.975 926.144 302.111C925.085 302.247 924.058 302.269 923.062 302.177C922.067 302.084 921.121 301.891 920.226 301.598C919.332 301.305 918.516 300.944 917.78 300.516L915.648 301.351L914.366 300.405L916.497 299.571C915.642 298.94 914.973 298.241 914.49 297.472C914.007 296.703 913.898 295.901 914.164 295.066L919.847 295.166C919.534 295.669 919.481 296.15 919.686 296.611C919.891 297.072 920.229 297.51 920.699 297.925L925.845 295.91L925.096 294.602C924.599 293.686 924.536 292.866 924.907 292.143C925.279 291.42 926.236 290.756 927.778 290.152C928.732 289.779 929.718 289.531 930.736 289.411C931.753 289.29 932.74 289.273 933.696 289.359C934.653 289.446 935.572 289.619 936.455 289.881C937.337 290.142 938.115 290.463 938.786 290.843L940.918 290.009L942.2 290.954L940.069 291.789ZM934.493 292.524C934.008 292.305 933.471 292.149 932.882 292.059C932.292 291.968 931.673 292.049 931.023 292.304C930.556 292.487 930.249 292.673 930.102 292.862C929.955 293.051 929.883 293.233 929.886 293.407C929.889 293.581 929.938 293.738 930.032 293.876C930.127 294.015 930.193 294.12 930.23 294.194L934.493 292.524ZM922.894 299.183C922.582 299.078 922.298 298.966 922.043 298.847L926.61 297.059L926.766 297.414C926.833 297.578 926.888 297.739 926.932 297.898C926.976 298.056 926.98 298.208 926.944 298.353C926.909 298.499 926.815 298.642 926.663 298.782C926.511 298.922 926.272 299.055 925.948 299.182C925.602 299.318 925.254 299.399 924.904 299.427C924.553 299.454 924.208 299.447 923.87 299.404C923.532 299.361 923.206 299.287 922.894 299.183Z" fill="#FFB74F"/>
</g>
<path fill-rule="evenodd" clip-rule="evenodd" d="M898.014 296.15C898.014 296.15 903.291 295.447 905.079 296.15C906.868 296.853 902.741 297.528 901.814 298.571C900.887 299.614 898.014 297.447 898.014 297.447V296.15Z" fill="#FCCBCB"/>
<path d="M981.007 340.455C996.782 340.455 1009.57 332.336 1009.57 322.32C1009.57 320.866 1009.57 316.787 1009.57 316.787C1009.57 316.787 994.491 304.185 981.007 304.185C965.231 304.185 952.442 312.304 952.442 322.32C952.442 332.336 965.231 340.455 981.007 340.455Z" fill="#C06100"/>
<path fill-rule="evenodd" clip-rule="evenodd" d="M981.007 336.766C996.782 336.766 1009.57 328.647 1009.57 318.632C1009.57 308.616 996.782 300.497 981.007 300.497C965.231 300.497 952.442 308.616 952.442 318.632C952.442 328.647 965.231 336.766 981.007 336.766Z" fill="white"/>
<path d="M981.007 336.152C996.782 336.152 1009.57 328.032 1009.57 318.017C1009.57 308.001 996.782 299.882 981.007 299.882C965.231 299.882 952.442 308.001 952.442 318.017C952.442 328.032 965.231 336.152 981.007 336.152Z" fill="#FFB74F"/>
<path d="M981.313 331.849C994.205 331.849 1004.66 325.243 1004.66 317.095C1004.66 308.946 994.205 302.341 981.313 302.341C968.422 302.341 957.971 308.946 957.971 317.095C957.971 325.243 968.422 331.849 981.313 331.849Z" fill="#C06100"/>
<mask id="mask9_463_3351" style="mask-type:alpha" maskUnits="userSpaceOnUse" x="957" y="302" width="48" height="30">
<path d="M981.313 331.849C994.205 331.849 1004.66 325.243 1004.66 317.095C1004.66 308.946 994.205 302.341 981.313 302.341C968.422 302.341 957.971 308.946 957.971 317.095C957.971 325.243 968.422 331.849 981.313 331.849Z" fill="white"/>
</mask>
<g mask="url(#mask9_463_3351)">
<path d="M981.313 334.307C994.205 334.307 1004.66 327.702 1004.66 319.554C1004.66 311.405 994.205 304.8 981.313 304.8C968.422 304.8 957.971 311.405 957.971 319.554C957.971 327.702 968.422 334.307 981.313 334.307Z" fill="#FF8900"/>
<path fill-rule="evenodd" clip-rule="evenodd" d="M976.224 321.386C976.17 321.336 976.119 321.287 976.07 321.236L987.681 316.524C988.099 316.942 988.409 317.095 988.409 317.095V319.159L992.887 319.978C993.098 319.518 993.202 319.06 993.197 318.603C993.192 318.146 993.107 317.705 992.942 317.281C992.777 316.857 992.553 316.452 992.27 316.066C991.994 315.69 991.689 315.345 991.355 315.033L994.288 313.843V311.807L992.369 312.187L989.254 313.475C988.87 313.251 988.469 313.046 988.053 312.86C986.823 312.31 985.517 311.944 984.136 311.763C982.755 311.582 981.335 311.597 979.876 311.807C978.418 312.018 976.991 312.439 975.597 313.072C974.203 313.704 973.104 314.428 972.3 315.245C971.495 316.061 970.988 316.92 970.778 317.823C970.569 318.726 970.653 319.645 971.03 320.583C971.079 320.704 971.133 320.825 971.191 320.946L969.092 319.839V321.814L970.943 323.317L972.429 322.714C972.613 322.915 972.812 323.114 973.026 323.311C973.864 324.087 974.925 324.73 976.21 325.24C977.494 325.75 978.911 326.009 980.461 326.019L980.608 322.864C979.742 322.877 978.933 322.761 978.18 322.517C977.427 322.273 976.775 321.896 976.224 321.386ZM980.893 314.885C981.76 314.737 982.601 314.696 983.417 314.761C984.073 314.814 984.694 314.933 985.281 315.119L975.2 319.288C975.201 318.993 975.255 318.698 975.364 318.403C975.555 317.889 975.901 317.395 976.404 316.922C976.906 316.448 977.568 316.026 978.388 315.654C979.191 315.289 980.026 315.033 980.893 314.885Z" fill="#C06100"/>
<path fill-rule="evenodd" clip-rule="evenodd" d="M976.07 319.186L987.681 314.474C988.099 314.892 988.37 315.31 988.494 315.729C988.632 316.196 988.604 316.656 988.409 317.109L992.887 317.928C993.098 317.468 993.202 317.009 993.197 316.552C993.192 316.095 993.107 315.655 992.942 315.231C992.777 314.807 992.553 314.402 992.27 314.016C991.994 313.639 991.689 313.295 991.355 312.983L994.288 311.792L992.369 310.137L989.254 311.425C988.87 311.201 988.469 310.996 988.053 310.81C986.823 310.26 985.517 309.894 984.136 309.713C982.755 309.532 981.335 309.547 979.876 309.757C978.418 309.968 976.991 310.389 975.597 311.022C974.203 311.654 973.104 312.378 972.3 313.194C971.495 314.01 970.988 314.87 970.778 315.773C970.569 316.675 970.653 317.595 971.03 318.532C971.079 318.654 971.133 318.775 971.191 318.896L969.092 319.764L970.943 321.267L972.429 320.664C972.613 320.864 972.812 321.063 973.026 321.261C973.864 322.037 974.925 322.679 976.21 323.189C977.494 323.699 978.911 323.959 980.461 323.968L980.608 320.814C979.742 320.827 978.933 320.711 978.18 320.467C977.427 320.222 976.775 319.845 976.224 319.335C976.17 319.286 976.119 319.236 976.07 319.186ZM983.417 312.711C984.073 312.764 984.694 312.883 985.281 313.068L975.2 317.238C975.201 316.942 975.255 316.647 975.364 316.352C975.555 315.838 975.901 315.345 976.404 314.871C976.906 314.398 977.568 313.975 978.388 313.603C979.191 313.239 980.026 312.983 980.893 312.835C981.76 312.687 982.601 312.646 983.417 312.711Z" fill="#FFB74F"/>
</g>
<path fill-rule="evenodd" clip-rule="evenodd" d="M1017.89 385.055L1017.26 389.419C1017.26 389.419 1019.76 396.812 1020.55 406.136C1021.34 415.461 1020.07 431.584 1021.58 434.518C1023.08 437.453 1022.02 439.49 1020.75 440.025C1019.48 440.561 1017.79 439.236 1013.99 436.204C1010.19 433.172 1005.42 431.38 1006.17 429.726C1006.91 428.071 1013.71 431.367 1014.5 430.163C1015.3 428.96 1007.82 391.446 1008.3 388.949C1008.78 386.451 1009.5 378.641 1009.5 378.641L1017.89 385.055Z" fill="#FFBBB0"/>
<path fill-rule="evenodd" clip-rule="evenodd" d="M1014.09 386.395L1013.11 392.096C1013.11 392.096 1014.76 403.867 1015.48 411.272C1016.21 418.676 1017.56 436.661 1017.56 436.661L1015.75 437.576L1008.45 387.437L1014.09 386.395Z" fill="#F29E98"/>
<path fill-rule="evenodd" clip-rule="evenodd" d="M1021.7 432.789C1021.7 432.789 1020.79 432.133 1020.25 432.713C1019.71 433.293 1016.22 434.661 1013.94 433.936C1011.66 433.211 1008.99 431.019 1009.03 430.247C1009.07 429.475 1012.39 427.988 1012.39 427.988C1012.39 427.988 1008.07 426.722 1006.39 427.673C1004.71 428.624 1006.37 432.1 1007.91 432.9C1009.44 433.7 1017.53 439.488 1018.1 439.518C1018.68 439.548 1019.64 444.324 1019.64 444.324C1019.64 444.324 1020.27 444.649 1020.86 444.388C1020.86 444.388 1022.41 438.511 1022.53 436.311C1022.64 434.111 1021.7 432.789 1021.7 432.789Z" fill="#181E36"/>
<path fill-rule="evenodd" clip-rule="evenodd" d="M1010.77 384.003L1010.11 390.892C1010.11 390.892 1012.67 400.406 1013.66 407.153C1014.64 413.901 1015.49 432.28 1016.16 433.992C1016.83 435.703 1017.5 440.183 1015.5 441.178C1014.23 441.811 1015.4 440.568 1011.92 440.442C1009.93 440.371 1003.12 442.728 1001.15 442.625C995.734 442.34 995.796 440.7 996.638 439.923C997.076 439.518 1001.16 437.694 1001.16 437.694C1001.16 437.694 1006.56 436.195 1007.29 435.238C1008.8 433.245 1009.12 430.594 1008.74 427.573C1008.35 424.552 999.707 392.451 999.355 389.514C999.004 386.577 999.037 378.493 999.037 378.493L1010.77 384.003Z" fill="#FFBBB0"/>
<rect width="3.07141" height="1.22948" rx="0.531302" transform="matrix(-0.998625 -0.0524176 -0.0522544 0.998634 999.219 281.333)" fill="#30334F"/>
<path fill-rule="evenodd" clip-rule="evenodd" d="M998.587 277.215C998.587 277.215 996.669 281.003 997.148 282.803C997.627 284.604 997.066 286.542 995.951 287.203C994.836 287.864 996.828 288.92 996.828 288.92C996.828 288.92 996.867 291.11 997.506 292.923C998.144 294.736 997.91 296.145 999.956 296.252C1002 296.36 1004.38 296.057 1004.38 296.057C1004.38 296.057 1005.83 298.128 1005.25 299.403C1004.68 300.679 1001.78 301.323 1002.33 302.162C1002.89 303 1017.76 305.372 1018.62 304.096C1019.48 302.819 1012.76 299.667 1013.01 294.769C1013.27 289.872 1013.81 274.186 1007.7 273.865C1001.6 273.545 998.587 277.215 998.587 277.215Z" fill="#FFBBB0"/>
<path fill-rule="evenodd" clip-rule="evenodd" d="M1003.71 287.497C1003.71 287.497 1004.46 286.534 1004.96 286.894C1005.45 287.254 1005.58 288.145 1004.83 289.245C1004.09 290.345 1003.43 289.413 1003.43 289.413L1003.71 287.497Z" fill="url(#paint23_linear_463_3351)"/>
<path fill-rule="evenodd" clip-rule="evenodd" d="M999.169 336.558C999.169 336.558 996.044 352.238 996.212 362.472C996.381 372.706 997.779 386.486 997.779 386.486C997.779 386.486 1001.94 389.175 1008.11 389.499C1014.29 389.823 1018.63 386.765 1018.63 386.765C1018.63 386.765 1021.99 369.206 1024.6 365.273C1027.22 361.341 1030.48 354.239 1028.64 345.834C1026.8 337.428 1021.91 332.795 1021.91 332.795C1021.91 332.795 1015.41 330.543 1012.3 331.335C1009.19 332.128 999.169 336.558 999.169 336.558Z" fill="url(#paint24_linear_463_3351)"/>
<mask id="mask10_463_3351" style="mask-type:alpha" maskUnits="userSpaceOnUse" x="996" y="331" width="34" height="59">
<path fill-rule="evenodd" clip-rule="evenodd" d="M999.169 336.558C999.169 336.558 996.044 352.238 996.212 362.472C996.381 372.706 997.779 386.486 997.779 386.486C997.779 386.486 1001.94 389.175 1008.11 389.499C1014.29 389.823 1018.63 386.765 1018.63 386.765C1018.63 386.765 1021.99 369.206 1024.6 365.273C1027.22 361.341 1030.48 354.239 1028.64 345.834C1026.8 337.428 1021.91 332.795 1021.91 332.795C1021.91 332.795 1015.41 330.543 1012.3 331.335C1009.19 332.128 999.169 336.558 999.169 336.558Z" fill="white"/>
</mask>
<g mask="url(#mask10_463_3351)">
<path d="M1001.77 337.968C1001.77 337.968 999.653 352.013 1000.04 357.866C1000.42 363.718 999.951 388.02 999.951 388.02" stroke="#1C478A" stroke-width="0.531302"/>
</g>
<path fill-rule="evenodd" clip-rule="evenodd" d="M1021.45 332.26C1021.45 332.26 1021.83 336.447 1014.5 338.524C1007.17 340.6 998.379 339.131 998.546 335.955C998.712 332.778 1021.45 332.26 1021.45 332.26Z" fill="#092965"/>
<path fill-rule="evenodd" clip-rule="evenodd" d="M1000.22 304.236C1000.22 304.236 1001.79 300.303 1004.16 299.075C1006.53 297.846 1013.93 294.613 1014.63 299.255L1000.22 304.236Z" fill="#D8D8D8"/>
<path fill-rule="evenodd" clip-rule="evenodd" d="M998.831 279.206C998.831 279.206 997.206 275.568 997.951 272.891C998.696 270.213 1001.54 266.869 1006.15 268.48C1011.99 267.833 1018.83 270.368 1020.19 278.656C1021.54 286.943 1019.53 294.395 1013.59 295.368C1007.65 296.342 1004.62 291.589 1004.62 291.589C1004.62 291.589 1007.4 289.41 1006.34 287.21C1005.28 285.01 1002.66 286.78 1002.66 286.78L998.831 279.206Z" fill="#30334F"/>
<path fill-rule="evenodd" clip-rule="evenodd" d="M1019.21 300.114C1019.21 300.114 1023.03 300.616 1024.35 308.899C1025.66 317.182 1030.05 326.419 1025.64 329.382C1021.23 332.346 1016.97 319.525 1016.97 319.525L1019.21 300.114Z" fill="#F0F0F0"/>
<mask id="mask11_463_3351" style="mask-type:alpha" maskUnits="userSpaceOnUse" x="1016" y="300" width="12" height="30">
<path fill-rule="evenodd" clip-rule="evenodd" d="M1019.21 300.114C1019.21 300.114 1023.03 300.616 1024.35 308.899C1025.66 317.182 1030.05 326.419 1025.64 329.382C1021.23 332.346 1016.97 319.525 1016.97 319.525L1019.21 300.114Z" fill="white"/>
</mask>
<g mask="url(#mask11_463_3351)">
<path fill-rule="evenodd" clip-rule="evenodd" d="M1018.23 299.028C1018.23 299.028 1022.05 299.53 1023.37 307.813C1024.68 316.095 1029.06 325.332 1024.66 328.296C1020.25 331.26 1015.98 318.438 1015.98 318.438L1018.23 299.028Z" fill="#D8D8D8"/>
</g>
<path fill-rule="evenodd" clip-rule="evenodd" d="M1022.34 306.031C1021.89 305.162 1021.18 301.158 1018.85 300.277C1015.93 299.173 1011.72 299.095 1009.18 299.77C1004.48 301.024 996.752 305.013 996.009 306.266C995.267 307.518 994.032 312.573 993.323 315.37C992.613 318.167 990.908 325.378 996.593 325.283C996.593 325.283 998.021 328.165 997.889 330.679C997.758 333.192 997.114 334.625 999.263 336.663C1001.41 338.701 1010.79 338.721 1014.99 337.488C1019.18 336.256 1021.59 333.537 1022.8 331.986C1024.01 330.436 1021.1 323.767 1021.1 323.767C1021.1 323.767 1023.37 307.99 1022.34 306.031Z" fill="url(#paint25_linear_463_3351)"/>
<mask id="mask12_463_3351" style="mask-type:alpha" maskUnits="userSpaceOnUse" x="992" y="299" width="32" height="40">
<path fill-rule="evenodd" clip-rule="evenodd" d="M1022.34 306.031C1021.89 305.162 1021.18 301.158 1018.85 300.277C1015.93 299.173 1011.72 299.095 1009.18 299.77C1004.48 301.024 996.752 305.013 996.009 306.266C995.267 307.518 994.032 312.573 993.323 315.37C992.613 318.167 990.908 325.378 996.593 325.283C996.593 325.283 998.021 328.165 997.889 330.679C997.758 333.192 997.114 334.625 999.263 336.663C1001.41 338.701 1010.79 338.721 1014.99 337.488C1019.18 336.256 1021.59 333.537 1022.8 331.986C1024.01 330.436 1021.1 323.767 1021.1 323.767C1021.1 323.767 1023.37 307.99 1022.34 306.031Z" fill="white"/>
</mask>
<g mask="url(#mask12_463_3351)">
<path fill-rule="evenodd" clip-rule="evenodd" d="M996.819 308.707C996.819 308.707 999.132 321.194 993.855 327.353C988.578 333.513 995.529 333.366 995.529 333.366C995.529 333.366 998.269 326.792 998.911 320.987C999.553 315.182 996.819 308.707 996.819 308.707Z" fill="#D8D8D8"/>
</g>
<path fill-rule="evenodd" clip-rule="evenodd" d="M967.533 327.945C966.482 327.468 964.078 325.483 962.723 327.422C960.165 327.169 957.45 327.177 956.274 327.331C954.268 327.592 952.451 328.692 951.457 328.869C950.462 329.045 951.817 330.551 953.058 330.102C954.299 329.653 956.512 329.052 957.194 329.155C957.877 329.257 959.213 329.62 959.213 329.62C959.213 329.62 956.657 330.162 956.052 330.723C955.447 331.285 955.546 333.432 955.12 334.308C954.694 335.184 956.118 335.328 956.41 334.656C956.41 334.656 956.573 335.476 956.63 335.85C956.703 336.332 956.679 336.913 956.875 336.968C957.398 337.112 958.353 336.54 958.098 335.338C958.098 335.338 958.605 335.798 959.054 336.438C959.502 337.078 960.198 336.217 959.986 335.521C959.773 334.825 959.433 334.355 959.433 334.355C959.433 334.355 963.68 335.913 965.346 335.891C967.012 335.87 969.105 334.326 969.105 334.326L982.481 338.698L984.032 332.728C984.032 332.728 970.076 329.099 967.533 327.945Z" fill="#FFBBB0"/>
<mask id="mask13_463_3351" style="mask-type:alpha" maskUnits="userSpaceOnUse" x="951" y="326" width="34" height="13">
<path fill-rule="evenodd" clip-rule="evenodd" d="M967.533 327.945C966.482 327.468 964.078 325.483 962.723 327.422C960.165 327.169 957.45 327.177 956.274 327.331C954.268 327.592 952.451 328.692 951.457 328.869C950.462 329.045 951.817 330.551 953.058 330.102C954.299 329.653 956.512 329.052 957.194 329.155C957.877 329.257 959.213 329.62 959.213 329.62C959.213 329.62 956.657 330.162 956.052 330.723C955.447 331.285 955.546 333.432 955.12 334.308C954.694 335.184 956.118 335.328 956.41 334.656C956.41 334.656 956.573 335.476 956.63 335.85C956.703 336.332 956.679 336.913 956.875 336.968C957.398 337.112 958.353 336.54 958.098 335.338C958.098 335.338 958.605 335.798 959.054 336.438C959.502 337.078 960.198 336.217 959.986 335.521C959.773 334.825 959.433 334.355 959.433 334.355C959.433 334.355 963.68 335.913 965.346 335.891C967.012 335.87 969.105 334.326 969.105 334.326L982.481 338.698L984.032 332.728C984.032 332.728 970.076 329.099 967.533 327.945Z" fill="white"/>
</mask>
<g mask="url(#mask13_463_3351)">
<path fill-rule="evenodd" clip-rule="evenodd" d="M956.411 334.656C956.411 334.656 955.864 331.623 957.068 331.105C958.273 330.587 958.962 330.331 958.962 330.331C958.962 330.331 956.608 330.361 956.2 331.177C956.017 331.542 955.504 334.104 955.629 335.023C956.219 335.091 956.411 334.656 956.411 334.656Z" fill="#F29E98"/>
<path fill-rule="evenodd" clip-rule="evenodd" d="M958.1 335.313C958.1 335.313 956.69 333.372 957.001 332.644C957.313 331.917 959.115 331.315 959.115 331.315C959.115 331.315 957.489 331.128 956.861 332.186C956.527 332.749 956.92 333.896 957.421 335.521C957.548 335.93 957.571 336.796 957.571 336.796C957.571 336.796 957.942 336.569 958.052 336.088C958.163 335.607 958.1 335.313 958.1 335.313Z" fill="#F29E98"/>
<path fill-rule="evenodd" clip-rule="evenodd" d="M962.723 327.422L964.609 327.489L962.697 326.271L962.723 327.422Z" fill="#F29E98"/>
</g>
<path fill-rule="evenodd" clip-rule="evenodd" d="M974.977 329.188C974.948 329.196 972.758 327.396 970.946 329.187C969.134 330.977 969.345 335.554 972.037 335.51C974.728 335.466 975.006 329.179 974.977 329.188Z" fill="#D8D8D8"/>
<path fill-rule="evenodd" clip-rule="evenodd" d="M996.249 306.752C996.249 306.752 992.856 310.637 993.063 319.742C993.269 328.846 992.109 331.429 992.109 331.429C992.109 331.429 979.16 330.723 976.35 329.095C973.54 327.467 971.934 330.768 971.705 332.775C971.477 334.782 970.963 337.19 976.578 338.918C982.193 340.645 997.402 342.57 1000.03 338.031C1002.66 333.493 1002.81 318.086 1001.69 314.409C1000.56 310.733 996.249 306.752 996.249 306.752Z" fill="#FFFEFE"/>
<mask id="mask14_463_3351" style="mask-type:alpha" maskUnits="userSpaceOnUse" x="971" y="306" width="32" height="35">
<path fill-rule="evenodd" clip-rule="evenodd" d="M996.249 306.752C996.249 306.752 992.856 310.637 993.063 319.742C993.269 328.846 992.109 331.429 992.109 331.429C992.109 331.429 979.16 330.723 976.35 329.095C973.54 327.467 971.934 330.768 971.705 332.775C971.477 334.782 970.963 337.19 976.578 338.918C982.193 340.645 997.402 342.57 1000.03 338.031C1002.66 333.493 1002.81 318.086 1001.69 314.409C1000.56 310.733 996.249 306.752 996.249 306.752Z" fill="white"/>
</mask>
<g mask="url(#mask14_463_3351)">
<path fill-rule="evenodd" clip-rule="evenodd" d="M1002.15 316.671C1002.15 316.671 1001.71 318.529 1001.92 327.634C1001.41 332.576 1001.03 339.271 996.473 339.857C991.916 340.444 986.112 340.682 979.714 339.199C973.317 337.716 972.186 335.566 971.146 335.592C970.918 337.6 978.485 346.543 984.1 348.27C989.715 349.998 1004.92 351.922 1007.55 347.383C1010.18 342.845 1010.33 327.438 1009.21 323.762C1008.09 320.085 1002.15 316.671 1002.15 316.671Z" fill="#D8D8D8"/>
</g>
<path fill-rule="evenodd" clip-rule="evenodd" d="M1017.52 294.766C1013.29 294.544 1010.04 290.928 1010.26 286.69C1010.48 282.451 1014.09 279.196 1018.33 279.418C1022.56 279.641 1025.81 283.256 1025.59 287.495C1025.37 291.733 1021.76 294.988 1017.52 294.766Z" fill="#181E36"/>
<path fill-rule="evenodd" clip-rule="evenodd" d="M1016.6 435.247C1016.21 434.708 1015.9 434.691 1014.66 435.641C1013.2 436.767 1007.78 438.556 1005.45 439.033C1003.95 439.338 1000.24 439.334 1000.39 438.767C1000.55 438.169 1001.21 438.153 1001.38 437.965C1001.71 437.598 995.694 440.109 994.331 441.088C992.968 442.066 992.87 443.933 999.542 445.735C1000.22 445.919 1003.99 445.672 1005.3 445.231C1008.24 444.244 1009.61 442.286 1012.71 442.052L1013.74 448.068C1013.74 448.068 1014.7 448.661 1015.52 447.963C1015.52 447.963 1017.12 439.236 1017.2 437.8C1017.27 436.364 1016.81 435.529 1016.6 435.247Z" fill="#181E36"/>
<path fill-rule="evenodd" clip-rule="evenodd" d="M737.922 509.676L781.871 535.076L776.222 537.511V546.744L848.249 550.116V540.916L841.323 510.074L828.235 517.68L776.222 488.208L737.922 500.076V509.676Z" fill="#80B1FF"/>
<path fill-rule="evenodd" clip-rule="evenodd" d="M737.922 500.075L789.238 530.027L776.222 537.511L848.248 540.916L841.322 500.478L828.235 508.159L776.222 478.395L737.922 500.075Z" fill="#CBDFFF"/>
<path fill-rule="evenodd" clip-rule="evenodd" d="M777.778 467.587L828.931 497.624L867.86 475.23V467.234L815.956 445.844L828.931 438.446V430.45L761.128 432.4V477.106L777.778 467.587Z" fill="url(#paint26_linear_463_3351)"/>
<path fill-rule="evenodd" clip-rule="evenodd" d="M777.778 459.591L828.931 489.628L867.859 467.234L815.956 437.848L828.931 430.45L761.128 424.404V469.11L777.778 459.591Z" fill="#80B1FF"/>
<defs>
<linearGradient id="paint0_linear_463_3351" x1="1154.28" y1="260.902" x2="721.956" y2="291.34" gradientUnits="userSpaceOnUse">
<stop stop-color="#7187B5"/>
<stop offset="1" stop-color="#BFCDED"/>
</linearGradient>
<linearGradient id="paint1_linear_463_3351" x1="818.067" y1="510.105" x2="1183.34" y2="458.106" gradientUnits="userSpaceOnUse">
<stop stop-color="#C4D5FF"/>
<stop offset="0.499857" stop-color="#C9DDFF"/>
<stop offset="0.5319" stop-color="#E1ECFF"/>
<stop offset="1" stop-color="#D5E1FF"/>
</linearGradient>
<linearGradient id="paint2_linear_463_3351" x1="1067.05" y1="194.926" x2="730.824" y2="414.358" gradientUnits="userSpaceOnUse">
<stop stop-color="#C0E1FF"/>
<stop offset="1" stop-color="white"/>
</linearGradient>
<linearGradient id="paint3_linear_463_3351" x1="874.698" y1="465.402" x2="1186.97" y2="436.451" gradientUnits="userSpaceOnUse">
<stop stop-color="#6D94E7"/>
<stop offset="1" stop-color="#7E9EEF"/>
</linearGradient>
<linearGradient id="paint4_linear_463_3351" x1="953.139" y1="368.806" x2="940.97" y2="448.728" gradientUnits="userSpaceOnUse">
<stop stop-color="#6D7FE7"/>
<stop offset="1" stop-color="#4E60CD"/>
</linearGradient>
<linearGradient id="paint5_linear_463_3351" x1="986.449" y1="344.78" x2="782.727" y2="384.652" gradientUnits="userSpaceOnUse">
<stop stop-color="#4F6FCE"/>
<stop offset="1" stop-color="#3B3B5D"/>
</linearGradient>
<linearGradient id="paint6_linear_463_3351" x1="1109.78" y1="-32.8951" x2="840.324" y2="43.8459" gradientUnits="userSpaceOnUse">
<stop stop-color="#C0E1FF"/>
<stop offset="1" stop-color="white"/>
</linearGradient>
<linearGradient id="paint7_linear_463_3351" x1="1155.01" y1="12.7204" x2="831.33" y2="41.1926" gradientUnits="userSpaceOnUse">
<stop stop-color="#4F6FCE"/>
<stop offset="1" stop-color="#3B3B5D"/>
</linearGradient>
<linearGradient id="paint8_linear_463_3351" x1="1139.69" y1="294.864" x2="1146.55" y2="308.309" gradientUnits="userSpaceOnUse">
<stop stop-color="#FB6464"/>
<stop offset="1" stop-color="#FA4E40"/>
</linearGradient>
<linearGradient id="paint9_linear_463_3351" x1="846.864" y1="317.428" x2="908.291" y2="346.876" gradientUnits="userSpaceOnUse">
<stop stop-color="#15539E"/>
<stop offset="1" stop-color="#092965"/>
</linearGradient>
<linearGradient id="paint10_linear_463_3351" x1="900.082" y1="278.088" x2="888.008" y2="236.463" gradientUnits="userSpaceOnUse">
<stop stop-color="#15539E"/>
<stop offset="1" stop-color="#092965"/>
</linearGradient>
<linearGradient id="paint11_linear_463_3351" x1="882.43" y1="229.838" x2="877.909" y2="222.274" gradientUnits="userSpaceOnUse">
<stop stop-color="#BED4EB"/>
<stop offset="1" stop-color="#0041AE"/>
</linearGradient>
<linearGradient id="paint12_linear_463_3351" x1="879.251" y1="298.7" x2="853.84" y2="282.692" gradientUnits="userSpaceOnUse">
<stop stop-color="#1B4A7A"/>
<stop offset="1" stop-color="#0041AE"/>
</linearGradient>
<linearGradient id="paint13_linear_463_3351" x1="877.131" y1="216.516" x2="875.717" y2="219.139" gradientUnits="userSpaceOnUse">
<stop stop-color="#F3A6A6"/>
<stop offset="1" stop-color="#FCCBCB"/>
</linearGradient>
<linearGradient id="paint14_linear_463_3351" x1="891.19" y1="228.556" x2="886.846" y2="269.825" gradientUnits="userSpaceOnUse">
<stop stop-color="#15539E"/>
<stop offset="1" stop-color="#092965"/>
</linearGradient>
<linearGradient id="paint15_linear_463_3351" x1="869.93" y1="236.592" x2="863.065" y2="227.358" gradientUnits="userSpaceOnUse">
<stop stop-color="#BED4EB"/>
<stop offset="1" stop-color="#CEDBF0"/>
</linearGradient>
<linearGradient id="paint16_linear_463_3351" x1="883.77" y1="216.139" x2="878.236" y2="268.715" gradientUnits="userSpaceOnUse">
<stop stop-color="#15539E"/>
<stop offset="1" stop-color="#092965"/>
</linearGradient>
<linearGradient id="paint17_linear_463_3351" x1="897.795" y1="215.151" x2="892.392" y2="266.473" gradientUnits="userSpaceOnUse">
<stop stop-color="#15539E"/>
<stop offset="1" stop-color="#092965"/>
</linearGradient>
<linearGradient id="paint18_linear_463_3351" x1="877.272" y1="203.207" x2="885.743" y2="217.166" gradientUnits="userSpaceOnUse">
<stop stop-color="#FCCBCB"/>
<stop offset="1" stop-color="#E77575"/>
</linearGradient>
<linearGradient id="paint19_linear_463_3351" x1="873.888" y1="196.81" x2="874.794" y2="206.635" gradientUnits="userSpaceOnUse">
<stop stop-color="#0C3564"/>
<stop offset="1" stop-color="#BFA5B1"/>
</linearGradient>
<linearGradient id="paint20_linear_463_3351" x1="868.284" y1="205.194" x2="866.187" y2="204.871" gradientUnits="userSpaceOnUse">
<stop stop-color="#FCCBCB"/>
<stop offset="1" stop-color="#E77575"/>
</linearGradient>
<linearGradient id="paint21_linear_463_3351" x1="898.279" y1="292.66" x2="898.956" y2="295.295" gradientUnits="userSpaceOnUse">
<stop stop-color="#F3A6A6"/>
<stop offset="1" stop-color="#FCCBCB"/>
</linearGradient>
<linearGradient id="paint22_linear_463_3351" x1="878.609" y1="291.852" x2="893.255" y2="251.18" gradientUnits="userSpaceOnUse">
<stop stop-color="#15539E"/>
<stop offset="1" stop-color="#092965"/>
</linearGradient>
<linearGradient id="paint23_linear_463_3351" x1="1003.93" y1="287.217" x2="1005.45" y2="287.152" gradientUnits="userSpaceOnUse">
<stop stop-color="#F8A29B"/>
<stop offset="1" stop-color="#C47770"/>
</linearGradient>
<linearGradient id="paint24_linear_463_3351" x1="1030.2" y1="331.956" x2="1027.12" y2="390.497" gradientUnits="userSpaceOnUse">
<stop stop-color="#8EBBFF"/>
<stop offset="1" stop-color="#5586FF"/>
</linearGradient>
<linearGradient id="paint25_linear_463_3351" x1="1024.77" y1="299.927" x2="1022.71" y2="339.167" gradientUnits="userSpaceOnUse">
<stop stop-color="white"/>
<stop offset="1" stop-color="#F0F0F0"/>
</linearGradient>
<linearGradient id="paint26_linear_463_3351" x1="863.889" y1="417.421" x2="729.369" y2="441.264" gradientUnits="userSpaceOnUse">
<stop stop-color="#4F6FCE"/>
<stop offset="1" stop-color="#3B3B5D"/>
</linearGradient>
</defs>
</svg>
