<svg width="1440" height="690" viewBox="0 0 1440 690" fill="none" xmlns="http://www.w3.org/2000/svg">
<path fill-rule="evenodd" clip-rule="evenodd" d="M1098.95 470.804C1057.26 469.73 1008.98 478.798 977.573 457.174C946.118 435.52 951.617 396.49 943.997 364.132C938.161 339.347 938.378 315.387 938.248 290.179C938.092 260.16 922.239 227.121 943.157 202.03C964.287 176.684 1006.19 164.394 1044.61 162.593C1080.16 160.927 1108.2 184.014 1142.06 192.707C1174.55 201.05 1212.53 195.827 1239.29 212.576C1267.96 230.52 1285.36 258.145 1291.94 286.522C1298.66 315.489 1286.88 343.949 1276.29 372.188C1264.08 404.731 1260.72 443.994 1225.53 463.562C1190.26 483.179 1142.11 471.916 1098.95 470.804Z" fill="#1F34E9"/>
<path fill-rule="evenodd" clip-rule="evenodd" d="M999.041 311.515C1035.24 312.354 1068.62 323.271 1098.32 338.113C1128.53 353.205 1159.11 371.005 1168.94 396.415C1178.61 421.384 1166.33 447.953 1149.75 470.986C1135.04 491.425 1106.89 503.118 1081.81 517.487C1055.2 532.738 1032.75 553.728 999.041 557.357C962.97 561.241 924.775 553.506 895.956 537.499C867.602 521.75 850.976 497.098 844.954 471.772C839.461 448.668 856.157 427.295 864.359 404.607C873.268 379.962 869.394 351.084 894.977 333.401C921.638 314.973 961.999 310.656 999.041 311.515Z" fill="#FFCC00"/>
<path fill-rule="evenodd" clip-rule="evenodd" d="M1018.64 316.142C1019.85 315.497 1021.3 315.506 1022.49 316.165L1200.16 413.947V419.858C1200.16 420.579 1199.77 421.245 1199.15 421.606L1086.92 486.565C1085.67 487.29 1084.12 487.29 1082.87 486.566L906.32 384.427C905.696 384.066 905.312 383.4 905.312 382.679L905.312 376.768L1018.64 316.142Z" fill="url(#paint0_linear_463_3351)"/>
<path fill-rule="evenodd" clip-rule="evenodd" d="M1018.64 314.75C1019.85 314.105 1021.3 314.114 1022.49 314.773L1200.16 412.555V418.466C1200.16 419.187 1199.77 419.853 1199.15 420.214L1086.92 485.173C1085.67 485.897 1084.12 485.898 1082.87 485.174L906.32 383.035C905.696 382.674 905.312 382.008 905.312 381.287L905.312 375.376L1018.64 314.75Z" fill="url(#paint1_linear_463_3351)"/>
<path fill-rule="evenodd" clip-rule="evenodd" d="M1018.55 308.818C1019.8 308.097 1021.34 308.097 1022.59 308.819L1199.15 410.806C1200.5 411.583 1200.5 413.526 1199.15 414.304L1086.92 479.113C1085.67 479.835 1084.13 479.835 1082.88 479.113L906.318 377.125C904.972 376.348 904.972 374.405 906.318 373.628L1018.55 308.818Z" fill="url(#paint2_linear_463_3351)"/>
<path opacity="0.246257" fill-rule="evenodd" clip-rule="evenodd" d="M1027.96 323.358C1026.85 322.711 1025.48 322.723 1024.39 323.388L989.279 344.772C988.525 345.232 988.541 346.332 989.308 346.769L1133.08 428.668C1135.2 429.877 1137.8 429.884 1139.93 428.686L1172.73 410.23C1173.51 409.791 1173.52 408.672 1172.75 408.219L1027.96 323.358Z" fill="url(#paint3_linear_463_3351)"/>
<path fill-rule="evenodd" clip-rule="evenodd" d="M1013.77 375.787C1014.22 375.532 1014.77 375.532 1015.21 375.787L1079.12 412.214C1079.61 412.493 1079.61 413.199 1079.12 413.478L1038.49 436.626C1038.05 436.88 1037.5 436.88 1037.05 436.626L973.15 400.198C972.661 399.919 972.661 399.214 973.15 398.935L1013.77 375.787Z" fill="url(#paint4_linear_463_3351)"/>
<mask id="mask0_463_3351" style="mask-type:alpha" maskUnits="userSpaceOnUse" x="972" y="375" width="108" height="62">
<path fill-rule="evenodd" clip-rule="evenodd" d="M1013.77 375.787C1014.22 375.532 1014.77 375.532 1015.21 375.787L1079.12 412.214C1079.61 412.493 1079.61 413.199 1079.12 413.478L1038.49 436.626C1038.05 436.88 1037.5 436.88 1037.05 436.626L973.15 400.198C972.661 399.919 972.661 399.214 973.15 398.935L1013.77 375.787Z" fill="white"/>
</mask>
<g mask="url(#mask0_463_3351)">
<path fill-rule="evenodd" clip-rule="evenodd" d="M1013.77 378.819C1014.22 378.565 1014.77 378.565 1015.21 378.819L1079.12 415.247C1079.61 415.526 1079.61 416.231 1079.12 416.51L1038.5 439.658C1038.05 439.912 1037.5 439.912 1037.06 439.658L973.15 403.23C972.661 402.952 972.661 402.246 973.15 401.967L1013.77 378.819Z" fill="url(#paint5_linear_463_3351)"/>
<rect x="941.601" y="368.59" width="66.486" height="66.486" fill="#C4C4C4"/>
</g>
<path fill-rule="evenodd" clip-rule="evenodd" d="M1024.72 172.566C1025.29 172.337 1025.94 172.382 1026.48 172.689L1203.18 273.921C1204.44 274.641 1205.21 275.978 1205.21 277.426V407.369C1205.21 408.078 1204.84 408.736 1204.23 409.101L1201.72 410.61C1200.76 411.185 1199.56 411.185 1198.6 410.61L1025.52 306.776C1024.33 306.063 1023.59 304.791 1023.56 303.405L1020.62 176.327C1020.59 175.063 1021.35 173.914 1022.53 173.444L1024.72 172.566Z" fill="#80B1FF"/>
<path fill-rule="evenodd" clip-rule="evenodd" d="M1020.57 175.702C1020.57 174.147 1022.26 173.175 1023.6 173.953L1200.16 275.94C1201.41 276.662 1202.18 277.995 1202.18 279.438V409.056C1202.18 410.611 1200.5 411.583 1199.15 410.805L1022.59 308.818C1021.34 308.097 1020.57 306.763 1020.57 305.321V175.702Z" fill="url(#paint6_linear_463_3351)"/>
<path fill-rule="evenodd" clip-rule="evenodd" d="M1027.65 185.344L1194.48 281.961V399.637L1027.65 303.019V185.344Z" fill="url(#paint7_linear_463_3351)"/>
<path fill-rule="evenodd" clip-rule="evenodd" d="M1008.77 184.268C1006.18 182.749 1002.91 184.617 1002.91 187.62V268.237C1002.91 272.381 1005.11 276.214 1008.69 278.303L1105.15 334.64C1107.75 336.153 1111 334.285 1111 331.285V250.905C1111 246.769 1108.81 242.943 1105.24 240.85L1008.77 184.268Z" fill="#C7DCFF"/>
<path fill-rule="evenodd" clip-rule="evenodd" d="M1011.96 202.737L1022.85 208.943V265.26L1011.96 259.054V202.737Z" fill="#528BE1"/>
<path fill-rule="evenodd" clip-rule="evenodd" d="M1031.4 214.47L1042.29 220.676V276.211L1031.4 270.005V214.47Z" fill="#528BE1"/>
<path fill-rule="evenodd" clip-rule="evenodd" d="M1050.84 224.638L1061.73 230.844V287.161L1050.84 280.955V224.638Z" fill="#528BE1"/>
<path fill-rule="evenodd" clip-rule="evenodd" d="M1070.28 235.589L1081.17 241.795V298.111L1070.28 291.906L1070.28 235.589Z" fill="#528BE1"/>
<path fill-rule="evenodd" clip-rule="evenodd" d="M1089.72 245.757L1100.61 251.963V306.716L1089.72 300.51L1089.72 245.757Z" fill="#528BE1"/>
<path fill-rule="evenodd" clip-rule="evenodd" d="M1011.96 253.53L1022.85 259.736V274.646L1011.96 268.44L1011.96 253.53Z" fill="white"/>
<path fill-rule="evenodd" clip-rule="evenodd" d="M1031.4 239.182L1042.29 245.388V285.597L1031.4 279.391V239.182Z" fill="white"/>
<path fill-rule="evenodd" clip-rule="evenodd" d="M1050.84 259.054L1061.73 265.26V296.547L1050.84 290.341V259.054Z" fill="white"/>
<path fill-rule="evenodd" clip-rule="evenodd" d="M1070.28 260.618L1081.17 266.824V307.497L1070.28 301.291L1070.28 260.618Z" fill="white"/>
<path fill-rule="evenodd" clip-rule="evenodd" d="M1089.72 255.143L1100.61 261.349V316.101L1089.72 309.895L1089.72 255.143Z" fill="white"/>
<path fill-rule="evenodd" clip-rule="evenodd" d="M1130.11 256.99C1127.52 255.471 1124.26 257.339 1124.26 260.342V340.959C1124.26 345.103 1126.46 348.935 1130.04 351.025L1226.5 407.362C1229.09 408.875 1232.35 407.006 1232.35 404.006V323.627C1232.35 319.491 1230.15 315.664 1226.59 313.572L1130.11 256.99Z" fill="#C7DCFF"/>
<path fill-rule="evenodd" clip-rule="evenodd" d="M1133.31 334.44L1144.19 340.646V347.368L1133.31 341.162V334.44Z" fill="#98BDF4"/>
<path fill-rule="evenodd" clip-rule="evenodd" d="M1152.75 336.469L1163.63 342.675V358.319L1152.75 352.113V336.469Z" fill="#98BDF4"/>
<path fill-rule="evenodd" clip-rule="evenodd" d="M1172.19 352.247L1183.07 358.453V369.269L1172.19 363.063V352.247Z" fill="#98BDF4"/>
<path fill-rule="evenodd" clip-rule="evenodd" d="M1191.63 345.623L1202.51 351.828V380.219L1191.63 374.013L1191.63 345.623Z" fill="#98BDF4"/>
<path fill-rule="evenodd" clip-rule="evenodd" d="M1211.07 340.147L1221.95 346.353V388.823L1211.07 382.617L1211.07 340.147Z" fill="#98BDF4"/>
<path d="M1221.95 332.167C1221.95 332.167 1214.08 328.678 1199.76 332.167C1185.44 335.656 1182.37 345.429 1171.27 334.44C1160.17 323.451 1158.19 324.958 1133.31 327.39" stroke="white" stroke-width="4.08845" stroke-linecap="round"/>
<path fill-rule="evenodd" clip-rule="evenodd" d="M1180.32 343.389C1179.04 344.041 1176.99 342.568 1175.73 340.098C1174.48 337.628 1174.49 335.096 1175.77 334.444C1177.05 333.791 1179.11 335.265 1180.36 337.735C1181.62 340.205 1181.6 342.736 1180.32 343.389Z" fill="url(#paint8_linear_463_3351)"/>
<path d="M1181 344.714C1179.61 345.421 1178.14 344.835 1177.15 344.124C1176.09 343.363 1175.12 342.176 1174.41 340.773C1173.69 339.371 1173.31 337.886 1173.32 336.58C1173.32 335.357 1173.71 333.826 1175.1 333.119C1176.48 332.411 1177.95 332.997 1178.94 333.709C1180 334.469 1180.97 335.656 1181.69 337.059C1182.4 338.462 1182.79 339.946 1182.78 341.253C1182.77 342.475 1182.38 344.006 1181 344.714Z" stroke="white" stroke-opacity="0.285621" stroke-width="2.97342"/>
<path fill-rule="evenodd" clip-rule="evenodd" d="M992.362 380.035C992.362 380.035 990.164 380.778 990.584 383.813C991.003 386.847 992.605 385.789 993.378 388.588C994.151 391.388 996.667 393.722 998.067 394.126C999.466 394.531 1002.2 395.048 1002.75 392.791C1003.3 390.535 992.362 380.035 992.362 380.035Z" fill="#30334F"/>
<path fill-rule="evenodd" clip-rule="evenodd" d="M993.084 379.232C993.084 379.232 989.819 381.797 992.553 385.733C995.287 389.668 995.352 393.251 1000.02 393.654C1004.69 394.057 1002.52 391.067 1001.06 388.853C999.329 386.517 998.664 381.402 998.664 381.402L993.084 379.232Z" fill="#181E36"/>
<path fill-rule="evenodd" clip-rule="evenodd" d="M1015.25 315.023C1015.25 315.023 1019.79 343.625 1019.29 353.603C1018.79 363.581 998.551 383.605 998.551 383.605C998.551 383.605 993.433 383.245 992.404 378.831L1005.93 353.603L999.345 316.19L1015.25 315.023Z" fill="#092965"/>
<mask id="mask1_463_3351" style="mask-type:alpha" maskUnits="userSpaceOnUse" x="992" y="315" width="28" height="69">
<path fill-rule="evenodd" clip-rule="evenodd" d="M1015.25 315.023C1015.25 315.023 1019.79 343.625 1019.29 353.603C1018.79 363.581 998.551 383.605 998.551 383.605C998.551 383.605 993.433 383.245 992.404 378.831L1005.93 353.603L999.345 316.19L1015.25 315.023Z" fill="white"/>
</mask>
<g mask="url(#mask1_463_3351)">
</g>
<path fill-rule="evenodd" clip-rule="evenodd" d="M1014.79 401.263C1014.79 401.263 1014.46 402.213 1014.57 403.452C1014.68 404.691 1018.43 405.84 1019.25 406.192C1020.06 406.544 1020.95 409.999 1025.5 410.775C1030.04 411.551 1031.91 410.156 1031.56 408.593C1031.21 407.03 1014.79 401.263 1014.79 401.263Z" fill="#30334F"/>
<path fill-rule="evenodd" clip-rule="evenodd" d="M1022.26 395.264C1022.26 395.264 1026.25 402.045 1030.18 405.933C1034.12 409.822 1028.71 410.715 1024.97 409.822C1021.23 408.929 1020.49 405.188 1018.54 404.585C1017.78 404.35 1014.92 403.134 1014.61 401.642C1014.39 400.593 1015.38 396.634 1015.38 396.634" fill="#181E36"/>
<path fill-rule="evenodd" clip-rule="evenodd" d="M989.788 318.329C989.788 318.329 989.782 330.298 993.253 338.131C994.342 340.586 1000.59 349.248 1003.46 357.201C1006.7 366.158 1014.54 396.869 1014.54 396.869C1014.54 396.869 1015.71 399.183 1019.25 398.805C1022.79 398.428 1023.36 396.254 1023.36 396.254C1023.36 396.254 1018.12 360.127 1015.02 350.399C1011.92 340.671 1006.77 315.544 1006.77 315.544L989.788 318.329Z" fill="url(#paint9_linear_463_3351)"/>
<path d="M991.304 327.305C991.304 327.305 999.04 346.254 1006.11 357.288C1008.2 360.729 1015.94 398.603 1015.94 398.603" stroke="#1C478A" stroke-width="0.459215"/>
<path fill-rule="evenodd" clip-rule="evenodd" d="M1013.83 278.752C1015.59 278.937 1024.86 308.043 1024.86 308.043L1037.09 323.997C1037.09 323.997 1035.8 323.366 1034.41 324.196C1033.03 325.026 1031.32 326.17 1031.32 326.17C1031.32 326.17 1020.43 315.935 1018.65 313.888C1016.87 311.84 1010.27 289.821 1010.65 286.204C1011.03 282.587 1012.08 278.567 1013.83 278.752Z" fill="url(#paint10_linear_463_3351)"/>
<mask id="mask2_463_3351" style="mask-type:alpha" maskUnits="userSpaceOnUse" x="1010" y="278" width="28" height="49">
<path fill-rule="evenodd" clip-rule="evenodd" d="M1013.83 278.752C1015.59 278.937 1024.86 308.043 1024.86 308.043L1037.09 323.997C1037.09 323.997 1035.8 323.366 1034.41 324.196C1033.03 325.026 1031.32 326.17 1031.32 326.17C1031.32 326.17 1020.43 315.935 1018.65 313.888C1016.87 311.84 1010.27 289.821 1010.65 286.204C1011.03 282.587 1012.08 278.567 1013.83 278.752Z" fill="white"/>
</mask>
<g mask="url(#mask2_463_3351)">
<path fill-rule="evenodd" clip-rule="evenodd" d="M1012.99 309.742C1012.99 309.742 1018.47 301.539 1017.31 296.976C1016.15 292.413 1014.01 285.824 1014.26 283.498C1014.5 281.173 1008.3 285.211 1008.3 285.211L1012.99 309.742Z" fill="#0B224E"/>
</g>
<path fill-rule="evenodd" clip-rule="evenodd" d="M1000.04 280.867C996.039 283.117 989.002 287.731 987.677 289.459C986.353 291.187 988.52 299.338 990.34 303.093C992.159 306.848 990.634 317.129 989.49 319.906C989.179 320.661 1000.16 324.52 1007.84 321.231C1014.44 318.402 1014.2 315.072 1013.61 311.942C1013.02 308.811 1013.5 304.213 1013.5 304.213C1013.5 304.213 1014.84 291.829 1014.42 288.986C1014 286.143 1015.49 279.828 1014.21 278.956C1012.93 278.084 1004.04 278.616 1000.04 280.867Z" fill="white"/>
<mask id="mask3_463_3351" style="mask-type:alpha" maskUnits="userSpaceOnUse" x="987" y="278" width="28" height="45">
<path fill-rule="evenodd" clip-rule="evenodd" d="M1000.04 280.867C996.039 283.117 989.002 287.731 987.677 289.459C986.353 291.187 988.52 299.338 990.34 303.093C992.159 306.848 990.634 317.129 989.49 319.906C989.179 320.661 1000.16 324.52 1007.84 321.231C1014.44 318.402 1014.2 315.072 1013.61 311.942C1013.02 308.811 1013.5 304.213 1013.5 304.213C1013.5 304.213 1014.84 291.829 1014.42 288.986C1014 286.143 1015.49 279.828 1014.21 278.956C1012.93 278.084 1004.04 278.616 1000.04 280.867Z" fill="white"/>
</mask>
<g mask="url(#mask3_463_3351)">
<path fill-rule="evenodd" clip-rule="evenodd" d="M1006.02 287.041L1011.31 288.397C1011.31 288.397 1009.31 282.925 1007.61 281.332C1005.9 279.739 1006.03 281.334 1006.03 281.334C1006.03 281.334 1006.44 281.778 1006.51 283.492C1006.58 285.207 1006.02 287.041 1006.02 287.041Z" fill="url(#paint11_linear_463_3351)" fill-opacity="0.2"/>
<g style="mix-blend-mode:multiply">
<path fill-rule="evenodd" clip-rule="evenodd" d="M1004.7 279.224C1007.49 280.216 1009.83 285.978 1011.37 292.648C1012.92 299.318 1012.33 303.591 1011.13 308.828C1010.54 311.393 1009.79 314.106 1009.68 316.248C1009.58 318.478 1009.59 320.546 1010.09 321.528C1011.06 323.454 1015.18 327.023 1015.18 327.023C1015.18 327.023 1011.66 322.52 1011.98 318.838C1012.29 315.156 1016.49 302.84 1016.41 298.657C1016.34 294.474 1014.64 290.418 1014.56 287.078C1014.48 283.738 1015.47 279.987 1014.25 278.975C1013.03 277.963 1008.71 278.462 1004.7 279.224Z" fill="url(#paint12_linear_463_3351)" fill-opacity="0.2"/>
</g>
<path fill-rule="evenodd" clip-rule="evenodd" d="M997.242 280.738C994.851 282.109 997.009 285.372 1000.68 286.453C1003.28 287.221 1005.89 288.672 1005.89 288.672C1005.89 288.672 1006.66 285.591 1006.66 284.16C1006.67 279.182 1002.54 277.279 1002.54 277.279C1002.54 277.279 999.632 279.367 997.242 280.738Z" fill="url(#paint13_linear_463_3351)"/>
<path fill-rule="evenodd" clip-rule="evenodd" d="M1004.79 289.364L1005.78 313.558L1009.18 316.531L1010.47 311.992L1006.79 288.537L1004.79 289.364Z" fill="url(#paint14_linear_463_3351)"/>
<path fill-rule="evenodd" clip-rule="evenodd" d="M1004.21 287.45L1006.38 287.03L1007.6 287.445L1006.96 289.566L1004.79 290.033L1003.05 288.711L1004.21 287.45Z" fill="#092965"/>
<path fill-rule="evenodd" clip-rule="evenodd" d="M1004.21 287.449L1000.88 291.791C1000.88 291.791 996.705 284.133 998.034 281.068C998.034 281.068 998.214 284.38 1000.21 285.598C1002.21 286.817 1004.21 287.449 1004.21 287.449Z" fill="url(#paint15_linear_463_3351)"/>
</g>
<path fill-rule="evenodd" clip-rule="evenodd" d="M998.376 281.821C997.649 283.129 1001.71 293.052 1002.78 298.781C1003.85 304.511 1004.16 314.418 1004.42 320.102C1004.56 323.074 1006.16 329.387 1006.16 329.387C1006.16 329.387 993.107 332.388 988.064 325.355C988.782 323.029 988.786 319.412 989.632 315.446C990.477 311.481 990.945 303.67 988.083 296.729C987.084 290.146 986.887 289.825 986.887 289.825C986.887 289.825 989.727 286.706 998.376 281.821Z" fill="#092965"/>
<mask id="mask4_463_3351" style="mask-type:alpha" maskUnits="userSpaceOnUse" x="986" y="281" width="21" height="50">
<path fill-rule="evenodd" clip-rule="evenodd" d="M998.376 281.821C997.649 283.129 1001.71 293.052 1002.78 298.781C1003.85 304.511 1004.16 314.418 1004.42 320.102C1004.56 323.074 1006.16 329.387 1006.16 329.387C1006.16 329.387 993.107 332.388 988.064 325.355C988.782 323.029 988.786 319.412 989.632 315.446C990.477 311.481 990.945 303.67 988.083 296.729C987.084 290.146 986.887 289.825 986.887 289.825C986.887 289.825 989.727 286.706 998.376 281.821Z" fill="white"/>
</mask>
<g mask="url(#mask4_463_3351)">
<path fill-rule="evenodd" clip-rule="evenodd" d="M1003.53 314.419C1002.98 304.881 996.473 301.402 996.473 301.402L998.891 295.891L995.466 294.687C995.466 294.687 996.744 287.855 996.877 285.411C997.01 282.967 997.206 282.392 997.206 282.392L998.225 280.686C998.225 280.686 1000.15 279.485 1001.52 279.356C1002.9 279.227 999.584 281.317 999.584 281.317C999.584 281.317 999.069 281.3 998.696 281.675C998.323 282.05 1005.34 300 1005.34 300C1005.34 300 1004.09 323.957 1003.53 314.419Z" fill="#0B224E"/>
</g>
<path fill-rule="evenodd" clip-rule="evenodd" d="M996.877 285.411C996.789 287.04 996.308 289.523 995.435 292.859L999.089 295.027L996.869 299.672C999.564 304.781 1003.9 309.524 1004.27 315.878C1003.99 309.576 1003.8 304.24 1002.78 298.781C1001.71 293.052 997.646 283.149 998.373 281.841C998.953 280.554 999.826 280.261 999.826 280.261C999.826 280.261 1000 279.954 999.612 280.135C999.221 280.317 998.512 280.64 998.035 281.068C997.58 281.477 997.308 281.839 997.172 282.508C997.056 282.958 996.958 283.926 996.877 285.411Z" fill="url(#paint16_linear_463_3351)"/>
<path fill-rule="evenodd" clip-rule="evenodd" d="M1004.7 279.224C1007.49 280.216 1010.62 285.894 1011.78 292.4C1012.93 298.907 1012.33 303.59 1011.13 308.828C1009.93 314.065 1012.06 318.644 1013.03 320.57C1014 322.496 1015.7 325.71 1015.7 325.71C1015.7 325.71 1016.53 322.916 1016.57 319.173C1016.61 315.43 1014.36 306.952 1014.28 302.769C1014.23 300.098 1014.82 296.751 1014.93 293.125C1014.98 291.072 1014.95 287.908 1014.93 286.701C1014.85 283.361 1015.47 279.987 1014.25 278.974C1013.03 277.962 1008.71 278.461 1004.7 279.224Z" fill="#092965"/>
<path fill-rule="evenodd" clip-rule="evenodd" d="M1004.7 279.224C1007.49 280.216 1010.62 285.894 1011.78 292.4C1012.93 298.907 1012.33 303.591 1011.13 308.828C1010.88 309.892 1010.92 311.399 1010.95 312.592C1010.96 312.956 1010.97 313.29 1010.97 313.574C1010.97 313.739 1010.97 313.902 1010.96 314.063C1011.03 314.149 1011.07 314.113 1011.09 313.941C1011.33 310.931 1015.24 299.53 1015.24 299.53L1013.04 292.56L1014.05 291.386C1014.05 291.386 1008.78 281.268 1005.68 279.045C1005.35 279.102 1005.02 279.162 1004.7 279.224Z" fill="url(#paint17_linear_463_3351)"/>
<path fill-rule="evenodd" clip-rule="evenodd" d="M997.912 273.128C997.912 273.128 998.024 275.246 998.348 277.543C998.672 279.84 998.333 281.365 998.333 281.365C998.333 281.365 998.843 283.92 1001.87 284.993C1004.89 286.067 1005.95 283.891 1005.95 283.891L1005.48 277.993L997.912 273.128Z" fill="#FCCBCB"/>
<mask id="mask5_463_3351" style="mask-type:alpha" maskUnits="userSpaceOnUse" x="997" y="273" width="9" height="13">
<path fill-rule="evenodd" clip-rule="evenodd" d="M997.912 273.128C997.912 273.128 998.024 275.246 998.348 277.543C998.672 279.84 998.333 281.365 998.333 281.365C998.333 281.365 998.843 283.92 1001.87 284.993C1004.89 286.067 1005.95 283.891 1005.95 283.891L1005.48 277.993L997.912 273.128Z" fill="white"/>
</mask>
<g mask="url(#mask5_463_3351)">
<path fill-rule="evenodd" clip-rule="evenodd" d="M1005.79 283.481C1005.79 283.481 1002.38 283.278 1000.66 281.308C998.946 279.338 999.152 275.813 999.152 275.813L1005.93 277.219L1005.79 283.481Z" fill="url(#paint18_linear_463_3351)"/>
</g>
<path fill-rule="evenodd" clip-rule="evenodd" d="M1008.82 268.028C1008.82 268.028 1009.12 269.577 1008.95 273.642C1008.78 277.707 1008.52 280.543 1008.16 281.17C1007.8 281.797 1005.37 282.526 1003.12 281.54C1000.86 280.553 999.731 279.347 999.339 278.402C998.947 277.458 998.501 276.023 997.838 274.108C997.174 272.194 995.353 269.201 996.114 266.961C996.875 264.721 999.3 262.765 1003.01 263.479C1006.72 264.192 1008.82 268.028 1008.82 268.028Z" fill="#FCCBCB"/>
<mask id="mask6_463_3351" style="mask-type:alpha" maskUnits="userSpaceOnUse" x="995" y="263" width="14" height="20">
<path fill-rule="evenodd" clip-rule="evenodd" d="M1008.82 268.028C1008.82 268.028 1009.12 269.577 1008.95 273.642C1008.78 277.707 1008.52 280.543 1008.16 281.17C1007.8 281.797 1005.37 282.526 1003.12 281.54C1000.86 280.553 999.731 279.347 999.339 278.402C998.947 277.458 998.501 276.023 997.838 274.108C997.174 272.194 995.353 269.201 996.114 266.961C996.875 264.721 999.3 262.765 1003.01 263.479C1006.72 264.192 1008.82 268.028 1008.82 268.028Z" fill="white"/>
</mask>
<g mask="url(#mask6_463_3351)">
</g>
<path fill-rule="evenodd" clip-rule="evenodd" d="M1000.92 268.223C1000.92 268.223 1003.44 269.765 1006.26 269.785C1009.07 269.804 1010.27 268.613 1009.93 266.737C1009.59 264.861 1007.16 262.36 1002.56 262.01C997.959 261.661 996.829 265.117 996.829 265.117C996.829 265.117 995.5 265.221 995.29 266.677C995.08 268.133 996.361 272.851 997.18 273.857C997.999 274.863 998.536 273.056 998.536 273.056C998.536 273.056 998.486 274.871 998.882 274.443C999.279 274.016 999.522 274.072 999.434 272.814C999.347 271.557 999.56 270.785 1000.14 270.786C1000.72 270.788 1001.41 269.783 1001.29 269.098C1001.17 268.412 1000.92 268.223 1000.92 268.223Z" fill="#30334F"/>
<mask id="mask7_463_3351" style="mask-type:alpha" maskUnits="userSpaceOnUse" x="995" y="261" width="15" height="14">
<path fill-rule="evenodd" clip-rule="evenodd" d="M1000.92 268.223C1000.92 268.223 1003.44 269.765 1006.26 269.785C1009.07 269.804 1010.27 268.613 1009.93 266.737C1009.59 264.861 1007.16 262.36 1002.56 262.01C997.959 261.661 996.829 265.117 996.829 265.117C996.829 265.117 995.5 265.221 995.29 266.677C995.08 268.133 996.361 272.851 997.18 273.857C997.999 274.863 998.536 273.056 998.536 273.056C998.536 273.056 998.486 274.871 998.882 274.443C999.279 274.016 999.522 274.072 999.434 272.814C999.347 271.557 999.56 270.785 1000.14 270.786C1000.72 270.788 1001.41 269.783 1001.29 269.098C1001.17 268.412 1000.92 268.223 1000.92 268.223Z" fill="white"/>
</mask>
<g mask="url(#mask7_463_3351)">
<path fill-rule="evenodd" clip-rule="evenodd" d="M999.932 271.061C999.932 271.061 997.585 269.459 996.27 269.586C994.954 269.713 994.837 270.835 994.837 270.835C994.837 270.835 997.173 275.935 997.413 275.96C997.653 275.985 1000.24 275.723 1000.24 275.723L999.932 271.061Z" fill="url(#paint19_linear_463_3351)"/>
<path fill-rule="evenodd" clip-rule="evenodd" d="M997.11 265.435L1000.6 268.079C1000.6 268.079 999.237 267.351 998.225 266.691C997.214 266.031 997.11 265.435 997.11 265.435Z" fill="#031120"/>
<path fill-rule="evenodd" clip-rule="evenodd" d="M1002.55 267.534C1002.55 267.534 1006.69 269.23 1008.68 267.018C1006.33 268.682 1002.55 267.534 1002.55 267.534Z" fill="#031120"/>
</g>
<path fill-rule="evenodd" clip-rule="evenodd" d="M998.507 272.175C998.507 272.175 998.375 271.647 997.641 271.335C996.907 271.023 996.218 272.172 996.702 273.339C997.002 274.06 997.252 274.563 997.764 274.992C997.891 275.098 998.151 275.033 998.151 275.033C998.151 275.033 998.254 275.34 998.317 275.51C998.45 274.904 998.515 273.93 998.524 273.531C998.542 272.758 998.507 272.175 998.507 272.175Z" fill="#FCCBCB"/>
<path fill-rule="evenodd" clip-rule="evenodd" d="M998.063 272.366C998.063 272.366 997.673 271.944 997.356 272.035C997.039 272.125 996.852 272.809 997.272 273.446C997.692 274.083 997.942 274.137 997.942 274.137L998.063 272.366Z" fill="url(#paint20_linear_463_3351)"/>
<path fill-rule="evenodd" clip-rule="evenodd" d="M1012.75 331.845C1012.81 331.845 1014.32 337.959 1024.28 338.083C1034.24 338.207 1013.65 328.511 1013.65 328.511C1013.65 328.511 1012.68 331.845 1012.75 331.845Z" fill="url(#paint21_linear_463_3351)"/>
<path fill-rule="evenodd" clip-rule="evenodd" d="M987.273 289.445C982.99 292.891 982.628 302.972 988.22 312.369C993.812 321.765 991.244 319.478 995.444 322.441C999.645 325.404 1013.33 333.936 1013.33 333.936C1013.33 333.936 1014.13 330.241 1017.65 330.241L999.785 314.752C999.785 314.752 991.755 288.929 987.273 289.445Z" fill="url(#paint22_linear_463_3351)"/>
<path fill-rule="evenodd" clip-rule="evenodd" d="M1013.01 331.434C1013.33 331.434 1013.6 331.165 1013.6 330.832C1013.6 330.5 1013.33 330.23 1013.01 330.23C1012.68 330.23 1012.41 330.5 1012.41 330.832C1012.41 331.165 1012.68 331.434 1013.01 331.434Z" fill="#D8D8D8"/>
<path d="M1037.64 349.817C1027.15 349.817 1018.65 344.419 1018.65 337.76C1018.65 336.793 1018.65 334.081 1018.65 334.081C1018.65 334.081 1028.68 325.703 1037.64 325.703C1048.13 325.703 1056.63 331.101 1056.63 337.76C1056.63 344.419 1048.13 349.817 1037.64 349.817Z" fill="#C06100"/>
<path fill-rule="evenodd" clip-rule="evenodd" d="M1037.64 347.365C1027.15 347.365 1018.65 341.967 1018.65 335.308C1018.65 328.649 1027.15 323.25 1037.64 323.25C1048.13 323.25 1056.63 328.649 1056.63 335.308C1056.63 341.967 1048.13 347.365 1037.64 347.365Z" fill="white"/>
<path d="M1037.64 346.561C1027.15 346.561 1018.65 341.068 1018.65 334.293C1018.65 327.517 1027.15 322.024 1037.64 322.024C1048.13 322.024 1056.63 327.517 1056.63 334.293C1056.63 341.068 1048.13 346.561 1037.64 346.561Z" fill="#FFB74F"/>
<path d="M1037.44 344.096C1028.87 344.096 1021.92 339.704 1021.92 334.286C1021.92 328.869 1028.87 324.477 1037.44 324.477C1046.01 324.477 1052.96 328.869 1052.96 334.286C1052.96 339.704 1046.01 344.096 1037.44 344.096Z" fill="#C06100"/>
<mask id="mask8_463_3351" style="mask-type:alpha" maskUnits="userSpaceOnUse" x="1021" y="324" width="32" height="21">
<path d="M1037.44 344.096C1028.87 344.096 1021.92 339.704 1021.92 334.286C1021.92 328.869 1028.87 324.477 1037.44 324.477C1046.01 324.477 1052.96 328.869 1052.96 334.286C1052.96 339.704 1046.01 344.096 1037.44 344.096Z" fill="white"/>
</mask>
<g mask="url(#mask8_463_3351)">
<path d="M1037.44 345.73C1028.87 345.73 1021.92 341.339 1021.92 335.921C1021.92 330.504 1028.87 326.112 1037.44 326.112C1046.01 326.112 1052.96 330.504 1052.96 335.921C1052.96 341.339 1046.01 345.73 1037.44 345.73Z" fill="#FF8900"/>
<path fill-rule="evenodd" clip-rule="evenodd" d="M1046.85 333.756C1046.85 333.756 1045.83 333.196 1045.37 332.853L1046.78 332.298L1046.78 330.664L1045.37 331.219L1044.51 332.225C1044.07 331.972 1043.55 331.758 1042.96 331.585C1042.38 331.411 1041.76 331.296 1041.13 331.238C1040.49 331.181 1039.84 331.192 1039.16 331.272C1038.48 331.353 1037.83 331.517 1037.19 331.765C1036.68 331.967 1036.22 331.914 1035.87 331.873C1035.52 331.832 1035.27 331.802 1035.14 332.041C1034.9 332.522 1035.08 334.114 1035.41 334.724C1035.41 334.724 1031.95 336.366 1031.81 336.06C1031.68 335.753 1031.71 335.433 1031.92 335.099L1028.08 333.758C1027.9 334.313 1028.04 336.121 1028.36 336.632C1028.68 337.143 1028.28 336.947 1028.28 336.947L1028.28 338.582L1029.13 339.211L1030.55 338.656C1031.04 338.941 1031.58 339.18 1032.17 339.375C1032.77 339.57 1033.4 339.698 1034.06 339.76C1034.72 339.821 1035.4 339.807 1036.11 339.716C1036.81 339.625 1037.52 339.44 1038.24 339.16C1039.18 338.79 1039.79 338.359 1040.06 337.868C1040.34 337.377 1040.28 335.404 1040.28 335.404L1039.35 335.208L1042.57 333.947C1042.82 334.161 1043.01 334.391 1043.15 334.639C1043.29 334.886 1043.32 335.141 1043.25 335.404L1046.85 335.391L1046.85 333.756ZM1033.95 337.769C1033.74 337.7 1033.55 337.625 1033.38 337.546L1036.42 336.357L1036.52 336.593C1036.57 336.702 1036.6 336.81 1036.63 336.915C1036.66 337.02 1036.66 337.121 1036.64 337.218C1036.62 337.315 1036.55 337.41 1036.45 337.503C1036.35 337.596 1036.19 337.685 1035.98 337.769C1035.75 337.859 1035.52 337.913 1035.28 337.931C1035.05 337.95 1034.82 337.945 1034.6 337.916C1034.37 337.888 1034.15 337.839 1033.95 337.769Z" fill="#C06100"/>
<path fill-rule="evenodd" clip-rule="evenodd" d="M1045.37 331.218C1045.83 331.561 1046.22 331.953 1046.53 332.395C1046.84 332.838 1046.95 333.291 1046.85 333.755L1043.25 333.768C1043.32 333.505 1043.29 333.25 1043.15 333.003C1043.01 332.756 1042.82 332.525 1042.57 332.312L1039.35 333.572L1040.03 334.708C1040.32 335.233 1040.34 335.741 1040.06 336.232C1039.79 336.724 1039.18 337.154 1038.24 337.524C1037.52 337.804 1036.81 337.99 1036.11 338.08C1035.4 338.171 1034.72 338.186 1034.06 338.124C1033.4 338.063 1032.77 337.934 1032.17 337.74C1031.58 337.545 1031.04 337.305 1030.55 337.02L1029.13 337.575L1028.28 336.946L1029.69 336.391C1029.12 335.972 1028.68 335.507 1028.36 334.996C1028.04 334.485 1027.97 333.952 1028.14 333.397L1031.92 333.463C1031.71 333.797 1031.68 334.118 1031.81 334.424C1031.95 334.73 1032.17 335.021 1032.49 335.298L1035.91 333.958L1035.41 333.088C1035.08 332.479 1035.04 331.934 1035.29 331.453C1035.53 330.972 1036.17 330.531 1037.19 330.129C1037.83 329.881 1038.48 329.717 1039.16 329.637C1039.84 329.556 1040.49 329.545 1041.13 329.602C1041.76 329.66 1042.38 329.775 1042.96 329.949C1043.55 330.123 1044.07 330.336 1044.51 330.589L1045.93 330.034L1046.78 330.663L1045.37 331.218ZM1041.66 331.707C1041.34 331.561 1040.98 331.457 1040.59 331.397C1040.2 331.337 1039.78 331.391 1039.35 331.56C1039.04 331.682 1038.84 331.805 1038.74 331.931C1038.64 332.057 1038.59 332.178 1038.6 332.294C1038.6 332.409 1038.63 332.513 1038.69 332.605C1038.76 332.698 1038.8 332.768 1038.82 332.817L1041.66 331.707ZM1033.95 336.133C1033.74 336.064 1033.55 335.99 1033.38 335.91L1036.42 334.721L1036.52 334.958C1036.57 335.067 1036.6 335.174 1036.63 335.279C1036.66 335.384 1036.66 335.485 1036.64 335.582C1036.62 335.679 1036.55 335.774 1036.45 335.867C1036.35 335.96 1036.19 336.049 1035.98 336.133C1035.75 336.223 1035.52 336.277 1035.28 336.296C1035.05 336.314 1034.82 336.309 1034.6 336.28C1034.37 336.252 1034.15 336.203 1033.95 336.133Z" fill="#FFB74F"/>
</g>
<path fill-rule="evenodd" clip-rule="evenodd" d="M1017.41 334.118C1017.41 334.118 1020.91 333.651 1022.1 334.118C1023.29 334.585 1020.55 335.034 1019.93 335.727C1019.31 336.421 1017.41 334.98 1017.41 334.98V334.118Z" fill="#FCCBCB"/>
<path d="M1072.58 363.574C1083.07 363.574 1091.57 358.176 1091.57 351.517C1091.57 350.55 1091.57 347.838 1091.57 347.838C1091.57 347.838 1081.55 339.459 1072.58 339.459C1062.09 339.459 1053.59 344.858 1053.59 351.517C1053.59 358.176 1062.09 363.574 1072.58 363.574Z" fill="#C06100"/>
<path fill-rule="evenodd" clip-rule="evenodd" d="M1072.58 361.121C1083.07 361.121 1091.57 355.723 1091.57 349.064C1091.57 342.405 1083.07 337.006 1072.58 337.006C1062.09 337.006 1053.59 342.405 1053.59 349.064C1053.59 355.723 1062.09 361.121 1072.58 361.121Z" fill="white"/>
<path d="M1072.58 360.713C1083.07 360.713 1091.57 355.314 1091.57 348.655C1091.57 341.996 1083.07 336.598 1072.58 336.598C1062.09 336.598 1053.59 341.996 1053.59 348.655C1053.59 355.314 1062.09 360.713 1072.58 360.713Z" fill="#FFB74F"/>
<path d="M1072.79 357.851C1081.36 357.851 1088.31 353.46 1088.31 348.042C1088.31 342.625 1081.36 338.233 1072.79 338.233C1064.22 338.233 1057.27 342.625 1057.27 348.042C1057.27 353.46 1064.22 357.851 1072.79 357.851Z" fill="#C06100"/>
<mask id="mask9_463_3351" style="mask-type:alpha" maskUnits="userSpaceOnUse" x="1057" y="338" width="32" height="20">
<path d="M1072.79 357.851C1081.36 357.851 1088.31 353.46 1088.31 348.042C1088.31 342.625 1081.36 338.233 1072.79 338.233C1064.22 338.233 1057.27 342.625 1057.27 348.042C1057.27 353.46 1064.22 357.851 1072.79 357.851Z" fill="white"/>
</mask>
<g mask="url(#mask9_463_3351)">
<path d="M1072.79 359.487C1081.36 359.487 1088.31 355.095 1088.31 349.677C1088.31 344.26 1081.36 339.868 1072.79 339.868C1064.22 339.868 1057.27 344.26 1057.27 349.677C1057.27 355.095 1064.22 359.487 1072.79 359.487Z" fill="#FF8900"/>
<path fill-rule="evenodd" clip-rule="evenodd" d="M1069.4 350.895C1069.37 350.862 1069.33 350.829 1069.3 350.795L1077.02 347.662C1077.3 347.94 1077.5 348.042 1077.5 348.042V349.414L1080.48 349.959C1080.62 349.653 1080.69 349.348 1080.69 349.044C1080.68 348.741 1080.63 348.448 1080.52 348.166C1080.41 347.884 1080.26 347.615 1080.07 347.358C1079.89 347.108 1079.69 346.879 1079.46 346.671L1081.41 345.88V344.526L1080.14 344.779L1078.07 345.635C1077.81 345.487 1077.55 345.35 1077.27 345.226C1076.45 344.861 1075.58 344.617 1074.66 344.497C1073.75 344.377 1072.8 344.386 1071.83 344.526C1070.86 344.666 1069.91 344.947 1068.99 345.367C1068.06 345.788 1067.33 346.269 1066.79 346.812C1066.26 347.354 1065.92 347.926 1065.78 348.526C1065.64 349.126 1065.7 349.738 1065.95 350.361C1065.98 350.442 1066.02 350.522 1066.06 350.602L1064.66 349.866V351.18L1065.89 352.179L1066.88 351.778C1067 351.911 1067.14 352.043 1067.28 352.175C1067.83 352.691 1068.54 353.118 1069.39 353.457C1070.25 353.796 1071.19 353.969 1072.22 353.975L1072.32 351.878C1071.74 351.886 1071.2 351.809 1070.7 351.647C1070.2 351.484 1069.77 351.234 1069.4 350.895ZM1072.51 346.573C1073.08 346.475 1073.64 346.447 1074.19 346.491C1074.62 346.526 1075.03 346.605 1075.43 346.728L1068.72 349.5C1068.72 349.304 1068.76 349.108 1068.83 348.912C1068.96 348.57 1069.19 348.242 1069.52 347.927C1069.86 347.612 1070.3 347.331 1070.84 347.084C1071.38 346.842 1071.93 346.671 1072.51 346.573Z" fill="#C06100"/>
<path fill-rule="evenodd" clip-rule="evenodd" d="M1069.3 349.433L1077.02 346.3C1077.3 346.578 1077.48 346.856 1077.56 347.134C1077.65 347.445 1077.63 347.751 1077.5 348.052L1080.48 348.596C1080.62 348.29 1080.69 347.985 1080.69 347.682C1080.68 347.378 1080.63 347.085 1080.52 346.803C1080.41 346.521 1080.26 346.252 1080.07 345.995C1079.89 345.745 1079.69 345.516 1079.46 345.308L1081.41 344.517L1080.14 343.416L1078.07 344.273C1077.81 344.124 1077.55 343.987 1077.27 343.864C1076.45 343.498 1075.58 343.255 1074.66 343.134C1073.75 343.014 1072.8 343.024 1071.83 343.164C1070.86 343.304 1069.91 343.584 1068.99 344.004C1068.06 344.425 1067.33 344.906 1066.79 345.449C1066.26 345.991 1065.92 346.563 1065.78 347.163C1065.64 347.763 1065.7 348.375 1065.95 348.998C1065.98 349.079 1066.02 349.159 1066.06 349.24L1064.66 349.817L1065.89 350.816L1066.88 350.415C1067 350.548 1067.14 350.681 1067.28 350.812C1067.83 351.328 1068.54 351.755 1069.39 352.094C1070.25 352.433 1071.19 352.606 1072.22 352.612L1072.32 350.515C1071.74 350.523 1071.2 350.446 1070.7 350.284C1070.2 350.122 1069.77 349.871 1069.4 349.532C1069.37 349.499 1069.33 349.466 1069.3 349.433ZM1074.19 345.128C1074.62 345.163 1075.03 345.242 1075.43 345.365L1068.72 348.137C1068.72 347.941 1068.76 347.745 1068.83 347.549C1068.96 347.207 1069.19 346.879 1069.52 346.564C1069.86 346.249 1070.3 345.968 1070.84 345.721C1071.38 345.479 1071.93 345.308 1072.51 345.21C1073.08 345.112 1073.64 345.084 1074.19 345.128Z" fill="#FFB74F"/>
</g>
<path fill-rule="evenodd" clip-rule="evenodd" d="M1097.1 393.227L1096.69 396.129C1096.69 396.129 1098.35 401.044 1098.88 407.243C1099.4 413.443 1098.56 424.162 1099.56 426.113C1100.56 428.064 1099.85 429.418 1099.01 429.775C1098.16 430.131 1097.04 429.25 1094.51 427.234C1091.99 425.218 1088.82 424.027 1089.31 422.927C1089.81 421.827 1094.33 424.018 1094.85 423.218C1095.38 422.418 1090.41 397.477 1090.73 395.816C1091.05 394.155 1091.53 388.963 1091.53 388.963L1097.1 393.227Z" fill="#FFBBB0"/>
<path fill-rule="evenodd" clip-rule="evenodd" d="M1094.58 394.118L1093.93 397.908C1093.93 397.908 1095.03 405.734 1095.51 410.657C1095.99 415.58 1096.89 427.538 1096.89 427.538L1095.68 428.146L1090.83 394.811L1094.58 394.118Z" fill="#F29E98"/>
<path fill-rule="evenodd" clip-rule="evenodd" d="M1099.64 424.963C1099.64 424.963 1099.03 424.527 1098.67 424.912C1098.31 425.298 1096 426.208 1094.48 425.726C1092.97 425.244 1091.19 423.786 1091.22 423.273C1091.24 422.759 1093.45 421.771 1093.45 421.771C1093.45 421.771 1090.58 420.929 1089.46 421.561C1088.34 422.193 1089.45 424.505 1090.47 425.037C1091.49 425.569 1096.87 429.417 1097.25 429.437C1097.63 429.457 1098.27 432.632 1098.27 432.632C1098.27 432.632 1098.68 432.848 1099.08 432.675C1099.08 432.675 1100.11 428.767 1100.19 427.305C1100.26 425.842 1099.64 424.963 1099.64 424.963Z" fill="#181E36"/>
<path fill-rule="evenodd" clip-rule="evenodd" d="M1092.37 392.528L1091.94 397.108C1091.94 397.108 1093.64 403.433 1094.29 407.919C1094.95 412.405 1095.51 424.625 1095.95 425.763C1096.4 426.901 1096.85 429.879 1095.52 430.541C1094.67 430.962 1095.45 430.135 1093.13 430.052C1091.81 430.004 1087.29 431.572 1085.98 431.503C1082.37 431.314 1082.42 430.223 1082.98 429.706C1083.27 429.438 1085.98 428.225 1085.98 428.225C1085.98 428.225 1089.58 427.228 1090.06 426.592C1091.06 425.267 1091.28 423.504 1091.02 421.496C1090.76 419.487 1085.02 398.145 1084.78 396.192C1084.55 394.239 1084.57 388.864 1084.57 388.864L1092.37 392.528Z" fill="#FFBBB0"/>
<rect width="2.04206" height="0.817434" rx="0.353242" transform="matrix(-0.998625 -0.0524176 -0.0522544 0.998634 1084.69 324.266)" fill="#30334F"/>
<path fill-rule="evenodd" clip-rule="evenodd" d="M1084.27 321.528C1084.27 321.528 1083 324.046 1083.32 325.244C1083.63 326.441 1083.26 327.729 1082.52 328.169C1081.78 328.608 1083.1 329.31 1083.1 329.31C1083.1 329.31 1083.13 330.766 1083.55 331.972C1083.98 333.177 1083.82 334.114 1085.18 334.185C1086.54 334.257 1088.12 334.055 1088.12 334.055C1088.12 334.055 1089.09 335.432 1088.7 336.28C1088.32 337.128 1086.39 337.557 1086.76 338.114C1087.13 338.672 1097.02 340.249 1097.59 339.4C1098.16 338.551 1093.69 336.455 1093.86 333.199C1094.03 329.943 1094.39 319.514 1090.33 319.301C1086.27 319.088 1084.27 321.528 1084.27 321.528Z" fill="#FFBBB0"/>
<path fill-rule="evenodd" clip-rule="evenodd" d="M1087.68 328.364C1087.68 328.364 1088.18 327.724 1088.51 327.964C1088.84 328.203 1088.92 328.795 1088.43 329.526C1087.93 330.258 1087.49 329.638 1087.49 329.638L1087.68 328.364Z" fill="url(#paint23_linear_463_3351)"/>
<path fill-rule="evenodd" clip-rule="evenodd" d="M1084.66 360.984C1084.66 360.984 1082.58 371.409 1082.69 378.213C1082.8 385.017 1083.73 394.178 1083.73 394.178C1083.73 394.178 1086.5 395.966 1090.61 396.182C1094.71 396.398 1097.6 394.364 1097.6 394.364C1097.6 394.364 1099.83 382.69 1101.57 380.075C1103.31 377.461 1105.48 372.739 1104.25 367.15C1103.03 361.562 1099.78 358.482 1099.78 358.482C1099.78 358.482 1095.46 356.984 1093.39 357.511C1091.32 358.038 1084.66 360.984 1084.66 360.984Z" fill="url(#paint24_linear_463_3351)"/>
<mask id="mask10_463_3351" style="mask-type:alpha" maskUnits="userSpaceOnUse" x="1082" y="357" width="23" height="40">
<path fill-rule="evenodd" clip-rule="evenodd" d="M1084.66 360.984C1084.66 360.984 1082.58 371.409 1082.69 378.213C1082.8 385.017 1083.73 394.178 1083.73 394.178C1083.73 394.178 1086.5 395.966 1090.61 396.182C1094.71 396.398 1097.6 394.364 1097.6 394.364C1097.6 394.364 1099.83 382.69 1101.57 380.075C1103.31 377.461 1105.48 372.739 1104.25 367.15C1103.03 361.562 1099.78 358.482 1099.78 358.482C1099.78 358.482 1095.46 356.984 1093.39 357.511C1091.32 358.038 1084.66 360.984 1084.66 360.984Z" fill="white"/>
</mask>
<g mask="url(#mask10_463_3351)">
<path d="M1086.39 361.921C1086.39 361.921 1084.98 371.259 1085.24 375.15C1085.49 379.041 1085.18 395.198 1085.18 395.198" stroke="#1C478A" stroke-width="0.353242"/>
</g>
<path fill-rule="evenodd" clip-rule="evenodd" d="M1099.47 358.125C1099.47 358.125 1099.73 360.909 1094.85 362.29C1089.98 363.67 1084.13 362.694 1084.24 360.582C1084.35 358.47 1099.47 358.125 1099.47 358.125Z" fill="#092965"/>
<path fill-rule="evenodd" clip-rule="evenodd" d="M1085.36 339.494C1085.36 339.494 1086.4 336.879 1087.98 336.062C1089.56 335.246 1094.47 333.096 1094.94 336.182L1085.36 339.494Z" fill="#D8D8D8"/>
<path fill-rule="evenodd" clip-rule="evenodd" d="M1084.43 322.852C1084.43 322.852 1083.35 320.433 1083.85 318.653C1084.34 316.873 1086.24 314.65 1089.3 315.72C1093.18 315.29 1097.73 316.976 1098.63 322.486C1099.53 327.996 1098.19 332.95 1094.25 333.598C1090.3 334.245 1088.28 331.085 1088.28 331.085C1088.28 331.085 1090.13 329.636 1089.43 328.173C1088.72 326.711 1086.98 327.888 1086.98 327.888L1084.43 322.852Z" fill="#30334F"/>
<path fill-rule="evenodd" clip-rule="evenodd" d="M1097.98 336.753C1097.98 336.753 1100.53 337.087 1101.4 342.594C1102.27 348.1 1105.19 354.242 1102.26 356.212C1099.33 358.183 1096.49 349.658 1096.49 349.658L1097.98 336.753Z" fill="#F0F0F0"/>
<mask id="mask11_463_3351" style="mask-type:alpha" maskUnits="userSpaceOnUse" x="1096" y="336" width="8" height="21">
<path fill-rule="evenodd" clip-rule="evenodd" d="M1097.98 336.753C1097.98 336.753 1100.53 337.087 1101.4 342.594C1102.27 348.1 1105.19 354.242 1102.26 356.212C1099.33 358.183 1096.49 349.658 1096.49 349.658L1097.98 336.753Z" fill="white"/>
</mask>
<g mask="url(#mask11_463_3351)">
<path fill-rule="evenodd" clip-rule="evenodd" d="M1097.33 336.03C1097.33 336.03 1099.87 336.364 1100.75 341.871C1101.62 347.378 1104.54 353.519 1101.61 355.489C1098.68 357.46 1095.84 348.935 1095.84 348.935L1097.33 336.03Z" fill="#D8D8D8"/>
</g>
<path fill-rule="evenodd" clip-rule="evenodd" d="M1100.06 340.688C1099.76 340.11 1099.3 337.447 1097.75 336.862C1095.8 336.128 1093 336.076 1091.32 336.525C1088.19 337.359 1083.05 340.011 1082.56 340.843C1082.06 341.676 1081.24 345.037 1080.77 346.896C1080.3 348.756 1079.17 353.551 1082.95 353.487C1082.95 353.487 1083.9 355.404 1083.81 357.075C1083.72 358.746 1083.29 359.698 1084.72 361.054C1086.15 362.409 1092.39 362.422 1095.17 361.602C1097.96 360.783 1099.57 358.975 1100.37 357.944C1101.18 356.913 1099.24 352.48 1099.24 352.48C1099.24 352.48 1100.75 341.99 1100.06 340.688Z" fill="url(#paint25_linear_463_3351)"/>
<mask id="mask12_463_3351" style="mask-type:alpha" maskUnits="userSpaceOnUse" x="1080" y="336" width="21" height="27">
<path fill-rule="evenodd" clip-rule="evenodd" d="M1100.06 340.688C1099.76 340.11 1099.3 337.447 1097.75 336.862C1095.8 336.128 1093 336.076 1091.32 336.525C1088.19 337.359 1083.05 340.011 1082.56 340.843C1082.06 341.676 1081.24 345.037 1080.77 346.896C1080.3 348.756 1079.17 353.551 1082.95 353.487C1082.95 353.487 1083.9 355.404 1083.81 357.075C1083.72 358.746 1083.29 359.698 1084.72 361.054C1086.15 362.409 1092.39 362.422 1095.17 361.602C1097.96 360.783 1099.57 358.975 1100.37 357.944C1101.18 356.913 1099.24 352.48 1099.24 352.48C1099.24 352.48 1100.75 341.99 1100.06 340.688Z" fill="white"/>
</mask>
<g mask="url(#mask12_463_3351)">
<path fill-rule="evenodd" clip-rule="evenodd" d="M1083.1 342.467C1083.1 342.467 1084.63 350.768 1081.13 354.864C1077.62 358.959 1082.24 358.861 1082.24 358.861C1082.24 358.861 1084.06 354.49 1084.49 350.631C1084.91 346.772 1083.1 342.467 1083.1 342.467Z" fill="#D8D8D8"/>
</g>
<path fill-rule="evenodd" clip-rule="evenodd" d="M1063.63 355.256C1062.93 354.939 1061.33 353.619 1060.43 354.908C1058.73 354.74 1056.92 354.746 1056.14 354.848C1054.81 355.021 1053.6 355.753 1052.94 355.87C1052.28 355.988 1053.18 356.989 1054 356.69C1054.83 356.392 1056.3 355.992 1056.75 356.06C1057.21 356.128 1058.09 356.37 1058.09 356.37C1058.09 356.37 1056.39 356.73 1055.99 357.103C1055.59 357.477 1055.66 358.904 1055.37 359.486C1055.09 360.069 1056.04 360.164 1056.23 359.718C1056.23 359.718 1056.34 360.263 1056.38 360.512C1056.42 360.832 1056.41 361.219 1056.54 361.255C1056.89 361.351 1057.52 360.97 1057.35 360.171C1057.35 360.171 1057.69 360.477 1057.99 360.903C1058.29 361.329 1058.75 360.756 1058.61 360.293C1058.47 359.83 1058.24 359.518 1058.24 359.518C1058.24 359.518 1061.06 360.554 1062.17 360.539C1063.28 360.525 1064.67 359.499 1064.67 359.499L1073.56 362.405L1074.6 358.436C1074.6 358.436 1065.32 356.023 1063.63 355.256Z" fill="#FFBBB0"/>
<mask id="mask13_463_3351" style="mask-type:alpha" maskUnits="userSpaceOnUse" x="1052" y="354" width="23" height="9">
<path fill-rule="evenodd" clip-rule="evenodd" d="M1063.63 355.256C1062.93 354.939 1061.33 353.619 1060.43 354.908C1058.73 354.74 1056.92 354.746 1056.14 354.848C1054.81 355.021 1053.6 355.753 1052.94 355.87C1052.28 355.988 1053.18 356.989 1054 356.69C1054.83 356.392 1056.3 355.992 1056.75 356.06C1057.21 356.128 1058.09 356.37 1058.09 356.37C1058.09 356.37 1056.39 356.73 1055.99 357.103C1055.59 357.477 1055.66 358.904 1055.37 359.486C1055.09 360.069 1056.04 360.164 1056.23 359.718C1056.23 359.718 1056.34 360.263 1056.38 360.512C1056.42 360.832 1056.41 361.219 1056.54 361.255C1056.89 361.351 1057.52 360.97 1057.35 360.171C1057.35 360.171 1057.69 360.477 1057.99 360.903C1058.29 361.329 1058.75 360.756 1058.61 360.293C1058.47 359.83 1058.24 359.518 1058.24 359.518C1058.24 359.518 1061.06 360.554 1062.17 360.539C1063.28 360.525 1064.67 359.499 1064.67 359.499L1073.56 362.405L1074.6 358.436C1074.6 358.436 1065.32 356.023 1063.63 355.256Z" fill="white"/>
</mask>
<g mask="url(#mask13_463_3351)">
<path fill-rule="evenodd" clip-rule="evenodd" d="M1056.23 359.718C1056.23 359.718 1055.87 357.702 1056.67 357.358C1057.47 357.013 1057.93 356.843 1057.93 356.843C1057.93 356.843 1056.36 356.863 1056.09 357.406C1055.97 357.648 1055.63 359.351 1055.71 359.963C1056.1 360.008 1056.23 359.718 1056.23 359.718Z" fill="#F29E98"/>
<path fill-rule="evenodd" clip-rule="evenodd" d="M1057.35 360.155C1057.35 360.155 1056.42 358.864 1056.62 358.381C1056.83 357.897 1058.03 357.497 1058.03 357.497C1058.03 357.497 1056.95 357.373 1056.53 358.076C1056.31 358.45 1056.57 359.213 1056.9 360.293C1056.99 360.565 1057 361.141 1057 361.141C1057 361.141 1057.25 360.99 1057.32 360.67C1057.4 360.351 1057.35 360.155 1057.35 360.155Z" fill="#F29E98"/>
<path fill-rule="evenodd" clip-rule="evenodd" d="M1060.43 354.909L1061.68 354.953L1060.41 354.144L1060.43 354.909Z" fill="#F29E98"/>
</g>
<path fill-rule="evenodd" clip-rule="evenodd" d="M1068.57 356.083C1068.56 356.089 1067.1 354.892 1065.89 356.082C1064.69 357.272 1064.83 360.315 1066.62 360.286C1068.41 360.257 1068.59 356.077 1068.57 356.083Z" fill="#D8D8D8"/>
<path fill-rule="evenodd" clip-rule="evenodd" d="M1082.72 341.167C1082.72 341.167 1080.46 343.75 1080.6 349.803C1080.74 355.856 1079.96 357.574 1079.96 357.574C1079.96 357.574 1071.36 357.104 1069.49 356.021C1067.62 354.939 1066.55 357.134 1066.4 358.468C1066.25 359.803 1065.91 361.404 1069.64 362.552C1073.37 363.701 1083.48 364.98 1085.23 361.963C1086.98 358.945 1087.08 348.702 1086.33 346.258C1085.59 343.813 1082.72 341.167 1082.72 341.167Z" fill="#FFFEFE"/>
<mask id="mask14_463_3351" style="mask-type:alpha" maskUnits="userSpaceOnUse" x="1066" y="341" width="21" height="23">
<path fill-rule="evenodd" clip-rule="evenodd" d="M1082.72 341.167C1082.72 341.167 1080.46 343.75 1080.6 349.803C1080.74 355.856 1079.96 357.574 1079.96 357.574C1079.96 357.574 1071.36 357.104 1069.49 356.021C1067.62 354.939 1066.55 357.134 1066.4 358.468C1066.25 359.803 1065.91 361.404 1069.64 362.552C1073.37 363.701 1083.48 364.98 1085.23 361.963C1086.98 358.945 1087.08 348.702 1086.33 346.258C1085.59 343.813 1082.72 341.167 1082.72 341.167Z" fill="white"/>
</mask>
<g mask="url(#mask14_463_3351)">
<path fill-rule="evenodd" clip-rule="evenodd" d="M1086.64 347.761C1086.64 347.761 1086.35 348.996 1086.49 355.05C1086.15 358.336 1085.9 362.787 1082.87 363.177C1079.84 363.567 1075.98 363.725 1071.72 362.739C1067.47 361.753 1066.72 360.324 1066.03 360.341C1065.88 361.676 1070.91 367.622 1074.64 368.77C1078.37 369.919 1088.49 371.198 1090.23 368.181C1091.98 365.163 1092.08 354.92 1091.33 352.475C1090.59 350.031 1086.64 347.761 1086.64 347.761Z" fill="#D8D8D8"/>
</g>
<path fill-rule="evenodd" clip-rule="evenodd" d="M1096.86 333.198C1094.05 333.05 1091.88 330.646 1092.03 327.828C1092.18 325.01 1094.58 322.846 1097.4 322.994C1100.21 323.141 1102.37 325.545 1102.23 328.363C1102.08 331.181 1099.68 333.345 1096.86 333.198Z" fill="#181E36"/>
<path fill-rule="evenodd" clip-rule="evenodd" d="M1096.25 426.598C1095.99 426.239 1095.78 426.228 1094.96 426.859C1093.99 427.608 1090.38 428.797 1088.83 429.114C1087.84 429.317 1085.37 429.315 1085.47 428.938C1085.58 428.54 1086.02 428.53 1086.13 428.404C1086.35 428.16 1082.35 429.83 1081.44 430.481C1080.54 431.131 1080.47 432.372 1084.91 433.571C1085.36 433.693 1087.87 433.529 1088.74 433.236C1090.69 432.579 1091.6 431.278 1093.66 431.122L1094.34 435.122C1094.34 435.122 1094.99 435.516 1095.53 435.052C1095.53 435.052 1096.6 429.25 1096.65 428.295C1096.7 427.34 1096.39 426.785 1096.25 426.598Z" fill="#181E36"/>
<path fill-rule="evenodd" clip-rule="evenodd" d="M910.966 476.082L940.186 492.969L936.43 494.588V500.727L984.318 502.969V496.852L979.713 476.347L971.012 481.403L936.43 461.809L910.966 469.699V476.082Z" fill="#80B1FF"/>
<path fill-rule="evenodd" clip-rule="evenodd" d="M910.966 469.699L945.084 489.613L936.43 494.588L984.318 496.852L979.713 469.966L971.012 475.073L936.43 455.284L910.966 469.699Z" fill="#CBDFFF"/>
<path fill-rule="evenodd" clip-rule="evenodd" d="M937.465 448.099L971.474 468.069L997.356 453.18V447.864L962.848 433.643L971.474 428.725V423.408L926.395 424.704V454.428L937.465 448.099Z" fill="url(#paint26_linear_463_3351)"/>
<path fill-rule="evenodd" clip-rule="evenodd" d="M937.465 442.783L971.474 462.753L997.356 447.864L962.848 428.327L971.474 423.408L926.395 419.388V449.111L937.465 442.783Z" fill="#80B1FF"/>
<defs>
<linearGradient id="paint0_linear_463_3351" x1="1187.78" y1="310.682" x2="900.351" y2="330.919" gradientUnits="userSpaceOnUse">
<stop stop-color="#7187B5"/>
<stop offset="1" stop-color="#BFCDED"/>
</linearGradient>
<linearGradient id="paint1_linear_463_3351" x1="964.251" y1="476.367" x2="1207.11" y2="441.795" gradientUnits="userSpaceOnUse">
<stop stop-color="#C4D5FF"/>
<stop offset="0.499857" stop-color="#C9DDFF"/>
<stop offset="0.5319" stop-color="#E1ECFF"/>
<stop offset="1" stop-color="#D5E1FF"/>
</linearGradient>
<linearGradient id="paint2_linear_463_3351" x1="1129.79" y1="266.817" x2="906.247" y2="412.709" gradientUnits="userSpaceOnUse">
<stop stop-color="#C0E1FF"/>
<stop offset="1" stop-color="white"/>
</linearGradient>
<linearGradient id="paint3_linear_463_3351" x1="1001.9" y1="446.647" x2="1209.52" y2="427.398" gradientUnits="userSpaceOnUse">
<stop stop-color="#6D94E7"/>
<stop offset="1" stop-color="#7E9EEF"/>
</linearGradient>
<linearGradient id="paint4_linear_463_3351" x1="1054.06" y1="382.423" x2="1045.96" y2="435.56" gradientUnits="userSpaceOnUse">
<stop stop-color="#6D7FE7"/>
<stop offset="1" stop-color="#4E60CD"/>
</linearGradient>
<linearGradient id="paint5_linear_463_3351" x1="1076.2" y1="366.449" x2="940.755" y2="392.959" gradientUnits="userSpaceOnUse">
<stop stop-color="#4F6FCE"/>
<stop offset="1" stop-color="#3B3B5D"/>
</linearGradient>
<linearGradient id="paint6_linear_463_3351" x1="1158.2" y1="115.349" x2="979.049" y2="166.371" gradientUnits="userSpaceOnUse">
<stop stop-color="#C0E1FF"/>
<stop offset="1" stop-color="white"/>
</linearGradient>
<linearGradient id="paint7_linear_463_3351" x1="1188.27" y1="145.677" x2="973.069" y2="164.607" gradientUnits="userSpaceOnUse">
<stop stop-color="#4F6FCE"/>
<stop offset="1" stop-color="#3B3B5D"/>
</linearGradient>
<linearGradient id="paint8_linear_463_3351" x1="1178.09" y1="333.263" x2="1182.65" y2="342.201" gradientUnits="userSpaceOnUse">
<stop stop-color="#FB6464"/>
<stop offset="1" stop-color="#FA4E40"/>
</linearGradient>
<linearGradient id="paint9_linear_463_3351" x1="983.398" y1="348.265" x2="1024.24" y2="367.844" gradientUnits="userSpaceOnUse">
<stop stop-color="#15539E"/>
<stop offset="1" stop-color="#092965"/>
</linearGradient>
<linearGradient id="paint10_linear_463_3351" x1="1018.78" y1="322.109" x2="1010.75" y2="294.435" gradientUnits="userSpaceOnUse">
<stop stop-color="#15539E"/>
<stop offset="1" stop-color="#092965"/>
</linearGradient>
<linearGradient id="paint11_linear_463_3351" x1="1007.04" y1="290.03" x2="1004.04" y2="285.001" gradientUnits="userSpaceOnUse">
<stop stop-color="#BED4EB"/>
<stop offset="1" stop-color="#0041AE"/>
</linearGradient>
<linearGradient id="paint12_linear_463_3351" x1="1004.93" y1="335.813" x2="988.036" y2="325.17" gradientUnits="userSpaceOnUse">
<stop stop-color="#1B4A7A"/>
<stop offset="1" stop-color="#0041AE"/>
</linearGradient>
<linearGradient id="paint13_linear_463_3351" x1="1003.52" y1="281.172" x2="1002.58" y2="282.916" gradientUnits="userSpaceOnUse">
<stop stop-color="#F3A6A6"/>
<stop offset="1" stop-color="#FCCBCB"/>
</linearGradient>
<linearGradient id="paint14_linear_463_3351" x1="1012.87" y1="289.177" x2="1009.98" y2="316.615" gradientUnits="userSpaceOnUse">
<stop stop-color="#15539E"/>
<stop offset="1" stop-color="#092965"/>
</linearGradient>
<linearGradient id="paint15_linear_463_3351" x1="998.733" y1="294.52" x2="994.169" y2="288.38" gradientUnits="userSpaceOnUse">
<stop stop-color="#BED4EB"/>
<stop offset="1" stop-color="#CEDBF0"/>
</linearGradient>
<linearGradient id="paint16_linear_463_3351" x1="1007.93" y1="280.921" x2="1004.26" y2="315.877" gradientUnits="userSpaceOnUse">
<stop stop-color="#15539E"/>
<stop offset="1" stop-color="#092965"/>
</linearGradient>
<linearGradient id="paint17_linear_463_3351" x1="1017.26" y1="280.264" x2="1013.67" y2="314.386" gradientUnits="userSpaceOnUse">
<stop stop-color="#15539E"/>
<stop offset="1" stop-color="#092965"/>
</linearGradient>
<linearGradient id="paint18_linear_463_3351" x1="1003.61" y1="272.324" x2="1009.25" y2="281.605" gradientUnits="userSpaceOnUse">
<stop stop-color="#FCCBCB"/>
<stop offset="1" stop-color="#E77575"/>
</linearGradient>
<linearGradient id="paint19_linear_463_3351" x1="1001.36" y1="268.07" x2="1001.97" y2="274.602" gradientUnits="userSpaceOnUse">
<stop stop-color="#0C3564"/>
<stop offset="1" stop-color="#BFA5B1"/>
</linearGradient>
<linearGradient id="paint20_linear_463_3351" x1="997.638" y1="273.645" x2="996.244" y2="273.431" gradientUnits="userSpaceOnUse">
<stop stop-color="#FCCBCB"/>
<stop offset="1" stop-color="#E77575"/>
</linearGradient>
<linearGradient id="paint21_linear_463_3351" x1="1017.58" y1="331.797" x2="1018.03" y2="333.549" gradientUnits="userSpaceOnUse">
<stop stop-color="#F3A6A6"/>
<stop offset="1" stop-color="#FCCBCB"/>
</linearGradient>
<linearGradient id="paint22_linear_463_3351" x1="1004.5" y1="331.261" x2="1014.24" y2="304.219" gradientUnits="userSpaceOnUse">
<stop stop-color="#15539E"/>
<stop offset="1" stop-color="#092965"/>
</linearGradient>
<linearGradient id="paint23_linear_463_3351" x1="1087.82" y1="328.178" x2="1088.84" y2="328.135" gradientUnits="userSpaceOnUse">
<stop stop-color="#F8A29B"/>
<stop offset="1" stop-color="#C47770"/>
</linearGradient>
<linearGradient id="paint24_linear_463_3351" x1="1105.29" y1="357.924" x2="1103.25" y2="396.845" gradientUnits="userSpaceOnUse">
<stop stop-color="#8EBBFF"/>
<stop offset="1" stop-color="#5586FF"/>
</linearGradient>
<linearGradient id="paint25_linear_463_3351" x1="1101.68" y1="336.629" x2="1100.31" y2="362.718" gradientUnits="userSpaceOnUse">
<stop stop-color="white"/>
<stop offset="1" stop-color="#F0F0F0"/>
</linearGradient>
<linearGradient id="paint26_linear_463_3351" x1="994.717" y1="414.746" x2="905.279" y2="430.598" gradientUnits="userSpaceOnUse">
<stop stop-color="#4F6FCE"/>
<stop offset="1" stop-color="#3B3B5D"/>
</linearGradient>
</defs>
</svg>
