<svg width="574" height="480" viewBox="0 0 574 480" fill="none" xmlns="http://www.w3.org/2000/svg">
<path fill-rule="evenodd" clip-rule="evenodd" d="M337.81 373.35C287.323 372.049 228.861 383.031 190.823 356.845C152.73 330.621 159.39 283.355 150.162 244.169C143.094 214.155 143.358 185.138 143.199 154.612C143.011 118.258 123.812 78.2481 149.144 47.8621C174.733 17.1678 225.478 2.2846 272.008 0.103697C315.06 -1.91421 349.013 26.0441 390.019 36.572C429.369 46.6747 475.363 40.3503 507.767 60.6329C542.484 82.3633 563.56 115.818 571.526 150.182C579.657 185.262 565.4 219.728 552.573 253.925C537.79 293.335 533.722 340.883 491.106 364.58C448.384 388.337 390.074 374.696 337.81 373.35Z" fill="#1F34E9"/>
<path fill-rule="evenodd" clip-rule="evenodd" d="M216.82 180.449C260.663 181.465 301.084 194.686 337.052 212.659C373.629 230.937 410.663 252.492 422.573 283.264C434.276 313.502 419.404 345.677 399.331 373.57C381.519 398.322 347.423 412.483 317.06 429.883C284.832 448.353 257.645 473.771 216.82 478.167C173.138 482.87 126.884 473.503 91.9837 454.118C57.6461 435.046 37.5122 405.193 30.2198 374.522C23.5675 346.543 43.7863 320.66 53.7192 293.184C64.5087 263.339 59.8166 228.368 90.7978 206.954C123.085 184.637 171.963 179.41 216.82 180.449Z" fill="#FFCC00"/>
<path fill-rule="evenodd" clip-rule="evenodd" d="M240.556 186.053C242.016 185.272 243.771 185.283 245.222 186.081L460.375 304.495V311.654C460.375 312.526 459.91 313.333 459.155 313.77L323.242 392.437C321.727 393.314 319.858 393.314 318.342 392.438L104.535 268.747C103.779 268.309 103.314 267.503 103.314 266.63L103.314 259.471L240.556 186.053Z" fill="url(#paint0_linear_109_66)"/>
<path fill-rule="evenodd" clip-rule="evenodd" d="M240.556 184.367C242.016 183.587 243.771 183.597 245.222 184.395L460.375 302.81V309.968C460.375 310.841 459.91 311.648 459.155 312.085L323.242 390.751C321.727 391.629 319.858 391.629 318.342 390.752L104.535 267.061C103.779 266.624 103.314 265.817 103.314 264.944L103.314 257.786L240.556 184.367Z" fill="url(#paint1_linear_109_66)"/>
<path fill-rule="evenodd" clip-rule="evenodd" d="M240.45 177.184C241.964 176.31 243.829 176.31 245.343 177.184L459.157 300.692C460.787 301.633 460.787 303.986 459.157 304.927L323.239 383.412C321.725 384.286 319.86 384.286 318.346 383.412L104.532 259.904C102.902 258.963 102.902 256.61 104.532 255.669L240.45 177.184Z" fill="url(#paint2_linear_109_66)"/>
<path opacity="0.246257" fill-rule="evenodd" clip-rule="evenodd" d="M251.84 194.792C250.504 194.008 248.844 194.022 247.521 194.828L204.999 220.724C204.085 221.28 204.105 222.613 205.034 223.143L379.139 322.323C381.709 323.787 384.859 323.796 387.437 322.345L427.161 299.994C428.106 299.462 428.118 298.107 427.183 297.559L251.84 194.792Z" fill="url(#paint3_linear_109_66)"/>
<path fill-rule="evenodd" clip-rule="evenodd" d="M234.661 258.283C235.202 257.975 235.865 257.975 236.405 258.283L313.794 302.397C314.387 302.735 314.387 303.589 313.794 303.927L264.6 331.96C264.059 332.268 263.396 332.268 262.856 331.96L185.467 287.846C184.874 287.508 184.874 286.653 185.467 286.316L234.661 258.283Z" fill="url(#paint4_linear_109_66)"/>
<mask id="mask0_109_66" style="mask-type:alpha" maskUnits="userSpaceOnUse" x="185" y="258" width="130" height="75">
<path fill-rule="evenodd" clip-rule="evenodd" d="M234.661 258.283C235.202 257.975 235.865 257.975 236.405 258.283L313.794 302.397C314.387 302.735 314.387 303.589 313.794 303.927L264.6 331.96C264.059 332.268 263.396 332.268 262.856 331.96L185.467 287.846C184.874 287.508 184.874 286.653 185.467 286.316L234.661 258.283Z" fill="white"/>
</mask>
<g mask="url(#mask0_109_66)">
<path fill-rule="evenodd" clip-rule="evenodd" d="M234.661 261.955C235.202 261.647 235.865 261.647 236.405 261.956L313.794 306.07C314.387 306.407 314.387 307.262 313.794 307.599L264.6 335.632C264.059 335.94 263.396 335.94 262.856 335.632L185.467 291.518C184.874 291.18 184.874 290.326 185.467 289.988L234.661 261.955Z" fill="url(#paint5_linear_109_66)"/>
<rect x="147.261" y="249.568" width="80.5153" height="80.5153" fill="#C4C4C4"/>
</g>
<path fill-rule="evenodd" clip-rule="evenodd" d="M247.921 12.1798C248.614 11.9025 249.397 11.9573 250.045 12.3286L464.038 134.922C465.559 135.794 466.498 137.413 466.498 139.166V296.529C466.498 297.388 466.047 298.184 465.31 298.626L462.263 300.454C461.101 301.151 459.65 301.151 458.488 300.454L248.881 174.71C247.442 173.846 246.546 172.306 246.508 170.628L242.955 16.7345C242.92 15.2038 243.839 13.8121 245.261 13.2436L247.921 12.1798Z" fill="#80B1FF"/>
<path fill-rule="evenodd" clip-rule="evenodd" d="M242.896 15.9779C242.896 14.0949 244.935 12.9183 246.565 13.8601L460.379 137.367C461.892 138.241 462.824 139.856 462.824 141.603V298.573C462.824 300.456 460.786 301.632 459.155 300.69L245.341 177.183C243.828 176.309 242.896 174.695 242.896 172.948V15.9779Z" fill="url(#paint6_linear_109_66)"/>
<path fill-rule="evenodd" clip-rule="evenodd" d="M251.467 27.6542L453.495 144.659V287.165L251.467 170.16V27.6542Z" fill="url(#paint7_linear_109_66)"/>
<path fill-rule="evenodd" clip-rule="evenodd" d="M228.597 26.3518C225.461 24.512 221.511 26.7741 221.511 30.4108V128.039C221.511 133.058 224.175 137.699 228.509 140.229L345.326 208.454C348.463 210.286 352.404 208.023 352.404 204.39V107.05C352.404 102.041 349.75 97.407 345.429 94.8729L228.597 26.3518Z" fill="#C7DCFF"/>
<path fill-rule="evenodd" clip-rule="evenodd" d="M232.469 48.7183L245.652 56.2337V124.434L232.469 116.918L232.469 48.7183Z" fill="#528BE1"/>
<path fill-rule="evenodd" clip-rule="evenodd" d="M256.011 62.9268L269.194 70.4422V137.695L256.011 130.18V62.9268Z" fill="#528BE1"/>
<path fill-rule="evenodd" clip-rule="evenodd" d="M279.553 75.2402L292.736 82.7557V150.956L279.553 143.44V75.2402Z" fill="#528BE1"/>
<path fill-rule="evenodd" clip-rule="evenodd" d="M303.095 88.5015L316.278 96.0169V164.217L303.095 156.702L303.095 88.5015Z" fill="#528BE1"/>
<path fill-rule="evenodd" clip-rule="evenodd" d="M326.637 100.815L339.82 108.331V174.637L326.637 167.121L326.637 100.815Z" fill="#528BE1"/>
<path fill-rule="evenodd" clip-rule="evenodd" d="M232.469 110.229L245.652 117.744V135.8L232.469 128.285L232.469 110.229Z" fill="white"/>
<path fill-rule="evenodd" clip-rule="evenodd" d="M256.011 92.853L269.194 100.368V149.062L256.011 141.546V92.853Z" fill="white"/>
<path fill-rule="evenodd" clip-rule="evenodd" d="M279.553 116.918L292.736 124.434V162.323L279.553 154.807V116.918Z" fill="white"/>
<path fill-rule="evenodd" clip-rule="evenodd" d="M303.095 118.813L316.278 126.328V175.584L303.095 168.068L303.095 118.813Z" fill="white"/>
<path fill-rule="evenodd" clip-rule="evenodd" d="M326.637 112.182L339.82 119.698V186.003L326.637 178.488L326.637 112.182Z" fill="white"/>
<path fill-rule="evenodd" clip-rule="evenodd" d="M375.548 114.419C372.412 112.579 368.462 114.841 368.462 118.478V216.107C368.462 221.125 371.126 225.766 375.46 228.297L492.277 296.521C495.414 298.353 499.355 296.091 499.355 292.458V195.117C499.355 190.108 496.701 185.474 492.38 182.94L375.548 114.419Z" fill="#C7DCFF"/>
<path fill-rule="evenodd" clip-rule="evenodd" d="M379.42 208.212L392.603 215.727V223.868L379.42 216.352L379.42 208.212Z" fill="#98BDF4"/>
<path fill-rule="evenodd" clip-rule="evenodd" d="M402.962 210.669L416.145 218.185V237.129L402.962 229.614L402.962 210.669Z" fill="#98BDF4"/>
<path fill-rule="evenodd" clip-rule="evenodd" d="M426.503 229.776L439.687 237.291V250.39L426.503 242.874V229.776Z" fill="#98BDF4"/>
<path fill-rule="evenodd" clip-rule="evenodd" d="M450.045 221.754L463.229 229.27V263.651L450.045 256.136L450.045 221.754Z" fill="#98BDF4"/>
<path fill-rule="evenodd" clip-rule="evenodd" d="M473.588 215.124L486.771 222.639V274.071L473.588 266.555L473.588 215.124Z" fill="#98BDF4"/>
<path d="M486.771 205.46C486.771 205.46 477.235 201.234 459.896 205.46C442.557 209.685 438.84 221.52 425.396 208.212C411.953 194.905 409.553 196.729 379.42 199.675" stroke="white" stroke-width="4.95116" stroke-linecap="round"/>
<path fill-rule="evenodd" clip-rule="evenodd" d="M436.353 219.049C434.805 219.839 432.316 218.055 430.795 215.064C429.274 212.072 429.296 209.007 430.844 208.216C432.392 207.426 434.88 209.21 436.402 212.202C437.923 215.193 437.901 218.258 436.353 219.049Z" fill="url(#paint8_linear_109_66)"/>
<path d="M437.169 220.653C435.49 221.51 433.717 220.801 432.515 219.939C431.231 219.018 430.055 217.58 429.191 215.882C428.327 214.183 427.858 212.385 427.869 210.803C427.879 209.323 428.348 207.469 430.027 206.612C431.706 205.755 433.48 206.465 434.681 207.326C435.966 208.247 437.141 209.685 438.005 211.383C438.869 213.082 439.339 214.88 439.328 216.462C439.317 217.942 438.848 219.796 437.169 220.653Z" stroke="white" stroke-opacity="0.285621" stroke-width="3.60084"/>
<path fill-rule="evenodd" clip-rule="evenodd" d="M208.732 263.427C208.732 263.427 206.071 264.327 206.579 268.002C207.086 271.677 209.027 270.395 209.963 273.786C210.899 277.176 213.946 280.002 215.641 280.492C217.335 280.982 220.648 281.608 221.31 278.875C221.973 276.142 208.732 263.427 208.732 263.427Z" fill="#30334F"/>
<path fill-rule="evenodd" clip-rule="evenodd" d="M209.607 262.455C209.607 262.455 205.653 265.561 208.964 270.327C212.274 275.093 212.353 279.432 218.009 279.92C223.665 280.408 221.038 276.787 219.26 274.106C217.169 271.277 216.364 265.083 216.364 265.083L209.607 262.455Z" fill="#181E36"/>
<path fill-rule="evenodd" clip-rule="evenodd" d="M236.444 184.697C236.444 184.697 241.952 219.334 241.344 231.418C240.736 243.502 216.227 267.751 216.227 267.751C216.227 267.751 210.029 267.315 208.783 261.969L225.167 231.418L217.188 186.11L236.444 184.697Z" fill="#092965"/>
<mask id="mask1_109_66" style="mask-type:alpha" maskUnits="userSpaceOnUse" x="208" y="184" width="34" height="84">
<path fill-rule="evenodd" clip-rule="evenodd" d="M236.444 184.697C236.444 184.697 241.952 219.334 241.344 231.418C240.736 243.502 216.227 267.751 216.227 267.751C216.227 267.751 210.029 267.315 208.783 261.969L225.167 231.418L217.188 186.11L236.444 184.697Z" fill="white"/>
</mask>
<g mask="url(#mask1_109_66)">
</g>
<path fill-rule="evenodd" clip-rule="evenodd" d="M235.892 289.134C235.892 289.134 235.493 290.284 235.626 291.785C235.759 293.285 240.304 294.677 241.291 295.103C242.278 295.53 243.35 299.713 248.858 300.653C254.366 301.593 256.621 299.904 256.197 298.011C255.772 296.118 235.892 289.134 235.892 289.134Z" fill="#30334F"/>
<path fill-rule="evenodd" clip-rule="evenodd" d="M244.933 281.87C244.933 281.87 249.768 290.081 254.535 294.79C259.303 299.5 252.747 300.581 248.217 299.5C243.688 298.418 242.793 293.887 240.437 293.158C239.514 292.872 236.055 291.4 235.675 289.593C235.407 288.322 236.609 283.528 236.609 283.528" fill="#181E36"/>
<path fill-rule="evenodd" clip-rule="evenodd" d="M205.615 188.701C205.615 188.701 205.607 203.195 209.812 212.68C211.13 215.654 218.692 226.144 222.176 235.775C226.099 246.622 235.592 283.813 235.592 283.813C235.592 283.813 237.003 286.615 241.291 286.158C245.579 285.701 246.277 283.068 246.277 283.068C246.277 283.068 239.921 239.318 236.168 227.538C232.416 215.757 226.186 185.328 226.186 185.328L205.615 188.701Z" fill="url(#paint9_linear_109_66)"/>
<path d="M207.451 199.57C207.451 199.57 216.819 222.518 225.386 235.88C227.914 240.047 237.281 285.913 237.281 285.913" stroke="#1C478A" stroke-width="0.556114"/>
<path fill-rule="evenodd" clip-rule="evenodd" d="M234.735 140.771C236.863 140.996 248.084 176.244 248.084 176.244L262.901 195.564C262.901 195.564 261.334 194.8 259.656 195.805C257.978 196.811 255.916 198.196 255.916 198.196C255.916 198.196 242.728 185.801 240.569 183.322C238.409 180.842 230.423 154.176 230.882 149.796C231.342 145.417 232.607 140.547 234.735 140.771Z" fill="url(#paint10_linear_109_66)"/>
<mask id="mask2_109_66" style="mask-type:alpha" maskUnits="userSpaceOnUse" x="230" y="140" width="33" height="59">
<path fill-rule="evenodd" clip-rule="evenodd" d="M234.735 140.771C236.863 140.996 248.084 176.244 248.084 176.244L262.901 195.564C262.901 195.564 261.334 194.8 259.656 195.805C257.978 196.811 255.916 198.196 255.916 198.196C255.916 198.196 242.728 185.801 240.569 183.322C238.409 180.842 230.423 154.176 230.882 149.796C231.342 145.417 232.607 140.547 234.735 140.771Z" fill="white"/>
</mask>
<g mask="url(#mask2_109_66)">
<path fill-rule="evenodd" clip-rule="evenodd" d="M233.718 178.302C233.718 178.302 240.345 168.367 238.943 162.841C237.541 157.316 234.953 149.337 235.249 146.52C235.544 143.704 228.031 148.594 228.031 148.594L233.718 178.302Z" fill="#0B224E"/>
</g>
<path fill-rule="evenodd" clip-rule="evenodd" d="M218.032 143.333C213.185 146.058 204.663 151.645 203.059 153.738C201.455 155.831 204.08 165.702 206.283 170.249C208.486 174.796 206.64 187.247 205.254 190.609C204.877 191.524 218.18 196.197 227.476 192.215C235.473 188.789 235.181 184.756 234.466 180.965C233.751 177.174 234.335 171.606 234.335 171.606C234.335 171.606 235.951 156.608 235.445 153.165C234.938 149.722 236.74 142.075 235.192 141.019C233.645 139.963 222.879 140.608 218.032 143.333Z" fill="white"/>
<mask id="mask3_109_66" style="mask-type:alpha" maskUnits="userSpaceOnUse" x="202" y="140" width="34" height="54">
<path fill-rule="evenodd" clip-rule="evenodd" d="M218.032 143.333C213.185 146.058 204.663 151.645 203.059 153.738C201.455 155.831 204.08 165.702 206.283 170.249C208.486 174.796 206.64 187.247 205.254 190.609C204.877 191.524 218.18 196.197 227.476 192.215C235.473 188.789 235.181 184.756 234.466 180.965C233.751 177.174 234.335 171.606 234.335 171.606C234.335 171.606 235.951 156.608 235.445 153.165C234.938 149.722 236.74 142.075 235.192 141.019C233.645 139.963 222.879 140.608 218.032 143.333Z" fill="white"/>
</mask>
<g mask="url(#mask3_109_66)">
<path fill-rule="evenodd" clip-rule="evenodd" d="M225.271 150.809L231.673 152.452C231.673 152.452 229.262 145.825 227.193 143.896C225.123 141.967 225.28 143.899 225.28 143.899C225.28 143.899 225.775 144.436 225.863 146.512C225.95 148.589 225.271 150.809 225.271 150.809Z" fill="url(#paint11_linear_109_66)" fill-opacity="0.2"/>
<g style="mix-blend-mode:multiply">
<path fill-rule="evenodd" clip-rule="evenodd" d="M223.674 141.344C227.055 142.545 229.89 149.522 231.757 157.6C233.623 165.678 232.91 170.852 231.456 177.194C230.745 180.301 229.835 183.586 229.71 186.18C229.58 188.88 229.601 191.384 230.199 192.574C231.371 194.907 236.36 199.228 236.36 199.228C236.36 199.228 232.105 193.776 232.485 189.317C232.865 184.858 237.955 169.942 237.86 164.877C237.765 159.811 235.717 154.899 235.62 150.855C235.523 146.81 236.719 142.268 235.24 141.042C233.76 139.816 228.527 140.42 223.674 141.344Z" fill="url(#paint12_linear_109_66)" fill-opacity="0.2"/>
</g>
<path fill-rule="evenodd" clip-rule="evenodd" d="M214.641 143.177C211.746 144.837 214.36 148.789 218.8 150.097C221.956 151.028 225.109 152.785 225.109 152.785C225.109 152.785 226.049 149.054 226.051 147.321C226.059 141.293 221.059 138.989 221.059 138.989C221.059 138.989 217.537 141.516 214.641 143.177Z" fill="url(#paint13_linear_109_66)"/>
<path fill-rule="evenodd" clip-rule="evenodd" d="M223.785 153.623L224.987 182.922L229.098 186.523L230.666 181.026L226.2 152.621L223.785 153.623Z" fill="url(#paint14_linear_109_66)"/>
<path fill-rule="evenodd" clip-rule="evenodd" d="M223.076 151.305L225.703 150.797L227.183 151.3L226.405 153.867L223.784 154.433L221.67 152.832L223.076 151.305Z" fill="#092965"/>
<path fill-rule="evenodd" clip-rule="evenodd" d="M223.076 151.305L219.051 156.562C219.051 156.562 213.991 147.289 215.602 143.577C215.602 143.577 215.819 147.587 218.237 149.063C220.654 150.539 223.076 151.305 223.076 151.305Z" fill="url(#paint15_linear_109_66)"/>
</g>
<path fill-rule="evenodd" clip-rule="evenodd" d="M216.015 144.488C215.135 146.073 220.051 158.089 221.349 165.028C222.647 171.966 223.016 183.964 223.337 190.848C223.505 194.446 225.441 202.091 225.441 202.091C225.441 202.091 209.634 205.725 203.527 197.208C204.396 194.392 204.402 190.011 205.426 185.209C206.45 180.407 207.016 170.947 203.55 162.542C202.341 154.571 202.102 154.182 202.102 154.182C202.102 154.182 205.541 150.404 216.015 144.488Z" fill="#092965"/>
<mask id="mask4_109_66" style="mask-type:alpha" maskUnits="userSpaceOnUse" x="202" y="144" width="24" height="59">
<path fill-rule="evenodd" clip-rule="evenodd" d="M216.015 144.488C215.135 146.073 220.051 158.089 221.349 165.028C222.647 171.966 223.016 183.964 223.337 190.848C223.505 194.446 225.441 202.091 225.441 202.091C225.441 202.091 209.634 205.725 203.527 197.208C204.396 194.392 204.402 190.011 205.426 185.209C206.45 180.407 207.016 170.947 203.55 162.542C202.341 154.571 202.102 154.182 202.102 154.182C202.102 154.182 205.541 150.404 216.015 144.488Z" fill="white"/>
</mask>
<g mask="url(#mask4_109_66)">
<path fill-rule="evenodd" clip-rule="evenodd" d="M222.259 183.965C221.588 172.414 213.711 168.201 213.711 168.201L216.639 161.528L212.491 160.07C212.491 160.07 214.039 151.796 214.201 148.836C214.362 145.877 214.599 145.18 214.599 145.18L215.832 143.115C215.832 143.115 218.162 141.659 219.829 141.503C221.495 141.347 217.479 143.879 217.479 143.879C217.479 143.879 216.854 143.858 216.403 144.313C215.952 144.767 224.443 166.504 224.443 166.504C224.443 166.504 222.931 195.517 222.259 183.965Z" fill="#0B224E"/>
</g>
<path fill-rule="evenodd" clip-rule="evenodd" d="M214.201 148.836C214.093 150.809 213.511 153.816 212.454 157.856L216.879 160.481L214.191 166.107C217.454 172.293 222.7 178.037 223.149 185.733C222.816 178.1 222.585 171.638 221.349 165.028C220.05 158.089 215.131 146.098 216.012 144.513C216.714 142.955 217.772 142.6 217.772 142.6C217.772 142.6 217.986 142.228 217.512 142.448C217.038 142.667 216.179 143.058 215.602 143.577C215.052 144.072 214.721 144.511 214.557 145.321C214.417 145.866 214.298 147.038 214.201 148.836Z" fill="url(#paint16_linear_109_66)"/>
<path fill-rule="evenodd" clip-rule="evenodd" d="M223.674 141.344C227.055 142.545 230.843 149.421 232.243 157.301C233.644 165.18 232.91 170.852 231.456 177.194C230.003 183.536 232.589 189.082 233.761 191.415C234.933 193.747 236.997 197.639 236.997 197.639C236.997 197.639 237.997 194.256 238.047 189.723C238.097 185.19 235.369 174.923 235.274 169.858C235.213 166.623 235.931 162.57 236.056 158.178C236.127 155.692 236.092 151.861 236.056 150.399C235.959 146.355 236.719 142.268 235.24 141.042C233.76 139.816 228.527 140.42 223.674 141.344Z" fill="#092965"/>
<path fill-rule="evenodd" clip-rule="evenodd" d="M223.674 141.344C227.055 142.545 230.842 149.422 232.243 157.301C233.644 165.181 232.91 170.853 231.456 177.195C231.161 178.484 231.208 180.309 231.245 181.753C231.256 182.194 231.267 182.599 231.266 182.942C231.266 183.142 231.263 183.34 231.258 183.535C231.339 183.639 231.39 183.595 231.407 183.387C231.698 179.742 236.434 165.935 236.434 165.935L233.767 157.495L235.001 156.072C235.001 156.072 228.617 143.82 224.856 141.127C224.461 141.197 224.066 141.27 223.674 141.344Z" fill="url(#paint17_linear_109_66)"/>
<path fill-rule="evenodd" clip-rule="evenodd" d="M215.453 133.962C215.453 133.962 215.589 136.527 215.982 139.309C216.374 142.09 215.964 143.936 215.964 143.936C215.964 143.936 216.581 147.031 220.244 148.331C223.907 149.631 225.183 146.996 225.183 146.996L224.613 139.853L215.453 133.962Z" fill="#FCCBCB"/>
<mask id="mask5_109_66" style="mask-type:alpha" maskUnits="userSpaceOnUse" x="215" y="133" width="11" height="16">
<path fill-rule="evenodd" clip-rule="evenodd" d="M215.453 133.962C215.453 133.962 215.589 136.527 215.982 139.309C216.374 142.09 215.964 143.936 215.964 143.936C215.964 143.936 216.581 147.031 220.244 148.331C223.907 149.631 225.183 146.996 225.183 146.996L224.613 139.853L215.453 133.962Z" fill="white"/>
</mask>
<g mask="url(#mask5_109_66)">
<path fill-rule="evenodd" clip-rule="evenodd" d="M224.997 146.498C224.997 146.498 220.859 146.253 218.782 143.867C216.705 141.482 216.955 137.213 216.955 137.213L225.169 138.915L224.997 146.498Z" fill="url(#paint18_linear_109_66)"/>
</g>
<path fill-rule="evenodd" clip-rule="evenodd" d="M228.663 127.785C228.663 127.785 229.02 129.661 228.817 134.584C228.615 139.507 228.296 142.941 227.861 143.7C227.426 144.459 224.49 145.343 221.757 144.148C219.025 142.953 217.656 141.492 217.181 140.349C216.706 139.205 216.167 137.467 215.363 135.149C214.56 132.83 212.354 129.206 213.276 126.493C214.198 123.781 217.135 121.412 221.627 122.276C226.119 123.14 228.663 127.785 228.663 127.785Z" fill="#FCCBCB"/>
<mask id="mask6_109_66" style="mask-type:alpha" maskUnits="userSpaceOnUse" x="213" y="122" width="16" height="23">
<path fill-rule="evenodd" clip-rule="evenodd" d="M228.663 127.785C228.663 127.785 229.02 129.661 228.817 134.584C228.615 139.507 228.296 142.941 227.861 143.7C227.426 144.459 224.49 145.343 221.757 144.148C219.025 142.953 217.656 141.492 217.181 140.349C216.706 139.205 216.167 137.467 215.363 135.149C214.56 132.83 212.354 129.206 213.276 126.493C214.198 123.781 217.135 121.412 221.627 122.276C226.119 123.14 228.663 127.785 228.663 127.785Z" fill="white"/>
</mask>
<g mask="url(#mask6_109_66)">
</g>
<path fill-rule="evenodd" clip-rule="evenodd" d="M219.098 128.021C219.098 128.021 222.146 129.889 225.557 129.913C228.968 129.936 230.422 128.494 230.009 126.222C229.596 123.95 226.653 120.921 221.081 120.498C215.51 120.075 214.142 124.26 214.142 124.26C214.142 124.26 212.532 124.386 212.278 126.149C212.024 127.912 213.575 133.626 214.567 134.845C215.558 136.063 216.209 133.874 216.209 133.874C216.209 133.874 216.148 136.072 216.628 135.554C217.108 135.036 217.403 135.104 217.297 133.582C217.191 132.059 217.449 131.123 218.149 131.126C218.85 131.128 219.693 129.911 219.546 129.081C219.398 128.251 219.098 128.021 219.098 128.021Z" fill="#30334F"/>
<mask id="mask7_109_66" style="mask-type:alpha" maskUnits="userSpaceOnUse" x="212" y="120" width="19" height="16">
<path fill-rule="evenodd" clip-rule="evenodd" d="M219.098 128.021C219.098 128.021 222.146 129.889 225.557 129.913C228.968 129.936 230.422 128.494 230.009 126.222C229.596 123.95 226.653 120.921 221.081 120.498C215.51 120.075 214.142 124.26 214.142 124.26C214.142 124.26 212.532 124.386 212.278 126.149C212.024 127.912 213.575 133.626 214.567 134.845C215.558 136.063 216.209 133.874 216.209 133.874C216.209 133.874 216.148 136.072 216.628 135.554C217.108 135.036 217.403 135.104 217.297 133.582C217.191 132.059 217.449 131.123 218.149 131.126C218.85 131.128 219.693 129.911 219.546 129.081C219.398 128.251 219.098 128.021 219.098 128.021Z" fill="white"/>
</mask>
<g mask="url(#mask7_109_66)">
<path fill-rule="evenodd" clip-rule="evenodd" d="M217.9 131.459C217.9 131.459 215.057 129.519 213.464 129.673C211.871 129.827 211.729 131.184 211.729 131.184C211.729 131.184 214.558 137.361 214.849 137.391C215.14 137.422 218.275 137.104 218.275 137.104L217.9 131.459Z" fill="url(#paint19_linear_109_66)"/>
<path fill-rule="evenodd" clip-rule="evenodd" d="M214.482 124.645L218.707 127.847C218.707 127.847 217.058 126.965 215.833 126.166C214.608 125.367 214.482 124.645 214.482 124.645Z" fill="#031120"/>
<path fill-rule="evenodd" clip-rule="evenodd" d="M221.072 127.187C221.072 127.187 226.078 129.241 228.488 126.562C225.647 128.577 221.072 127.187 221.072 127.187Z" fill="#031120"/>
</g>
<path fill-rule="evenodd" clip-rule="evenodd" d="M216.174 132.807C216.174 132.807 216.014 132.168 215.125 131.79C214.236 131.411 213.402 132.803 213.989 134.217C214.351 135.09 214.654 135.699 215.274 136.218C215.427 136.347 215.743 136.267 215.743 136.267C215.743 136.267 215.868 136.64 215.943 136.845C216.105 136.111 216.184 134.932 216.195 134.449C216.216 133.512 216.174 132.807 216.174 132.807Z" fill="#FCCBCB"/>
<path fill-rule="evenodd" clip-rule="evenodd" d="M215.636 133.038C215.636 133.038 215.164 132.527 214.78 132.637C214.396 132.746 214.17 133.574 214.678 134.345C215.187 135.117 215.49 135.182 215.49 135.182L215.636 133.038Z" fill="url(#paint20_linear_109_66)"/>
<path fill-rule="evenodd" clip-rule="evenodd" d="M233.416 205.068C233.494 205.068 235.318 212.472 247.381 212.622C259.444 212.773 234.506 201.03 234.506 201.03C234.506 201.03 233.339 205.068 233.416 205.068Z" fill="url(#paint21_linear_109_66)"/>
<path fill-rule="evenodd" clip-rule="evenodd" d="M202.569 153.721C197.382 157.895 196.944 170.103 203.716 181.482C210.488 192.861 207.379 190.091 212.465 193.679C217.552 197.267 234.126 207.601 234.126 207.601C234.126 207.601 235.099 203.125 239.361 203.125L217.721 184.368C217.721 184.368 207.997 153.096 202.569 153.721Z" fill="url(#paint22_linear_109_66)"/>
<path fill-rule="evenodd" clip-rule="evenodd" d="M233.733 204.571C234.13 204.571 234.452 204.244 234.452 203.842C234.452 203.439 234.13 203.113 233.733 203.113C233.337 203.113 233.015 203.439 233.015 203.842C233.015 204.244 233.337 204.571 233.733 204.571Z" fill="#D8D8D8"/>
<path d="M263.566 226.833C250.865 226.833 240.568 220.296 240.568 212.232C240.568 211.061 240.568 207.777 240.568 207.777C240.568 207.777 252.709 197.63 263.566 197.63C276.268 197.63 286.565 204.168 286.565 212.232C286.565 220.296 276.268 226.833 263.566 226.833Z" fill="#C06100"/>
<path fill-rule="evenodd" clip-rule="evenodd" d="M263.566 223.863C250.865 223.863 240.568 217.326 240.568 209.262C240.568 201.198 250.865 194.661 263.566 194.661C276.268 194.661 286.565 201.198 286.565 209.262C286.565 217.326 276.268 223.863 263.566 223.863Z" fill="white"/>
<path d="M263.566 222.89C250.865 222.89 240.568 216.238 240.568 208.033C240.568 199.828 250.865 193.176 263.566 193.176C276.268 193.176 286.565 199.828 286.565 208.033C286.565 216.238 276.268 222.89 263.566 222.89Z" fill="#FFB74F"/>
<path d="M263.319 219.904C252.939 219.904 244.524 214.585 244.524 208.025C244.524 201.464 252.939 196.146 263.319 196.146C273.699 196.146 282.113 201.464 282.113 208.025C282.113 214.585 273.699 219.904 263.319 219.904Z" fill="#C06100"/>
<mask id="mask8_109_66" style="mask-type:alpha" maskUnits="userSpaceOnUse" x="244" y="196" width="39" height="24">
<path d="M263.319 219.904C252.939 219.904 244.524 214.585 244.524 208.025C244.524 201.464 252.939 196.146 263.319 196.146C273.699 196.146 282.113 201.464 282.113 208.025C282.113 214.585 273.699 219.904 263.319 219.904Z" fill="white"/>
</mask>
<g mask="url(#mask8_109_66)">
<path d="M263.319 221.884C252.939 221.884 244.524 216.565 244.524 210.005C244.524 203.444 252.939 198.125 263.319 198.125C273.699 198.125 282.113 203.444 282.113 210.005C282.113 216.565 273.699 221.884 263.319 221.884Z" fill="#FF8900"/>
<path fill-rule="evenodd" clip-rule="evenodd" d="M274.724 207.382C274.724 207.382 273.483 206.704 272.92 206.289L274.636 205.617L274.636 203.637L272.92 204.309L271.887 205.528C271.346 205.221 270.721 204.963 270.01 204.753C269.299 204.542 268.559 204.402 267.789 204.333C267.019 204.264 266.225 204.277 265.405 204.374C264.586 204.472 263.792 204.67 263.024 204.971C262.4 205.216 261.85 205.152 261.421 205.101C260.996 205.052 260.689 205.016 260.54 205.305C260.241 205.887 260.464 207.816 260.865 208.554C260.865 208.554 256.674 210.543 256.508 210.172C256.343 209.801 256.386 209.413 256.638 209.008L251.986 207.384C251.772 208.057 251.936 210.246 252.325 210.865C252.714 211.484 252.225 211.247 252.225 211.247L252.225 213.227L253.258 213.988L254.974 213.316C255.567 213.661 256.223 213.951 256.944 214.187C257.664 214.423 258.425 214.578 259.227 214.653C260.029 214.728 260.856 214.71 261.708 214.6C262.56 214.49 263.419 214.266 264.285 213.926C265.429 213.478 266.167 212.957 266.499 212.362C266.83 211.767 266.757 209.378 266.757 209.378L265.638 209.14L269.537 207.614C269.838 207.873 270.072 208.152 270.24 208.451C270.408 208.75 270.446 209.059 270.353 209.378L274.724 209.362L274.724 207.382ZM259.092 212.242C258.84 212.158 258.611 212.068 258.406 211.972L262.083 210.532L262.209 210.819C262.263 210.95 262.308 211.08 262.343 211.208C262.378 211.335 262.381 211.458 262.353 211.575C262.324 211.692 262.248 211.807 262.126 211.92C262.004 212.032 261.812 212.14 261.55 212.242C261.272 212.351 260.992 212.417 260.71 212.439C260.427 212.461 260.15 212.455 259.877 212.42C259.605 212.386 259.343 212.326 259.092 212.242Z" fill="#C06100"/>
<path fill-rule="evenodd" clip-rule="evenodd" d="M272.92 204.309C273.483 204.724 273.953 205.199 274.329 205.735C274.705 206.271 274.837 206.82 274.724 207.382L270.353 207.398C270.446 207.079 270.408 206.77 270.24 206.47C270.072 206.171 269.838 205.892 269.537 205.633L265.638 207.16L266.454 208.536C266.816 209.171 266.83 209.787 266.499 210.382C266.167 210.977 265.429 211.498 264.285 211.946C263.419 212.285 262.56 212.51 261.708 212.62C260.856 212.729 260.029 212.747 259.227 212.672C258.425 212.598 257.664 212.443 256.944 212.207C256.223 211.971 255.567 211.68 254.974 211.336L253.258 212.007L252.225 211.246L253.941 210.574C253.253 210.067 252.714 209.503 252.325 208.885C251.936 208.266 251.848 207.62 252.062 206.947L256.638 207.028C256.386 207.433 256.343 207.82 256.508 208.191C256.674 208.562 256.946 208.915 257.324 209.249L261.468 207.627L260.865 206.574C260.464 205.836 260.414 205.176 260.713 204.594C261.011 204.011 261.782 203.477 263.024 202.991C263.792 202.69 264.586 202.491 265.405 202.394C266.225 202.297 267.019 202.283 267.789 202.353C268.559 202.422 269.299 202.562 270.01 202.772C270.721 202.983 271.346 203.241 271.887 203.547L273.603 202.875L274.636 203.637L272.92 204.309ZM268.43 204.901C268.04 204.724 267.608 204.599 267.133 204.526C266.659 204.453 266.16 204.519 265.637 204.723C265.261 204.871 265.014 205.02 264.895 205.173C264.776 205.325 264.718 205.471 264.721 205.612C264.724 205.752 264.763 205.878 264.839 205.989C264.915 206.101 264.968 206.186 264.998 206.245L268.43 204.901ZM259.092 210.262C258.84 210.178 258.611 210.088 258.406 209.992L262.083 208.552L262.209 208.838C262.263 208.97 262.308 209.1 262.343 209.227C262.378 209.355 262.381 209.477 262.353 209.594C262.324 209.711 262.248 209.826 262.126 209.939C262.004 210.052 261.812 210.159 261.55 210.262C261.272 210.371 260.992 210.436 260.71 210.458C260.427 210.481 260.15 210.475 259.877 210.44C259.605 210.405 259.343 210.346 259.092 210.262Z" fill="#FFB74F"/>
</g>
<path fill-rule="evenodd" clip-rule="evenodd" d="M239.06 207.821C239.06 207.821 243.308 207.255 244.748 207.821C246.188 208.387 242.865 208.93 242.119 209.77C241.372 210.61 239.06 208.865 239.06 208.865V207.821Z" fill="#FCCBCB"/>
<path d="M305.881 243.493C318.583 243.493 328.88 236.956 328.88 228.892C328.88 227.721 328.88 224.437 328.88 224.437C328.88 224.437 316.738 214.291 305.881 214.291C293.179 214.291 282.883 220.828 282.883 228.892C282.883 236.956 293.179 243.493 305.881 243.493Z" fill="#C06100"/>
<path fill-rule="evenodd" clip-rule="evenodd" d="M305.881 240.523C318.583 240.523 328.88 233.986 328.88 225.922C328.88 217.858 318.583 211.32 305.881 211.32C293.179 211.32 282.883 217.858 282.883 225.922C282.883 233.986 293.179 240.523 305.881 240.523Z" fill="white"/>
<path d="M305.881 240.028C318.583 240.028 328.88 233.491 328.88 225.427C328.88 217.363 318.583 210.826 305.881 210.826C293.179 210.826 282.883 217.363 282.883 225.427C282.883 233.491 293.179 240.028 305.881 240.028Z" fill="#FFB74F"/>
<path d="M306.128 236.564C316.508 236.564 324.923 231.245 324.923 224.685C324.923 218.124 316.508 212.806 306.128 212.806C295.748 212.806 287.334 218.124 287.334 224.685C287.334 231.245 295.748 236.564 306.128 236.564Z" fill="#C06100"/>
<mask id="mask9_109_66" style="mask-type:alpha" maskUnits="userSpaceOnUse" x="287" y="212" width="38" height="25">
<path d="M306.128 236.564C316.508 236.564 324.923 231.245 324.923 224.685C324.923 218.124 316.508 212.806 306.128 212.806C295.748 212.806 287.334 218.124 287.334 224.685C287.334 231.245 295.748 236.564 306.128 236.564Z" fill="white"/>
</mask>
<g mask="url(#mask9_109_66)">
<path d="M306.128 238.544C316.508 238.544 324.923 233.225 324.923 226.665C324.923 220.104 316.508 214.786 306.128 214.786C295.748 214.786 287.334 220.104 287.334 226.665C287.334 233.225 295.748 238.544 306.128 238.544Z" fill="#FF8900"/>
<path fill-rule="evenodd" clip-rule="evenodd" d="M302.03 228.139C301.987 228.099 301.946 228.059 301.907 228.019L311.255 224.225C311.591 224.562 311.841 224.684 311.841 224.684V226.347L315.447 227.006C315.617 226.635 315.7 226.266 315.696 225.898C315.692 225.53 315.624 225.176 315.491 224.835C315.358 224.493 315.178 224.167 314.95 223.856C314.728 223.553 314.482 223.276 314.213 223.024L316.575 222.066V220.427L315.029 220.733L312.522 221.77C312.212 221.59 311.89 221.425 311.555 221.275C310.564 220.832 309.513 220.537 308.401 220.392C307.289 220.246 306.146 220.258 304.971 220.427C303.797 220.597 302.648 220.936 301.526 221.445C300.403 221.954 299.518 222.538 298.871 223.195C298.223 223.852 297.815 224.544 297.646 225.271C297.477 225.997 297.545 226.738 297.848 227.493C297.888 227.591 297.931 227.688 297.978 227.785L296.288 226.894V228.484L297.779 229.694L298.975 229.209C299.123 229.37 299.283 229.53 299.455 229.69C300.13 230.314 300.985 230.832 302.019 231.242C303.053 231.653 304.194 231.862 305.442 231.869L305.56 229.33C304.863 229.34 304.211 229.247 303.605 229.05C302.999 228.853 302.474 228.55 302.03 228.139ZM305.79 222.905C306.488 222.786 307.165 222.753 307.822 222.806C308.35 222.848 308.85 222.944 309.323 223.094L301.206 226.45C301.206 226.213 301.25 225.975 301.338 225.737C301.492 225.324 301.77 224.926 302.175 224.545C302.58 224.164 303.112 223.824 303.772 223.524C304.419 223.231 305.092 223.024 305.79 222.905Z" fill="#C06100"/>
<path fill-rule="evenodd" clip-rule="evenodd" d="M301.907 226.368L311.255 222.574C311.591 222.911 311.809 223.248 311.909 223.584C312.021 223.961 311.998 224.331 311.841 224.696L315.447 225.355C315.617 224.985 315.7 224.615 315.696 224.248C315.692 223.88 315.624 223.525 315.491 223.184C315.358 222.842 315.178 222.516 314.95 222.205C314.728 221.902 314.482 221.625 314.213 221.373L316.575 220.415L315.029 219.082L312.522 220.119C312.212 219.939 311.89 219.774 311.555 219.624C310.564 219.181 309.513 218.887 308.401 218.741C307.289 218.595 306.146 218.607 304.971 218.776C303.797 218.946 302.648 219.285 301.526 219.794C300.403 220.303 299.518 220.887 298.871 221.544C298.223 222.201 297.815 222.893 297.646 223.62C297.477 224.346 297.545 225.087 297.848 225.842C297.888 225.94 297.931 226.037 297.978 226.134L296.288 226.833L297.779 228.043L298.975 227.558C299.123 227.719 299.283 227.88 299.455 228.039C300.13 228.663 300.985 229.181 302.019 229.591C303.053 230.002 304.194 230.211 305.442 230.218L305.56 227.679C304.863 227.689 304.211 227.596 303.605 227.399C302.999 227.202 302.474 226.899 302.03 226.488C301.987 226.448 301.946 226.408 301.907 226.368ZM307.822 221.155C308.35 221.197 308.85 221.293 309.323 221.443L301.206 224.799C301.206 224.562 301.25 224.324 301.338 224.087C301.492 223.673 301.77 223.276 302.175 222.894C302.58 222.513 303.112 222.173 303.772 221.873C304.419 221.58 305.092 221.374 305.79 221.255C306.488 221.136 307.165 221.102 307.822 221.155Z" fill="#FFB74F"/>
</g>
<path fill-rule="evenodd" clip-rule="evenodd" d="M335.576 279.403L335.071 282.917C335.071 282.917 337.087 288.87 337.723 296.377C338.359 303.884 337.336 316.866 338.548 319.229C339.76 321.592 338.902 323.231 337.88 323.663C336.858 324.094 335.499 323.027 332.44 320.586C329.381 318.145 325.538 316.702 326.139 315.37C326.74 314.038 332.213 316.691 332.852 315.722C333.49 314.753 327.474 284.549 327.857 282.538C328.24 280.527 328.823 274.239 328.823 274.239L335.576 279.403Z" fill="#FFBBB0"/>
<path fill-rule="evenodd" clip-rule="evenodd" d="M332.52 280.482L331.729 285.072C331.729 285.072 333.06 294.55 333.641 300.512C334.222 306.473 335.315 320.954 335.315 320.954L333.856 321.691L327.978 281.321L332.52 280.482Z" fill="#F29E98"/>
<path fill-rule="evenodd" clip-rule="evenodd" d="M338.646 317.836C338.646 317.836 337.911 317.308 337.476 317.775C337.04 318.242 334.236 319.343 332.4 318.76C330.564 318.176 328.413 316.411 328.445 315.789C328.478 315.168 331.148 313.97 331.148 313.97C331.148 313.97 327.669 312.951 326.318 313.717C324.967 314.482 326.302 317.281 327.539 317.925C328.776 318.57 335.29 323.23 335.751 323.254C336.212 323.278 336.986 327.123 336.986 327.123C336.986 327.123 337.49 327.385 337.972 327.175C337.972 327.175 339.218 322.443 339.311 320.672C339.404 318.9 338.646 317.836 338.646 317.836Z" fill="#181E36"/>
<path fill-rule="evenodd" clip-rule="evenodd" d="M329.846 278.556L329.317 284.103C329.317 284.103 331.377 291.763 332.171 297.196C332.965 302.628 333.645 317.427 334.183 318.805C334.721 320.183 335.267 323.789 333.657 324.591C332.631 325.101 333.575 324.1 330.768 323.998C329.167 323.941 323.688 325.839 322.103 325.756C317.739 325.527 317.789 324.206 318.467 323.58C318.82 323.255 322.104 321.786 322.104 321.786C322.104 321.786 326.459 320.579 327.042 319.809C328.259 318.204 328.517 316.069 328.208 313.637C327.899 311.205 320.938 285.358 320.655 282.994C320.372 280.629 320.398 274.12 320.398 274.12L329.846 278.556Z" fill="#FFBBB0"/>
<rect width="2.47296" height="0.989921" rx="0.42778" transform="matrix(-0.998625 -0.0524176 -0.0522544 0.998634 320.545 195.891)" fill="#30334F"/>
<path fill-rule="evenodd" clip-rule="evenodd" d="M320.036 192.575C320.036 192.575 318.492 195.625 318.877 197.075C319.263 198.524 318.811 200.085 317.914 200.617C317.016 201.15 318.62 201.999 318.62 201.999C318.62 201.999 318.651 203.763 319.165 205.223C319.679 206.682 319.491 207.817 321.138 207.903C322.786 207.99 324.697 207.746 324.697 207.746C324.697 207.746 325.868 209.413 325.404 210.44C324.941 211.467 322.604 211.986 323.052 212.661C323.5 213.336 335.474 215.246 336.166 214.218C336.858 213.191 331.444 210.652 331.65 206.709C331.856 202.766 332.294 190.136 327.376 189.878C322.458 189.62 320.036 192.575 320.036 192.575Z" fill="#FFBBB0"/>
<path fill-rule="evenodd" clip-rule="evenodd" d="M324.161 200.854C324.161 200.854 324.767 200.079 325.165 200.369C325.562 200.659 325.663 201.376 325.066 202.262C324.468 203.148 323.936 202.397 323.936 202.397L324.161 200.854Z" fill="url(#paint23_linear_109_66)"/>
<path fill-rule="evenodd" clip-rule="evenodd" d="M320.505 240.356C320.505 240.356 317.989 252.981 318.124 261.221C318.26 269.461 319.385 280.556 319.385 280.556C319.385 280.556 322.734 282.721 327.707 282.982C332.68 283.243 336.172 280.78 336.172 280.78C336.172 280.78 338.88 266.643 340.984 263.476C343.087 260.31 345.718 254.592 344.234 247.824C342.749 241.057 338.818 237.327 338.818 237.327C338.818 237.327 333.582 235.513 331.08 236.151C328.577 236.789 320.505 240.356 320.505 240.356Z" fill="url(#paint24_linear_109_66)"/>
<mask id="mask10_109_66" style="mask-type:alpha" maskUnits="userSpaceOnUse" x="318" y="236" width="27" height="48">
<path fill-rule="evenodd" clip-rule="evenodd" d="M320.505 240.356C320.505 240.356 317.989 252.981 318.124 261.221C318.26 269.461 319.385 280.556 319.385 280.556C319.385 280.556 322.734 282.721 327.707 282.982C332.68 283.243 336.172 280.78 336.172 280.78C336.172 280.78 338.88 266.643 340.984 263.476C343.087 260.31 345.718 254.592 344.234 247.824C342.749 241.057 338.818 237.327 338.818 237.327C338.818 237.327 333.582 235.513 331.08 236.151C328.577 236.789 320.505 240.356 320.505 240.356Z" fill="white"/>
</mask>
<g mask="url(#mask10_109_66)">
<path d="M322.597 241.491C322.597 241.491 320.895 252.8 321.203 257.512C321.512 262.224 321.134 281.791 321.134 281.791" stroke="#1C478A" stroke-width="0.42778"/>
</g>
<path fill-rule="evenodd" clip-rule="evenodd" d="M338.447 236.895C338.447 236.895 338.75 240.267 332.849 241.938C326.947 243.61 319.869 242.427 320.003 239.87C320.137 237.313 338.447 236.895 338.447 236.895Z" fill="#092965"/>
<path fill-rule="evenodd" clip-rule="evenodd" d="M321.35 214.332C321.35 214.332 322.613 211.165 324.523 210.176C326.434 209.187 332.391 206.584 332.951 210.321L321.35 214.332Z" fill="#D8D8D8"/>
<path fill-rule="evenodd" clip-rule="evenodd" d="M320.232 194.178C320.232 194.178 318.924 191.249 319.524 189.094C320.124 186.938 322.417 184.245 326.122 185.542C330.826 185.021 336.336 187.062 337.426 193.735C338.515 200.408 336.895 206.408 332.116 207.191C327.336 207.975 324.896 204.148 324.896 204.148C324.896 204.148 327.133 202.394 326.279 200.623C325.425 198.851 323.315 200.277 323.315 200.277L320.232 194.178Z" fill="#30334F"/>
<path fill-rule="evenodd" clip-rule="evenodd" d="M336.641 211.012C336.641 211.012 339.72 211.417 340.778 218.086C341.836 224.755 345.365 232.192 341.818 234.578C338.271 236.964 334.834 226.641 334.834 226.641L336.641 211.012Z" fill="#F0F0F0"/>
<mask id="mask11_109_66" style="mask-type:alpha" maskUnits="userSpaceOnUse" x="334" y="211" width="10" height="24">
<path fill-rule="evenodd" clip-rule="evenodd" d="M336.641 211.012C336.641 211.012 339.72 211.417 340.778 218.086C341.836 224.755 345.365 232.192 341.818 234.578C338.271 236.964 334.834 226.641 334.834 226.641L336.641 211.012Z" fill="white"/>
</mask>
<g mask="url(#mask11_109_66)">
<path fill-rule="evenodd" clip-rule="evenodd" d="M335.85 210.137C335.85 210.137 338.93 210.542 339.988 217.211C341.045 223.88 344.575 231.317 341.028 233.703C337.481 236.089 334.044 225.766 334.044 225.766L335.85 210.137Z" fill="#D8D8D8"/>
</g>
<path fill-rule="evenodd" clip-rule="evenodd" d="M339.161 215.777C338.795 215.078 338.23 211.853 336.354 211.145C334.001 210.256 330.607 210.193 328.569 210.736C324.781 211.746 318.559 214.958 317.961 215.966C317.363 216.975 316.369 221.044 315.797 223.296C315.226 225.548 313.853 231.355 318.431 231.278C318.431 231.278 319.58 233.599 319.474 235.622C319.369 237.646 318.85 238.8 320.581 240.441C322.311 242.082 329.862 242.097 333.239 241.105C336.617 240.113 338.558 237.924 339.532 236.675C340.506 235.427 338.161 230.058 338.161 230.058C338.161 230.058 339.987 217.354 339.161 215.777Z" fill="url(#paint25_linear_109_66)"/>
<mask id="mask12_109_66" style="mask-type:alpha" maskUnits="userSpaceOnUse" x="315" y="210" width="25" height="32">
<path fill-rule="evenodd" clip-rule="evenodd" d="M339.161 215.777C338.795 215.078 338.23 211.853 336.354 211.145C334.001 210.256 330.607 210.193 328.569 210.736C324.781 211.746 318.559 214.958 317.961 215.966C317.363 216.975 316.369 221.044 315.797 223.296C315.226 225.548 313.853 231.355 318.431 231.278C318.431 231.278 319.58 233.599 319.474 235.622C319.369 237.646 318.85 238.8 320.581 240.441C322.311 242.082 329.862 242.097 333.239 241.105C336.617 240.113 338.558 237.924 339.532 236.675C340.506 235.427 338.161 230.058 338.161 230.058C338.161 230.058 339.987 217.354 339.161 215.777Z" fill="white"/>
</mask>
<g mask="url(#mask12_109_66)">
<path fill-rule="evenodd" clip-rule="evenodd" d="M318.613 217.932C318.613 217.932 320.475 227.985 316.226 232.945C311.977 237.904 317.574 237.786 317.574 237.786C317.574 237.786 319.78 232.493 320.297 227.819C320.814 223.145 318.613 217.932 318.613 217.932Z" fill="#D8D8D8"/>
</g>
<path fill-rule="evenodd" clip-rule="evenodd" d="M295.033 233.42C294.187 233.037 292.251 231.438 291.16 232.999C289.101 232.796 286.915 232.802 285.967 232.926C284.353 233.136 282.89 234.022 282.089 234.164C281.288 234.306 282.379 235.519 283.378 235.157C284.377 234.796 286.159 234.312 286.708 234.394C287.258 234.477 288.334 234.769 288.334 234.769C288.334 234.769 286.276 235.205 285.789 235.657C285.301 236.11 285.382 237.838 285.039 238.543C284.695 239.249 285.842 239.364 286.077 238.823C286.077 238.823 286.208 239.484 286.254 239.785C286.313 240.173 286.294 240.641 286.452 240.685C286.873 240.801 287.641 240.34 287.436 239.373C287.436 239.373 287.845 239.743 288.206 240.259C288.567 240.774 289.127 240.081 288.956 239.52C288.785 238.96 288.511 238.581 288.511 238.581C288.511 238.581 291.931 239.836 293.272 239.818C294.613 239.801 296.298 238.558 296.298 238.558L307.068 242.078L308.317 237.272C308.317 237.272 297.08 234.349 295.033 233.42Z" fill="#FFBBB0"/>
<mask id="mask13_109_66" style="mask-type:alpha" maskUnits="userSpaceOnUse" x="281" y="232" width="28" height="11">
<path fill-rule="evenodd" clip-rule="evenodd" d="M295.033 233.42C294.187 233.037 292.251 231.438 291.16 232.999C289.101 232.796 286.915 232.802 285.967 232.926C284.353 233.136 282.89 234.022 282.089 234.164C281.288 234.306 282.379 235.519 283.378 235.157C284.377 234.796 286.159 234.312 286.708 234.394C287.258 234.477 288.334 234.769 288.334 234.769C288.334 234.769 286.276 235.205 285.789 235.657C285.301 236.11 285.382 237.838 285.039 238.543C284.695 239.249 285.842 239.364 286.077 238.823C286.077 238.823 286.208 239.484 286.254 239.785C286.313 240.173 286.294 240.641 286.452 240.685C286.873 240.801 287.641 240.34 287.436 239.373C287.436 239.373 287.845 239.743 288.206 240.259C288.567 240.774 289.127 240.081 288.956 239.52C288.785 238.96 288.511 238.581 288.511 238.581C288.511 238.581 291.931 239.836 293.272 239.818C294.613 239.801 296.298 238.558 296.298 238.558L307.068 242.078L308.317 237.272C308.317 237.272 297.08 234.349 295.033 233.42Z" fill="white"/>
</mask>
<g mask="url(#mask13_109_66)">
<path fill-rule="evenodd" clip-rule="evenodd" d="M286.078 238.824C286.078 238.824 285.637 236.382 286.607 235.965C287.577 235.548 288.132 235.342 288.132 235.342C288.132 235.342 286.237 235.366 285.908 236.023C285.761 236.317 285.347 238.379 285.449 239.12C285.924 239.175 286.078 238.824 286.078 238.824Z" fill="#F29E98"/>
<path fill-rule="evenodd" clip-rule="evenodd" d="M287.438 239.353C287.438 239.353 286.302 237.79 286.553 237.204C286.804 236.618 288.255 236.134 288.255 236.134C288.255 236.134 286.946 235.983 286.44 236.835C286.171 237.288 286.488 238.212 286.891 239.52C286.993 239.849 287.012 240.547 287.012 240.547C287.012 240.547 287.311 240.364 287.4 239.977C287.488 239.59 287.438 239.353 287.438 239.353Z" fill="#F29E98"/>
<path fill-rule="evenodd" clip-rule="evenodd" d="M291.16 232.999L292.679 233.053L291.139 232.073L291.16 232.999Z" fill="#F29E98"/>
</g>
<path fill-rule="evenodd" clip-rule="evenodd" d="M301.026 234.421C301.003 234.429 299.239 232.979 297.78 234.421C296.322 235.862 296.491 239.547 298.659 239.512C300.826 239.476 301.05 234.414 301.026 234.421Z" fill="#D8D8D8"/>
<path fill-rule="evenodd" clip-rule="evenodd" d="M318.154 216.358C318.154 216.358 315.422 219.486 315.588 226.816C315.755 234.147 314.82 236.227 314.82 236.227C314.82 236.227 304.395 235.658 302.132 234.347C299.869 233.036 298.576 235.694 298.392 237.31C298.208 238.926 297.794 240.865 302.315 242.256C306.837 243.647 319.082 245.196 321.198 241.542C323.314 237.888 323.436 225.483 322.532 222.523C321.629 219.563 318.154 216.358 318.154 216.358Z" fill="#FFFEFE"/>
<mask id="mask14_109_66" style="mask-type:alpha" maskUnits="userSpaceOnUse" x="298" y="216" width="26" height="28">
<path fill-rule="evenodd" clip-rule="evenodd" d="M318.154 216.358C318.154 216.358 315.422 219.486 315.588 226.816C315.755 234.147 314.82 236.227 314.82 236.227C314.82 236.227 304.395 235.658 302.132 234.347C299.869 233.036 298.576 235.694 298.392 237.31C298.208 238.926 297.794 240.865 302.315 242.256C306.837 243.647 319.082 245.196 321.198 241.542C323.314 237.888 323.436 225.483 322.532 222.523C321.629 219.563 318.154 216.358 318.154 216.358Z" fill="white"/>
</mask>
<g mask="url(#mask14_109_66)">
<path fill-rule="evenodd" clip-rule="evenodd" d="M322.901 224.344C322.901 224.344 322.553 225.84 322.719 233.17C322.309 237.149 322.004 242.54 318.334 243.012C314.665 243.485 309.992 243.676 304.841 242.482C299.69 241.288 298.779 239.557 297.942 239.578C297.758 241.194 303.851 248.395 308.372 249.786C312.893 251.177 325.138 252.726 327.254 249.072C329.37 245.418 329.492 233.013 328.588 230.053C327.685 227.093 322.901 224.344 322.901 224.344Z" fill="#D8D8D8"/>
</g>
<path fill-rule="evenodd" clip-rule="evenodd" d="M335.283 206.707C331.873 206.528 329.254 203.617 329.432 200.204C329.611 196.792 332.52 194.171 335.929 194.35C339.339 194.529 341.958 197.44 341.78 200.852C341.601 204.265 338.692 206.886 335.283 206.707Z" fill="#181E36"/>
<path fill-rule="evenodd" clip-rule="evenodd" d="M334.542 319.815C334.224 319.381 333.974 319.368 332.98 320.132C331.8 321.039 327.436 322.479 325.559 322.863C324.357 323.109 321.369 323.106 321.489 322.65C321.616 322.168 322.147 322.155 322.283 322.004C322.548 321.708 317.707 323.73 316.609 324.518C315.512 325.306 315.433 326.809 320.805 328.26C321.352 328.408 324.389 328.209 325.443 327.854C327.807 327.059 328.912 325.483 331.405 325.295L332.234 330.138C332.234 330.138 333.012 330.616 333.666 330.053C333.666 330.053 334.96 323.027 335.021 321.871C335.081 320.714 334.708 320.042 334.542 319.815Z" fill="#181E36"/>
<path fill-rule="evenodd" clip-rule="evenodd" d="M110.161 379.742L145.546 400.193L140.998 402.153V409.587L198.991 412.302V404.895L193.414 380.062L182.877 386.186L140.998 362.457L110.161 372.012V379.742Z" fill="#80B1FF"/>
<path fill-rule="evenodd" clip-rule="evenodd" d="M110.161 372.012L151.478 396.127L140.998 402.153L198.991 404.895L193.414 372.335L182.877 378.52L140.998 354.555L110.161 372.012Z" fill="#CBDFFF"/>
<path fill-rule="evenodd" clip-rule="evenodd" d="M142.251 345.853L183.437 370.038L214.78 352.007V345.569L172.99 328.347L183.437 322.391V315.953L128.845 317.522V353.517L142.251 345.853Z" fill="url(#paint26_linear_109_66)"/>
<path fill-rule="evenodd" clip-rule="evenodd" d="M142.251 339.415L183.437 363.6L214.78 345.569L172.99 321.909L183.437 315.953L128.845 311.084V347.08L142.251 339.415Z" fill="#80B1FF"/>
<defs>
<linearGradient id="paint0_linear_109_66" x1="445.39" y1="179.441" x2="97.3054" y2="203.948" gradientUnits="userSpaceOnUse">
<stop stop-color="#7187B5"/>
<stop offset="1" stop-color="#BFCDED"/>
</linearGradient>
<linearGradient id="paint1_linear_109_66" x1="174.69" y1="380.087" x2="468.791" y2="338.22" gradientUnits="userSpaceOnUse">
<stop stop-color="#C4D5FF"/>
<stop offset="0.499857" stop-color="#C9DDFF"/>
<stop offset="0.5319" stop-color="#E1ECFF"/>
<stop offset="1" stop-color="#D5E1FF"/>
</linearGradient>
<linearGradient id="paint2_linear_109_66" x1="375.161" y1="126.32" x2="104.445" y2="302.997" gradientUnits="userSpaceOnUse">
<stop stop-color="#C0E1FF"/>
<stop offset="1" stop-color="white"/>
</linearGradient>
<linearGradient id="paint3_linear_109_66" x1="220.287" y1="344.095" x2="471.71" y2="320.785" gradientUnits="userSpaceOnUse">
<stop stop-color="#6D94E7"/>
<stop offset="1" stop-color="#7E9EEF"/>
</linearGradient>
<linearGradient id="paint4_linear_109_66" x1="283.443" y1="266.32" x2="273.645" y2="330.669" gradientUnits="userSpaceOnUse">
<stop stop-color="#6D7FE7"/>
<stop offset="1" stop-color="#4E60CD"/>
</linearGradient>
<linearGradient id="paint5_linear_109_66" x1="310.263" y1="246.975" x2="146.236" y2="279.079" gradientUnits="userSpaceOnUse">
<stop stop-color="#4F6FCE"/>
<stop offset="1" stop-color="#3B3B5D"/>
</linearGradient>
<linearGradient id="paint6_linear_109_66" x1="409.559" y1="-57.1106" x2="192.61" y2="4.67773" gradientUnits="userSpaceOnUse">
<stop stop-color="#C0E1FF"/>
<stop offset="1" stop-color="white"/>
</linearGradient>
<linearGradient id="paint7_linear_109_66" x1="445.98" y1="-20.3829" x2="185.368" y2="2.54151" gradientUnits="userSpaceOnUse">
<stop stop-color="#4F6FCE"/>
<stop offset="1" stop-color="#3B3B5D"/>
</linearGradient>
<linearGradient id="paint8_linear_109_66" x1="433.647" y1="206.786" x2="439.171" y2="217.611" gradientUnits="userSpaceOnUse">
<stop stop-color="#FB6464"/>
<stop offset="1" stop-color="#FA4E40"/>
</linearGradient>
<linearGradient id="paint9_linear_109_66" x1="197.876" y1="224.953" x2="247.334" y2="248.663" gradientUnits="userSpaceOnUse">
<stop stop-color="#15539E"/>
<stop offset="1" stop-color="#092965"/>
</linearGradient>
<linearGradient id="paint10_linear_109_66" x1="240.724" y1="193.278" x2="231.003" y2="159.764" gradientUnits="userSpaceOnUse">
<stop stop-color="#15539E"/>
<stop offset="1" stop-color="#092965"/>
</linearGradient>
<linearGradient id="paint11_linear_109_66" x1="226.512" y1="154.429" x2="222.872" y2="148.339" gradientUnits="userSpaceOnUse">
<stop stop-color="#BED4EB"/>
<stop offset="1" stop-color="#0041AE"/>
</linearGradient>
<linearGradient id="paint12_linear_109_66" x1="223.952" y1="209.874" x2="203.493" y2="196.985" gradientUnits="userSpaceOnUse">
<stop stop-color="#1B4A7A"/>
<stop offset="1" stop-color="#0041AE"/>
</linearGradient>
<linearGradient id="paint13_linear_109_66" x1="222.246" y1="143.703" x2="221.107" y2="145.815" gradientUnits="userSpaceOnUse">
<stop stop-color="#F3A6A6"/>
<stop offset="1" stop-color="#FCCBCB"/>
</linearGradient>
<linearGradient id="paint14_linear_109_66" x1="233.565" y1="153.396" x2="230.067" y2="186.625" gradientUnits="userSpaceOnUse">
<stop stop-color="#15539E"/>
<stop offset="1" stop-color="#092965"/>
</linearGradient>
<linearGradient id="paint15_linear_109_66" x1="216.447" y1="159.867" x2="210.92" y2="152.432" gradientUnits="userSpaceOnUse">
<stop stop-color="#BED4EB"/>
<stop offset="1" stop-color="#CEDBF0"/>
</linearGradient>
<linearGradient id="paint16_linear_109_66" x1="227.591" y1="143.399" x2="223.135" y2="185.731" gradientUnits="userSpaceOnUse">
<stop stop-color="#15539E"/>
<stop offset="1" stop-color="#092965"/>
</linearGradient>
<linearGradient id="paint17_linear_109_66" x1="238.883" y1="142.604" x2="234.533" y2="183.926" gradientUnits="userSpaceOnUse">
<stop stop-color="#15539E"/>
<stop offset="1" stop-color="#092965"/>
</linearGradient>
<linearGradient id="paint18_linear_109_66" x1="222.359" y1="132.988" x2="229.18" y2="144.227" gradientUnits="userSpaceOnUse">
<stop stop-color="#FCCBCB"/>
<stop offset="1" stop-color="#E77575"/>
</linearGradient>
<linearGradient id="paint19_linear_109_66" x1="219.635" y1="127.837" x2="220.364" y2="135.747" gradientUnits="userSpaceOnUse">
<stop stop-color="#0C3564"/>
<stop offset="1" stop-color="#BFA5B1"/>
</linearGradient>
<linearGradient id="paint20_linear_109_66" x1="215.122" y1="134.587" x2="213.434" y2="134.327" gradientUnits="userSpaceOnUse">
<stop stop-color="#FCCBCB"/>
<stop offset="1" stop-color="#E77575"/>
</linearGradient>
<linearGradient id="paint21_linear_109_66" x1="239.273" y1="205.01" x2="239.818" y2="207.132" gradientUnits="userSpaceOnUse">
<stop stop-color="#F3A6A6"/>
<stop offset="1" stop-color="#FCCBCB"/>
</linearGradient>
<linearGradient id="paint22_linear_109_66" x1="223.436" y1="204.36" x2="235.228" y2="171.613" gradientUnits="userSpaceOnUse">
<stop stop-color="#15539E"/>
<stop offset="1" stop-color="#092965"/>
</linearGradient>
<linearGradient id="paint23_linear_109_66" x1="324.336" y1="200.629" x2="325.562" y2="200.576" gradientUnits="userSpaceOnUse">
<stop stop-color="#F8A29B"/>
<stop offset="1" stop-color="#C47770"/>
</linearGradient>
<linearGradient id="paint24_linear_109_66" x1="345.487" y1="236.651" x2="343.013" y2="283.785" gradientUnits="userSpaceOnUse">
<stop stop-color="#8EBBFF"/>
<stop offset="1" stop-color="#5586FF"/>
</linearGradient>
<linearGradient id="paint25_linear_109_66" x1="341.116" y1="210.863" x2="339.458" y2="242.456" gradientUnits="userSpaceOnUse">
<stop stop-color="white"/>
<stop offset="1" stop-color="#F0F0F0"/>
</linearGradient>
<linearGradient id="paint26_linear_109_66" x1="211.584" y1="305.462" x2="103.274" y2="324.659" gradientUnits="userSpaceOnUse">
<stop stop-color="#4F6FCE"/>
<stop offset="1" stop-color="#3B3B5D"/>
</linearGradient>
</defs>
</svg>
