<svg width="511" height="467" viewBox="0 0 511 467" fill="none" xmlns="http://www.w3.org/2000/svg">
<rect width="511" height="467" rx="40" fill="white"/>
<path d="M198.474 313.556V316.57H194.382V329H190.62V316.57H186.528V313.556H198.474ZM210.108 316.592C211.516 316.592 212.645 317.061 213.496 318C214.347 318.924 214.772 320.2 214.772 321.828V329H211.032V322.334C211.032 321.513 210.819 320.875 210.394 320.42C209.969 319.965 209.397 319.738 208.678 319.738C207.959 319.738 207.387 319.965 206.962 320.42C206.537 320.875 206.324 321.513 206.324 322.334V329H202.562V312.72H206.324V318.374C206.705 317.831 207.226 317.399 207.886 317.076C208.546 316.753 209.287 316.592 210.108 316.592ZM218.838 322.84C218.838 321.579 219.073 320.471 219.542 319.518C220.026 318.565 220.679 317.831 221.5 317.318C222.322 316.805 223.238 316.548 224.25 316.548C225.116 316.548 225.871 316.724 226.516 317.076C227.176 317.428 227.682 317.89 228.034 318.462V316.724H231.796V329H228.034V327.262C227.668 327.834 227.154 328.296 226.494 328.648C225.849 329 225.094 329.176 224.228 329.176C223.231 329.176 222.322 328.919 221.5 328.406C220.679 327.878 220.026 327.137 219.542 326.184C219.073 325.216 218.838 324.101 218.838 322.84ZM228.034 322.862C228.034 321.923 227.77 321.183 227.242 320.64C226.729 320.097 226.098 319.826 225.35 319.826C224.602 319.826 223.964 320.097 223.436 320.64C222.923 321.168 222.666 321.901 222.666 322.84C222.666 323.779 222.923 324.527 223.436 325.084C223.964 325.627 224.602 325.898 225.35 325.898C226.098 325.898 226.729 325.627 227.242 325.084C227.77 324.541 228.034 323.801 228.034 322.862ZM244.198 316.592C245.635 316.592 246.779 317.061 247.63 318C248.495 318.924 248.928 320.2 248.928 321.828V329H245.188V322.334C245.188 321.513 244.975 320.875 244.55 320.42C244.125 319.965 243.553 319.738 242.834 319.738C242.115 319.738 241.543 319.965 241.118 320.42C240.693 320.875 240.48 321.513 240.48 322.334V329H236.718V316.724H240.48V318.352C240.861 317.809 241.375 317.384 242.02 317.076C242.665 316.753 243.391 316.592 244.198 316.592ZM261.244 329L257.504 323.852V329H253.742V312.72H257.504V321.718L261.222 316.724H265.864L260.76 322.884L265.908 329H261.244ZM289.648 313.556L284.302 323.896V329H280.54V323.896L275.194 313.556H279.462L282.454 320.024L285.424 313.556H289.648ZM298.952 329.176C297.749 329.176 296.664 328.919 295.696 328.406C294.742 327.893 293.987 327.159 293.43 326.206C292.887 325.253 292.616 324.138 292.616 322.862C292.616 321.601 292.894 320.493 293.452 319.54C294.009 318.572 294.772 317.831 295.74 317.318C296.708 316.805 297.793 316.548 298.996 316.548C300.198 316.548 301.284 316.805 302.252 317.318C303.22 317.831 303.982 318.572 304.54 319.54C305.097 320.493 305.376 321.601 305.376 322.862C305.376 324.123 305.09 325.238 304.518 326.206C303.96 327.159 303.19 327.893 302.208 328.406C301.24 328.919 300.154 329.176 298.952 329.176ZM298.952 325.92C299.67 325.92 300.279 325.656 300.778 325.128C301.291 324.6 301.548 323.845 301.548 322.862C301.548 321.879 301.298 321.124 300.8 320.596C300.316 320.068 299.714 319.804 298.996 319.804C298.262 319.804 297.654 320.068 297.17 320.596C296.686 321.109 296.444 321.865 296.444 322.862C296.444 323.845 296.678 324.6 297.148 325.128C297.632 325.656 298.233 325.92 298.952 325.92ZM321.693 316.724V329H317.931V327.328C317.55 327.871 317.029 328.311 316.369 328.648C315.724 328.971 315.005 329.132 314.213 329.132C313.275 329.132 312.446 328.927 311.727 328.516C311.009 328.091 310.451 327.482 310.055 326.69C309.659 325.898 309.461 324.967 309.461 323.896V316.724H313.201V323.39C313.201 324.211 313.414 324.849 313.839 325.304C314.265 325.759 314.837 325.986 315.555 325.986C316.289 325.986 316.868 325.759 317.293 325.304C317.719 324.849 317.931 324.211 317.931 323.39V316.724H321.693Z" fill="#10C400"/>
<path d="M135.62 353.49L131.48 361.464V366H129.428V361.464L125.27 353.49H127.556L130.454 359.628L133.352 353.49H135.62ZM141.55 366.162C140.614 366.162 139.768 365.952 139.012 365.532C138.256 365.1 137.662 364.5 137.23 363.732C136.798 362.952 136.582 362.052 136.582 361.032C136.582 360.024 136.804 359.13 137.248 358.35C137.692 357.57 138.298 356.97 139.066 356.55C139.834 356.13 140.692 355.92 141.64 355.92C142.588 355.92 143.446 356.13 144.214 356.55C144.982 356.97 145.588 357.57 146.032 358.35C146.476 359.13 146.698 360.024 146.698 361.032C146.698 362.04 146.47 362.934 146.014 363.714C145.558 364.494 144.934 365.1 144.142 365.532C143.362 365.952 142.498 366.162 141.55 366.162ZM141.55 364.38C142.078 364.38 142.57 364.254 143.026 364.002C143.494 363.75 143.872 363.372 144.16 362.868C144.448 362.364 144.592 361.752 144.592 361.032C144.592 360.312 144.454 359.706 144.178 359.214C143.902 358.71 143.536 358.332 143.08 358.08C142.624 357.828 142.132 357.702 141.604 357.702C141.076 357.702 140.584 357.828 140.128 358.08C139.684 358.332 139.33 358.71 139.066 359.214C138.802 359.706 138.67 360.312 138.67 361.032C138.67 362.1 138.94 362.928 139.48 363.516C140.032 364.092 140.722 364.38 141.55 364.38ZM157.709 356.082V366H155.657V364.83C155.333 365.238 154.907 365.562 154.379 365.802C153.863 366.03 153.311 366.144 152.723 366.144C151.943 366.144 151.241 365.982 150.617 365.658C150.005 365.334 149.519 364.854 149.159 364.218C148.811 363.582 148.637 362.814 148.637 361.914V356.082H150.671V361.608C150.671 362.496 150.893 363.18 151.337 363.66C151.781 364.128 152.387 364.362 153.155 364.362C153.923 364.362 154.529 364.128 154.973 363.66C155.429 363.18 155.657 362.496 155.657 361.608V356.082H157.709ZM178.412 356.082L175.334 366H173.174L171.176 358.674L169.178 366H167.018L163.922 356.082H166.01L168.08 364.056L170.186 356.082H172.328L174.344 364.02L176.396 356.082H178.412ZM180.99 354.768C180.618 354.768 180.306 354.642 180.054 354.39C179.802 354.138 179.676 353.826 179.676 353.454C179.676 353.082 179.802 352.77 180.054 352.518C180.306 352.266 180.618 352.14 180.99 352.14C181.35 352.14 181.656 352.266 181.908 352.518C182.16 352.77 182.286 353.082 182.286 353.454C182.286 353.826 182.16 354.138 181.908 354.39C181.656 354.642 181.35 354.768 180.99 354.768ZM181.998 356.082V366H179.946V356.082H181.998ZM186.744 352.68V366H184.692V352.68H186.744ZM191.49 352.68V366H189.438V352.68H191.49ZM200.912 357.558C201.26 357.078 201.734 356.688 202.334 356.388C202.946 356.076 203.624 355.92 204.368 355.92C205.244 355.92 206.036 356.13 206.744 356.55C207.452 356.97 208.01 357.57 208.418 358.35C208.826 359.118 209.03 360 209.03 360.996C209.03 361.992 208.826 362.886 208.418 363.678C208.01 364.458 207.446 365.07 206.726 365.514C206.018 365.946 205.232 366.162 204.368 366.162C203.6 366.162 202.916 366.012 202.316 365.712C201.728 365.412 201.26 365.028 200.912 364.56V366H198.86V352.68H200.912V357.558ZM206.942 360.996C206.942 360.312 206.798 359.724 206.51 359.232C206.234 358.728 205.862 358.35 205.394 358.098C204.938 357.834 204.446 357.702 203.918 357.702C203.402 357.702 202.91 357.834 202.442 358.098C201.986 358.362 201.614 358.746 201.326 359.25C201.05 359.754 200.912 360.348 200.912 361.032C200.912 361.716 201.05 362.316 201.326 362.832C201.614 363.336 201.986 363.72 202.442 363.984C202.91 364.248 203.402 364.38 203.918 364.38C204.446 364.38 204.938 364.248 205.394 363.984C205.862 363.708 206.234 363.312 206.51 362.796C206.798 362.28 206.942 361.68 206.942 360.996ZM220.149 360.798C220.149 361.17 220.125 361.506 220.077 361.806H212.499C212.559 362.598 212.853 363.234 213.381 363.714C213.909 364.194 214.557 364.434 215.325 364.434C216.429 364.434 217.209 363.972 217.665 363.048H219.879C219.579 363.96 219.033 364.71 218.241 365.298C217.461 365.874 216.489 366.162 215.325 366.162C214.377 366.162 213.525 365.952 212.769 365.532C212.025 365.1 211.437 364.5 211.005 363.732C210.585 362.952 210.375 362.052 210.375 361.032C210.375 360.012 210.579 359.118 210.987 358.35C211.407 357.57 211.989 356.97 212.733 356.55C213.489 356.13 214.353 355.92 215.325 355.92C216.261 355.92 217.095 356.124 217.827 356.532C218.559 356.94 219.129 357.516 219.537 358.26C219.945 358.992 220.149 359.838 220.149 360.798ZM218.007 360.15C217.995 359.394 217.725 358.788 217.197 358.332C216.669 357.876 216.015 357.648 215.235 357.648C214.527 357.648 213.921 357.876 213.417 358.332C212.913 358.776 212.613 359.382 212.517 360.15H218.007ZM226.16 361.032C226.16 360.012 226.364 359.118 226.772 358.35C227.192 357.57 227.768 356.97 228.5 356.55C229.232 356.13 230.072 355.92 231.02 355.92C232.22 355.92 233.21 356.208 233.99 356.784C234.782 357.348 235.316 358.158 235.592 359.214H233.378C233.198 358.722 232.91 358.338 232.514 358.062C232.118 357.786 231.62 357.648 231.02 357.648C230.18 357.648 229.508 357.948 229.004 358.548C228.512 359.136 228.266 359.964 228.266 361.032C228.266 362.1 228.512 362.934 229.004 363.534C229.508 364.134 230.18 364.434 231.02 364.434C232.208 364.434 232.994 363.912 233.378 362.868H235.592C235.304 363.876 234.764 364.68 233.972 365.28C233.18 365.868 232.196 366.162 231.02 366.162C230.072 366.162 229.232 365.952 228.5 365.532C227.768 365.1 227.192 364.5 226.772 363.732C226.364 362.952 226.16 362.052 226.16 361.032ZM241.939 366.162C241.003 366.162 240.157 365.952 239.401 365.532C238.645 365.1 238.051 364.5 237.619 363.732C237.187 362.952 236.971 362.052 236.971 361.032C236.971 360.024 237.193 359.13 237.637 358.35C238.081 357.57 238.687 356.97 239.455 356.55C240.223 356.13 241.081 355.92 242.029 355.92C242.977 355.92 243.835 356.13 244.603 356.55C245.371 356.97 245.977 357.57 246.421 358.35C246.865 359.13 247.087 360.024 247.087 361.032C247.087 362.04 246.859 362.934 246.403 363.714C245.947 364.494 245.323 365.1 244.531 365.532C243.751 365.952 242.887 366.162 241.939 366.162ZM241.939 364.38C242.467 364.38 242.959 364.254 243.415 364.002C243.883 363.75 244.261 363.372 244.549 362.868C244.837 362.364 244.981 361.752 244.981 361.032C244.981 360.312 244.843 359.706 244.567 359.214C244.291 358.71 243.925 358.332 243.469 358.08C243.013 357.828 242.521 357.702 241.993 357.702C241.465 357.702 240.973 357.828 240.517 358.08C240.073 358.332 239.719 358.71 239.455 359.214C239.191 359.706 239.059 360.312 239.059 361.032C239.059 362.1 239.329 362.928 239.869 363.516C240.421 364.092 241.111 364.38 241.939 364.38ZM254.12 355.92C254.9 355.92 255.596 356.082 256.208 356.406C256.832 356.73 257.318 357.21 257.666 357.846C258.014 358.482 258.188 359.25 258.188 360.15V366H256.154V360.456C256.154 359.568 255.932 358.89 255.488 358.422C255.044 357.942 254.438 357.702 253.67 357.702C252.902 357.702 252.29 357.942 251.834 358.422C251.39 358.89 251.168 359.568 251.168 360.456V366H249.116V356.082H251.168V357.216C251.504 356.808 251.93 356.49 252.446 356.262C252.974 356.034 253.532 355.92 254.12 355.92ZM263.199 357.756V363.246C263.199 363.618 263.283 363.888 263.451 364.056C263.631 364.212 263.931 364.29 264.351 364.29H265.611V366H263.991C263.067 366 262.359 365.784 261.867 365.352C261.375 364.92 261.129 364.218 261.129 363.246V357.756H259.959V356.082H261.129V353.616H263.199V356.082H265.611V357.756H263.199ZM266.818 360.996C266.818 360 267.022 359.118 267.43 358.35C267.85 357.582 268.414 356.988 269.122 356.568C269.842 356.136 270.634 355.92 271.498 355.92C272.278 355.92 272.956 356.076 273.532 356.388C274.12 356.688 274.588 357.066 274.936 357.522V356.082H277.006V366H274.936V364.524C274.588 364.992 274.114 365.382 273.514 365.694C272.914 366.006 272.23 366.162 271.462 366.162C270.61 366.162 269.83 365.946 269.122 365.514C268.414 365.07 267.85 364.458 267.43 363.678C267.022 362.886 266.818 361.992 266.818 360.996ZM274.936 361.032C274.936 360.348 274.792 359.754 274.504 359.25C274.228 358.746 273.862 358.362 273.406 358.098C272.95 357.834 272.458 357.702 271.93 357.702C271.402 357.702 270.91 357.834 270.454 358.098C269.998 358.35 269.626 358.728 269.338 359.232C269.062 359.724 268.924 360.312 268.924 360.996C268.924 361.68 269.062 362.28 269.338 362.796C269.626 363.312 269.998 363.708 270.454 363.984C270.922 364.248 271.414 364.38 271.93 364.38C272.458 364.38 272.95 364.248 273.406 363.984C273.862 363.72 274.228 363.336 274.504 362.832C274.792 362.316 274.936 361.716 274.936 361.032ZM279.018 361.032C279.018 360.012 279.222 359.118 279.63 358.35C280.05 357.57 280.626 356.97 281.358 356.55C282.09 356.13 282.93 355.92 283.878 355.92C285.078 355.92 286.068 356.208 286.848 356.784C287.64 357.348 288.174 358.158 288.45 359.214H286.236C286.056 358.722 285.768 358.338 285.372 358.062C284.976 357.786 284.478 357.648 283.878 357.648C283.038 357.648 282.366 357.948 281.862 358.548C281.37 359.136 281.124 359.964 281.124 361.032C281.124 362.1 281.37 362.934 281.862 363.534C282.366 364.134 283.038 364.434 283.878 364.434C285.066 364.434 285.852 363.912 286.236 362.868H288.45C288.162 363.876 287.622 364.68 286.83 365.28C286.038 365.868 285.054 366.162 283.878 366.162C282.93 366.162 282.09 365.952 281.358 365.532C280.626 365.1 280.05 364.5 279.63 363.732C279.222 362.952 279.018 362.052 279.018 361.032ZM292.889 357.756V363.246C292.889 363.618 292.973 363.888 293.141 364.056C293.321 364.212 293.621 364.29 294.041 364.29H295.301V366H293.681C292.757 366 292.049 365.784 291.557 365.352C291.065 364.92 290.819 364.218 290.819 363.246V357.756H289.649V356.082H290.819V353.616H292.889V356.082H295.301V357.756H292.889ZM306.282 360.798C306.282 361.17 306.258 361.506 306.21 361.806H298.632C298.692 362.598 298.986 363.234 299.514 363.714C300.042 364.194 300.69 364.434 301.458 364.434C302.562 364.434 303.342 363.972 303.798 363.048H306.012C305.712 363.96 305.166 364.71 304.374 365.298C303.594 365.874 302.622 366.162 301.458 366.162C300.51 366.162 299.658 365.952 298.902 365.532C298.158 365.1 297.57 364.5 297.138 363.732C296.718 362.952 296.508 362.052 296.508 361.032C296.508 360.012 296.712 359.118 297.12 358.35C297.54 357.57 298.122 356.97 298.866 356.55C299.622 356.13 300.486 355.92 301.458 355.92C302.394 355.92 303.228 356.124 303.96 356.532C304.692 356.94 305.262 357.516 305.67 358.26C306.078 358.992 306.282 359.838 306.282 360.798ZM304.14 360.15C304.128 359.394 303.858 358.788 303.33 358.332C302.802 357.876 302.148 357.648 301.368 357.648C300.66 357.648 300.054 357.876 299.55 358.332C299.046 358.776 298.746 359.382 298.65 360.15H304.14ZM307.617 360.996C307.617 360 307.821 359.118 308.229 358.35C308.649 357.582 309.213 356.988 309.921 356.568C310.641 356.136 311.439 355.92 312.315 355.92C312.963 355.92 313.599 356.064 314.223 356.352C314.859 356.628 315.363 357 315.735 357.468V352.68H317.805V366H315.735V364.506C315.399 364.986 314.931 365.382 314.331 365.694C313.743 366.006 313.065 366.162 312.297 366.162C311.433 366.162 310.641 365.946 309.921 365.514C309.213 365.07 308.649 364.458 308.229 363.678C307.821 362.886 307.617 361.992 307.617 360.996ZM315.735 361.032C315.735 360.348 315.591 359.754 315.303 359.25C315.027 358.746 314.661 358.362 314.205 358.098C313.749 357.834 313.257 357.702 312.729 357.702C312.201 357.702 311.709 357.834 311.253 358.098C310.797 358.35 310.425 358.728 310.137 359.232C309.861 359.724 309.723 360.312 309.723 360.996C309.723 361.68 309.861 362.28 310.137 362.796C310.425 363.312 310.797 363.708 311.253 363.984C311.721 364.248 312.213 364.38 312.729 364.38C313.257 364.38 313.749 364.248 314.205 363.984C314.661 363.72 315.027 363.336 315.303 362.832C315.591 362.316 315.735 361.716 315.735 361.032ZM328.776 366.162C327.996 366.162 327.294 366.024 326.67 365.748C326.058 365.46 325.572 365.076 325.212 364.596C324.852 364.104 324.66 363.558 324.636 362.958H326.76C326.796 363.378 326.994 363.732 327.354 364.02C327.726 364.296 328.188 364.434 328.74 364.434C329.316 364.434 329.76 364.326 330.072 364.11C330.396 363.882 330.558 363.594 330.558 363.246C330.558 362.874 330.378 362.598 330.018 362.418C329.67 362.238 329.112 362.04 328.344 361.824C327.6 361.62 326.994 361.422 326.526 361.23C326.058 361.038 325.65 360.744 325.302 360.348C324.966 359.952 324.798 359.43 324.798 358.782C324.798 358.254 324.954 357.774 325.266 357.342C325.578 356.898 326.022 356.55 326.598 356.298C327.186 356.046 327.858 355.92 328.614 355.92C329.742 355.92 330.648 356.208 331.332 356.784C332.028 357.348 332.4 358.122 332.448 359.106H330.396C330.36 358.662 330.18 358.308 329.856 358.044C329.532 357.78 329.094 357.648 328.542 357.648C328.002 357.648 327.588 357.75 327.3 357.954C327.012 358.158 326.868 358.428 326.868 358.764C326.868 359.028 326.964 359.25 327.156 359.43C327.348 359.61 327.582 359.754 327.858 359.862C328.134 359.958 328.542 360.084 329.082 360.24C329.802 360.432 330.39 360.63 330.846 360.834C331.314 361.026 331.716 361.314 332.052 361.698C332.388 362.082 332.562 362.592 332.574 363.228C332.574 363.792 332.418 364.296 332.106 364.74C331.794 365.184 331.35 365.532 330.774 365.784C330.21 366.036 329.544 366.162 328.776 366.162ZM339.921 355.92C340.677 355.92 341.349 356.082 341.937 356.406C342.537 356.73 343.005 357.21 343.341 357.846C343.689 358.482 343.863 359.25 343.863 360.15V366H341.829V360.456C341.829 359.568 341.607 358.89 341.163 358.422C340.719 357.942 340.113 357.702 339.345 357.702C338.577 357.702 337.965 357.942 337.509 358.422C337.065 358.89 336.843 359.568 336.843 360.456V366H334.791V352.68H336.843V357.234C337.191 356.814 337.629 356.49 338.157 356.262C338.697 356.034 339.285 355.92 339.921 355.92ZM350.783 366.162C349.847 366.162 349.001 365.952 348.245 365.532C347.489 365.1 346.895 364.5 346.463 363.732C346.031 362.952 345.815 362.052 345.815 361.032C345.815 360.024 346.037 359.13 346.481 358.35C346.925 357.57 347.531 356.97 348.299 356.55C349.067 356.13 349.925 355.92 350.873 355.92C351.821 355.92 352.679 356.13 353.447 356.55C354.215 356.97 354.821 357.57 355.265 358.35C355.709 359.13 355.931 360.024 355.931 361.032C355.931 362.04 355.703 362.934 355.247 363.714C354.791 364.494 354.167 365.1 353.375 365.532C352.595 365.952 351.731 366.162 350.783 366.162ZM350.783 364.38C351.311 364.38 351.803 364.254 352.259 364.002C352.727 363.75 353.105 363.372 353.393 362.868C353.681 362.364 353.825 361.752 353.825 361.032C353.825 360.312 353.687 359.706 353.411 359.214C353.135 358.71 352.769 358.332 352.313 358.08C351.857 357.828 351.365 357.702 350.837 357.702C350.309 357.702 349.817 357.828 349.361 358.08C348.917 358.332 348.563 358.71 348.299 359.214C348.035 359.706 347.903 360.312 347.903 361.032C347.903 362.1 348.173 362.928 348.713 363.516C349.265 364.092 349.955 364.38 350.783 364.38ZM360.011 357.522C360.311 357.018 360.707 356.628 361.199 356.352C361.703 356.064 362.297 355.92 362.981 355.92V358.044H362.459C361.655 358.044 361.043 358.248 360.623 358.656C360.215 359.064 360.011 359.772 360.011 360.78V366H357.959V356.082H360.011V357.522ZM367.262 357.756V363.246C367.262 363.618 367.346 363.888 367.514 364.056C367.694 364.212 367.994 364.29 368.414 364.29H369.674V366H368.054C367.13 366 366.422 365.784 365.93 365.352C365.438 364.92 365.192 364.218 365.192 363.246V357.756H364.022V356.082H365.192V353.616H367.262V356.082H369.674V357.756H367.262ZM373.617 352.68V366H371.565V352.68H373.617ZM385.239 356.082L379.155 370.662H377.031L379.047 365.838L375.141 356.082H377.427L380.217 363.642L383.115 356.082H385.239Z" fill="#10C400"/>
<g style="mix-blend-mode:multiply" opacity="0.4">
<g style="mix-blend-mode:multiply" opacity="0.4">
<path d="M332.366 177.71C332.366 226.43 292.88 265.917 244.206 265.917C195.486 265.917 156 226.43 156 177.71C156 128.99 195.486 89.504 244.206 89.504C292.88 89.504 332.366 128.99 332.366 177.71Z" fill="#9CDE69"/>
</g>
<g style="mix-blend-mode:multiply" opacity="0.4">
<path d="M334.083 175.994C334.083 224.714 294.597 264.2 245.923 264.2C197.203 264.2 157.717 224.714 157.717 175.994C157.717 127.274 197.203 87.7872 245.923 87.7872C294.597 87.7872 334.083 127.274 334.083 175.994Z" fill="#96DC61"/>
</g>
<g style="mix-blend-mode:multiply" opacity="0.4">
<path d="M335.8 174.277C335.8 222.997 296.314 262.483 247.64 262.483C198.92 262.483 159.434 222.997 159.434 174.277C159.434 125.557 198.92 86.0704 247.64 86.0704C296.314 86.0704 335.8 125.557 335.8 174.277Z" fill="#91DA59"/>
</g>
<g style="mix-blend-mode:multiply" opacity="0.4">
<path d="M337.517 172.56C337.517 221.28 298.03 260.766 249.357 260.766C200.637 260.766 161.15 221.28 161.15 172.56C161.15 123.84 200.637 84.3536 249.357 84.3536C298.03 84.3536 337.517 123.84 337.517 172.56Z" fill="#8CD951"/>
</g>
<g style="mix-blend-mode:multiply" opacity="0.4">
<path d="M339.234 170.843C339.234 219.563 299.747 259.05 251.074 259.05C202.354 259.05 162.867 219.563 162.867 170.843C162.867 122.123 202.354 82.6368 251.074 82.6368C299.747 82.6368 339.234 122.123 339.234 170.843Z" fill="#87D749"/>
</g>
<g style="mix-blend-mode:multiply" opacity="0.4">
<path d="M340.95 169.126C340.95 217.846 301.464 257.333 252.744 257.333C204.07 257.333 164.584 217.846 164.584 169.126C164.584 120.406 204.07 80.9665 252.744 80.9665C301.464 80.9665 340.95 120.406 340.95 169.126Z" fill="#82D541"/>
</g>
<g style="mix-blend-mode:multiply" opacity="0.4">
<path d="M342.667 167.41C342.667 216.13 303.181 255.616 254.461 255.616C205.787 255.616 166.301 216.13 166.301 167.41C166.301 118.736 205.787 79.2496 254.461 79.2496C303.181 79.2496 342.667 118.736 342.667 167.41Z" fill="#7CD339"/>
</g>
<g style="mix-blend-mode:multiply" opacity="0.4">
<path d="M344.384 165.693C344.384 214.413 304.898 253.899 256.178 253.899C207.504 253.899 168.018 214.413 168.018 165.693C168.018 117.019 207.504 77.5328 256.178 77.5328C304.898 77.5328 344.384 117.019 344.384 165.693Z" fill="#77D232"/>
</g>
<g style="mix-blend-mode:multiply" opacity="0.4">
<path d="M346.101 163.976C346.101 212.696 306.614 252.182 257.894 252.182C209.221 252.182 169.734 212.696 169.734 163.976C169.734 115.302 209.221 75.816 257.894 75.816C306.614 75.816 346.101 115.302 346.101 163.976Z" fill="#72D02A"/>
</g>
<g style="mix-blend-mode:multiply" opacity="0.4">
<path d="M347.818 162.259C347.818 210.979 308.331 250.466 259.611 250.466C210.938 250.466 171.451 210.979 171.451 162.259C171.451 113.586 210.938 74.0992 259.611 74.0992C308.331 74.0992 347.818 113.586 347.818 162.259Z" fill="#6DCE22"/>
</g>
<g style="mix-blend-mode:multiply" opacity="0.4">
<path d="M349.534 160.542C349.534 209.262 310.048 248.749 261.328 248.749C212.608 248.749 173.168 209.262 173.168 160.542C173.168 111.869 212.608 72.3824 261.328 72.3824C310.048 72.3824 349.534 111.869 349.534 160.542Z" fill="#67CC1A"/>
</g>
<g style="mix-blend-mode:multiply" opacity="0.4">
<path d="M351.252 158.872C351.252 207.546 311.765 247.032 263.045 247.032C214.325 247.032 174.839 207.546 174.839 158.872C174.839 110.152 214.325 70.6656 263.045 70.6656C311.765 70.6656 351.252 110.152 351.252 158.872Z" fill="#62CB12"/>
</g>
<g style="mix-blend-mode:multiply" opacity="0.4">
<path d="M352.968 157.155C352.968 205.829 313.482 245.315 264.762 245.315C216.042 245.315 176.556 205.829 176.556 157.155C176.556 108.435 216.042 68.9489 264.762 68.9489C313.482 68.9489 352.968 108.435 352.968 157.155Z" fill="#5DC90A"/>
</g>
</g>
<path d="M352.968 157.155C352.968 205.829 313.482 245.315 264.762 245.315C216.042 245.315 176.556 205.829 176.556 157.155C176.556 108.435 216.042 68.9489 264.762 68.9489C313.482 68.9489 352.968 108.435 352.968 157.155Z" fill="#5DC90A"/>
<path fill-rule="evenodd" clip-rule="evenodd" d="M264.762 247.171C215.114 247.171 174.699 206.803 174.699 157.155C174.699 107.507 215.114 67.0928 264.762 67.0928C314.41 67.0928 354.824 107.507 354.824 157.155C354.824 206.803 314.41 247.171 264.762 247.171ZM264.762 70.8048C217.155 70.8048 178.411 109.549 178.411 157.155C178.411 204.762 217.155 243.459 264.762 243.459C312.368 243.459 351.112 204.762 351.112 157.155C351.112 109.549 312.368 70.8048 264.762 70.8048Z" fill="white"/>
<path d="M255.714 255.755C213.722 255.755 176.88 226.013 168.11 184.995C167.971 184.206 168.435 183.464 169.178 183.325C169.92 183.186 170.662 183.65 170.848 184.392C179.339 224.157 215.021 252.971 255.714 252.971C264.901 252.971 273.949 251.533 282.626 248.749C283.368 248.517 284.11 248.888 284.389 249.63C284.621 250.373 284.203 251.162 283.461 251.394C274.552 254.27 265.226 255.755 255.714 255.755ZM314.781 233.066C314.41 233.066 313.992 232.926 313.714 232.602C313.203 232.045 313.25 231.163 313.853 230.653C332.042 214.227 342.528 190.702 342.528 166.203V165.832C342.528 165.043 343.131 164.44 343.92 164.44C344.662 164.44 345.312 165.043 345.312 165.786V166.203C345.312 191.491 334.501 215.758 315.709 232.741C315.43 232.973 315.106 233.066 314.781 233.066ZM167.507 167.642C166.765 167.642 166.115 167.131 166.115 166.342V166.203C166.115 140.915 176.88 116.741 195.579 99.7584C196.182 99.248 197.064 99.2944 197.574 99.8512C198.085 100.454 198.038 101.336 197.482 101.846C179.339 118.272 168.899 141.704 168.899 166.203C168.899 166.946 168.296 167.642 167.507 167.642ZM341.925 148.896C341.275 148.896 340.718 148.432 340.579 147.782C331.995 108.157 296.314 79.3888 255.714 79.3888C246.48 79.3888 237.339 80.8272 228.662 83.704C227.92 83.936 227.131 83.5184 226.899 82.776C226.667 82.08 227.038 81.2912 227.781 81.0592C236.782 78.0896 246.155 76.6048 255.714 76.6048C297.613 76.6048 334.454 106.301 343.27 147.226C343.456 147.968 342.992 148.71 342.203 148.85C342.11 148.881 342.018 148.896 341.925 148.896Z" fill="black"/>
<path d="M246.341 204.808L208.757 167.224L222.306 153.722L246.341 177.757L307.125 117.019L320.627 130.522L246.341 204.808Z" fill="white"/>
<path fill-rule="evenodd" clip-rule="evenodd" d="M246.341 208.01L205.556 167.224L222.306 150.52L246.341 174.555L307.125 113.771L323.829 130.522L246.341 208.01ZM211.959 167.224L246.341 201.606L317.426 130.522L307.125 120.221L246.341 180.958L222.306 156.923L211.959 167.224Z" fill="white"/>
</svg>
